<?xml version="1.0" encoding="utf-8" standalone="no"?>
<!DOCTYPE svg PUBLIC "-//W3C//DTD SVG 1.1//EN"
  "http://www.w3.org/Graphics/SVG/1.1/DTD/svg11.dtd">
<svg xmlns:xlink="http://www.w3.org/1999/xlink" width="712.299375pt" height="53.6349pt" viewBox="0 0 712.299375 53.6349" xmlns="http://www.w3.org/2000/svg" version="1.1">
 <metadata>
  <rdf:RDF xmlns:dc="http://purl.org/dc/elements/1.1/" xmlns:cc="http://creativecommons.org/ns#" xmlns:rdf="http://www.w3.org/1999/02/22-rdf-syntax-ns#">
   <cc:Work>
    <dc:type rdf:resource="http://purl.org/dc/dcmitype/StillImage"/>
    <dc:date>2024-08-04T14:13:00.025561</dc:date>
    <dc:format>image/svg+xml</dc:format>
    <dc:creator>
     <cc:Agent>
      <dc:title>Matplotlib v3.8.3, https://matplotlib.org/</dc:title>
     </cc:Agent>
    </dc:creator>
   </cc:Work>
  </rdf:RDF>
 </metadata>
 <defs>
  <style type="text/css">*{stroke-linejoin: round; stroke-linecap: butt}</style>
 </defs>
 <g id="figure_1">
  <g id="patch_1">
   <path d="M 0 53.6349 
L 712.299375 53.6349 
L 712.299375 0 
L 0 0 
z
" style="fill: #ffffff"/>
  </g>
  <g id="axes_1">
   <g id="patch_2">
    <path d="M 331.579687 44.484 
L 380.719687 44.484 
L 380.719687 7.2 
L 331.579687 7.2 
z
" style="fill: #ffffff"/>
   </g>
   <g id="PolyCollection_1"/>
   <g id="PolyCollection_2"/>
   <g id="PolyCollection_3"/>
   <g id="PolyCollection_4"/>
   <g id="PolyCollection_5"/>
   <g id="PolyCollection_6"/>
   <g id="PolyCollection_7"/>
   <g id="PolyCollection_8"/>
   <g id="line2d_1">
    <path d="M 333.813324 28.271133 
L 338.77696 28.242805 
L 343.740597 28.171984 
L 348.704233 28.058672 
L 353.667869 27.817883 
L 358.631506 27.35047 
L 363.595142 26.40148 
L 368.558778 24.489334 
L 373.522415 20.693372 
L 378.486051 13.087283 
" clip-path="url(#p35629917db)" style="fill: none; stroke: #1f77b4; stroke-width: 2.2; stroke-linecap: square"/>
    <defs>
     <path id="ma8e0d746a0" d="M 0 3 
C 0.795609 3 1.55874 2.683901 2.12132 2.12132 
C 2.683901 1.55874 3 0.795609 3 0 
C 3 -0.795609 2.683901 -1.55874 2.12132 -2.12132 
C 1.55874 -2.683901 0.795609 -3 0 -3 
C -0.795609 -3 -1.55874 -2.683901 -2.12132 -2.12132 
C -2.683901 -1.55874 -3 -0.795609 -3 0 
C -3 0.795609 -2.683901 1.55874 -2.12132 2.12132 
C -1.55874 2.683901 -0.795609 3 0 3 
z
" style="stroke: #ffffff; stroke-width: 0.75"/>
    </defs>
    <g clip-path="url(#p35629917db)">
     <use xlink:href="#ma8e0d746a0" x="333.813324" y="28.271133" style="fill: #1f77b4; stroke: #ffffff; stroke-width: 0.75"/>
     <use xlink:href="#ma8e0d746a0" x="338.77696" y="28.242805" style="fill: #1f77b4; stroke: #ffffff; stroke-width: 0.75"/>
     <use xlink:href="#ma8e0d746a0" x="343.740597" y="28.171984" style="fill: #1f77b4; stroke: #ffffff; stroke-width: 0.75"/>
     <use xlink:href="#ma8e0d746a0" x="348.704233" y="28.058672" style="fill: #1f77b4; stroke: #ffffff; stroke-width: 0.75"/>
     <use xlink:href="#ma8e0d746a0" x="353.667869" y="27.817883" style="fill: #1f77b4; stroke: #ffffff; stroke-width: 0.75"/>
     <use xlink:href="#ma8e0d746a0" x="358.631506" y="27.35047" style="fill: #1f77b4; stroke: #ffffff; stroke-width: 0.75"/>
     <use xlink:href="#ma8e0d746a0" x="363.595142" y="26.40148" style="fill: #1f77b4; stroke: #ffffff; stroke-width: 0.75"/>
     <use xlink:href="#ma8e0d746a0" x="368.558778" y="24.489334" style="fill: #1f77b4; stroke: #ffffff; stroke-width: 0.75"/>
     <use xlink:href="#ma8e0d746a0" x="373.522415" y="20.693372" style="fill: #1f77b4; stroke: #ffffff; stroke-width: 0.75"/>
     <use xlink:href="#ma8e0d746a0" x="378.486051" y="13.087283" style="fill: #1f77b4; stroke: #ffffff; stroke-width: 0.75"/>
    </g>
   </g>
   <g id="line2d_2">
    <path d="M 333.813324 36.613752 
L 338.77696 36.585424 
L 343.740597 36.528767 
L 348.704233 36.401291 
L 353.667869 36.160502 
L 358.631506 35.693089 
L 363.595142 34.744099 
L 368.558778 32.846117 
L 373.522415 29.035991 
L 378.486051 21.429902 
" clip-path="url(#p35629917db)" style="fill: none; stroke-dasharray: 8.14,3.52; stroke-dashoffset: 0; stroke: #62a0cb; stroke-width: 2.2"/>
    <defs>
     <path id="m4d61a7bdf6" d="M 0 3 
C 0.795609 3 1.55874 2.683901 2.12132 2.12132 
C 2.683901 1.55874 3 0.795609 3 0 
C 3 -0.795609 2.683901 -1.55874 2.12132 -2.12132 
C 1.55874 -2.683901 0.795609 -3 0 -3 
C -0.795609 -3 -1.55874 -2.683901 -2.12132 -2.12132 
C -2.683901 -1.55874 -3 -0.795609 -3 0 
C -3 0.795609 -2.683901 1.55874 -2.12132 2.12132 
C -1.55874 2.683901 -0.795609 3 0 3 
z
" style="stroke: #ffffff; stroke-width: 0.75"/>
    </defs>
    <g clip-path="url(#p35629917db)">
     <use xlink:href="#m4d61a7bdf6" x="333.813324" y="36.613752" style="fill: #62a0cb; stroke: #ffffff; stroke-width: 0.75"/>
     <use xlink:href="#m4d61a7bdf6" x="338.77696" y="36.585424" style="fill: #62a0cb; stroke: #ffffff; stroke-width: 0.75"/>
     <use xlink:href="#m4d61a7bdf6" x="343.740597" y="36.528767" style="fill: #62a0cb; stroke: #ffffff; stroke-width: 0.75"/>
     <use xlink:href="#m4d61a7bdf6" x="348.704233" y="36.401291" style="fill: #62a0cb; stroke: #ffffff; stroke-width: 0.75"/>
     <use xlink:href="#m4d61a7bdf6" x="353.667869" y="36.160502" style="fill: #62a0cb; stroke: #ffffff; stroke-width: 0.75"/>
     <use xlink:href="#m4d61a7bdf6" x="358.631506" y="35.693089" style="fill: #62a0cb; stroke: #ffffff; stroke-width: 0.75"/>
     <use xlink:href="#m4d61a7bdf6" x="363.595142" y="34.744099" style="fill: #62a0cb; stroke: #ffffff; stroke-width: 0.75"/>
     <use xlink:href="#m4d61a7bdf6" x="368.558778" y="32.846117" style="fill: #62a0cb; stroke: #ffffff; stroke-width: 0.75"/>
     <use xlink:href="#m4d61a7bdf6" x="373.522415" y="29.035991" style="fill: #62a0cb; stroke: #ffffff; stroke-width: 0.75"/>
     <use xlink:href="#m4d61a7bdf6" x="378.486051" y="21.429902" style="fill: #62a0cb; stroke: #ffffff; stroke-width: 0.75"/>
    </g>
   </g>
   <g id="line2d_3">
    <path d="M 333.813324 24.078577 
L 338.77696 24.050249 
L 343.740597 23.979429 
L 348.704233 23.866117 
L 353.667869 23.625328 
L 358.631506 23.157915 
L 363.595142 22.208924 
L 368.558778 20.296779 
L 373.522415 16.500816 
L 378.486051 8.894727 
" clip-path="url(#p35629917db)" style="fill: none; stroke: #ff7f0e; stroke-width: 2.2; stroke-linecap: square"/>
    <defs>
     <path id="m97cb8ef462" d="M 0 3 
C 0.795609 3 1.55874 2.683901 2.12132 2.12132 
C 2.683901 1.55874 3 0.795609 3 0 
C 3 -0.795609 2.683901 -1.55874 2.12132 -2.12132 
C 1.55874 -2.683901 0.795609 -3 0 -3 
C -0.795609 -3 -1.55874 -2.683901 -2.12132 -2.12132 
C -2.683901 -1.55874 -3 -0.795609 -3 0 
C -3 0.795609 -2.683901 1.55874 -2.12132 2.12132 
C -1.55874 2.683901 -0.795609 3 0 3 
z
" style="stroke: #ffffff; stroke-width: 0.75"/>
    </defs>
    <g clip-path="url(#p35629917db)">
     <use xlink:href="#m97cb8ef462" x="333.813324" y="24.078577" style="fill: #ff7f0e; stroke: #ffffff; stroke-width: 0.75"/>
     <use xlink:href="#m97cb8ef462" x="338.77696" y="24.050249" style="fill: #ff7f0e; stroke: #ffffff; stroke-width: 0.75"/>
     <use xlink:href="#m97cb8ef462" x="343.740597" y="23.979429" style="fill: #ff7f0e; stroke: #ffffff; stroke-width: 0.75"/>
     <use xlink:href="#m97cb8ef462" x="348.704233" y="23.866117" style="fill: #ff7f0e; stroke: #ffffff; stroke-width: 0.75"/>
     <use xlink:href="#m97cb8ef462" x="353.667869" y="23.625328" style="fill: #ff7f0e; stroke: #ffffff; stroke-width: 0.75"/>
     <use xlink:href="#m97cb8ef462" x="358.631506" y="23.157915" style="fill: #ff7f0e; stroke: #ffffff; stroke-width: 0.75"/>
     <use xlink:href="#m97cb8ef462" x="363.595142" y="22.208924" style="fill: #ff7f0e; stroke: #ffffff; stroke-width: 0.75"/>
     <use xlink:href="#m97cb8ef462" x="368.558778" y="20.296779" style="fill: #ff7f0e; stroke: #ffffff; stroke-width: 0.75"/>
     <use xlink:href="#m97cb8ef462" x="373.522415" y="16.500816" style="fill: #ff7f0e; stroke: #ffffff; stroke-width: 0.75"/>
     <use xlink:href="#m97cb8ef462" x="378.486051" y="8.894727" style="fill: #ff7f0e; stroke: #ffffff; stroke-width: 0.75"/>
    </g>
   </g>
   <g id="line2d_4">
    <path d="M 333.813324 24.078577 
L 338.77696 24.050249 
L 343.740597 23.979429 
L 348.704233 23.866117 
L 353.667869 23.625328 
L 358.631506 23.157915 
L 363.595142 22.208924 
L 368.558778 20.296779 
L 373.522415 16.500816 
L 378.486051 8.894727 
" clip-path="url(#p35629917db)" style="fill: none; stroke-dasharray: 8.14,3.52; stroke-dashoffset: 0; stroke: #ffa556; stroke-width: 2.2"/>
    <defs>
     <path id="m06e3d33ebd" d="M 0 3 
C 0.795609 3 1.55874 2.683901 2.12132 2.12132 
C 2.683901 1.55874 3 0.795609 3 0 
C 3 -0.795609 2.683901 -1.55874 2.12132 -2.12132 
C 1.55874 -2.683901 0.795609 -3 0 -3 
C -0.795609 -3 -1.55874 -2.683901 -2.12132 -2.12132 
C -2.683901 -1.55874 -3 -0.795609 -3 0 
C -3 0.795609 -2.683901 1.55874 -2.12132 2.12132 
C -1.55874 2.683901 -0.795609 3 0 3 
z
" style="stroke: #ffffff; stroke-width: 0.75"/>
    </defs>
    <g clip-path="url(#p35629917db)">
     <use xlink:href="#m06e3d33ebd" x="333.813324" y="24.078577" style="fill: #ffa556; stroke: #ffffff; stroke-width: 0.75"/>
     <use xlink:href="#m06e3d33ebd" x="338.77696" y="24.050249" style="fill: #ffa556; stroke: #ffffff; stroke-width: 0.75"/>
     <use xlink:href="#m06e3d33ebd" x="343.740597" y="23.979429" style="fill: #ffa556; stroke: #ffffff; stroke-width: 0.75"/>
     <use xlink:href="#m06e3d33ebd" x="348.704233" y="23.866117" style="fill: #ffa556; stroke: #ffffff; stroke-width: 0.75"/>
     <use xlink:href="#m06e3d33ebd" x="353.667869" y="23.625328" style="fill: #ffa556; stroke: #ffffff; stroke-width: 0.75"/>
     <use xlink:href="#m06e3d33ebd" x="358.631506" y="23.157915" style="fill: #ffa556; stroke: #ffffff; stroke-width: 0.75"/>
     <use xlink:href="#m06e3d33ebd" x="363.595142" y="22.208924" style="fill: #ffa556; stroke: #ffffff; stroke-width: 0.75"/>
     <use xlink:href="#m06e3d33ebd" x="368.558778" y="20.296779" style="fill: #ffa556; stroke: #ffffff; stroke-width: 0.75"/>
     <use xlink:href="#m06e3d33ebd" x="373.522415" y="16.500816" style="fill: #ffa556; stroke: #ffffff; stroke-width: 0.75"/>
     <use xlink:href="#m06e3d33ebd" x="378.486051" y="8.894727" style="fill: #ffa556; stroke: #ffffff; stroke-width: 0.75"/>
    </g>
   </g>
   <g id="line2d_5">
    <path d="M 333.813324 42.789273 
L 338.77696 42.760945 
L 343.740597 42.704288 
L 348.704233 42.576812 
L 353.667869 42.350188 
L 358.631506 41.86861 
L 363.595142 40.91962 
L 368.558778 39.021638 
L 373.522415 35.211512 
L 378.486051 27.577095 
" clip-path="url(#p35629917db)" style="fill: none; stroke: #2ca02c; stroke-width: 2.2; stroke-linecap: square"/>
    <defs>
     <path id="m16db1d825c" d="M 0 3 
C 0.795609 3 1.55874 2.683901 2.12132 2.12132 
C 2.683901 1.55874 3 0.795609 3 0 
C 3 -0.795609 2.683901 -1.55874 2.12132 -2.12132 
C 1.55874 -2.683901 0.795609 -3 0 -3 
C -0.795609 -3 -1.55874 -2.683901 -2.12132 -2.12132 
C -2.683901 -1.55874 -3 -0.795609 -3 0 
C -3 0.795609 -2.683901 1.55874 -2.12132 2.12132 
C -1.55874 2.683901 -0.795609 3 0 3 
z
" style="stroke: #ffffff; stroke-width: 0.75"/>
    </defs>
    <g clip-path="url(#p35629917db)">
     <use xlink:href="#m16db1d825c" x="333.813324" y="42.789273" style="fill: #2ca02c; stroke: #ffffff; stroke-width: 0.75"/>
     <use xlink:href="#m16db1d825c" x="338.77696" y="42.760945" style="fill: #2ca02c; stroke: #ffffff; stroke-width: 0.75"/>
     <use xlink:href="#m16db1d825c" x="343.740597" y="42.704288" style="fill: #2ca02c; stroke: #ffffff; stroke-width: 0.75"/>
     <use xlink:href="#m16db1d825c" x="348.704233" y="42.576812" style="fill: #2ca02c; stroke: #ffffff; stroke-width: 0.75"/>
     <use xlink:href="#m16db1d825c" x="353.667869" y="42.350188" style="fill: #2ca02c; stroke: #ffffff; stroke-width: 0.75"/>
     <use xlink:href="#m16db1d825c" x="358.631506" y="41.86861" style="fill: #2ca02c; stroke: #ffffff; stroke-width: 0.75"/>
     <use xlink:href="#m16db1d825c" x="363.595142" y="40.91962" style="fill: #2ca02c; stroke: #ffffff; stroke-width: 0.75"/>
     <use xlink:href="#m16db1d825c" x="368.558778" y="39.021638" style="fill: #2ca02c; stroke: #ffffff; stroke-width: 0.75"/>
     <use xlink:href="#m16db1d825c" x="373.522415" y="35.211512" style="fill: #2ca02c; stroke: #ffffff; stroke-width: 0.75"/>
     <use xlink:href="#m16db1d825c" x="378.486051" y="27.577095" style="fill: #2ca02c; stroke: #ffffff; stroke-width: 0.75"/>
    </g>
   </g>
   <g id="line2d_6">
    <path d="M 333.813324 42.789273 
L 338.77696 42.760945 
L 343.740597 42.704288 
L 348.704233 42.576812 
L 353.667869 42.350188 
L 358.631506 41.86861 
L 363.595142 40.91962 
L 368.558778 39.021638 
L 373.522415 35.211512 
L 378.486051 27.577095 
" clip-path="url(#p35629917db)" style="fill: none; stroke-dasharray: 8.14,3.52; stroke-dashoffset: 0; stroke: #6bbc6b; stroke-width: 2.2"/>
    <defs>
     <path id="m38fd0ba438" d="M 0 3 
C 0.795609 3 1.55874 2.683901 2.12132 2.12132 
C 2.683901 1.55874 3 0.795609 3 0 
C 3 -0.795609 2.683901 -1.55874 2.12132 -2.12132 
C 1.55874 -2.683901 0.795609 -3 0 -3 
C -0.795609 -3 -1.55874 -2.683901 -2.12132 -2.12132 
C -2.683901 -1.55874 -3 -0.795609 -3 0 
C -3 0.795609 -2.683901 1.55874 -2.12132 2.12132 
C -1.55874 2.683901 -0.795609 3 0 3 
z
" style="stroke: #ffffff; stroke-width: 0.75"/>
    </defs>
    <g clip-path="url(#p35629917db)">
     <use xlink:href="#m38fd0ba438" x="333.813324" y="42.789273" style="fill: #6bbc6b; stroke: #ffffff; stroke-width: 0.75"/>
     <use xlink:href="#m38fd0ba438" x="338.77696" y="42.760945" style="fill: #6bbc6b; stroke: #ffffff; stroke-width: 0.75"/>
     <use xlink:href="#m38fd0ba438" x="343.740597" y="42.704288" style="fill: #6bbc6b; stroke: #ffffff; stroke-width: 0.75"/>
     <use xlink:href="#m38fd0ba438" x="348.704233" y="42.576812" style="fill: #6bbc6b; stroke: #ffffff; stroke-width: 0.75"/>
     <use xlink:href="#m38fd0ba438" x="353.667869" y="42.350188" style="fill: #6bbc6b; stroke: #ffffff; stroke-width: 0.75"/>
     <use xlink:href="#m38fd0ba438" x="358.631506" y="41.86861" style="fill: #6bbc6b; stroke: #ffffff; stroke-width: 0.75"/>
     <use xlink:href="#m38fd0ba438" x="363.595142" y="40.91962" style="fill: #6bbc6b; stroke: #ffffff; stroke-width: 0.75"/>
     <use xlink:href="#m38fd0ba438" x="368.558778" y="39.021638" style="fill: #6bbc6b; stroke: #ffffff; stroke-width: 0.75"/>
     <use xlink:href="#m38fd0ba438" x="373.522415" y="35.211512" style="fill: #6bbc6b; stroke: #ffffff; stroke-width: 0.75"/>
     <use xlink:href="#m38fd0ba438" x="378.486051" y="27.577095" style="fill: #6bbc6b; stroke: #ffffff; stroke-width: 0.75"/>
    </g>
   </g>
   <g id="line2d_7">
    <path d="M 333.813324 42.576812 
L 338.77696 42.520156 
L 343.740597 42.435172 
L 348.704233 42.251039 
L 353.667869 41.896938 
L 358.631506 41.188736 
L 363.595142 39.758168 
L 368.558778 36.911197 
L 373.522415 31.203089 
L 378.486051 19.801037 
" clip-path="url(#p35629917db)" style="fill: none; stroke: #d62728; stroke-width: 2.2; stroke-linecap: square"/>
    <defs>
     <path id="m9f00626de4" d="M 0 3 
C 0.795609 3 1.55874 2.683901 2.12132 2.12132 
C 2.683901 1.55874 3 0.795609 3 0 
C 3 -0.795609 2.683901 -1.55874 2.12132 -2.12132 
C 1.55874 -2.683901 0.795609 -3 0 -3 
C -0.795609 -3 -1.55874 -2.683901 -2.12132 -2.12132 
C -2.683901 -1.55874 -3 -0.795609 -3 0 
C -3 0.795609 -2.683901 1.55874 -2.12132 2.12132 
C -1.55874 2.683901 -0.795609 3 0 3 
z
" style="stroke: #ffffff; stroke-width: 0.75"/>
    </defs>
    <g clip-path="url(#p35629917db)">
     <use xlink:href="#m9f00626de4" x="333.813324" y="42.576812" style="fill: #d62728; stroke: #ffffff; stroke-width: 0.75"/>
     <use xlink:href="#m9f00626de4" x="338.77696" y="42.520156" style="fill: #d62728; stroke: #ffffff; stroke-width: 0.75"/>
     <use xlink:href="#m9f00626de4" x="343.740597" y="42.435172" style="fill: #d62728; stroke: #ffffff; stroke-width: 0.75"/>
     <use xlink:href="#m9f00626de4" x="348.704233" y="42.251039" style="fill: #d62728; stroke: #ffffff; stroke-width: 0.75"/>
     <use xlink:href="#m9f00626de4" x="353.667869" y="41.896938" style="fill: #d62728; stroke: #ffffff; stroke-width: 0.75"/>
     <use xlink:href="#m9f00626de4" x="358.631506" y="41.188736" style="fill: #d62728; stroke: #ffffff; stroke-width: 0.75"/>
     <use xlink:href="#m9f00626de4" x="363.595142" y="39.758168" style="fill: #d62728; stroke: #ffffff; stroke-width: 0.75"/>
     <use xlink:href="#m9f00626de4" x="368.558778" y="36.911197" style="fill: #d62728; stroke: #ffffff; stroke-width: 0.75"/>
     <use xlink:href="#m9f00626de4" x="373.522415" y="31.203089" style="fill: #d62728; stroke: #ffffff; stroke-width: 0.75"/>
     <use xlink:href="#m9f00626de4" x="378.486051" y="19.801037" style="fill: #d62728; stroke: #ffffff; stroke-width: 0.75"/>
    </g>
   </g>
   <g id="line2d_8">
    <path d="M 333.813324 42.194383 
L 338.77696 42.137727 
L 343.740597 42.052743 
L 348.704233 41.86861 
L 353.667869 41.514509 
L 358.631506 40.806307 
L 363.595142 39.375739 
L 368.558778 36.528767 
L 373.522415 30.82066 
L 378.486051 19.418608 
" clip-path="url(#p35629917db)" style="fill: none; stroke-dasharray: 8.14,3.52; stroke-dashoffset: 0; stroke: #e26868; stroke-width: 2.2"/>
    <defs>
     <path id="maec8930047" d="M 0 3 
C 0.795609 3 1.55874 2.683901 2.12132 2.12132 
C 2.683901 1.55874 3 0.795609 3 0 
C 3 -0.795609 2.683901 -1.55874 2.12132 -2.12132 
C 1.55874 -2.683901 0.795609 -3 0 -3 
C -0.795609 -3 -1.55874 -2.683901 -2.12132 -2.12132 
C -2.683901 -1.55874 -3 -0.795609 -3 0 
C -3 0.795609 -2.683901 1.55874 -2.12132 2.12132 
C -1.55874 2.683901 -0.795609 3 0 3 
z
" style="stroke: #ffffff; stroke-width: 0.75"/>
    </defs>
    <g clip-path="url(#p35629917db)">
     <use xlink:href="#maec8930047" x="333.813324" y="42.194383" style="fill: #e26868; stroke: #ffffff; stroke-width: 0.75"/>
     <use xlink:href="#maec8930047" x="338.77696" y="42.137727" style="fill: #e26868; stroke: #ffffff; stroke-width: 0.75"/>
     <use xlink:href="#maec8930047" x="343.740597" y="42.052743" style="fill: #e26868; stroke: #ffffff; stroke-width: 0.75"/>
     <use xlink:href="#maec8930047" x="348.704233" y="41.86861" style="fill: #e26868; stroke: #ffffff; stroke-width: 0.75"/>
     <use xlink:href="#maec8930047" x="353.667869" y="41.514509" style="fill: #e26868; stroke: #ffffff; stroke-width: 0.75"/>
     <use xlink:href="#maec8930047" x="358.631506" y="40.806307" style="fill: #e26868; stroke: #ffffff; stroke-width: 0.75"/>
     <use xlink:href="#maec8930047" x="363.595142" y="39.375739" style="fill: #e26868; stroke: #ffffff; stroke-width: 0.75"/>
     <use xlink:href="#maec8930047" x="368.558778" y="36.528767" style="fill: #e26868; stroke: #ffffff; stroke-width: 0.75"/>
     <use xlink:href="#maec8930047" x="373.522415" y="30.82066" style="fill: #e26868; stroke: #ffffff; stroke-width: 0.75"/>
     <use xlink:href="#maec8930047" x="378.486051" y="19.418608" style="fill: #e26868; stroke: #ffffff; stroke-width: 0.75"/>
    </g>
   </g>
   <g id="legend_1">
    <g id="patch_3">
     <path d="M 9.6 46.4349 
L 702.699375 46.4349 
Q 705.099375 46.4349 705.099375 44.0349 
L 705.099375 10.0074 
Q 705.099375 7.6074 702.699375 7.6074 
L 9.6 7.6074 
Q 7.2 7.6074 7.2 10.0074 
L 7.2 44.0349 
Q 7.2 46.4349 9.6 46.4349 
z
" style="fill: #ffffff; stroke: #cccccc; stroke-linejoin: miter"/>
    </g>
    <g id="line2d_9">
     <path d="M 12 17.325525 
L 24 17.325525 
L 36 17.325525 
" style="fill: none; stroke: #1f77b4; stroke-width: 2.2; stroke-linecap: square"/>
     <g>
      <use xlink:href="#ma8e0d746a0" x="24" y="17.325525" style="fill: #1f77b4; stroke: #ffffff; stroke-width: 0.75"/>
     </g>
    </g>
    <g id="text_1">
     <!-- NCCL (Native) -->
     <g transform="translate(45.6 21.525525) scale(0.12 -0.12)">
      <defs>
       <path id="DejaVuSans-4e" d="M 628 4666 
L 1478 4666 
L 3547 763 
L 3547 4666 
L 4159 4666 
L 4159 0 
L 3309 0 
L 1241 3903 
L 1241 0 
L 628 0 
L 628 4666 
z
" transform="scale(0.015625)"/>
       <path id="DejaVuSans-43" d="M 4122 4306 
L 4122 3641 
Q 3803 3938 3442 4084 
Q 3081 4231 2675 4231 
Q 1875 4231 1450 3742 
Q 1025 3253 1025 2328 
Q 1025 1406 1450 917 
Q 1875 428 2675 428 
Q 3081 428 3442 575 
Q 3803 722 4122 1019 
L 4122 359 
Q 3791 134 3420 21 
Q 3050 -91 2638 -91 
Q 1578 -91 968 557 
Q 359 1206 359 2328 
Q 359 3453 968 4101 
Q 1578 4750 2638 4750 
Q 3056 4750 3426 4639 
Q 3797 4528 4122 4306 
z
" transform="scale(0.015625)"/>
       <path id="DejaVuSans-4c" d="M 628 4666 
L 1259 4666 
L 1259 531 
L 3531 531 
L 3531 0 
L 628 0 
L 628 4666 
z
" transform="scale(0.015625)"/>
       <path id="DejaVuSans-20" transform="scale(0.015625)"/>
       <path id="DejaVuSans-28" d="M 1984 4856 
Q 1566 4138 1362 3434 
Q 1159 2731 1159 2009 
Q 1159 1288 1364 580 
Q 1569 -128 1984 -844 
L 1484 -844 
Q 1016 -109 783 600 
Q 550 1309 550 2009 
Q 550 2706 781 3412 
Q 1013 4119 1484 4856 
L 1984 4856 
z
" transform="scale(0.015625)"/>
       <path id="DejaVuSans-61" d="M 2194 1759 
Q 1497 1759 1228 1600 
Q 959 1441 959 1056 
Q 959 750 1161 570 
Q 1363 391 1709 391 
Q 2188 391 2477 730 
Q 2766 1069 2766 1631 
L 2766 1759 
L 2194 1759 
z
M 3341 1997 
L 3341 0 
L 2766 0 
L 2766 531 
Q 2569 213 2275 61 
Q 1981 -91 1556 -91 
Q 1019 -91 701 211 
Q 384 513 384 1019 
Q 384 1609 779 1909 
Q 1175 2209 1959 2209 
L 2766 2209 
L 2766 2266 
Q 2766 2663 2505 2880 
Q 2244 3097 1772 3097 
Q 1472 3097 1187 3025 
Q 903 2953 641 2809 
L 641 3341 
Q 956 3463 1253 3523 
Q 1550 3584 1831 3584 
Q 2591 3584 2966 3190 
Q 3341 2797 3341 1997 
z
" transform="scale(0.015625)"/>
       <path id="DejaVuSans-74" d="M 1172 4494 
L 1172 3500 
L 2356 3500 
L 2356 3053 
L 1172 3053 
L 1172 1153 
Q 1172 725 1289 603 
Q 1406 481 1766 481 
L 2356 481 
L 2356 0 
L 1766 0 
Q 1100 0 847 248 
Q 594 497 594 1153 
L 594 3053 
L 172 3053 
L 172 3500 
L 594 3500 
L 594 4494 
L 1172 4494 
z
" transform="scale(0.015625)"/>
       <path id="DejaVuSans-69" d="M 603 3500 
L 1178 3500 
L 1178 0 
L 603 0 
L 603 3500 
z
M 603 4863 
L 1178 4863 
L 1178 4134 
L 603 4134 
L 603 4863 
z
" transform="scale(0.015625)"/>
       <path id="DejaVuSans-76" d="M 191 3500 
L 800 3500 
L 1894 563 
L 2988 3500 
L 3597 3500 
L 2284 0 
L 1503 0 
L 191 3500 
z
" transform="scale(0.015625)"/>
       <path id="DejaVuSans-65" d="M 3597 1894 
L 3597 1613 
L 953 1613 
Q 991 1019 1311 708 
Q 1631 397 2203 397 
Q 2534 397 2845 478 
Q 3156 559 3463 722 
L 3463 178 
Q 3153 47 2828 -22 
Q 2503 -91 2169 -91 
Q 1331 -91 842 396 
Q 353 884 353 1716 
Q 353 2575 817 3079 
Q 1281 3584 2069 3584 
Q 2775 3584 3186 3129 
Q 3597 2675 3597 1894 
z
M 3022 2063 
Q 3016 2534 2758 2815 
Q 2500 3097 2075 3097 
Q 1594 3097 1305 2825 
Q 1016 2553 972 2059 
L 3022 2063 
z
" transform="scale(0.015625)"/>
       <path id="DejaVuSans-29" d="M 513 4856 
L 1013 4856 
Q 1481 4119 1714 3412 
Q 1947 2706 1947 2009 
Q 1947 1309 1714 600 
Q 1481 -109 1013 -844 
L 513 -844 
Q 928 -128 1133 580 
Q 1338 1288 1338 2009 
Q 1338 2731 1133 3434 
Q 928 4138 513 4856 
z
" transform="scale(0.015625)"/>
      </defs>
      <use xlink:href="#DejaVuSans-4e"/>
      <use xlink:href="#DejaVuSans-43" x="74.804688"/>
      <use xlink:href="#DejaVuSans-43" x="144.628906"/>
      <use xlink:href="#DejaVuSans-4c" x="214.453125"/>
      <use xlink:href="#DejaVuSans-20" x="270.166016"/>
      <use xlink:href="#DejaVuSans-28" x="301.953125"/>
      <use xlink:href="#DejaVuSans-4e" x="340.966797"/>
      <use xlink:href="#DejaVuSans-61" x="415.771484"/>
      <use xlink:href="#DejaVuSans-74" x="477.050781"/>
      <use xlink:href="#DejaVuSans-69" x="516.259766"/>
      <use xlink:href="#DejaVuSans-76" x="544.042969"/>
      <use xlink:href="#DejaVuSans-65" x="603.222656"/>
      <use xlink:href="#DejaVuSans-29" x="664.746094"/>
     </g>
    </g>
    <g id="line2d_10">
     <path d="M 12 34.939275 
L 24 34.939275 
L 36 34.939275 
" style="fill: none; stroke-dasharray: 8.14,3.52; stroke-dashoffset: 0; stroke: #62a0cb; stroke-width: 2.2"/>
     <g>
      <use xlink:href="#m4d61a7bdf6" x="24" y="34.939275" style="fill: #62a0cb; stroke: #ffffff; stroke-width: 0.75"/>
     </g>
    </g>
    <g id="text_2">
     <!-- NCCL (Hybrid) -->
     <g transform="translate(45.6 39.139275) scale(0.12 -0.12)">
      <defs>
       <path id="DejaVuSans-48" d="M 628 4666 
L 1259 4666 
L 1259 2753 
L 3553 2753 
L 3553 4666 
L 4184 4666 
L 4184 0 
L 3553 0 
L 3553 2222 
L 1259 2222 
L 1259 0 
L 628 0 
L 628 4666 
z
" transform="scale(0.015625)"/>
       <path id="DejaVuSans-79" d="M 2059 -325 
Q 1816 -950 1584 -1140 
Q 1353 -1331 966 -1331 
L 506 -1331 
L 506 -850 
L 844 -850 
Q 1081 -850 1212 -737 
Q 1344 -625 1503 -206 
L 1606 56 
L 191 3500 
L 800 3500 
L 1894 763 
L 2988 3500 
L 3597 3500 
L 2059 -325 
z
" transform="scale(0.015625)"/>
       <path id="DejaVuSans-62" d="M 3116 1747 
Q 3116 2381 2855 2742 
Q 2594 3103 2138 3103 
Q 1681 3103 1420 2742 
Q 1159 2381 1159 1747 
Q 1159 1113 1420 752 
Q 1681 391 2138 391 
Q 2594 391 2855 752 
Q 3116 1113 3116 1747 
z
M 1159 2969 
Q 1341 3281 1617 3432 
Q 1894 3584 2278 3584 
Q 2916 3584 3314 3078 
Q 3713 2572 3713 1747 
Q 3713 922 3314 415 
Q 2916 -91 2278 -91 
Q 1894 -91 1617 61 
Q 1341 213 1159 525 
L 1159 0 
L 581 0 
L 581 4863 
L 1159 4863 
L 1159 2969 
z
" transform="scale(0.015625)"/>
       <path id="DejaVuSans-72" d="M 2631 2963 
Q 2534 3019 2420 3045 
Q 2306 3072 2169 3072 
Q 1681 3072 1420 2755 
Q 1159 2438 1159 1844 
L 1159 0 
L 581 0 
L 581 3500 
L 1159 3500 
L 1159 2956 
Q 1341 3275 1631 3429 
Q 1922 3584 2338 3584 
Q 2397 3584 2469 3576 
Q 2541 3569 2628 3553 
L 2631 2963 
z
" transform="scale(0.015625)"/>
       <path id="DejaVuSans-64" d="M 2906 2969 
L 2906 4863 
L 3481 4863 
L 3481 0 
L 2906 0 
L 2906 525 
Q 2725 213 2448 61 
Q 2172 -91 1784 -91 
Q 1150 -91 751 415 
Q 353 922 353 1747 
Q 353 2572 751 3078 
Q 1150 3584 1784 3584 
Q 2172 3584 2448 3432 
Q 2725 3281 2906 2969 
z
M 947 1747 
Q 947 1113 1208 752 
Q 1469 391 1925 391 
Q 2381 391 2643 752 
Q 2906 1113 2906 1747 
Q 2906 2381 2643 2742 
Q 2381 3103 1925 3103 
Q 1469 3103 1208 2742 
Q 947 2381 947 1747 
z
" transform="scale(0.015625)"/>
      </defs>
      <use xlink:href="#DejaVuSans-4e"/>
      <use xlink:href="#DejaVuSans-43" x="74.804688"/>
      <use xlink:href="#DejaVuSans-43" x="144.628906"/>
      <use xlink:href="#DejaVuSans-4c" x="214.453125"/>
      <use xlink:href="#DejaVuSans-20" x="270.166016"/>
      <use xlink:href="#DejaVuSans-28" x="301.953125"/>
      <use xlink:href="#DejaVuSans-48" x="340.966797"/>
      <use xlink:href="#DejaVuSans-79" x="416.162109"/>
      <use xlink:href="#DejaVuSans-62" x="475.341797"/>
      <use xlink:href="#DejaVuSans-72" x="538.818359"/>
      <use xlink:href="#DejaVuSans-69" x="579.931641"/>
      <use xlink:href="#DejaVuSans-64" x="607.714844"/>
      <use xlink:href="#DejaVuSans-29" x="671.191406"/>
     </g>
    </g>
    <g id="line2d_11">
     <path d="M 154.83 17.325525 
L 166.83 17.325525 
L 178.83 17.325525 
" style="fill: none; stroke: #ff7f0e; stroke-width: 2.2; stroke-linecap: square"/>
     <g>
      <use xlink:href="#m97cb8ef462" x="166.83" y="17.325525" style="fill: #ff7f0e; stroke: #ffffff; stroke-width: 0.75"/>
     </g>
    </g>
    <g id="text_3">
     <!-- TrivialStaging (Native) -->
     <g transform="translate(188.43 21.525525) scale(0.12 -0.12)">
      <defs>
       <path id="DejaVuSans-54" d="M -19 4666 
L 3928 4666 
L 3928 4134 
L 2272 4134 
L 2272 0 
L 1638 0 
L 1638 4134 
L -19 4134 
L -19 4666 
z
" transform="scale(0.015625)"/>
       <path id="DejaVuSans-6c" d="M 603 4863 
L 1178 4863 
L 1178 0 
L 603 0 
L 603 4863 
z
" transform="scale(0.015625)"/>
       <path id="DejaVuSans-53" d="M 3425 4513 
L 3425 3897 
Q 3066 4069 2747 4153 
Q 2428 4238 2131 4238 
Q 1616 4238 1336 4038 
Q 1056 3838 1056 3469 
Q 1056 3159 1242 3001 
Q 1428 2844 1947 2747 
L 2328 2669 
Q 3034 2534 3370 2195 
Q 3706 1856 3706 1288 
Q 3706 609 3251 259 
Q 2797 -91 1919 -91 
Q 1588 -91 1214 -16 
Q 841 59 441 206 
L 441 856 
Q 825 641 1194 531 
Q 1563 422 1919 422 
Q 2459 422 2753 634 
Q 3047 847 3047 1241 
Q 3047 1584 2836 1778 
Q 2625 1972 2144 2069 
L 1759 2144 
Q 1053 2284 737 2584 
Q 422 2884 422 3419 
Q 422 4038 858 4394 
Q 1294 4750 2059 4750 
Q 2388 4750 2728 4690 
Q 3069 4631 3425 4513 
z
" transform="scale(0.015625)"/>
       <path id="DejaVuSans-67" d="M 2906 1791 
Q 2906 2416 2648 2759 
Q 2391 3103 1925 3103 
Q 1463 3103 1205 2759 
Q 947 2416 947 1791 
Q 947 1169 1205 825 
Q 1463 481 1925 481 
Q 2391 481 2648 825 
Q 2906 1169 2906 1791 
z
M 3481 434 
Q 3481 -459 3084 -895 
Q 2688 -1331 1869 -1331 
Q 1566 -1331 1297 -1286 
Q 1028 -1241 775 -1147 
L 775 -588 
Q 1028 -725 1275 -790 
Q 1522 -856 1778 -856 
Q 2344 -856 2625 -561 
Q 2906 -266 2906 331 
L 2906 616 
Q 2728 306 2450 153 
Q 2172 0 1784 0 
Q 1141 0 747 490 
Q 353 981 353 1791 
Q 353 2603 747 3093 
Q 1141 3584 1784 3584 
Q 2172 3584 2450 3431 
Q 2728 3278 2906 2969 
L 2906 3500 
L 3481 3500 
L 3481 434 
z
" transform="scale(0.015625)"/>
       <path id="DejaVuSans-6e" d="M 3513 2113 
L 3513 0 
L 2938 0 
L 2938 2094 
Q 2938 2591 2744 2837 
Q 2550 3084 2163 3084 
Q 1697 3084 1428 2787 
Q 1159 2491 1159 1978 
L 1159 0 
L 581 0 
L 581 3500 
L 1159 3500 
L 1159 2956 
Q 1366 3272 1645 3428 
Q 1925 3584 2291 3584 
Q 2894 3584 3203 3211 
Q 3513 2838 3513 2113 
z
" transform="scale(0.015625)"/>
      </defs>
      <use xlink:href="#DejaVuSans-54"/>
      <use xlink:href="#DejaVuSans-72" x="46.333984"/>
      <use xlink:href="#DejaVuSans-69" x="87.447266"/>
      <use xlink:href="#DejaVuSans-76" x="115.230469"/>
      <use xlink:href="#DejaVuSans-69" x="174.410156"/>
      <use xlink:href="#DejaVuSans-61" x="202.193359"/>
      <use xlink:href="#DejaVuSans-6c" x="263.472656"/>
      <use xlink:href="#DejaVuSans-53" x="291.255859"/>
      <use xlink:href="#DejaVuSans-74" x="354.732422"/>
      <use xlink:href="#DejaVuSans-61" x="393.941406"/>
      <use xlink:href="#DejaVuSans-67" x="455.220703"/>
      <use xlink:href="#DejaVuSans-69" x="518.697266"/>
      <use xlink:href="#DejaVuSans-6e" x="546.480469"/>
      <use xlink:href="#DejaVuSans-67" x="609.859375"/>
      <use xlink:href="#DejaVuSans-20" x="673.335938"/>
      <use xlink:href="#DejaVuSans-28" x="705.123047"/>
      <use xlink:href="#DejaVuSans-4e" x="744.136719"/>
      <use xlink:href="#DejaVuSans-61" x="818.941406"/>
      <use xlink:href="#DejaVuSans-74" x="880.220703"/>
      <use xlink:href="#DejaVuSans-69" x="919.429688"/>
      <use xlink:href="#DejaVuSans-76" x="947.212891"/>
      <use xlink:href="#DejaVuSans-65" x="1006.392578"/>
      <use xlink:href="#DejaVuSans-29" x="1067.916016"/>
     </g>
    </g>
    <g id="line2d_12">
     <path d="M 154.83 34.939275 
L 166.83 34.939275 
L 178.83 34.939275 
" style="fill: none; stroke-dasharray: 8.14,3.52; stroke-dashoffset: 0; stroke: #ffa556; stroke-width: 2.2"/>
     <g>
      <use xlink:href="#m06e3d33ebd" x="166.83" y="34.939275" style="fill: #ffa556; stroke: #ffffff; stroke-width: 0.75"/>
     </g>
    </g>
    <g id="text_4">
     <!-- TrivialStaging (Hybrid) -->
     <g transform="translate(188.43 39.139275) scale(0.12 -0.12)">
      <use xlink:href="#DejaVuSans-54"/>
      <use xlink:href="#DejaVuSans-72" x="46.333984"/>
      <use xlink:href="#DejaVuSans-69" x="87.447266"/>
      <use xlink:href="#DejaVuSans-76" x="115.230469"/>
      <use xlink:href="#DejaVuSans-69" x="174.410156"/>
      <use xlink:href="#DejaVuSans-61" x="202.193359"/>
      <use xlink:href="#DejaVuSans-6c" x="263.472656"/>
      <use xlink:href="#DejaVuSans-53" x="291.255859"/>
      <use xlink:href="#DejaVuSans-74" x="354.732422"/>
      <use xlink:href="#DejaVuSans-61" x="393.941406"/>
      <use xlink:href="#DejaVuSans-67" x="455.220703"/>
      <use xlink:href="#DejaVuSans-69" x="518.697266"/>
      <use xlink:href="#DejaVuSans-6e" x="546.480469"/>
      <use xlink:href="#DejaVuSans-67" x="609.859375"/>
      <use xlink:href="#DejaVuSans-20" x="673.335938"/>
      <use xlink:href="#DejaVuSans-28" x="705.123047"/>
      <use xlink:href="#DejaVuSans-48" x="744.136719"/>
      <use xlink:href="#DejaVuSans-79" x="819.332031"/>
      <use xlink:href="#DejaVuSans-62" x="878.511719"/>
      <use xlink:href="#DejaVuSans-72" x="941.988281"/>
      <use xlink:href="#DejaVuSans-69" x="983.101562"/>
      <use xlink:href="#DejaVuSans-64" x="1010.884766"/>
      <use xlink:href="#DejaVuSans-29" x="1074.361328"/>
     </g>
    </g>
    <g id="line2d_13">
     <path d="M 346.03875 17.325525 
L 358.03875 17.325525 
L 370.03875 17.325525 
" style="fill: none; stroke: #2ca02c; stroke-width: 2.2; stroke-linecap: square"/>
     <g>
      <use xlink:href="#m16db1d825c" x="358.03875" y="17.325525" style="fill: #2ca02c; stroke: #ffffff; stroke-width: 0.75"/>
     </g>
    </g>
    <g id="text_5">
     <!-- CUDA IPC (Native) -->
     <g transform="translate(379.63875 21.525525) scale(0.12 -0.12)">
      <defs>
       <path id="DejaVuSans-55" d="M 556 4666 
L 1191 4666 
L 1191 1831 
Q 1191 1081 1462 751 
Q 1734 422 2344 422 
Q 2950 422 3222 751 
Q 3494 1081 3494 1831 
L 3494 4666 
L 4128 4666 
L 4128 1753 
Q 4128 841 3676 375 
Q 3225 -91 2344 -91 
Q 1459 -91 1007 375 
Q 556 841 556 1753 
L 556 4666 
z
" transform="scale(0.015625)"/>
       <path id="DejaVuSans-44" d="M 1259 4147 
L 1259 519 
L 2022 519 
Q 2988 519 3436 956 
Q 3884 1394 3884 2338 
Q 3884 3275 3436 3711 
Q 2988 4147 2022 4147 
L 1259 4147 
z
M 628 4666 
L 1925 4666 
Q 3281 4666 3915 4102 
Q 4550 3538 4550 2338 
Q 4550 1131 3912 565 
Q 3275 0 1925 0 
L 628 0 
L 628 4666 
z
" transform="scale(0.015625)"/>
       <path id="DejaVuSans-41" d="M 2188 4044 
L 1331 1722 
L 3047 1722 
L 2188 4044 
z
M 1831 4666 
L 2547 4666 
L 4325 0 
L 3669 0 
L 3244 1197 
L 1141 1197 
L 716 0 
L 50 0 
L 1831 4666 
z
" transform="scale(0.015625)"/>
       <path id="DejaVuSans-49" d="M 628 4666 
L 1259 4666 
L 1259 0 
L 628 0 
L 628 4666 
z
" transform="scale(0.015625)"/>
       <path id="DejaVuSans-50" d="M 1259 4147 
L 1259 2394 
L 2053 2394 
Q 2494 2394 2734 2622 
Q 2975 2850 2975 3272 
Q 2975 3691 2734 3919 
Q 2494 4147 2053 4147 
L 1259 4147 
z
M 628 4666 
L 2053 4666 
Q 2838 4666 3239 4311 
Q 3641 3956 3641 3272 
Q 3641 2581 3239 2228 
Q 2838 1875 2053 1875 
L 1259 1875 
L 1259 0 
L 628 0 
L 628 4666 
z
" transform="scale(0.015625)"/>
      </defs>
      <use xlink:href="#DejaVuSans-43"/>
      <use xlink:href="#DejaVuSans-55" x="69.824219"/>
      <use xlink:href="#DejaVuSans-44" x="143.017578"/>
      <use xlink:href="#DejaVuSans-41" x="218.269531"/>
      <use xlink:href="#DejaVuSans-20" x="286.677734"/>
      <use xlink:href="#DejaVuSans-49" x="318.464844"/>
      <use xlink:href="#DejaVuSans-50" x="347.957031"/>
      <use xlink:href="#DejaVuSans-43" x="408.259766"/>
      <use xlink:href="#DejaVuSans-20" x="478.083984"/>
      <use xlink:href="#DejaVuSans-28" x="509.871094"/>
      <use xlink:href="#DejaVuSans-4e" x="548.884766"/>
      <use xlink:href="#DejaVuSans-61" x="623.689453"/>
      <use xlink:href="#DejaVuSans-74" x="684.96875"/>
      <use xlink:href="#DejaVuSans-69" x="724.177734"/>
      <use xlink:href="#DejaVuSans-76" x="751.960938"/>
      <use xlink:href="#DejaVuSans-65" x="811.140625"/>
      <use xlink:href="#DejaVuSans-29" x="872.664062"/>
     </g>
    </g>
    <g id="line2d_14">
     <path d="M 346.03875 34.939275 
L 358.03875 34.939275 
L 370.03875 34.939275 
" style="fill: none; stroke-dasharray: 8.14,3.52; stroke-dashoffset: 0; stroke: #6bbc6b; stroke-width: 2.2"/>
     <g>
      <use xlink:href="#m38fd0ba438" x="358.03875" y="34.939275" style="fill: #6bbc6b; stroke: #ffffff; stroke-width: 0.75"/>
     </g>
    </g>
    <g id="text_6">
     <!-- CUDA IPC (Hybrid) -->
     <g transform="translate(379.63875 39.139275) scale(0.12 -0.12)">
      <use xlink:href="#DejaVuSans-43"/>
      <use xlink:href="#DejaVuSans-55" x="69.824219"/>
      <use xlink:href="#DejaVuSans-44" x="143.017578"/>
      <use xlink:href="#DejaVuSans-41" x="218.269531"/>
      <use xlink:href="#DejaVuSans-20" x="286.677734"/>
      <use xlink:href="#DejaVuSans-49" x="318.464844"/>
      <use xlink:href="#DejaVuSans-50" x="347.957031"/>
      <use xlink:href="#DejaVuSans-43" x="408.259766"/>
      <use xlink:href="#DejaVuSans-20" x="478.083984"/>
      <use xlink:href="#DejaVuSans-28" x="509.871094"/>
      <use xlink:href="#DejaVuSans-48" x="548.884766"/>
      <use xlink:href="#DejaVuSans-79" x="624.080078"/>
      <use xlink:href="#DejaVuSans-62" x="683.259766"/>
      <use xlink:href="#DejaVuSans-72" x="746.736328"/>
      <use xlink:href="#DejaVuSans-69" x="787.849609"/>
      <use xlink:href="#DejaVuSans-64" x="815.632812"/>
      <use xlink:href="#DejaVuSans-29" x="879.109375"/>
     </g>
    </g>
    <g id="line2d_15">
     <path d="M 513.815625 17.325525 
L 525.815625 17.325525 
L 537.815625 17.325525 
" style="fill: none; stroke: #d62728; stroke-width: 2.2; stroke-linecap: square"/>
     <g>
      <use xlink:href="#m9f00626de4" x="525.815625" y="17.325525" style="fill: #d62728; stroke: #ffffff; stroke-width: 0.75"/>
     </g>
    </g>
    <g id="text_7">
     <!-- CUDA-Aware MPI (Native) -->
     <g transform="translate(547.415625 21.525525) scale(0.12 -0.12)">
      <defs>
       <path id="DejaVuSans-2d" d="M 313 2009 
L 1997 2009 
L 1997 1497 
L 313 1497 
L 313 2009 
z
" transform="scale(0.015625)"/>
       <path id="DejaVuSans-77" d="M 269 3500 
L 844 3500 
L 1563 769 
L 2278 3500 
L 2956 3500 
L 3675 769 
L 4391 3500 
L 4966 3500 
L 4050 0 
L 3372 0 
L 2619 2869 
L 1863 0 
L 1184 0 
L 269 3500 
z
" transform="scale(0.015625)"/>
       <path id="DejaVuSans-4d" d="M 628 4666 
L 1569 4666 
L 2759 1491 
L 3956 4666 
L 4897 4666 
L 4897 0 
L 4281 0 
L 4281 4097 
L 3078 897 
L 2444 897 
L 1241 4097 
L 1241 0 
L 628 0 
L 628 4666 
z
" transform="scale(0.015625)"/>
      </defs>
      <use xlink:href="#DejaVuSans-43"/>
      <use xlink:href="#DejaVuSans-55" x="69.824219"/>
      <use xlink:href="#DejaVuSans-44" x="143.017578"/>
      <use xlink:href="#DejaVuSans-41" x="218.269531"/>
      <use xlink:href="#DejaVuSans-2d" x="284.427734"/>
      <use xlink:href="#DejaVuSans-41" x="318.261719"/>
      <use xlink:href="#DejaVuSans-77" x="382.669922"/>
      <use xlink:href="#DejaVuSans-61" x="464.457031"/>
      <use xlink:href="#DejaVuSans-72" x="525.736328"/>
      <use xlink:href="#DejaVuSans-65" x="564.599609"/>
      <use xlink:href="#DejaVuSans-20" x="626.123047"/>
      <use xlink:href="#DejaVuSans-4d" x="657.910156"/>
      <use xlink:href="#DejaVuSans-50" x="744.189453"/>
      <use xlink:href="#DejaVuSans-49" x="804.492188"/>
      <use xlink:href="#DejaVuSans-20" x="833.984375"/>
      <use xlink:href="#DejaVuSans-28" x="865.771484"/>
      <use xlink:href="#DejaVuSans-4e" x="904.785156"/>
      <use xlink:href="#DejaVuSans-61" x="979.589844"/>
      <use xlink:href="#DejaVuSans-74" x="1040.869141"/>
      <use xlink:href="#DejaVuSans-69" x="1080.078125"/>
      <use xlink:href="#DejaVuSans-76" x="1107.861328"/>
      <use xlink:href="#DejaVuSans-65" x="1167.041016"/>
      <use xlink:href="#DejaVuSans-29" x="1228.564453"/>
     </g>
    </g>
    <g id="line2d_16">
     <path d="M 513.815625 34.939275 
L 525.815625 34.939275 
L 537.815625 34.939275 
" style="fill: none; stroke-dasharray: 8.14,3.52; stroke-dashoffset: 0; stroke: #e26868; stroke-width: 2.2"/>
     <g>
      <use xlink:href="#maec8930047" x="525.815625" y="34.939275" style="fill: #e26868; stroke: #ffffff; stroke-width: 0.75"/>
     </g>
    </g>
    <g id="text_8">
     <!-- CUDA-Aware MPI (Hybrid) -->
     <g transform="translate(547.415625 39.139275) scale(0.12 -0.12)">
      <use xlink:href="#DejaVuSans-43"/>
      <use xlink:href="#DejaVuSans-55" x="69.824219"/>
      <use xlink:href="#DejaVuSans-44" x="143.017578"/>
      <use xlink:href="#DejaVuSans-41" x="218.269531"/>
      <use xlink:href="#DejaVuSans-2d" x="284.427734"/>
      <use xlink:href="#DejaVuSans-41" x="318.261719"/>
      <use xlink:href="#DejaVuSans-77" x="382.669922"/>
      <use xlink:href="#DejaVuSans-61" x="464.457031"/>
      <use xlink:href="#DejaVuSans-72" x="525.736328"/>
      <use xlink:href="#DejaVuSans-65" x="564.599609"/>
      <use xlink:href="#DejaVuSans-20" x="626.123047"/>
      <use xlink:href="#DejaVuSans-4d" x="657.910156"/>
      <use xlink:href="#DejaVuSans-50" x="744.189453"/>
      <use xlink:href="#DejaVuSans-49" x="804.492188"/>
      <use xlink:href="#DejaVuSans-20" x="833.984375"/>
      <use xlink:href="#DejaVuSans-28" x="865.771484"/>
      <use xlink:href="#DejaVuSans-48" x="904.785156"/>
      <use xlink:href="#DejaVuSans-79" x="979.980469"/>
      <use xlink:href="#DejaVuSans-62" x="1039.160156"/>
      <use xlink:href="#DejaVuSans-72" x="1102.636719"/>
      <use xlink:href="#DejaVuSans-69" x="1143.75"/>
      <use xlink:href="#DejaVuSans-64" x="1171.533203"/>
      <use xlink:href="#DejaVuSans-29" x="1235.009766"/>
     </g>
    </g>
   </g>
  </g>
 </g>
 <defs>
  <clipPath id="p35629917db">
   <rect x="331.579687" y="7.2" width="49.14" height="37.284"/>
  </clipPath>
 </defs>
</svg>
