<?xml version="1.0" encoding="utf-8" standalone="no"?>
<!DOCTYPE svg PUBLIC "-//W3C//DTD SVG 1.1//EN"
  "http://www.w3.org/Graphics/SVG/1.1/DTD/svg11.dtd">
<svg xmlns:xlink="http://www.w3.org/1999/xlink" width="193.363125pt" height="277.539875pt" viewBox="0 0 193.363125 277.539875" xmlns="http://www.w3.org/2000/svg" version="1.1">
 <metadata>
  <rdf:RDF xmlns:dc="http://purl.org/dc/elements/1.1/" xmlns:cc="http://creativecommons.org/ns#" xmlns:rdf="http://www.w3.org/1999/02/22-rdf-syntax-ns#">
   <cc:Work>
    <dc:type rdf:resource="http://purl.org/dc/dcmitype/StillImage"/>
    <dc:date>2024-08-09T22:44:58.460952</dc:date>
    <dc:format>image/svg+xml</dc:format>
    <dc:creator>
     <cc:Agent>
      <dc:title>Matplotlib v3.8.3, https://matplotlib.org/</dc:title>
     </cc:Agent>
    </dc:creator>
   </cc:Work>
  </rdf:RDF>
 </metadata>
 <defs>
  <style type="text/css">*{stroke-linejoin: round; stroke-linecap: butt}</style>
 </defs>
 <g id="figure_1">
  <g id="patch_1">
   <path d="M 0 277.539875 
L 193.363125 277.539875 
L 193.363125 0 
L 0 0 
z
" style="fill: #ffffff"/>
  </g>
  <g id="axes_1">
   <g id="patch_2">
    <path d="M 68.056804 238.048 
L 175.603125 238.048 
L 175.603125 7.2 
L 68.056804 7.2 
z
" style="fill: #ffffff"/>
   </g>
   <g id="PolyCollection_1"/>
   <g id="PolyCollection_2">
    <defs>
     <path id="m6704d8cb02" d="M 68.795285 -49.984966 
L 68.795285 -49.984966 
L 79.586842 -50.659763 
L 90.378398 -51.671958 
L 101.169954 -54.708544 
L 111.96151 -59.432122 
L 122.753066 -69.216676 
L 133.544623 -86.761394 
L 144.336179 -113.415869 
L 155.127735 -143.10693 
L 165.919291 -208.224826 
L 165.919291 -254.785808 
L 165.919291 -254.785808 
L 155.127735 -198.77767 
L 144.336179 -128.598798 
L 133.544623 -91.82237 
L 122.753066 -71.241066 
L 111.96151 -61.456512 
L 101.169954 -55.720739 
L 90.378398 -52.684153 
L 79.586842 -50.659763 
L 68.795285 -49.984966 
z
" style="stroke: #1f77b4; stroke-opacity: 0.2"/>
    </defs>
    <g clip-path="url(#p9e2edf9bd0)">
     <use xlink:href="#m6704d8cb02" x="0" y="277.539875" style="fill: #1f77b4; fill-opacity: 0.2; stroke: #1f77b4; stroke-opacity: 0.2"/>
    </g>
   </g>
   <g id="PolyCollection_3"/>
   <g id="PolyCollection_4">
    <defs>
     <path id="m1a70480117" d="M 68.795285 -49.984966 
L 68.795285 -49.984966 
L 79.586842 -50.659763 
L 90.378398 -51.671958 
L 101.169954 -54.708544 
L 111.96151 -60.106919 
L 122.753066 -69.216676 
L 133.544623 -85.4118 
L 144.336179 -109.367088 
L 155.127735 -151.71059 
L 165.919291 -197.596775 
L 165.919291 -259.846784 
L 165.919291 -259.846784 
L 155.127735 -193.716693 
L 144.336179 -130.623189 
L 133.544623 -91.484972 
L 122.753066 -71.241066 
L 111.96151 -61.119114 
L 101.169954 -55.720739 
L 90.378398 -52.684153 
L 79.586842 -50.659763 
L 68.795285 -49.984966 
z
" style="stroke: #62a0cb; stroke-opacity: 0.2"/>
    </defs>
    <g clip-path="url(#p9e2edf9bd0)">
     <use xlink:href="#m1a70480117" x="0" y="277.539875" style="fill: #62a0cb; fill-opacity: 0.2; stroke: #62a0cb; stroke-opacity: 0.2"/>
    </g>
   </g>
   <g id="PolyCollection_5"/>
   <g id="PolyCollection_6">
    <defs>
     <path id="m949b19f541" d="M 68.795285 -49.984966 
L 68.795285 -49.984966 
L 79.586842 -50.322364 
L 90.378398 -50.322364 
L 101.169954 -50.997161 
L 111.96151 -52.346755 
L 122.753066 -58.419926 
L 133.544623 -67.529684 
L 144.336179 -80.350824 
L 155.127735 -95.533753 
L 165.919291 -120.163838 
L 165.919291 -156.096769 
L 165.919291 -156.096769 
L 155.127735 -121.85083 
L 144.336179 -88.448386 
L 133.544623 -69.554074 
L 122.753066 -59.432122 
L 111.96151 -53.35895 
L 101.169954 -50.997161 
L 90.378398 -50.322364 
L 79.586842 -50.322364 
L 68.795285 -49.984966 
z
" style="stroke: #ff7f0e; stroke-opacity: 0.2"/>
    </defs>
    <g clip-path="url(#p9e2edf9bd0)">
     <use xlink:href="#m949b19f541" x="0" y="277.539875" style="fill: #ff7f0e; fill-opacity: 0.2; stroke: #ff7f0e; stroke-opacity: 0.2"/>
    </g>
   </g>
   <g id="PolyCollection_7"/>
   <g id="PolyCollection_8">
    <defs>
     <path id="m82c6c673df" d="M 68.795285 -49.984966 
L 68.795285 -49.984966 
L 79.586842 -50.322364 
L 90.378398 -49.984966 
L 101.169954 -50.997161 
L 111.96151 -52.346755 
L 122.753066 -58.419926 
L 133.544623 -67.529684 
L 144.336179 -80.688222 
L 155.127735 -97.558143 
L 165.919291 -121.513431 
L 165.919291 -152.891484 
L 165.919291 -152.891484 
L 155.127735 -118.814244 
L 144.336179 -87.773589 
L 133.544623 -69.554074 
L 122.753066 -59.432122 
L 111.96151 -53.35895 
L 101.169954 -50.997161 
L 90.378398 -50.997161 
L 79.586842 -50.322364 
L 68.795285 -49.984966 
z
" style="stroke: #ffa556; stroke-opacity: 0.2"/>
    </defs>
    <g clip-path="url(#p9e2edf9bd0)">
     <use xlink:href="#m82c6c673df" x="0" y="277.539875" style="fill: #ffa556; fill-opacity: 0.2; stroke: #ffa556; stroke-opacity: 0.2"/>
    </g>
   </g>
   <g id="PolyCollection_9"/>
   <g id="PolyCollection_10">
    <defs>
     <path id="mdbbe79b84a" d="M 68.795285 -52.684153 
L 68.795285 -49.984966 
L 79.586842 -50.322364 
L 90.378398 -50.997161 
L 101.169954 -51.671958 
L 111.96151 -52.684153 
L 122.753066 -52.684153 
L 133.544623 -52.684153 
L 144.336179 -52.684153 
L 155.127735 -52.684153 
L 165.919291 -52.684153 
L 165.919291 -52.684153 
L 165.919291 -52.684153 
L 155.127735 -52.684153 
L 144.336179 -52.684153 
L 133.544623 -52.684153 
L 122.753066 -52.684153 
L 111.96151 -52.684153 
L 101.169954 -52.684153 
L 90.378398 -52.009356 
L 79.586842 -52.346755 
L 68.795285 -52.684153 
z
" style="stroke: #2ca02c; stroke-opacity: 0.2"/>
    </defs>
    <g clip-path="url(#p9e2edf9bd0)">
     <use xlink:href="#mdbbe79b84a" x="0" y="277.539875" style="fill: #2ca02c; fill-opacity: 0.2; stroke: #2ca02c; stroke-opacity: 0.2"/>
    </g>
   </g>
   <g id="PolyCollection_11"/>
   <g id="PolyCollection_12">
    <defs>
     <path id="m7db783b549" d="M 68.795285 -52.009356 
L 68.795285 -49.984966 
L 79.586842 -50.659763 
L 90.378398 -50.659763 
L 101.169954 -51.671958 
L 111.96151 -52.009356 
L 122.753066 -52.684153 
L 133.544623 -52.684153 
L 144.336179 -52.684153 
L 155.127735 -52.684153 
L 165.919291 -52.684153 
L 165.919291 -52.684153 
L 165.919291 -52.684153 
L 155.127735 -52.684153 
L 144.336179 -52.684153 
L 133.544623 -52.684153 
L 122.753066 -52.684153 
L 111.96151 -53.021552 
L 101.169954 -52.684153 
L 90.378398 -51.671958 
L 79.586842 -51.671958 
L 68.795285 -52.009356 
z
" style="stroke: #6bbc6b; stroke-opacity: 0.2"/>
    </defs>
    <g clip-path="url(#p9e2edf9bd0)">
     <use xlink:href="#m7db783b549" x="0" y="277.539875" style="fill: #6bbc6b; fill-opacity: 0.2; stroke: #6bbc6b; stroke-opacity: 0.2"/>
    </g>
   </g>
   <g id="PolyCollection_13"/>
   <g id="PolyCollection_14">
    <defs>
     <path id="md6b4681517" d="M 68.795285 -50.322364 
L 68.795285 -50.322364 
L 79.586842 -50.659763 
L 90.378398 -50.997161 
L 101.169954 -51.671958 
L 111.96151 -55.383341 
L 122.753066 -60.444317 
L 133.544623 -70.903668 
L 144.336179 -86.423995 
L 155.127735 -107.342698 
L 165.919291 -127.249204 
L 165.919291 -176.846772 
L 165.919291 -176.846772 
L 155.127735 -131.635384 
L 144.336179 -95.533753 
L 133.544623 -73.940254 
L 122.753066 -62.468708 
L 111.96151 -55.383341 
L 101.169954 -52.684153 
L 90.378398 -50.997161 
L 79.586842 -50.659763 
L 68.795285 -50.322364 
z
" style="stroke: #d62728; stroke-opacity: 0.2"/>
    </defs>
    <g clip-path="url(#p9e2edf9bd0)">
     <use xlink:href="#md6b4681517" x="0" y="277.539875" style="fill: #d62728; fill-opacity: 0.2; stroke: #d62728; stroke-opacity: 0.2"/>
    </g>
   </g>
   <g id="PolyCollection_15"/>
   <g id="PolyCollection_16">
    <defs>
     <path id="m101a5272a8" d="M 68.795285 -50.322364 
L 68.795285 -50.322364 
L 79.586842 -50.659763 
L 90.378398 -50.997161 
L 101.169954 -51.671958 
L 111.96151 -54.708544 
L 122.753066 -59.094723 
L 133.544623 -65.842692 
L 144.336179 -71.578465 
L 155.127735 -68.710578 
L 165.919291 -83.38741 
L 165.919291 -137.033759 
L 165.919291 -137.033759 
L 155.127735 -110.716682 
L 144.336179 -90.810175 
L 133.544623 -73.940254 
L 122.753066 -62.131309 
L 111.96151 -55.720739 
L 101.169954 -52.684153 
L 90.378398 -50.997161 
L 79.586842 -50.659763 
L 68.795285 -50.322364 
z
" style="stroke: #e26868; stroke-opacity: 0.2"/>
    </defs>
    <g clip-path="url(#p9e2edf9bd0)">
     <use xlink:href="#m101a5272a8" x="0" y="277.539875" style="fill: #e26868; fill-opacity: 0.2; stroke: #e26868; stroke-opacity: 0.2"/>
    </g>
   </g>
   <g id="matplotlib.axis_1">
    <g id="xtick_1">
     <g id="line2d_1">
      <path d="M 68.056804 238.048 
L 68.056804 7.2 
" clip-path="url(#p9e2edf9bd0)" style="fill: none; stroke: #b0b0b0; stroke-width: 0.8; stroke-linecap: square"/>
     </g>
     <g id="line2d_2">
      <defs>
       <path id="m1ffd6ca47c" d="M 0 0 
L 0 3.5 
" style="stroke: #000000; stroke-width: 0.8"/>
      </defs>
      <g>
       <use xlink:href="#m1ffd6ca47c" x="68.056804" y="238.048" style="stroke: #000000; stroke-width: 0.8"/>
      </g>
     </g>
     <g id="text_1">
      <!-- $\mathdefault{10^{6}}$ -->
      <g transform="translate(57.496804 254.166125) scale(0.12 -0.12)">
       <defs>
        <path id="DejaVuSans-31" d="M 794 531 
L 1825 531 
L 1825 4091 
L 703 3866 
L 703 4441 
L 1819 4666 
L 2450 4666 
L 2450 531 
L 3481 531 
L 3481 0 
L 794 0 
L 794 531 
z
" transform="scale(0.015625)"/>
        <path id="DejaVuSans-30" d="M 2034 4250 
Q 1547 4250 1301 3770 
Q 1056 3291 1056 2328 
Q 1056 1369 1301 889 
Q 1547 409 2034 409 
Q 2525 409 2770 889 
Q 3016 1369 3016 2328 
Q 3016 3291 2770 3770 
Q 2525 4250 2034 4250 
z
M 2034 4750 
Q 2819 4750 3233 4129 
Q 3647 3509 3647 2328 
Q 3647 1150 3233 529 
Q 2819 -91 2034 -91 
Q 1250 -91 836 529 
Q 422 1150 422 2328 
Q 422 3509 836 4129 
Q 1250 4750 2034 4750 
z
" transform="scale(0.015625)"/>
        <path id="DejaVuSans-36" d="M 2113 2584 
Q 1688 2584 1439 2293 
Q 1191 2003 1191 1497 
Q 1191 994 1439 701 
Q 1688 409 2113 409 
Q 2538 409 2786 701 
Q 3034 994 3034 1497 
Q 3034 2003 2786 2293 
Q 2538 2584 2113 2584 
z
M 3366 4563 
L 3366 3988 
Q 3128 4100 2886 4159 
Q 2644 4219 2406 4219 
Q 1781 4219 1451 3797 
Q 1122 3375 1075 2522 
Q 1259 2794 1537 2939 
Q 1816 3084 2150 3084 
Q 2853 3084 3261 2657 
Q 3669 2231 3669 1497 
Q 3669 778 3244 343 
Q 2819 -91 2113 -91 
Q 1303 -91 875 529 
Q 447 1150 447 2328 
Q 447 3434 972 4092 
Q 1497 4750 2381 4750 
Q 2619 4750 2861 4703 
Q 3103 4656 3366 4563 
z
" transform="scale(0.015625)"/>
       </defs>
       <use xlink:href="#DejaVuSans-31" transform="translate(0 0.765625)"/>
       <use xlink:href="#DejaVuSans-30" transform="translate(63.623047 0.765625)"/>
       <use xlink:href="#DejaVuSans-36" transform="translate(128.203125 39.046875) scale(0.7)"/>
      </g>
     </g>
    </g>
    <g id="xtick_2">
     <g id="line2d_3">
      <path d="M 103.905577 238.048 
L 103.905577 7.2 
" clip-path="url(#p9e2edf9bd0)" style="fill: none; stroke: #b0b0b0; stroke-width: 0.8; stroke-linecap: square"/>
     </g>
     <g id="line2d_4">
      <g>
       <use xlink:href="#m1ffd6ca47c" x="103.905577" y="238.048" style="stroke: #000000; stroke-width: 0.8"/>
      </g>
     </g>
     <g id="text_2">
      <!-- $\mathdefault{10^{7}}$ -->
      <g transform="translate(93.345577 254.166125) scale(0.12 -0.12)">
       <defs>
        <path id="DejaVuSans-37" d="M 525 4666 
L 3525 4666 
L 3525 4397 
L 1831 0 
L 1172 0 
L 2766 4134 
L 525 4134 
L 525 4666 
z
" transform="scale(0.015625)"/>
       </defs>
       <use xlink:href="#DejaVuSans-31" transform="translate(0 0.684375)"/>
       <use xlink:href="#DejaVuSans-30" transform="translate(63.623047 0.684375)"/>
       <use xlink:href="#DejaVuSans-37" transform="translate(128.203125 38.965625) scale(0.7)"/>
      </g>
     </g>
    </g>
    <g id="xtick_3">
     <g id="line2d_5">
      <path d="M 139.754351 238.048 
L 139.754351 7.2 
" clip-path="url(#p9e2edf9bd0)" style="fill: none; stroke: #b0b0b0; stroke-width: 0.8; stroke-linecap: square"/>
     </g>
     <g id="line2d_6">
      <g>
       <use xlink:href="#m1ffd6ca47c" x="139.754351" y="238.048" style="stroke: #000000; stroke-width: 0.8"/>
      </g>
     </g>
     <g id="text_3">
      <!-- $\mathdefault{10^{8}}$ -->
      <g transform="translate(129.194351 254.166125) scale(0.12 -0.12)">
       <defs>
        <path id="DejaVuSans-38" d="M 2034 2216 
Q 1584 2216 1326 1975 
Q 1069 1734 1069 1313 
Q 1069 891 1326 650 
Q 1584 409 2034 409 
Q 2484 409 2743 651 
Q 3003 894 3003 1313 
Q 3003 1734 2745 1975 
Q 2488 2216 2034 2216 
z
M 1403 2484 
Q 997 2584 770 2862 
Q 544 3141 544 3541 
Q 544 4100 942 4425 
Q 1341 4750 2034 4750 
Q 2731 4750 3128 4425 
Q 3525 4100 3525 3541 
Q 3525 3141 3298 2862 
Q 3072 2584 2669 2484 
Q 3125 2378 3379 2068 
Q 3634 1759 3634 1313 
Q 3634 634 3220 271 
Q 2806 -91 2034 -91 
Q 1263 -91 848 271 
Q 434 634 434 1313 
Q 434 1759 690 2068 
Q 947 2378 1403 2484 
z
M 1172 3481 
Q 1172 3119 1398 2916 
Q 1625 2713 2034 2713 
Q 2441 2713 2670 2916 
Q 2900 3119 2900 3481 
Q 2900 3844 2670 4047 
Q 2441 4250 2034 4250 
Q 1625 4250 1398 4047 
Q 1172 3844 1172 3481 
z
" transform="scale(0.015625)"/>
       </defs>
       <use xlink:href="#DejaVuSans-31" transform="translate(0 0.765625)"/>
       <use xlink:href="#DejaVuSans-30" transform="translate(63.623047 0.765625)"/>
       <use xlink:href="#DejaVuSans-38" transform="translate(128.203125 39.046875) scale(0.7)"/>
      </g>
     </g>
    </g>
    <g id="xtick_4">
     <g id="line2d_7">
      <path d="M 175.603125 238.048 
L 175.603125 7.2 
" clip-path="url(#p9e2edf9bd0)" style="fill: none; stroke: #b0b0b0; stroke-width: 0.8; stroke-linecap: square"/>
     </g>
     <g id="line2d_8">
      <g>
       <use xlink:href="#m1ffd6ca47c" x="175.603125" y="238.048" style="stroke: #000000; stroke-width: 0.8"/>
      </g>
     </g>
     <g id="text_4">
      <!-- $\mathdefault{10^{9}}$ -->
      <g transform="translate(165.043125 254.166125) scale(0.12 -0.12)">
       <defs>
        <path id="DejaVuSans-39" d="M 703 97 
L 703 672 
Q 941 559 1184 500 
Q 1428 441 1663 441 
Q 2288 441 2617 861 
Q 2947 1281 2994 2138 
Q 2813 1869 2534 1725 
Q 2256 1581 1919 1581 
Q 1219 1581 811 2004 
Q 403 2428 403 3163 
Q 403 3881 828 4315 
Q 1253 4750 1959 4750 
Q 2769 4750 3195 4129 
Q 3622 3509 3622 2328 
Q 3622 1225 3098 567 
Q 2575 -91 1691 -91 
Q 1453 -91 1209 -44 
Q 966 3 703 97 
z
M 1959 2075 
Q 2384 2075 2632 2365 
Q 2881 2656 2881 3163 
Q 2881 3666 2632 3958 
Q 2384 4250 1959 4250 
Q 1534 4250 1286 3958 
Q 1038 3666 1038 3163 
Q 1038 2656 1286 2365 
Q 1534 2075 1959 2075 
z
" transform="scale(0.015625)"/>
       </defs>
       <use xlink:href="#DejaVuSans-31" transform="translate(0 0.765625)"/>
       <use xlink:href="#DejaVuSans-30" transform="translate(63.623047 0.765625)"/>
       <use xlink:href="#DejaVuSans-39" transform="translate(128.203125 39.046875) scale(0.7)"/>
      </g>
     </g>
    </g>
    <g id="xtick_5">
     <g id="line2d_9">
      <defs>
       <path id="m8cf93f3fd2" d="M 0 0 
L 0 2 
" style="stroke: #000000; stroke-width: 0.6"/>
      </defs>
      <g>
       <use xlink:href="#m8cf93f3fd2" x="78.84836" y="238.048" style="stroke: #000000; stroke-width: 0.6"/>
      </g>
     </g>
    </g>
    <g id="xtick_6">
     <g id="line2d_10">
      <g>
       <use xlink:href="#m8cf93f3fd2" x="85.161016" y="238.048" style="stroke: #000000; stroke-width: 0.6"/>
      </g>
     </g>
    </g>
    <g id="xtick_7">
     <g id="line2d_11">
      <g>
       <use xlink:href="#m8cf93f3fd2" x="89.639916" y="238.048" style="stroke: #000000; stroke-width: 0.6"/>
      </g>
     </g>
    </g>
    <g id="xtick_8">
     <g id="line2d_12">
      <g>
       <use xlink:href="#m8cf93f3fd2" x="93.114021" y="238.048" style="stroke: #000000; stroke-width: 0.6"/>
      </g>
     </g>
    </g>
    <g id="xtick_9">
     <g id="line2d_13">
      <g>
       <use xlink:href="#m8cf93f3fd2" x="95.952572" y="238.048" style="stroke: #000000; stroke-width: 0.6"/>
      </g>
     </g>
    </g>
    <g id="xtick_10">
     <g id="line2d_14">
      <g>
       <use xlink:href="#m8cf93f3fd2" x="98.352532" y="238.048" style="stroke: #000000; stroke-width: 0.6"/>
      </g>
     </g>
    </g>
    <g id="xtick_11">
     <g id="line2d_15">
      <g>
       <use xlink:href="#m8cf93f3fd2" x="100.431472" y="238.048" style="stroke: #000000; stroke-width: 0.6"/>
      </g>
     </g>
    </g>
    <g id="xtick_12">
     <g id="line2d_16">
      <g>
       <use xlink:href="#m8cf93f3fd2" x="102.265228" y="238.048" style="stroke: #000000; stroke-width: 0.6"/>
      </g>
     </g>
    </g>
    <g id="xtick_13">
     <g id="line2d_17">
      <g>
       <use xlink:href="#m8cf93f3fd2" x="114.697134" y="238.048" style="stroke: #000000; stroke-width: 0.6"/>
      </g>
     </g>
    </g>
    <g id="xtick_14">
     <g id="line2d_18">
      <g>
       <use xlink:href="#m8cf93f3fd2" x="121.009789" y="238.048" style="stroke: #000000; stroke-width: 0.6"/>
      </g>
     </g>
    </g>
    <g id="xtick_15">
     <g id="line2d_19">
      <g>
       <use xlink:href="#m8cf93f3fd2" x="125.48869" y="238.048" style="stroke: #000000; stroke-width: 0.6"/>
      </g>
     </g>
    </g>
    <g id="xtick_16">
     <g id="line2d_20">
      <g>
       <use xlink:href="#m8cf93f3fd2" x="128.962795" y="238.048" style="stroke: #000000; stroke-width: 0.6"/>
      </g>
     </g>
    </g>
    <g id="xtick_17">
     <g id="line2d_21">
      <g>
       <use xlink:href="#m8cf93f3fd2" x="131.801346" y="238.048" style="stroke: #000000; stroke-width: 0.6"/>
      </g>
     </g>
    </g>
    <g id="xtick_18">
     <g id="line2d_22">
      <g>
       <use xlink:href="#m8cf93f3fd2" x="134.201306" y="238.048" style="stroke: #000000; stroke-width: 0.6"/>
      </g>
     </g>
    </g>
    <g id="xtick_19">
     <g id="line2d_23">
      <g>
       <use xlink:href="#m8cf93f3fd2" x="136.280246" y="238.048" style="stroke: #000000; stroke-width: 0.6"/>
      </g>
     </g>
    </g>
    <g id="xtick_20">
     <g id="line2d_24">
      <g>
       <use xlink:href="#m8cf93f3fd2" x="138.114001" y="238.048" style="stroke: #000000; stroke-width: 0.6"/>
      </g>
     </g>
    </g>
    <g id="xtick_21">
     <g id="line2d_25">
      <g>
       <use xlink:href="#m8cf93f3fd2" x="150.545907" y="238.048" style="stroke: #000000; stroke-width: 0.6"/>
      </g>
     </g>
    </g>
    <g id="xtick_22">
     <g id="line2d_26">
      <g>
       <use xlink:href="#m8cf93f3fd2" x="156.858563" y="238.048" style="stroke: #000000; stroke-width: 0.6"/>
      </g>
     </g>
    </g>
    <g id="xtick_23">
     <g id="line2d_27">
      <g>
       <use xlink:href="#m8cf93f3fd2" x="161.337464" y="238.048" style="stroke: #000000; stroke-width: 0.6"/>
      </g>
     </g>
    </g>
    <g id="xtick_24">
     <g id="line2d_28">
      <g>
       <use xlink:href="#m8cf93f3fd2" x="164.811569" y="238.048" style="stroke: #000000; stroke-width: 0.6"/>
      </g>
     </g>
    </g>
    <g id="xtick_25">
     <g id="line2d_29">
      <g>
       <use xlink:href="#m8cf93f3fd2" x="167.650119" y="238.048" style="stroke: #000000; stroke-width: 0.6"/>
      </g>
     </g>
    </g>
    <g id="xtick_26">
     <g id="line2d_30">
      <g>
       <use xlink:href="#m8cf93f3fd2" x="170.05008" y="238.048" style="stroke: #000000; stroke-width: 0.6"/>
      </g>
     </g>
    </g>
    <g id="xtick_27">
     <g id="line2d_31">
      <g>
       <use xlink:href="#m8cf93f3fd2" x="172.12902" y="238.048" style="stroke: #000000; stroke-width: 0.6"/>
      </g>
     </g>
    </g>
    <g id="xtick_28">
     <g id="line2d_32">
      <g>
       <use xlink:href="#m8cf93f3fd2" x="173.962775" y="238.048" style="stroke: #000000; stroke-width: 0.6"/>
      </g>
     </g>
    </g>
    <g id="text_5">
     <!-- Transfer Size (bytes) -->
     <g transform="translate(70.609652 268.260187) scale(0.1 -0.1)">
      <defs>
       <path id="DejaVuSans-54" d="M -19 4666 
L 3928 4666 
L 3928 4134 
L 2272 4134 
L 2272 0 
L 1638 0 
L 1638 4134 
L -19 4134 
L -19 4666 
z
" transform="scale(0.015625)"/>
       <path id="DejaVuSans-72" d="M 2631 2963 
Q 2534 3019 2420 3045 
Q 2306 3072 2169 3072 
Q 1681 3072 1420 2755 
Q 1159 2438 1159 1844 
L 1159 0 
L 581 0 
L 581 3500 
L 1159 3500 
L 1159 2956 
Q 1341 3275 1631 3429 
Q 1922 3584 2338 3584 
Q 2397 3584 2469 3576 
Q 2541 3569 2628 3553 
L 2631 2963 
z
" transform="scale(0.015625)"/>
       <path id="DejaVuSans-61" d="M 2194 1759 
Q 1497 1759 1228 1600 
Q 959 1441 959 1056 
Q 959 750 1161 570 
Q 1363 391 1709 391 
Q 2188 391 2477 730 
Q 2766 1069 2766 1631 
L 2766 1759 
L 2194 1759 
z
M 3341 1997 
L 3341 0 
L 2766 0 
L 2766 531 
Q 2569 213 2275 61 
Q 1981 -91 1556 -91 
Q 1019 -91 701 211 
Q 384 513 384 1019 
Q 384 1609 779 1909 
Q 1175 2209 1959 2209 
L 2766 2209 
L 2766 2266 
Q 2766 2663 2505 2880 
Q 2244 3097 1772 3097 
Q 1472 3097 1187 3025 
Q 903 2953 641 2809 
L 641 3341 
Q 956 3463 1253 3523 
Q 1550 3584 1831 3584 
Q 2591 3584 2966 3190 
Q 3341 2797 3341 1997 
z
" transform="scale(0.015625)"/>
       <path id="DejaVuSans-6e" d="M 3513 2113 
L 3513 0 
L 2938 0 
L 2938 2094 
Q 2938 2591 2744 2837 
Q 2550 3084 2163 3084 
Q 1697 3084 1428 2787 
Q 1159 2491 1159 1978 
L 1159 0 
L 581 0 
L 581 3500 
L 1159 3500 
L 1159 2956 
Q 1366 3272 1645 3428 
Q 1925 3584 2291 3584 
Q 2894 3584 3203 3211 
Q 3513 2838 3513 2113 
z
" transform="scale(0.015625)"/>
       <path id="DejaVuSans-73" d="M 2834 3397 
L 2834 2853 
Q 2591 2978 2328 3040 
Q 2066 3103 1784 3103 
Q 1356 3103 1142 2972 
Q 928 2841 928 2578 
Q 928 2378 1081 2264 
Q 1234 2150 1697 2047 
L 1894 2003 
Q 2506 1872 2764 1633 
Q 3022 1394 3022 966 
Q 3022 478 2636 193 
Q 2250 -91 1575 -91 
Q 1294 -91 989 -36 
Q 684 19 347 128 
L 347 722 
Q 666 556 975 473 
Q 1284 391 1588 391 
Q 1994 391 2212 530 
Q 2431 669 2431 922 
Q 2431 1156 2273 1281 
Q 2116 1406 1581 1522 
L 1381 1569 
Q 847 1681 609 1914 
Q 372 2147 372 2553 
Q 372 3047 722 3315 
Q 1072 3584 1716 3584 
Q 2034 3584 2315 3537 
Q 2597 3491 2834 3397 
z
" transform="scale(0.015625)"/>
       <path id="DejaVuSans-66" d="M 2375 4863 
L 2375 4384 
L 1825 4384 
Q 1516 4384 1395 4259 
Q 1275 4134 1275 3809 
L 1275 3500 
L 2222 3500 
L 2222 3053 
L 1275 3053 
L 1275 0 
L 697 0 
L 697 3053 
L 147 3053 
L 147 3500 
L 697 3500 
L 697 3744 
Q 697 4328 969 4595 
Q 1241 4863 1831 4863 
L 2375 4863 
z
" transform="scale(0.015625)"/>
       <path id="DejaVuSans-65" d="M 3597 1894 
L 3597 1613 
L 953 1613 
Q 991 1019 1311 708 
Q 1631 397 2203 397 
Q 2534 397 2845 478 
Q 3156 559 3463 722 
L 3463 178 
Q 3153 47 2828 -22 
Q 2503 -91 2169 -91 
Q 1331 -91 842 396 
Q 353 884 353 1716 
Q 353 2575 817 3079 
Q 1281 3584 2069 3584 
Q 2775 3584 3186 3129 
Q 3597 2675 3597 1894 
z
M 3022 2063 
Q 3016 2534 2758 2815 
Q 2500 3097 2075 3097 
Q 1594 3097 1305 2825 
Q 1016 2553 972 2059 
L 3022 2063 
z
" transform="scale(0.015625)"/>
       <path id="DejaVuSans-20" transform="scale(0.015625)"/>
       <path id="DejaVuSans-53" d="M 3425 4513 
L 3425 3897 
Q 3066 4069 2747 4153 
Q 2428 4238 2131 4238 
Q 1616 4238 1336 4038 
Q 1056 3838 1056 3469 
Q 1056 3159 1242 3001 
Q 1428 2844 1947 2747 
L 2328 2669 
Q 3034 2534 3370 2195 
Q 3706 1856 3706 1288 
Q 3706 609 3251 259 
Q 2797 -91 1919 -91 
Q 1588 -91 1214 -16 
Q 841 59 441 206 
L 441 856 
Q 825 641 1194 531 
Q 1563 422 1919 422 
Q 2459 422 2753 634 
Q 3047 847 3047 1241 
Q 3047 1584 2836 1778 
Q 2625 1972 2144 2069 
L 1759 2144 
Q 1053 2284 737 2584 
Q 422 2884 422 3419 
Q 422 4038 858 4394 
Q 1294 4750 2059 4750 
Q 2388 4750 2728 4690 
Q 3069 4631 3425 4513 
z
" transform="scale(0.015625)"/>
       <path id="DejaVuSans-69" d="M 603 3500 
L 1178 3500 
L 1178 0 
L 603 0 
L 603 3500 
z
M 603 4863 
L 1178 4863 
L 1178 4134 
L 603 4134 
L 603 4863 
z
" transform="scale(0.015625)"/>
       <path id="DejaVuSans-7a" d="M 353 3500 
L 3084 3500 
L 3084 2975 
L 922 459 
L 3084 459 
L 3084 0 
L 275 0 
L 275 525 
L 2438 3041 
L 353 3041 
L 353 3500 
z
" transform="scale(0.015625)"/>
       <path id="DejaVuSans-28" d="M 1984 4856 
Q 1566 4138 1362 3434 
Q 1159 2731 1159 2009 
Q 1159 1288 1364 580 
Q 1569 -128 1984 -844 
L 1484 -844 
Q 1016 -109 783 600 
Q 550 1309 550 2009 
Q 550 2706 781 3412 
Q 1013 4119 1484 4856 
L 1984 4856 
z
" transform="scale(0.015625)"/>
       <path id="DejaVuSans-62" d="M 3116 1747 
Q 3116 2381 2855 2742 
Q 2594 3103 2138 3103 
Q 1681 3103 1420 2742 
Q 1159 2381 1159 1747 
Q 1159 1113 1420 752 
Q 1681 391 2138 391 
Q 2594 391 2855 752 
Q 3116 1113 3116 1747 
z
M 1159 2969 
Q 1341 3281 1617 3432 
Q 1894 3584 2278 3584 
Q 2916 3584 3314 3078 
Q 3713 2572 3713 1747 
Q 3713 922 3314 415 
Q 2916 -91 2278 -91 
Q 1894 -91 1617 61 
Q 1341 213 1159 525 
L 1159 0 
L 581 0 
L 581 4863 
L 1159 4863 
L 1159 2969 
z
" transform="scale(0.015625)"/>
       <path id="DejaVuSans-79" d="M 2059 -325 
Q 1816 -950 1584 -1140 
Q 1353 -1331 966 -1331 
L 506 -1331 
L 506 -850 
L 844 -850 
Q 1081 -850 1212 -737 
Q 1344 -625 1503 -206 
L 1606 56 
L 191 3500 
L 800 3500 
L 1894 763 
L 2988 3500 
L 3597 3500 
L 2059 -325 
z
" transform="scale(0.015625)"/>
       <path id="DejaVuSans-74" d="M 1172 4494 
L 1172 3500 
L 2356 3500 
L 2356 3053 
L 1172 3053 
L 1172 1153 
Q 1172 725 1289 603 
Q 1406 481 1766 481 
L 2356 481 
L 2356 0 
L 1766 0 
Q 1100 0 847 248 
Q 594 497 594 1153 
L 594 3053 
L 172 3053 
L 172 3500 
L 594 3500 
L 594 4494 
L 1172 4494 
z
" transform="scale(0.015625)"/>
       <path id="DejaVuSans-29" d="M 513 4856 
L 1013 4856 
Q 1481 4119 1714 3412 
Q 1947 2706 1947 2009 
Q 1947 1309 1714 600 
Q 1481 -109 1013 -844 
L 513 -844 
Q 928 -128 1133 580 
Q 1338 1288 1338 2009 
Q 1338 2731 1133 3434 
Q 928 4138 513 4856 
z
" transform="scale(0.015625)"/>
      </defs>
      <use xlink:href="#DejaVuSans-54"/>
      <use xlink:href="#DejaVuSans-72" x="46.333984"/>
      <use xlink:href="#DejaVuSans-61" x="87.447266"/>
      <use xlink:href="#DejaVuSans-6e" x="148.726562"/>
      <use xlink:href="#DejaVuSans-73" x="212.105469"/>
      <use xlink:href="#DejaVuSans-66" x="264.205078"/>
      <use xlink:href="#DejaVuSans-65" x="299.410156"/>
      <use xlink:href="#DejaVuSans-72" x="360.933594"/>
      <use xlink:href="#DejaVuSans-20" x="402.046875"/>
      <use xlink:href="#DejaVuSans-53" x="433.833984"/>
      <use xlink:href="#DejaVuSans-69" x="497.310547"/>
      <use xlink:href="#DejaVuSans-7a" x="525.09375"/>
      <use xlink:href="#DejaVuSans-65" x="577.583984"/>
      <use xlink:href="#DejaVuSans-20" x="639.107422"/>
      <use xlink:href="#DejaVuSans-28" x="670.894531"/>
      <use xlink:href="#DejaVuSans-62" x="709.908203"/>
      <use xlink:href="#DejaVuSans-79" x="773.384766"/>
      <use xlink:href="#DejaVuSans-74" x="832.564453"/>
      <use xlink:href="#DejaVuSans-65" x="871.773438"/>
      <use xlink:href="#DejaVuSans-73" x="933.296875"/>
      <use xlink:href="#DejaVuSans-29" x="985.396484"/>
     </g>
    </g>
   </g>
   <g id="matplotlib.axis_2">
    <g id="ytick_1">
     <g id="line2d_33">
      <path d="M 68.056804 227.554909 
L 175.603125 227.554909 
" clip-path="url(#p9e2edf9bd0)" style="fill: none; stroke: #b0b0b0; stroke-width: 0.8; stroke-linecap: square"/>
     </g>
     <g id="line2d_34">
      <defs>
       <path id="mcdb711b48a" d="M 0 0 
L -3.5 0 
" style="stroke: #000000; stroke-width: 0.8"/>
      </defs>
      <g>
       <use xlink:href="#mcdb711b48a" x="68.056804" y="227.554909" style="stroke: #000000; stroke-width: 0.8"/>
      </g>
     </g>
     <g id="text_6">
      <!-- 0.0 -->
      <g transform="translate(41.973054 232.113972) scale(0.12 -0.12)">
       <defs>
        <path id="DejaVuSans-2e" d="M 684 794 
L 1344 794 
L 1344 0 
L 684 0 
L 684 794 
z
" transform="scale(0.015625)"/>
       </defs>
       <use xlink:href="#DejaVuSans-30"/>
       <use xlink:href="#DejaVuSans-2e" x="63.623047"/>
       <use xlink:href="#DejaVuSans-30" x="95.410156"/>
      </g>
     </g>
    </g>
    <g id="ytick_2">
     <g id="line2d_35">
      <path d="M 68.056804 193.815067 
L 175.603125 193.815067 
" clip-path="url(#p9e2edf9bd0)" style="fill: none; stroke: #b0b0b0; stroke-width: 0.8; stroke-linecap: square"/>
     </g>
     <g id="line2d_36">
      <g>
       <use xlink:href="#mcdb711b48a" x="68.056804" y="193.815067" style="stroke: #000000; stroke-width: 0.8"/>
      </g>
     </g>
     <g id="text_7">
      <!-- 0.1 -->
      <g transform="translate(41.973054 198.374129) scale(0.12 -0.12)">
       <use xlink:href="#DejaVuSans-30"/>
       <use xlink:href="#DejaVuSans-2e" x="63.623047"/>
       <use xlink:href="#DejaVuSans-31" x="95.410156"/>
      </g>
     </g>
    </g>
    <g id="ytick_3">
     <g id="line2d_37">
      <path d="M 68.056804 160.075225 
L 175.603125 160.075225 
" clip-path="url(#p9e2edf9bd0)" style="fill: none; stroke: #b0b0b0; stroke-width: 0.8; stroke-linecap: square"/>
     </g>
     <g id="line2d_38">
      <g>
       <use xlink:href="#mcdb711b48a" x="68.056804" y="160.075225" style="stroke: #000000; stroke-width: 0.8"/>
      </g>
     </g>
     <g id="text_8">
      <!-- 0.2 -->
      <g transform="translate(41.973054 164.634287) scale(0.12 -0.12)">
       <defs>
        <path id="DejaVuSans-32" d="M 1228 531 
L 3431 531 
L 3431 0 
L 469 0 
L 469 531 
Q 828 903 1448 1529 
Q 2069 2156 2228 2338 
Q 2531 2678 2651 2914 
Q 2772 3150 2772 3378 
Q 2772 3750 2511 3984 
Q 2250 4219 1831 4219 
Q 1534 4219 1204 4116 
Q 875 4013 500 3803 
L 500 4441 
Q 881 4594 1212 4672 
Q 1544 4750 1819 4750 
Q 2544 4750 2975 4387 
Q 3406 4025 3406 3419 
Q 3406 3131 3298 2873 
Q 3191 2616 2906 2266 
Q 2828 2175 2409 1742 
Q 1991 1309 1228 531 
z
" transform="scale(0.015625)"/>
       </defs>
       <use xlink:href="#DejaVuSans-30"/>
       <use xlink:href="#DejaVuSans-2e" x="63.623047"/>
       <use xlink:href="#DejaVuSans-32" x="95.410156"/>
      </g>
     </g>
    </g>
    <g id="ytick_4">
     <g id="line2d_39">
      <path d="M 68.056804 126.335383 
L 175.603125 126.335383 
" clip-path="url(#p9e2edf9bd0)" style="fill: none; stroke: #b0b0b0; stroke-width: 0.8; stroke-linecap: square"/>
     </g>
     <g id="line2d_40">
      <g>
       <use xlink:href="#mcdb711b48a" x="68.056804" y="126.335383" style="stroke: #000000; stroke-width: 0.8"/>
      </g>
     </g>
     <g id="text_9">
      <!-- 0.3 -->
      <g transform="translate(41.973054 130.894445) scale(0.12 -0.12)">
       <defs>
        <path id="DejaVuSans-33" d="M 2597 2516 
Q 3050 2419 3304 2112 
Q 3559 1806 3559 1356 
Q 3559 666 3084 287 
Q 2609 -91 1734 -91 
Q 1441 -91 1130 -33 
Q 819 25 488 141 
L 488 750 
Q 750 597 1062 519 
Q 1375 441 1716 441 
Q 2309 441 2620 675 
Q 2931 909 2931 1356 
Q 2931 1769 2642 2001 
Q 2353 2234 1838 2234 
L 1294 2234 
L 1294 2753 
L 1863 2753 
Q 2328 2753 2575 2939 
Q 2822 3125 2822 3475 
Q 2822 3834 2567 4026 
Q 2313 4219 1838 4219 
Q 1578 4219 1281 4162 
Q 984 4106 628 3988 
L 628 4550 
Q 988 4650 1302 4700 
Q 1616 4750 1894 4750 
Q 2613 4750 3031 4423 
Q 3450 4097 3450 3541 
Q 3450 3153 3228 2886 
Q 3006 2619 2597 2516 
z
" transform="scale(0.015625)"/>
       </defs>
       <use xlink:href="#DejaVuSans-30"/>
       <use xlink:href="#DejaVuSans-2e" x="63.623047"/>
       <use xlink:href="#DejaVuSans-33" x="95.410156"/>
      </g>
     </g>
    </g>
    <g id="ytick_5">
     <g id="line2d_41">
      <path d="M 68.056804 92.59554 
L 175.603125 92.59554 
" clip-path="url(#p9e2edf9bd0)" style="fill: none; stroke: #b0b0b0; stroke-width: 0.8; stroke-linecap: square"/>
     </g>
     <g id="line2d_42">
      <g>
       <use xlink:href="#mcdb711b48a" x="68.056804" y="92.59554" style="stroke: #000000; stroke-width: 0.8"/>
      </g>
     </g>
     <g id="text_10">
      <!-- 0.4 -->
      <g transform="translate(41.973054 97.154603) scale(0.12 -0.12)">
       <defs>
        <path id="DejaVuSans-34" d="M 2419 4116 
L 825 1625 
L 2419 1625 
L 2419 4116 
z
M 2253 4666 
L 3047 4666 
L 3047 1625 
L 3713 1625 
L 3713 1100 
L 3047 1100 
L 3047 0 
L 2419 0 
L 2419 1100 
L 313 1100 
L 313 1709 
L 2253 4666 
z
" transform="scale(0.015625)"/>
       </defs>
       <use xlink:href="#DejaVuSans-30"/>
       <use xlink:href="#DejaVuSans-2e" x="63.623047"/>
       <use xlink:href="#DejaVuSans-34" x="95.410156"/>
      </g>
     </g>
    </g>
    <g id="ytick_6">
     <g id="line2d_43">
      <path d="M 68.056804 58.855698 
L 175.603125 58.855698 
" clip-path="url(#p9e2edf9bd0)" style="fill: none; stroke: #b0b0b0; stroke-width: 0.8; stroke-linecap: square"/>
     </g>
     <g id="line2d_44">
      <g>
       <use xlink:href="#mcdb711b48a" x="68.056804" y="58.855698" style="stroke: #000000; stroke-width: 0.8"/>
      </g>
     </g>
     <g id="text_11">
      <!-- 0.5 -->
      <g transform="translate(41.973054 63.414761) scale(0.12 -0.12)">
       <defs>
        <path id="DejaVuSans-35" d="M 691 4666 
L 3169 4666 
L 3169 4134 
L 1269 4134 
L 1269 2991 
Q 1406 3038 1543 3061 
Q 1681 3084 1819 3084 
Q 2600 3084 3056 2656 
Q 3513 2228 3513 1497 
Q 3513 744 3044 326 
Q 2575 -91 1722 -91 
Q 1428 -91 1123 -41 
Q 819 9 494 109 
L 494 744 
Q 775 591 1075 516 
Q 1375 441 1709 441 
Q 2250 441 2565 725 
Q 2881 1009 2881 1497 
Q 2881 1984 2565 2268 
Q 2250 2553 1709 2553 
Q 1456 2553 1204 2497 
Q 953 2441 691 2322 
L 691 4666 
z
" transform="scale(0.015625)"/>
       </defs>
       <use xlink:href="#DejaVuSans-30"/>
       <use xlink:href="#DejaVuSans-2e" x="63.623047"/>
       <use xlink:href="#DejaVuSans-35" x="95.410156"/>
      </g>
     </g>
    </g>
    <g id="ytick_7">
     <g id="line2d_45">
      <path d="M 68.056804 25.115856 
L 175.603125 25.115856 
" clip-path="url(#p9e2edf9bd0)" style="fill: none; stroke: #b0b0b0; stroke-width: 0.8; stroke-linecap: square"/>
     </g>
     <g id="line2d_46">
      <g>
       <use xlink:href="#mcdb711b48a" x="68.056804" y="25.115856" style="stroke: #000000; stroke-width: 0.8"/>
      </g>
     </g>
     <g id="text_12">
      <!-- 0.6 -->
      <g transform="translate(41.973054 29.674919) scale(0.12 -0.12)">
       <use xlink:href="#DejaVuSans-30"/>
       <use xlink:href="#DejaVuSans-2e" x="63.623047"/>
       <use xlink:href="#DejaVuSans-36" x="95.410156"/>
      </g>
     </g>
    </g>
    <g id="text_13">
     <!-- DRAMA -->
     <g transform="translate(35.893366 140.902906) rotate(-90) scale(0.1 -0.1)">
      <defs>
       <path id="DejaVuSans-44" d="M 1259 4147 
L 1259 519 
L 2022 519 
Q 2988 519 3436 956 
Q 3884 1394 3884 2338 
Q 3884 3275 3436 3711 
Q 2988 4147 2022 4147 
L 1259 4147 
z
M 628 4666 
L 1925 4666 
Q 3281 4666 3915 4102 
Q 4550 3538 4550 2338 
Q 4550 1131 3912 565 
Q 3275 0 1925 0 
L 628 0 
L 628 4666 
z
" transform="scale(0.015625)"/>
       <path id="DejaVuSans-52" d="M 2841 2188 
Q 3044 2119 3236 1894 
Q 3428 1669 3622 1275 
L 4263 0 
L 3584 0 
L 2988 1197 
Q 2756 1666 2539 1819 
Q 2322 1972 1947 1972 
L 1259 1972 
L 1259 0 
L 628 0 
L 628 4666 
L 2053 4666 
Q 2853 4666 3247 4331 
Q 3641 3997 3641 3322 
Q 3641 2881 3436 2590 
Q 3231 2300 2841 2188 
z
M 1259 4147 
L 1259 2491 
L 2053 2491 
Q 2509 2491 2742 2702 
Q 2975 2913 2975 3322 
Q 2975 3731 2742 3939 
Q 2509 4147 2053 4147 
L 1259 4147 
z
" transform="scale(0.015625)"/>
       <path id="DejaVuSans-41" d="M 2188 4044 
L 1331 1722 
L 3047 1722 
L 2188 4044 
z
M 1831 4666 
L 2547 4666 
L 4325 0 
L 3669 0 
L 3244 1197 
L 1141 1197 
L 716 0 
L 50 0 
L 1831 4666 
z
" transform="scale(0.015625)"/>
       <path id="DejaVuSans-4d" d="M 628 4666 
L 1569 4666 
L 2759 1491 
L 3956 4666 
L 4897 4666 
L 4897 0 
L 4281 0 
L 4281 4097 
L 3078 897 
L 2444 897 
L 1241 4097 
L 1241 0 
L 628 0 
L 628 4666 
z
" transform="scale(0.015625)"/>
      </defs>
      <use xlink:href="#DejaVuSans-44"/>
      <use xlink:href="#DejaVuSans-52" x="77.001953"/>
      <use xlink:href="#DejaVuSans-41" x="142.484375"/>
      <use xlink:href="#DejaVuSans-4d" x="210.892578"/>
      <use xlink:href="#DejaVuSans-41" x="297.171875"/>
     </g>
    </g>
   </g>
   <g id="line2d_47">
    <path d="M 68.795285 227.54927 
L 79.586842 226.897029 
L 90.378398 225.3059 
L 101.169954 222.361417 
L 111.96151 217.110595 
L 122.753066 207.428482 
L 133.544623 188.409174 
L 144.336179 156.605378 
L 155.127735 105.732463 
L 165.919291 44.969733 
" clip-path="url(#p9e2edf9bd0)" style="fill: none; stroke: #1f77b4; stroke-width: 2.2; stroke-linecap: square"/>
    <defs>
     <path id="md6ce17f19a" d="M 0 3 
C 0.795609 3 1.55874 2.683901 2.12132 2.12132 
C 2.683901 1.55874 3 0.795609 3 0 
C 3 -0.795609 2.683901 -1.55874 2.12132 -2.12132 
C 1.55874 -2.683901 0.795609 -3 0 -3 
C -0.795609 -3 -1.55874 -2.683901 -2.12132 -2.12132 
C -2.683901 -1.55874 -3 -0.795609 -3 0 
C -3 0.795609 -2.683901 1.55874 -2.12132 2.12132 
C -1.55874 2.683901 -0.795609 3 0 3 
z
" style="stroke: #ffffff; stroke-width: 0.75"/>
    </defs>
    <g clip-path="url(#p9e2edf9bd0)">
     <use xlink:href="#md6ce17f19a" x="68.795285" y="227.54927" style="fill: #1f77b4; stroke: #ffffff; stroke-width: 0.75"/>
     <use xlink:href="#md6ce17f19a" x="79.586842" y="226.897029" style="fill: #1f77b4; stroke: #ffffff; stroke-width: 0.75"/>
     <use xlink:href="#md6ce17f19a" x="90.378398" y="225.3059" style="fill: #1f77b4; stroke: #ffffff; stroke-width: 0.75"/>
     <use xlink:href="#md6ce17f19a" x="101.169954" y="222.361417" style="fill: #1f77b4; stroke: #ffffff; stroke-width: 0.75"/>
     <use xlink:href="#md6ce17f19a" x="111.96151" y="217.110595" style="fill: #1f77b4; stroke: #ffffff; stroke-width: 0.75"/>
     <use xlink:href="#md6ce17f19a" x="122.753066" y="207.428482" style="fill: #1f77b4; stroke: #ffffff; stroke-width: 0.75"/>
     <use xlink:href="#md6ce17f19a" x="133.544623" y="188.409174" style="fill: #1f77b4; stroke: #ffffff; stroke-width: 0.75"/>
     <use xlink:href="#md6ce17f19a" x="144.336179" y="156.605378" style="fill: #1f77b4; stroke: #ffffff; stroke-width: 0.75"/>
     <use xlink:href="#md6ce17f19a" x="155.127735" y="105.732463" style="fill: #1f77b4; stroke: #ffffff; stroke-width: 0.75"/>
     <use xlink:href="#md6ce17f19a" x="165.919291" y="44.969733" style="fill: #1f77b4; stroke: #ffffff; stroke-width: 0.75"/>
    </g>
   </g>
   <g id="line2d_48">
    <path d="M 68.795285 227.541751 
L 79.586842 226.873533 
L 90.378398 225.299321 
L 101.169954 222.313486 
L 111.96151 216.957403 
L 122.753066 207.063829 
L 133.544623 189.007844 
L 144.336179 156.864771 
L 155.127735 104.833047 
L 165.919291 47.958387 
" clip-path="url(#p9e2edf9bd0)" style="fill: none; stroke-dasharray: 8.14,3.52; stroke-dashoffset: 0; stroke: #62a0cb; stroke-width: 2.2"/>
    <defs>
     <path id="m34d2945507" d="M 0 3 
C 0.795609 3 1.55874 2.683901 2.12132 2.12132 
C 2.683901 1.55874 3 0.795609 3 0 
C 3 -0.795609 2.683901 -1.55874 2.12132 -2.12132 
C 1.55874 -2.683901 0.795609 -3 0 -3 
C -0.795609 -3 -1.55874 -2.683901 -2.12132 -2.12132 
C -2.683901 -1.55874 -3 -0.795609 -3 0 
C -3 0.795609 -2.683901 1.55874 -2.12132 2.12132 
C -1.55874 2.683901 -0.795609 3 0 3 
z
" style="stroke: #ffffff; stroke-width: 0.75"/>
    </defs>
    <g clip-path="url(#p9e2edf9bd0)">
     <use xlink:href="#m34d2945507" x="68.795285" y="227.541751" style="fill: #62a0cb; stroke: #ffffff; stroke-width: 0.75"/>
     <use xlink:href="#m34d2945507" x="79.586842" y="226.873533" style="fill: #62a0cb; stroke: #ffffff; stroke-width: 0.75"/>
     <use xlink:href="#m34d2945507" x="90.378398" y="225.299321" style="fill: #62a0cb; stroke: #ffffff; stroke-width: 0.75"/>
     <use xlink:href="#m34d2945507" x="101.169954" y="222.313486" style="fill: #62a0cb; stroke: #ffffff; stroke-width: 0.75"/>
     <use xlink:href="#m34d2945507" x="111.96151" y="216.957403" style="fill: #62a0cb; stroke: #ffffff; stroke-width: 0.75"/>
     <use xlink:href="#m34d2945507" x="122.753066" y="207.063829" style="fill: #62a0cb; stroke: #ffffff; stroke-width: 0.75"/>
     <use xlink:href="#m34d2945507" x="133.544623" y="189.007844" style="fill: #62a0cb; stroke: #ffffff; stroke-width: 0.75"/>
     <use xlink:href="#m34d2945507" x="144.336179" y="156.864771" style="fill: #62a0cb; stroke: #ffffff; stroke-width: 0.75"/>
     <use xlink:href="#m34d2945507" x="155.127735" y="104.833047" style="fill: #62a0cb; stroke: #ffffff; stroke-width: 0.75"/>
     <use xlink:href="#m34d2945507" x="165.919291" y="47.958387" style="fill: #62a0cb; stroke: #ffffff; stroke-width: 0.75"/>
    </g>
   </g>
   <g id="line2d_49">
    <path d="M 68.795285 227.554909 
L 79.586842 227.287058 
L 90.378398 227.142324 
L 101.169954 226.520158 
L 111.96151 224.695951 
L 122.753066 218.691387 
L 133.544623 208.9745 
L 144.336179 193.13839 
L 155.127735 168.557177 
L 165.919291 138.890551 
" clip-path="url(#p9e2edf9bd0)" style="fill: none; stroke: #ff7f0e; stroke-width: 2.2; stroke-linecap: square"/>
    <defs>
     <path id="mb0807f8225" d="M 0 3 
C 0.795609 3 1.55874 2.683901 2.12132 2.12132 
C 2.683901 1.55874 3 0.795609 3 0 
C 3 -0.795609 2.683901 -1.55874 2.12132 -2.12132 
C 1.55874 -2.683901 0.795609 -3 0 -3 
C -0.795609 -3 -1.55874 -2.683901 -2.12132 -2.12132 
C -2.683901 -1.55874 -3 -0.795609 -3 0 
C -3 0.795609 -2.683901 1.55874 -2.12132 2.12132 
C -1.55874 2.683901 -0.795609 3 0 3 
z
" style="stroke: #ffffff; stroke-width: 0.75"/>
    </defs>
    <g clip-path="url(#p9e2edf9bd0)">
     <use xlink:href="#mb0807f8225" x="68.795285" y="227.554909" style="fill: #ff7f0e; stroke: #ffffff; stroke-width: 0.75"/>
     <use xlink:href="#mb0807f8225" x="79.586842" y="227.287058" style="fill: #ff7f0e; stroke: #ffffff; stroke-width: 0.75"/>
     <use xlink:href="#mb0807f8225" x="90.378398" y="227.142324" style="fill: #ff7f0e; stroke: #ffffff; stroke-width: 0.75"/>
     <use xlink:href="#mb0807f8225" x="101.169954" y="226.520158" style="fill: #ff7f0e; stroke: #ffffff; stroke-width: 0.75"/>
     <use xlink:href="#mb0807f8225" x="111.96151" y="224.695951" style="fill: #ff7f0e; stroke: #ffffff; stroke-width: 0.75"/>
     <use xlink:href="#mb0807f8225" x="122.753066" y="218.691387" style="fill: #ff7f0e; stroke: #ffffff; stroke-width: 0.75"/>
     <use xlink:href="#mb0807f8225" x="133.544623" y="208.9745" style="fill: #ff7f0e; stroke: #ffffff; stroke-width: 0.75"/>
     <use xlink:href="#mb0807f8225" x="144.336179" y="193.13839" style="fill: #ff7f0e; stroke: #ffffff; stroke-width: 0.75"/>
     <use xlink:href="#mb0807f8225" x="155.127735" y="168.557177" style="fill: #ff7f0e; stroke: #ffffff; stroke-width: 0.75"/>
     <use xlink:href="#mb0807f8225" x="165.919291" y="138.890551" style="fill: #ff7f0e; stroke: #ffffff; stroke-width: 0.75"/>
    </g>
   </g>
   <g id="line2d_50">
    <path d="M 68.795285 227.55209 
L 79.586842 227.256044 
L 90.378398 227.11413 
L 101.169954 226.515459 
L 111.96151 224.70065 
L 122.753066 218.519398 
L 133.544623 208.9745 
L 144.336179 193.433497 
L 155.127735 169.134231 
L 165.919291 140.112328 
" clip-path="url(#p9e2edf9bd0)" style="fill: none; stroke-dasharray: 8.14,3.52; stroke-dashoffset: 0; stroke: #ffa556; stroke-width: 2.2"/>
    <defs>
     <path id="mad1efc0931" d="M 0 3 
C 0.795609 3 1.55874 2.683901 2.12132 2.12132 
C 2.683901 1.55874 3 0.795609 3 0 
C 3 -0.795609 2.683901 -1.55874 2.12132 -2.12132 
C 1.55874 -2.683901 0.795609 -3 0 -3 
C -0.795609 -3 -1.55874 -2.683901 -2.12132 -2.12132 
C -2.683901 -1.55874 -3 -0.795609 -3 0 
C -3 0.795609 -2.683901 1.55874 -2.12132 2.12132 
C -1.55874 2.683901 -0.795609 3 0 3 
z
" style="stroke: #ffffff; stroke-width: 0.75"/>
    </defs>
    <g clip-path="url(#p9e2edf9bd0)">
     <use xlink:href="#mad1efc0931" x="68.795285" y="227.55209" style="fill: #ffa556; stroke: #ffffff; stroke-width: 0.75"/>
     <use xlink:href="#mad1efc0931" x="79.586842" y="227.256044" style="fill: #ffa556; stroke: #ffffff; stroke-width: 0.75"/>
     <use xlink:href="#mad1efc0931" x="90.378398" y="227.11413" style="fill: #ffa556; stroke: #ffffff; stroke-width: 0.75"/>
     <use xlink:href="#mad1efc0931" x="101.169954" y="226.515459" style="fill: #ffa556; stroke: #ffffff; stroke-width: 0.75"/>
     <use xlink:href="#mad1efc0931" x="111.96151" y="224.70065" style="fill: #ffa556; stroke: #ffffff; stroke-width: 0.75"/>
     <use xlink:href="#mad1efc0931" x="122.753066" y="218.519398" style="fill: #ffa556; stroke: #ffffff; stroke-width: 0.75"/>
     <use xlink:href="#mad1efc0931" x="133.544623" y="208.9745" style="fill: #ffa556; stroke: #ffffff; stroke-width: 0.75"/>
     <use xlink:href="#mad1efc0931" x="144.336179" y="193.433497" style="fill: #ffa556; stroke: #ffffff; stroke-width: 0.75"/>
     <use xlink:href="#mad1efc0931" x="155.127735" y="169.134231" style="fill: #ffa556; stroke: #ffffff; stroke-width: 0.75"/>
     <use xlink:href="#mad1efc0931" x="165.919291" y="140.112328" style="fill: #ffa556; stroke: #ffffff; stroke-width: 0.75"/>
    </g>
   </g>
   <g id="line2d_51">
    <path d="M 68.795285 227.045522 
L 79.586842 226.407379 
L 90.378398 226.097235 
L 101.169954 225.314358 
L 111.96151 224.92245 
L 122.753066 224.855722 
L 133.544623 224.853842 
L 144.336179 224.853137 
L 155.127735 224.842704 
L 165.919291 224.84579 
" clip-path="url(#p9e2edf9bd0)" style="fill: none; stroke: #2ca02c; stroke-width: 2.2; stroke-linecap: square"/>
    <defs>
     <path id="m82ef654502" d="M 0 3 
C 0.795609 3 1.55874 2.683901 2.12132 2.12132 
C 2.683901 1.55874 3 0.795609 3 0 
C 3 -0.795609 2.683901 -1.55874 2.12132 -2.12132 
C 1.55874 -2.683901 0.795609 -3 0 -3 
C -0.795609 -3 -1.55874 -2.683901 -2.12132 -2.12132 
C -2.683901 -1.55874 -3 -0.795609 -3 0 
C -3 0.795609 -2.683901 1.55874 -2.12132 2.12132 
C -1.55874 2.683901 -0.795609 3 0 3 
z
" style="stroke: #ffffff; stroke-width: 0.75"/>
    </defs>
    <g clip-path="url(#p9e2edf9bd0)">
     <use xlink:href="#m82ef654502" x="68.795285" y="227.045522" style="fill: #2ca02c; stroke: #ffffff; stroke-width: 0.75"/>
     <use xlink:href="#m82ef654502" x="79.586842" y="226.407379" style="fill: #2ca02c; stroke: #ffffff; stroke-width: 0.75"/>
     <use xlink:href="#m82ef654502" x="90.378398" y="226.097235" style="fill: #2ca02c; stroke: #ffffff; stroke-width: 0.75"/>
     <use xlink:href="#m82ef654502" x="101.169954" y="225.314358" style="fill: #2ca02c; stroke: #ffffff; stroke-width: 0.75"/>
     <use xlink:href="#m82ef654502" x="111.96151" y="224.92245" style="fill: #2ca02c; stroke: #ffffff; stroke-width: 0.75"/>
     <use xlink:href="#m82ef654502" x="122.753066" y="224.855722" style="fill: #2ca02c; stroke: #ffffff; stroke-width: 0.75"/>
     <use xlink:href="#m82ef654502" x="133.544623" y="224.853842" style="fill: #2ca02c; stroke: #ffffff; stroke-width: 0.75"/>
     <use xlink:href="#m82ef654502" x="144.336179" y="224.853137" style="fill: #2ca02c; stroke: #ffffff; stroke-width: 0.75"/>
     <use xlink:href="#m82ef654502" x="155.127735" y="224.842704" style="fill: #2ca02c; stroke: #ffffff; stroke-width: 0.75"/>
     <use xlink:href="#m82ef654502" x="165.919291" y="224.84579" style="fill: #2ca02c; stroke: #ffffff; stroke-width: 0.75"/>
    </g>
   </g>
   <g id="line2d_52">
    <path d="M 68.795285 227.043642 
L 79.586842 226.468467 
L 90.378398 226.301178 
L 101.169954 225.331275 
L 111.96151 225.002335 
L 122.753066 224.855252 
L 133.544623 224.850709 
L 144.336179 224.851211 
L 155.127735 224.844969 
L 165.919291 224.848571 
" clip-path="url(#p9e2edf9bd0)" style="fill: none; stroke-dasharray: 8.14,3.52; stroke-dashoffset: 0; stroke: #6bbc6b; stroke-width: 2.2"/>
    <defs>
     <path id="mbf01f1c40b" d="M 0 3 
C 0.795609 3 1.55874 2.683901 2.12132 2.12132 
C 2.683901 1.55874 3 0.795609 3 0 
C 3 -0.795609 2.683901 -1.55874 2.12132 -2.12132 
C 1.55874 -2.683901 0.795609 -3 0 -3 
C -0.795609 -3 -1.55874 -2.683901 -2.12132 -2.12132 
C -2.683901 -1.55874 -3 -0.795609 -3 0 
C -3 0.795609 -2.683901 1.55874 -2.12132 2.12132 
C -1.55874 2.683901 -0.795609 3 0 3 
z
" style="stroke: #ffffff; stroke-width: 0.75"/>
    </defs>
    <g clip-path="url(#p9e2edf9bd0)">
     <use xlink:href="#mbf01f1c40b" x="68.795285" y="227.043642" style="fill: #6bbc6b; stroke: #ffffff; stroke-width: 0.75"/>
     <use xlink:href="#mbf01f1c40b" x="79.586842" y="226.468467" style="fill: #6bbc6b; stroke: #ffffff; stroke-width: 0.75"/>
     <use xlink:href="#mbf01f1c40b" x="90.378398" y="226.301178" style="fill: #6bbc6b; stroke: #ffffff; stroke-width: 0.75"/>
     <use xlink:href="#mbf01f1c40b" x="101.169954" y="225.331275" style="fill: #6bbc6b; stroke: #ffffff; stroke-width: 0.75"/>
     <use xlink:href="#mbf01f1c40b" x="111.96151" y="225.002335" style="fill: #6bbc6b; stroke: #ffffff; stroke-width: 0.75"/>
     <use xlink:href="#mbf01f1c40b" x="122.753066" y="224.855252" style="fill: #6bbc6b; stroke: #ffffff; stroke-width: 0.75"/>
     <use xlink:href="#mbf01f1c40b" x="133.544623" y="224.850709" style="fill: #6bbc6b; stroke: #ffffff; stroke-width: 0.75"/>
     <use xlink:href="#mbf01f1c40b" x="144.336179" y="224.851211" style="fill: #6bbc6b; stroke: #ffffff; stroke-width: 0.75"/>
     <use xlink:href="#mbf01f1c40b" x="155.127735" y="224.844969" style="fill: #6bbc6b; stroke: #ffffff; stroke-width: 0.75"/>
     <use xlink:href="#mbf01f1c40b" x="165.919291" y="224.848571" style="fill: #6bbc6b; stroke: #ffffff; stroke-width: 0.75"/>
    </g>
   </g>
   <g id="line2d_53">
    <path d="M 68.795285 227.217511 
L 79.586842 226.880112 
L 90.378398 226.536135 
L 101.169954 225.286163 
L 111.96151 222.12364 
L 122.753066 216.086182 
L 133.544623 205.177593 
L 144.336179 186.475946 
L 155.127735 157.989745 
L 165.919291 124.773388 
" clip-path="url(#p9e2edf9bd0)" style="fill: none; stroke: #d62728; stroke-width: 2.2; stroke-linecap: square"/>
    <defs>
     <path id="mc0d09a3093" d="M 0 3 
C 0.795609 3 1.55874 2.683901 2.12132 2.12132 
C 2.683901 1.55874 3 0.795609 3 0 
C 3 -0.795609 2.683901 -1.55874 2.12132 -2.12132 
C 1.55874 -2.683901 0.795609 -3 0 -3 
C -0.795609 -3 -1.55874 -2.683901 -2.12132 -2.12132 
C -2.683901 -1.55874 -3 -0.795609 -3 0 
C -3 0.795609 -2.683901 1.55874 -2.12132 2.12132 
C -1.55874 2.683901 -0.795609 3 0 3 
z
" style="stroke: #ffffff; stroke-width: 0.75"/>
    </defs>
    <g clip-path="url(#p9e2edf9bd0)">
     <use xlink:href="#mc0d09a3093" x="68.795285" y="227.217511" style="fill: #d62728; stroke: #ffffff; stroke-width: 0.75"/>
     <use xlink:href="#mc0d09a3093" x="79.586842" y="226.880112" style="fill: #d62728; stroke: #ffffff; stroke-width: 0.75"/>
     <use xlink:href="#mc0d09a3093" x="90.378398" y="226.536135" style="fill: #d62728; stroke: #ffffff; stroke-width: 0.75"/>
     <use xlink:href="#mc0d09a3093" x="101.169954" y="225.286163" style="fill: #d62728; stroke: #ffffff; stroke-width: 0.75"/>
     <use xlink:href="#mc0d09a3093" x="111.96151" y="222.12364" style="fill: #d62728; stroke: #ffffff; stroke-width: 0.75"/>
     <use xlink:href="#mc0d09a3093" x="122.753066" y="216.086182" style="fill: #d62728; stroke: #ffffff; stroke-width: 0.75"/>
     <use xlink:href="#mc0d09a3093" x="133.544623" y="205.177593" style="fill: #d62728; stroke: #ffffff; stroke-width: 0.75"/>
     <use xlink:href="#mc0d09a3093" x="144.336179" y="186.475946" style="fill: #d62728; stroke: #ffffff; stroke-width: 0.75"/>
     <use xlink:href="#mc0d09a3093" x="155.127735" y="157.989745" style="fill: #d62728; stroke: #ffffff; stroke-width: 0.75"/>
     <use xlink:href="#mc0d09a3093" x="165.919291" y="124.773388" style="fill: #d62728; stroke: #ffffff; stroke-width: 0.75"/>
    </g>
   </g>
   <g id="line2d_54">
    <path d="M 68.795285 227.217511 
L 79.586842 226.884811 
L 90.378398 226.532376 
L 101.169954 225.392364 
L 111.96151 222.371755 
L 122.753066 216.821128 
L 133.544623 207.741445 
L 144.336179 196.26332 
L 155.127735 186.684588 
L 165.919291 164.408304 
" clip-path="url(#p9e2edf9bd0)" style="fill: none; stroke-dasharray: 8.14,3.52; stroke-dashoffset: 0; stroke: #e26868; stroke-width: 2.2"/>
    <defs>
     <path id="me77e511e31" d="M 0 3 
C 0.795609 3 1.55874 2.683901 2.12132 2.12132 
C 2.683901 1.55874 3 0.795609 3 0 
C 3 -0.795609 2.683901 -1.55874 2.12132 -2.12132 
C 1.55874 -2.683901 0.795609 -3 0 -3 
C -0.795609 -3 -1.55874 -2.683901 -2.12132 -2.12132 
C -2.683901 -1.55874 -3 -0.795609 -3 0 
C -3 0.795609 -2.683901 1.55874 -2.12132 2.12132 
C -1.55874 2.683901 -0.795609 3 0 3 
z
" style="stroke: #ffffff; stroke-width: 0.75"/>
    </defs>
    <g clip-path="url(#p9e2edf9bd0)">
     <use xlink:href="#me77e511e31" x="68.795285" y="227.217511" style="fill: #e26868; stroke: #ffffff; stroke-width: 0.75"/>
     <use xlink:href="#me77e511e31" x="79.586842" y="226.884811" style="fill: #e26868; stroke: #ffffff; stroke-width: 0.75"/>
     <use xlink:href="#me77e511e31" x="90.378398" y="226.532376" style="fill: #e26868; stroke: #ffffff; stroke-width: 0.75"/>
     <use xlink:href="#me77e511e31" x="101.169954" y="225.392364" style="fill: #e26868; stroke: #ffffff; stroke-width: 0.75"/>
     <use xlink:href="#me77e511e31" x="111.96151" y="222.371755" style="fill: #e26868; stroke: #ffffff; stroke-width: 0.75"/>
     <use xlink:href="#me77e511e31" x="122.753066" y="216.821128" style="fill: #e26868; stroke: #ffffff; stroke-width: 0.75"/>
     <use xlink:href="#me77e511e31" x="133.544623" y="207.741445" style="fill: #e26868; stroke: #ffffff; stroke-width: 0.75"/>
     <use xlink:href="#me77e511e31" x="144.336179" y="196.26332" style="fill: #e26868; stroke: #ffffff; stroke-width: 0.75"/>
     <use xlink:href="#me77e511e31" x="155.127735" y="186.684588" style="fill: #e26868; stroke: #ffffff; stroke-width: 0.75"/>
     <use xlink:href="#me77e511e31" x="165.919291" y="164.408304" style="fill: #e26868; stroke: #ffffff; stroke-width: 0.75"/>
    </g>
   </g>
   <g id="patch_3">
    <path d="M 68.056804 238.048 
L 68.056804 7.2 
" style="fill: none; stroke: #000000; stroke-width: 0.8; stroke-linejoin: miter; stroke-linecap: square"/>
   </g>
   <g id="patch_4">
    <path d="M 175.603125 238.048 
L 175.603125 7.2 
" style="fill: none; stroke: #000000; stroke-width: 0.8; stroke-linejoin: miter; stroke-linecap: square"/>
   </g>
   <g id="patch_5">
    <path d="M 68.056804 238.048 
L 175.603125 238.048 
" style="fill: none; stroke: #000000; stroke-width: 0.8; stroke-linejoin: miter; stroke-linecap: square"/>
   </g>
   <g id="patch_6">
    <path d="M 68.056804 7.2 
L 175.603125 7.2 
" style="fill: none; stroke: #000000; stroke-width: 0.8; stroke-linejoin: miter; stroke-linecap: square"/>
   </g>
   <g id="legend_1">
    <g id="patch_7">
     <path d="M 9.2 132.625 
L 168.603125 132.625 
Q 170.603125 132.625 170.603125 130.625 
L 170.603125 14.2 
Q 170.603125 12.2 168.603125 12.2 
L 9.2 12.2 
Q 7.2 12.2 7.2 14.2 
L 7.2 130.625 
Q 7.2 132.625 9.2 132.625 
z
" style="fill: #ffffff; opacity: 0.8; stroke: #cccccc; stroke-linejoin: miter"/>
    </g>
    <g id="line2d_55">
     <path d="M 11.2 20.298437 
L 21.2 20.298437 
L 31.2 20.298437 
" style="fill: none; stroke: #1f77b4; stroke-width: 2.2; stroke-linecap: square"/>
     <g>
      <use xlink:href="#md6ce17f19a" x="21.2" y="20.298437" style="fill: #1f77b4; stroke: #ffffff; stroke-width: 0.75"/>
     </g>
    </g>
    <g id="text_14">
     <!-- NCCL (Native) -->
     <g transform="translate(39.2 23.798437) scale(0.1 -0.1)">
      <defs>
       <path id="DejaVuSans-4e" d="M 628 4666 
L 1478 4666 
L 3547 763 
L 3547 4666 
L 4159 4666 
L 4159 0 
L 3309 0 
L 1241 3903 
L 1241 0 
L 628 0 
L 628 4666 
z
" transform="scale(0.015625)"/>
       <path id="DejaVuSans-43" d="M 4122 4306 
L 4122 3641 
Q 3803 3938 3442 4084 
Q 3081 4231 2675 4231 
Q 1875 4231 1450 3742 
Q 1025 3253 1025 2328 
Q 1025 1406 1450 917 
Q 1875 428 2675 428 
Q 3081 428 3442 575 
Q 3803 722 4122 1019 
L 4122 359 
Q 3791 134 3420 21 
Q 3050 -91 2638 -91 
Q 1578 -91 968 557 
Q 359 1206 359 2328 
Q 359 3453 968 4101 
Q 1578 4750 2638 4750 
Q 3056 4750 3426 4639 
Q 3797 4528 4122 4306 
z
" transform="scale(0.015625)"/>
       <path id="DejaVuSans-4c" d="M 628 4666 
L 1259 4666 
L 1259 531 
L 3531 531 
L 3531 0 
L 628 0 
L 628 4666 
z
" transform="scale(0.015625)"/>
       <path id="DejaVuSans-76" d="M 191 3500 
L 800 3500 
L 1894 563 
L 2988 3500 
L 3597 3500 
L 2284 0 
L 1503 0 
L 191 3500 
z
" transform="scale(0.015625)"/>
      </defs>
      <use xlink:href="#DejaVuSans-4e"/>
      <use xlink:href="#DejaVuSans-43" x="74.804688"/>
      <use xlink:href="#DejaVuSans-43" x="144.628906"/>
      <use xlink:href="#DejaVuSans-4c" x="214.453125"/>
      <use xlink:href="#DejaVuSans-20" x="270.166016"/>
      <use xlink:href="#DejaVuSans-28" x="301.953125"/>
      <use xlink:href="#DejaVuSans-4e" x="340.966797"/>
      <use xlink:href="#DejaVuSans-61" x="415.771484"/>
      <use xlink:href="#DejaVuSans-74" x="477.050781"/>
      <use xlink:href="#DejaVuSans-69" x="516.259766"/>
      <use xlink:href="#DejaVuSans-76" x="544.042969"/>
      <use xlink:href="#DejaVuSans-65" x="603.222656"/>
      <use xlink:href="#DejaVuSans-29" x="664.746094"/>
     </g>
    </g>
    <g id="line2d_56">
     <path d="M 11.2 34.976562 
L 21.2 34.976562 
L 31.2 34.976562 
" style="fill: none; stroke-dasharray: 8.14,3.52; stroke-dashoffset: 0; stroke: #62a0cb; stroke-width: 2.2"/>
     <g>
      <use xlink:href="#m34d2945507" x="21.2" y="34.976562" style="fill: #62a0cb; stroke: #ffffff; stroke-width: 0.75"/>
     </g>
    </g>
    <g id="text_15">
     <!-- NCCL (Hybrid) -->
     <g transform="translate(39.2 38.476562) scale(0.1 -0.1)">
      <defs>
       <path id="DejaVuSans-48" d="M 628 4666 
L 1259 4666 
L 1259 2753 
L 3553 2753 
L 3553 4666 
L 4184 4666 
L 4184 0 
L 3553 0 
L 3553 2222 
L 1259 2222 
L 1259 0 
L 628 0 
L 628 4666 
z
" transform="scale(0.015625)"/>
       <path id="DejaVuSans-64" d="M 2906 2969 
L 2906 4863 
L 3481 4863 
L 3481 0 
L 2906 0 
L 2906 525 
Q 2725 213 2448 61 
Q 2172 -91 1784 -91 
Q 1150 -91 751 415 
Q 353 922 353 1747 
Q 353 2572 751 3078 
Q 1150 3584 1784 3584 
Q 2172 3584 2448 3432 
Q 2725 3281 2906 2969 
z
M 947 1747 
Q 947 1113 1208 752 
Q 1469 391 1925 391 
Q 2381 391 2643 752 
Q 2906 1113 2906 1747 
Q 2906 2381 2643 2742 
Q 2381 3103 1925 3103 
Q 1469 3103 1208 2742 
Q 947 2381 947 1747 
z
" transform="scale(0.015625)"/>
      </defs>
      <use xlink:href="#DejaVuSans-4e"/>
      <use xlink:href="#DejaVuSans-43" x="74.804688"/>
      <use xlink:href="#DejaVuSans-43" x="144.628906"/>
      <use xlink:href="#DejaVuSans-4c" x="214.453125"/>
      <use xlink:href="#DejaVuSans-20" x="270.166016"/>
      <use xlink:href="#DejaVuSans-28" x="301.953125"/>
      <use xlink:href="#DejaVuSans-48" x="340.966797"/>
      <use xlink:href="#DejaVuSans-79" x="416.162109"/>
      <use xlink:href="#DejaVuSans-62" x="475.341797"/>
      <use xlink:href="#DejaVuSans-72" x="538.818359"/>
      <use xlink:href="#DejaVuSans-69" x="579.931641"/>
      <use xlink:href="#DejaVuSans-64" x="607.714844"/>
      <use xlink:href="#DejaVuSans-29" x="671.191406"/>
     </g>
    </g>
    <g id="line2d_57">
     <path d="M 11.2 49.654687 
L 21.2 49.654687 
L 31.2 49.654687 
" style="fill: none; stroke: #ff7f0e; stroke-width: 2.2; stroke-linecap: square"/>
     <g>
      <use xlink:href="#mb0807f8225" x="21.2" y="49.654687" style="fill: #ff7f0e; stroke: #ffffff; stroke-width: 0.75"/>
     </g>
    </g>
    <g id="text_16">
     <!-- TrivialStaging (Native) -->
     <g transform="translate(39.2 53.154687) scale(0.1 -0.1)">
      <defs>
       <path id="DejaVuSans-6c" d="M 603 4863 
L 1178 4863 
L 1178 0 
L 603 0 
L 603 4863 
z
" transform="scale(0.015625)"/>
       <path id="DejaVuSans-67" d="M 2906 1791 
Q 2906 2416 2648 2759 
Q 2391 3103 1925 3103 
Q 1463 3103 1205 2759 
Q 947 2416 947 1791 
Q 947 1169 1205 825 
Q 1463 481 1925 481 
Q 2391 481 2648 825 
Q 2906 1169 2906 1791 
z
M 3481 434 
Q 3481 -459 3084 -895 
Q 2688 -1331 1869 -1331 
Q 1566 -1331 1297 -1286 
Q 1028 -1241 775 -1147 
L 775 -588 
Q 1028 -725 1275 -790 
Q 1522 -856 1778 -856 
Q 2344 -856 2625 -561 
Q 2906 -266 2906 331 
L 2906 616 
Q 2728 306 2450 153 
Q 2172 0 1784 0 
Q 1141 0 747 490 
Q 353 981 353 1791 
Q 353 2603 747 3093 
Q 1141 3584 1784 3584 
Q 2172 3584 2450 3431 
Q 2728 3278 2906 2969 
L 2906 3500 
L 3481 3500 
L 3481 434 
z
" transform="scale(0.015625)"/>
      </defs>
      <use xlink:href="#DejaVuSans-54"/>
      <use xlink:href="#DejaVuSans-72" x="46.333984"/>
      <use xlink:href="#DejaVuSans-69" x="87.447266"/>
      <use xlink:href="#DejaVuSans-76" x="115.230469"/>
      <use xlink:href="#DejaVuSans-69" x="174.410156"/>
      <use xlink:href="#DejaVuSans-61" x="202.193359"/>
      <use xlink:href="#DejaVuSans-6c" x="263.472656"/>
      <use xlink:href="#DejaVuSans-53" x="291.255859"/>
      <use xlink:href="#DejaVuSans-74" x="354.732422"/>
      <use xlink:href="#DejaVuSans-61" x="393.941406"/>
      <use xlink:href="#DejaVuSans-67" x="455.220703"/>
      <use xlink:href="#DejaVuSans-69" x="518.697266"/>
      <use xlink:href="#DejaVuSans-6e" x="546.480469"/>
      <use xlink:href="#DejaVuSans-67" x="609.859375"/>
      <use xlink:href="#DejaVuSans-20" x="673.335938"/>
      <use xlink:href="#DejaVuSans-28" x="705.123047"/>
      <use xlink:href="#DejaVuSans-4e" x="744.136719"/>
      <use xlink:href="#DejaVuSans-61" x="818.941406"/>
      <use xlink:href="#DejaVuSans-74" x="880.220703"/>
      <use xlink:href="#DejaVuSans-69" x="919.429688"/>
      <use xlink:href="#DejaVuSans-76" x="947.212891"/>
      <use xlink:href="#DejaVuSans-65" x="1006.392578"/>
      <use xlink:href="#DejaVuSans-29" x="1067.916016"/>
     </g>
    </g>
    <g id="line2d_58">
     <path d="M 11.2 64.332812 
L 21.2 64.332812 
L 31.2 64.332812 
" style="fill: none; stroke-dasharray: 8.14,3.52; stroke-dashoffset: 0; stroke: #ffa556; stroke-width: 2.2"/>
     <g>
      <use xlink:href="#mad1efc0931" x="21.2" y="64.332812" style="fill: #ffa556; stroke: #ffffff; stroke-width: 0.75"/>
     </g>
    </g>
    <g id="text_17">
     <!-- TrivialStaging (Hybrid) -->
     <g transform="translate(39.2 67.832812) scale(0.1 -0.1)">
      <use xlink:href="#DejaVuSans-54"/>
      <use xlink:href="#DejaVuSans-72" x="46.333984"/>
      <use xlink:href="#DejaVuSans-69" x="87.447266"/>
      <use xlink:href="#DejaVuSans-76" x="115.230469"/>
      <use xlink:href="#DejaVuSans-69" x="174.410156"/>
      <use xlink:href="#DejaVuSans-61" x="202.193359"/>
      <use xlink:href="#DejaVuSans-6c" x="263.472656"/>
      <use xlink:href="#DejaVuSans-53" x="291.255859"/>
      <use xlink:href="#DejaVuSans-74" x="354.732422"/>
      <use xlink:href="#DejaVuSans-61" x="393.941406"/>
      <use xlink:href="#DejaVuSans-67" x="455.220703"/>
      <use xlink:href="#DejaVuSans-69" x="518.697266"/>
      <use xlink:href="#DejaVuSans-6e" x="546.480469"/>
      <use xlink:href="#DejaVuSans-67" x="609.859375"/>
      <use xlink:href="#DejaVuSans-20" x="673.335938"/>
      <use xlink:href="#DejaVuSans-28" x="705.123047"/>
      <use xlink:href="#DejaVuSans-48" x="744.136719"/>
      <use xlink:href="#DejaVuSans-79" x="819.332031"/>
      <use xlink:href="#DejaVuSans-62" x="878.511719"/>
      <use xlink:href="#DejaVuSans-72" x="941.988281"/>
      <use xlink:href="#DejaVuSans-69" x="983.101562"/>
      <use xlink:href="#DejaVuSans-64" x="1010.884766"/>
      <use xlink:href="#DejaVuSans-29" x="1074.361328"/>
     </g>
    </g>
    <g id="line2d_59">
     <path d="M 11.2 79.010937 
L 21.2 79.010937 
L 31.2 79.010937 
" style="fill: none; stroke: #2ca02c; stroke-width: 2.2; stroke-linecap: square"/>
     <g>
      <use xlink:href="#m82ef654502" x="21.2" y="79.010937" style="fill: #2ca02c; stroke: #ffffff; stroke-width: 0.75"/>
     </g>
    </g>
    <g id="text_18">
     <!-- CUDA IPC (Native) -->
     <g transform="translate(39.2 82.510937) scale(0.1 -0.1)">
      <defs>
       <path id="DejaVuSans-55" d="M 556 4666 
L 1191 4666 
L 1191 1831 
Q 1191 1081 1462 751 
Q 1734 422 2344 422 
Q 2950 422 3222 751 
Q 3494 1081 3494 1831 
L 3494 4666 
L 4128 4666 
L 4128 1753 
Q 4128 841 3676 375 
Q 3225 -91 2344 -91 
Q 1459 -91 1007 375 
Q 556 841 556 1753 
L 556 4666 
z
" transform="scale(0.015625)"/>
       <path id="DejaVuSans-49" d="M 628 4666 
L 1259 4666 
L 1259 0 
L 628 0 
L 628 4666 
z
" transform="scale(0.015625)"/>
       <path id="DejaVuSans-50" d="M 1259 4147 
L 1259 2394 
L 2053 2394 
Q 2494 2394 2734 2622 
Q 2975 2850 2975 3272 
Q 2975 3691 2734 3919 
Q 2494 4147 2053 4147 
L 1259 4147 
z
M 628 4666 
L 2053 4666 
Q 2838 4666 3239 4311 
Q 3641 3956 3641 3272 
Q 3641 2581 3239 2228 
Q 2838 1875 2053 1875 
L 1259 1875 
L 1259 0 
L 628 0 
L 628 4666 
z
" transform="scale(0.015625)"/>
      </defs>
      <use xlink:href="#DejaVuSans-43"/>
      <use xlink:href="#DejaVuSans-55" x="69.824219"/>
      <use xlink:href="#DejaVuSans-44" x="143.017578"/>
      <use xlink:href="#DejaVuSans-41" x="218.269531"/>
      <use xlink:href="#DejaVuSans-20" x="286.677734"/>
      <use xlink:href="#DejaVuSans-49" x="318.464844"/>
      <use xlink:href="#DejaVuSans-50" x="347.957031"/>
      <use xlink:href="#DejaVuSans-43" x="408.259766"/>
      <use xlink:href="#DejaVuSans-20" x="478.083984"/>
      <use xlink:href="#DejaVuSans-28" x="509.871094"/>
      <use xlink:href="#DejaVuSans-4e" x="548.884766"/>
      <use xlink:href="#DejaVuSans-61" x="623.689453"/>
      <use xlink:href="#DejaVuSans-74" x="684.96875"/>
      <use xlink:href="#DejaVuSans-69" x="724.177734"/>
      <use xlink:href="#DejaVuSans-76" x="751.960938"/>
      <use xlink:href="#DejaVuSans-65" x="811.140625"/>
      <use xlink:href="#DejaVuSans-29" x="872.664062"/>
     </g>
    </g>
    <g id="line2d_60">
     <path d="M 11.2 93.689062 
L 21.2 93.689062 
L 31.2 93.689062 
" style="fill: none; stroke-dasharray: 8.14,3.52; stroke-dashoffset: 0; stroke: #6bbc6b; stroke-width: 2.2"/>
     <g>
      <use xlink:href="#mbf01f1c40b" x="21.2" y="93.689062" style="fill: #6bbc6b; stroke: #ffffff; stroke-width: 0.75"/>
     </g>
    </g>
    <g id="text_19">
     <!-- CUDA IPC (Hybrid) -->
     <g transform="translate(39.2 97.189062) scale(0.1 -0.1)">
      <use xlink:href="#DejaVuSans-43"/>
      <use xlink:href="#DejaVuSans-55" x="69.824219"/>
      <use xlink:href="#DejaVuSans-44" x="143.017578"/>
      <use xlink:href="#DejaVuSans-41" x="218.269531"/>
      <use xlink:href="#DejaVuSans-20" x="286.677734"/>
      <use xlink:href="#DejaVuSans-49" x="318.464844"/>
      <use xlink:href="#DejaVuSans-50" x="347.957031"/>
      <use xlink:href="#DejaVuSans-43" x="408.259766"/>
      <use xlink:href="#DejaVuSans-20" x="478.083984"/>
      <use xlink:href="#DejaVuSans-28" x="509.871094"/>
      <use xlink:href="#DejaVuSans-48" x="548.884766"/>
      <use xlink:href="#DejaVuSans-79" x="624.080078"/>
      <use xlink:href="#DejaVuSans-62" x="683.259766"/>
      <use xlink:href="#DejaVuSans-72" x="746.736328"/>
      <use xlink:href="#DejaVuSans-69" x="787.849609"/>
      <use xlink:href="#DejaVuSans-64" x="815.632812"/>
      <use xlink:href="#DejaVuSans-29" x="879.109375"/>
     </g>
    </g>
    <g id="line2d_61">
     <path d="M 11.2 108.367187 
L 21.2 108.367187 
L 31.2 108.367187 
" style="fill: none; stroke: #d62728; stroke-width: 2.2; stroke-linecap: square"/>
     <g>
      <use xlink:href="#mc0d09a3093" x="21.2" y="108.367187" style="fill: #d62728; stroke: #ffffff; stroke-width: 0.75"/>
     </g>
    </g>
    <g id="text_20">
     <!-- CUDA-Aware MPI (Native) -->
     <g transform="translate(39.2 111.867187) scale(0.1 -0.1)">
      <defs>
       <path id="DejaVuSans-2d" d="M 313 2009 
L 1997 2009 
L 1997 1497 
L 313 1497 
L 313 2009 
z
" transform="scale(0.015625)"/>
       <path id="DejaVuSans-77" d="M 269 3500 
L 844 3500 
L 1563 769 
L 2278 3500 
L 2956 3500 
L 3675 769 
L 4391 3500 
L 4966 3500 
L 4050 0 
L 3372 0 
L 2619 2869 
L 1863 0 
L 1184 0 
L 269 3500 
z
" transform="scale(0.015625)"/>
      </defs>
      <use xlink:href="#DejaVuSans-43"/>
      <use xlink:href="#DejaVuSans-55" x="69.824219"/>
      <use xlink:href="#DejaVuSans-44" x="143.017578"/>
      <use xlink:href="#DejaVuSans-41" x="218.269531"/>
      <use xlink:href="#DejaVuSans-2d" x="284.427734"/>
      <use xlink:href="#DejaVuSans-41" x="318.261719"/>
      <use xlink:href="#DejaVuSans-77" x="382.669922"/>
      <use xlink:href="#DejaVuSans-61" x="464.457031"/>
      <use xlink:href="#DejaVuSans-72" x="525.736328"/>
      <use xlink:href="#DejaVuSans-65" x="564.599609"/>
      <use xlink:href="#DejaVuSans-20" x="626.123047"/>
      <use xlink:href="#DejaVuSans-4d" x="657.910156"/>
      <use xlink:href="#DejaVuSans-50" x="744.189453"/>
      <use xlink:href="#DejaVuSans-49" x="804.492188"/>
      <use xlink:href="#DejaVuSans-20" x="833.984375"/>
      <use xlink:href="#DejaVuSans-28" x="865.771484"/>
      <use xlink:href="#DejaVuSans-4e" x="904.785156"/>
      <use xlink:href="#DejaVuSans-61" x="979.589844"/>
      <use xlink:href="#DejaVuSans-74" x="1040.869141"/>
      <use xlink:href="#DejaVuSans-69" x="1080.078125"/>
      <use xlink:href="#DejaVuSans-76" x="1107.861328"/>
      <use xlink:href="#DejaVuSans-65" x="1167.041016"/>
      <use xlink:href="#DejaVuSans-29" x="1228.564453"/>
     </g>
    </g>
    <g id="line2d_62">
     <path d="M 11.2 123.045312 
L 21.2 123.045312 
L 31.2 123.045312 
" style="fill: none; stroke-dasharray: 8.14,3.52; stroke-dashoffset: 0; stroke: #e26868; stroke-width: 2.2"/>
     <g>
      <use xlink:href="#me77e511e31" x="21.2" y="123.045312" style="fill: #e26868; stroke: #ffffff; stroke-width: 0.75"/>
     </g>
    </g>
    <g id="text_21">
     <!-- CUDA-Aware MPI (Hybrid) -->
     <g transform="translate(39.2 126.545312) scale(0.1 -0.1)">
      <use xlink:href="#DejaVuSans-43"/>
      <use xlink:href="#DejaVuSans-55" x="69.824219"/>
      <use xlink:href="#DejaVuSans-44" x="143.017578"/>
      <use xlink:href="#DejaVuSans-41" x="218.269531"/>
      <use xlink:href="#DejaVuSans-2d" x="284.427734"/>
      <use xlink:href="#DejaVuSans-41" x="318.261719"/>
      <use xlink:href="#DejaVuSans-77" x="382.669922"/>
      <use xlink:href="#DejaVuSans-61" x="464.457031"/>
      <use xlink:href="#DejaVuSans-72" x="525.736328"/>
      <use xlink:href="#DejaVuSans-65" x="564.599609"/>
      <use xlink:href="#DejaVuSans-20" x="626.123047"/>
      <use xlink:href="#DejaVuSans-4d" x="657.910156"/>
      <use xlink:href="#DejaVuSans-50" x="744.189453"/>
      <use xlink:href="#DejaVuSans-49" x="804.492188"/>
      <use xlink:href="#DejaVuSans-20" x="833.984375"/>
      <use xlink:href="#DejaVuSans-28" x="865.771484"/>
      <use xlink:href="#DejaVuSans-48" x="904.785156"/>
      <use xlink:href="#DejaVuSans-79" x="979.980469"/>
      <use xlink:href="#DejaVuSans-62" x="1039.160156"/>
      <use xlink:href="#DejaVuSans-72" x="1102.636719"/>
      <use xlink:href="#DejaVuSans-69" x="1143.75"/>
      <use xlink:href="#DejaVuSans-64" x="1171.533203"/>
      <use xlink:href="#DejaVuSans-29" x="1235.009766"/>
     </g>
    </g>
   </g>
  </g>
 </g>
 <defs>
  <clipPath id="p9e2edf9bd0">
   <rect x="68.056804" y="7.2" width="107.546321" height="230.848"/>
  </clipPath>
 </defs>
</svg>
