<?xml version="1.0" encoding="utf-8" standalone="no"?>
<!DOCTYPE svg PUBLIC "-//W3C//DTD SVG 1.1//EN"
  "http://www.w3.org/Graphics/SVG/1.1/DTD/svg11.dtd">
<svg xmlns:xlink="http://www.w3.org/1999/xlink" width="172.343196pt" height="277.539875pt" viewBox="0 0 172.343196 277.539875" xmlns="http://www.w3.org/2000/svg" version="1.1">
 <metadata>
  <rdf:RDF xmlns:dc="http://purl.org/dc/elements/1.1/" xmlns:cc="http://creativecommons.org/ns#" xmlns:rdf="http://www.w3.org/1999/02/22-rdf-syntax-ns#">
   <cc:Work>
    <dc:type rdf:resource="http://purl.org/dc/dcmitype/StillImage"/>
    <dc:date>2024-08-05T01:45:04.921410</dc:date>
    <dc:format>image/svg+xml</dc:format>
    <dc:creator>
     <cc:Agent>
      <dc:title>Matplotlib v3.8.3, https://matplotlib.org/</dc:title>
     </cc:Agent>
    </dc:creator>
   </cc:Work>
  </rdf:RDF>
 </metadata>
 <defs>
  <style type="text/css">*{stroke-linejoin: round; stroke-linecap: butt}</style>
 </defs>
 <g id="figure_1">
  <g id="patch_1">
   <path d="M 0 277.539875 
L 172.343196 277.539875 
L 172.343196 0 
L 0 0 
z
" style="fill: #ffffff"/>
  </g>
  <g id="axes_1">
   <g id="patch_2">
    <path d="M 54.596875 238.048 
L 154.583196 238.048 
L 154.583196 7.2 
L 54.596875 7.2 
z
" style="fill: #ffffff"/>
   </g>
   <g id="PolyCollection_1"/>
   <g id="PolyCollection_2">
    <defs>
     <path id="mc05d11bb1b" d="M 55.283445 -49.984966 
L 55.283445 -49.984966 
L 65.316405 -49.984966 
L 75.349366 -49.984966 
L 85.382327 -50.55993 
L 95.415287 -52.859785 
L 105.448248 -58.609424 
L 115.481209 -72.983521 
L 125.514169 -95.982077 
L 135.54713 -123.580343 
L 145.58009 -169.00249 
L 145.58009 -231.09859 
L 145.58009 -231.09859 
L 135.54713 -148.591272 
L 125.514169 -102.881643 
L 115.481209 -76.433305 
L 105.448248 -60.334316 
L 95.415287 -54.584677 
L 85.382327 -50.55993 
L 75.349366 -51.709858 
L 65.316405 -49.984966 
L 55.283445 -49.984966 
z
" style="stroke: #1f77b4; stroke-opacity: 0.2"/>
    </defs>
    <g clip-path="url(#p5db9e712ac)">
     <use xlink:href="#mc05d11bb1b" x="0" y="277.539875" style="fill: #1f77b4; fill-opacity: 0.2; stroke: #1f77b4; stroke-opacity: 0.2"/>
    </g>
   </g>
   <g id="PolyCollection_3"/>
   <g id="PolyCollection_4">
    <defs>
     <path id="mfdb67038e8" d="M 55.283445 -49.984966 
L 55.283445 -49.984966 
L 65.316405 -49.984966 
L 75.349366 -50.55993 
L 85.382327 -50.55993 
L 95.415287 -54.009713 
L 105.448248 -59.184388 
L 115.481209 -72.408557 
L 125.514169 -94.832149 
L 135.54713 -130.47991 
L 145.58009 -186.251407 
L 145.58009 -220.74924 
L 145.58009 -220.74924 
L 135.54713 -142.554151 
L 125.514169 -101.731716 
L 115.481209 -75.858341 
L 105.448248 -59.184388 
L 95.415287 -54.009713 
L 85.382327 -50.55993 
L 75.349366 -50.55993 
L 65.316405 -49.984966 
L 55.283445 -49.984966 
z
" style="stroke: #62a0cb; stroke-opacity: 0.2"/>
    </defs>
    <g clip-path="url(#p5db9e712ac)">
     <use xlink:href="#mfdb67038e8" x="0" y="277.539875" style="fill: #62a0cb; fill-opacity: 0.2; stroke: #62a0cb; stroke-opacity: 0.2"/>
    </g>
   </g>
   <g id="PolyCollection_5"/>
   <g id="PolyCollection_6">
    <defs>
     <path id="me548df3496" d="M 55.283445 -49.984966 
L 55.283445 -49.984966 
L 65.316405 -50.55993 
L 75.349366 -49.984966 
L 85.382327 -50.55993 
L 95.415287 -52.859785 
L 105.448248 -53.434749 
L 115.481209 -64.934027 
L 125.514169 -49.984966 
L 135.54713 -49.984966 
L 145.58009 -49.984966 
L 145.58009 -250.934844 
L 145.58009 -250.934844 
L 135.54713 -181.651696 
L 125.514169 -121.855452 
L 115.481209 -94.257185 
L 105.448248 -82.757907 
L 95.415287 -68.38381 
L 85.382327 -59.184388 
L 75.349366 -51.709858 
L 65.316405 -50.55993 
L 55.283445 -49.984966 
z
" style="stroke: #ff7f0e; stroke-opacity: 0.2"/>
    </defs>
    <g clip-path="url(#p5db9e712ac)">
     <use xlink:href="#me548df3496" x="0" y="277.539875" style="fill: #ff7f0e; fill-opacity: 0.2; stroke: #ff7f0e; stroke-opacity: 0.2"/>
    </g>
   </g>
   <g id="PolyCollection_7"/>
   <g id="PolyCollection_8">
    <defs>
     <path id="mc74fb8a09c" d="M 55.283445 -49.984966 
L 55.283445 -49.984966 
L 65.316405 -50.55993 
L 75.349366 -49.984966 
L 85.382327 -50.55993 
L 95.415287 -49.984966 
L 105.448248 -53.147267 
L 115.481209 -67.233882 
L 125.514169 -49.984966 
L 135.54713 -49.984966 
L 145.58009 -49.984966 
L 145.58009 -259.846784 
L 145.58009 -259.846784 
L 135.54713 -170.152418 
L 125.514169 -124.155307 
L 115.481209 -93.107257 
L 105.448248 -81.60798 
L 95.415287 -70.108702 
L 85.382327 -59.184388 
L 75.349366 -51.709858 
L 65.316405 -50.55993 
L 55.283445 -49.984966 
z
" style="stroke: #ffa556; stroke-opacity: 0.2"/>
    </defs>
    <g clip-path="url(#p5db9e712ac)">
     <use xlink:href="#mc74fb8a09c" x="0" y="277.539875" style="fill: #ffa556; fill-opacity: 0.2; stroke: #ffa556; stroke-opacity: 0.2"/>
    </g>
   </g>
   <g id="PolyCollection_9"/>
   <g id="PolyCollection_10">
    <defs>
     <path id="m05488f4524" d="M 55.283445 -49.984966 
L 55.283445 -49.984966 
L 65.316405 -49.984966 
L 75.349366 -49.984966 
L 85.382327 -50.55993 
L 95.415287 -52.284821 
L 105.448248 -52.859785 
L 115.481209 -53.434749 
L 125.514169 -54.584677 
L 135.54713 -54.584677 
L 145.58009 -54.584677 
L 145.58009 -54.584677 
L 145.58009 -54.584677 
L 135.54713 -54.584677 
L 125.514169 -54.584677 
L 115.481209 -55.159641 
L 105.448248 -54.584677 
L 95.415287 -52.284821 
L 85.382327 -52.284821 
L 75.349366 -53.434749 
L 65.316405 -52.284821 
L 55.283445 -49.984966 
z
" style="stroke: #2ca02c; stroke-opacity: 0.2"/>
    </defs>
    <g clip-path="url(#p5db9e712ac)">
     <use xlink:href="#m05488f4524" x="0" y="277.539875" style="fill: #2ca02c; fill-opacity: 0.2; stroke: #2ca02c; stroke-opacity: 0.2"/>
    </g>
   </g>
   <g id="PolyCollection_11"/>
   <g id="PolyCollection_12"/>
   <g id="PolyCollection_13"/>
   <g id="PolyCollection_14">
    <defs>
     <path id="m344dc6b3b5" d="M 55.283445 -49.984966 
L 55.283445 -49.984966 
L 65.316405 -49.984966 
L 75.349366 -50.55993 
L 85.382327 -51.134894 
L 95.415287 -50.55993 
L 105.448248 -51.134894 
L 115.481209 -50.55993 
L 125.514169 -52.284821 
L 135.54713 -53.434749 
L 145.58009 -53.434749 
L 145.58009 -53.434749 
L 145.58009 -53.434749 
L 135.54713 -53.434749 
L 125.514169 -54.009713 
L 115.481209 -54.009713 
L 105.448248 -52.859785 
L 95.415287 -52.284821 
L 85.382327 -51.134894 
L 75.349366 -50.55993 
L 65.316405 -49.984966 
L 55.283445 -49.984966 
z
" style="stroke: #d62728; stroke-opacity: 0.2"/>
    </defs>
    <g clip-path="url(#p5db9e712ac)">
     <use xlink:href="#m344dc6b3b5" x="0" y="277.539875" style="fill: #d62728; fill-opacity: 0.2; stroke: #d62728; stroke-opacity: 0.2"/>
    </g>
   </g>
   <g id="PolyCollection_15"/>
   <g id="PolyCollection_16">
    <defs>
     <path id="m3fd823dfc5" d="M 55.283445 -49.984966 
L 55.283445 -49.984966 
L 65.316405 -49.984966 
L 75.349366 -50.55993 
L 85.382327 -49.984966 
L 95.415287 -51.134894 
L 105.448248 -51.134894 
L 115.481209 -50.55993 
L 125.514169 -49.984966 
L 135.54713 -53.434749 
L 145.58009 -53.434749 
L 145.58009 -53.434749 
L 145.58009 -53.434749 
L 135.54713 -53.434749 
L 125.514169 -55.159641 
L 115.481209 -54.009713 
L 105.448248 -52.859785 
L 95.415287 -51.134894 
L 85.382327 -51.709858 
L 75.349366 -50.55993 
L 65.316405 -51.134894 
L 55.283445 -49.984966 
z
" style="stroke: #e26868; stroke-opacity: 0.2"/>
    </defs>
    <g clip-path="url(#p5db9e712ac)">
     <use xlink:href="#m3fd823dfc5" x="0" y="277.539875" style="fill: #e26868; fill-opacity: 0.2; stroke: #e26868; stroke-opacity: 0.2"/>
    </g>
   </g>
   <g id="matplotlib.axis_1">
    <g id="xtick_1">
     <g id="line2d_1">
      <path d="M 54.596875 238.048 
L 54.596875 7.2 
" clip-path="url(#p5db9e712ac)" style="fill: none; stroke: #b0b0b0; stroke-width: 0.8; stroke-linecap: square"/>
     </g>
     <g id="line2d_2">
      <defs>
       <path id="m58409c2ee5" d="M 0 0 
L 0 3.5 
" style="stroke: #000000; stroke-width: 0.8"/>
      </defs>
      <g>
       <use xlink:href="#m58409c2ee5" x="54.596875" y="238.048" style="stroke: #000000; stroke-width: 0.8"/>
      </g>
     </g>
     <g id="text_1">
      <!-- $\mathdefault{10^{6}}$ -->
      <g transform="translate(44.036875 254.166125) scale(0.12 -0.12)">
       <defs>
        <path id="DejaVuSans-31" d="M 794 531 
L 1825 531 
L 1825 4091 
L 703 3866 
L 703 4441 
L 1819 4666 
L 2450 4666 
L 2450 531 
L 3481 531 
L 3481 0 
L 794 0 
L 794 531 
z
" transform="scale(0.015625)"/>
        <path id="DejaVuSans-30" d="M 2034 4250 
Q 1547 4250 1301 3770 
Q 1056 3291 1056 2328 
Q 1056 1369 1301 889 
Q 1547 409 2034 409 
Q 2525 409 2770 889 
Q 3016 1369 3016 2328 
Q 3016 3291 2770 3770 
Q 2525 4250 2034 4250 
z
M 2034 4750 
Q 2819 4750 3233 4129 
Q 3647 3509 3647 2328 
Q 3647 1150 3233 529 
Q 2819 -91 2034 -91 
Q 1250 -91 836 529 
Q 422 1150 422 2328 
Q 422 3509 836 4129 
Q 1250 4750 2034 4750 
z
" transform="scale(0.015625)"/>
        <path id="DejaVuSans-36" d="M 2113 2584 
Q 1688 2584 1439 2293 
Q 1191 2003 1191 1497 
Q 1191 994 1439 701 
Q 1688 409 2113 409 
Q 2538 409 2786 701 
Q 3034 994 3034 1497 
Q 3034 2003 2786 2293 
Q 2538 2584 2113 2584 
z
M 3366 4563 
L 3366 3988 
Q 3128 4100 2886 4159 
Q 2644 4219 2406 4219 
Q 1781 4219 1451 3797 
Q 1122 3375 1075 2522 
Q 1259 2794 1537 2939 
Q 1816 3084 2150 3084 
Q 2853 3084 3261 2657 
Q 3669 2231 3669 1497 
Q 3669 778 3244 343 
Q 2819 -91 2113 -91 
Q 1303 -91 875 529 
Q 447 1150 447 2328 
Q 447 3434 972 4092 
Q 1497 4750 2381 4750 
Q 2619 4750 2861 4703 
Q 3103 4656 3366 4563 
z
" transform="scale(0.015625)"/>
       </defs>
       <use xlink:href="#DejaVuSans-31" transform="translate(0 0.765625)"/>
       <use xlink:href="#DejaVuSans-30" transform="translate(63.623047 0.765625)"/>
       <use xlink:href="#DejaVuSans-36" transform="translate(128.203125 39.046875) scale(0.7)"/>
      </g>
     </g>
    </g>
    <g id="xtick_2">
     <g id="line2d_3">
      <path d="M 87.925649 238.048 
L 87.925649 7.2 
" clip-path="url(#p5db9e712ac)" style="fill: none; stroke: #b0b0b0; stroke-width: 0.8; stroke-linecap: square"/>
     </g>
     <g id="line2d_4">
      <g>
       <use xlink:href="#m58409c2ee5" x="87.925649" y="238.048" style="stroke: #000000; stroke-width: 0.8"/>
      </g>
     </g>
     <g id="text_2">
      <!-- $\mathdefault{10^{7}}$ -->
      <g transform="translate(77.365649 254.166125) scale(0.12 -0.12)">
       <defs>
        <path id="DejaVuSans-37" d="M 525 4666 
L 3525 4666 
L 3525 4397 
L 1831 0 
L 1172 0 
L 2766 4134 
L 525 4134 
L 525 4666 
z
" transform="scale(0.015625)"/>
       </defs>
       <use xlink:href="#DejaVuSans-31" transform="translate(0 0.684375)"/>
       <use xlink:href="#DejaVuSans-30" transform="translate(63.623047 0.684375)"/>
       <use xlink:href="#DejaVuSans-37" transform="translate(128.203125 38.965625) scale(0.7)"/>
      </g>
     </g>
    </g>
    <g id="xtick_3">
     <g id="line2d_5">
      <path d="M 121.254423 238.048 
L 121.254423 7.2 
" clip-path="url(#p5db9e712ac)" style="fill: none; stroke: #b0b0b0; stroke-width: 0.8; stroke-linecap: square"/>
     </g>
     <g id="line2d_6">
      <g>
       <use xlink:href="#m58409c2ee5" x="121.254423" y="238.048" style="stroke: #000000; stroke-width: 0.8"/>
      </g>
     </g>
     <g id="text_3">
      <!-- $\mathdefault{10^{8}}$ -->
      <g transform="translate(110.694423 254.166125) scale(0.12 -0.12)">
       <defs>
        <path id="DejaVuSans-38" d="M 2034 2216 
Q 1584 2216 1326 1975 
Q 1069 1734 1069 1313 
Q 1069 891 1326 650 
Q 1584 409 2034 409 
Q 2484 409 2743 651 
Q 3003 894 3003 1313 
Q 3003 1734 2745 1975 
Q 2488 2216 2034 2216 
z
M 1403 2484 
Q 997 2584 770 2862 
Q 544 3141 544 3541 
Q 544 4100 942 4425 
Q 1341 4750 2034 4750 
Q 2731 4750 3128 4425 
Q 3525 4100 3525 3541 
Q 3525 3141 3298 2862 
Q 3072 2584 2669 2484 
Q 3125 2378 3379 2068 
Q 3634 1759 3634 1313 
Q 3634 634 3220 271 
Q 2806 -91 2034 -91 
Q 1263 -91 848 271 
Q 434 634 434 1313 
Q 434 1759 690 2068 
Q 947 2378 1403 2484 
z
M 1172 3481 
Q 1172 3119 1398 2916 
Q 1625 2713 2034 2713 
Q 2441 2713 2670 2916 
Q 2900 3119 2900 3481 
Q 2900 3844 2670 4047 
Q 2441 4250 2034 4250 
Q 1625 4250 1398 4047 
Q 1172 3844 1172 3481 
z
" transform="scale(0.015625)"/>
       </defs>
       <use xlink:href="#DejaVuSans-31" transform="translate(0 0.765625)"/>
       <use xlink:href="#DejaVuSans-30" transform="translate(63.623047 0.765625)"/>
       <use xlink:href="#DejaVuSans-38" transform="translate(128.203125 39.046875) scale(0.7)"/>
      </g>
     </g>
    </g>
    <g id="xtick_4">
     <g id="line2d_7">
      <path d="M 154.583196 238.048 
L 154.583196 7.2 
" clip-path="url(#p5db9e712ac)" style="fill: none; stroke: #b0b0b0; stroke-width: 0.8; stroke-linecap: square"/>
     </g>
     <g id="line2d_8">
      <g>
       <use xlink:href="#m58409c2ee5" x="154.583196" y="238.048" style="stroke: #000000; stroke-width: 0.8"/>
      </g>
     </g>
     <g id="text_4">
      <!-- $\mathdefault{10^{9}}$ -->
      <g transform="translate(144.023196 254.166125) scale(0.12 -0.12)">
       <defs>
        <path id="DejaVuSans-39" d="M 703 97 
L 703 672 
Q 941 559 1184 500 
Q 1428 441 1663 441 
Q 2288 441 2617 861 
Q 2947 1281 2994 2138 
Q 2813 1869 2534 1725 
Q 2256 1581 1919 1581 
Q 1219 1581 811 2004 
Q 403 2428 403 3163 
Q 403 3881 828 4315 
Q 1253 4750 1959 4750 
Q 2769 4750 3195 4129 
Q 3622 3509 3622 2328 
Q 3622 1225 3098 567 
Q 2575 -91 1691 -91 
Q 1453 -91 1209 -44 
Q 966 3 703 97 
z
M 1959 2075 
Q 2384 2075 2632 2365 
Q 2881 2656 2881 3163 
Q 2881 3666 2632 3958 
Q 2384 4250 1959 4250 
Q 1534 4250 1286 3958 
Q 1038 3666 1038 3163 
Q 1038 2656 1286 2365 
Q 1534 2075 1959 2075 
z
" transform="scale(0.015625)"/>
       </defs>
       <use xlink:href="#DejaVuSans-31" transform="translate(0 0.765625)"/>
       <use xlink:href="#DejaVuSans-30" transform="translate(63.623047 0.765625)"/>
       <use xlink:href="#DejaVuSans-39" transform="translate(128.203125 39.046875) scale(0.7)"/>
      </g>
     </g>
    </g>
    <g id="xtick_5">
     <g id="line2d_9">
      <defs>
       <path id="m7ffd5545f7" d="M 0 0 
L 0 2 
" style="stroke: #000000; stroke-width: 0.6"/>
      </defs>
      <g>
       <use xlink:href="#m7ffd5545f7" x="64.629836" y="238.048" style="stroke: #000000; stroke-width: 0.6"/>
      </g>
     </g>
    </g>
    <g id="xtick_6">
     <g id="line2d_10">
      <g>
       <use xlink:href="#m7ffd5545f7" x="70.498741" y="238.048" style="stroke: #000000; stroke-width: 0.6"/>
      </g>
     </g>
    </g>
    <g id="xtick_7">
     <g id="line2d_11">
      <g>
       <use xlink:href="#m7ffd5545f7" x="74.662796" y="238.048" style="stroke: #000000; stroke-width: 0.6"/>
      </g>
     </g>
    </g>
    <g id="xtick_8">
     <g id="line2d_12">
      <g>
       <use xlink:href="#m7ffd5545f7" x="77.892688" y="238.048" style="stroke: #000000; stroke-width: 0.6"/>
      </g>
     </g>
    </g>
    <g id="xtick_9">
     <g id="line2d_13">
      <g>
       <use xlink:href="#m7ffd5545f7" x="80.531702" y="238.048" style="stroke: #000000; stroke-width: 0.6"/>
      </g>
     </g>
    </g>
    <g id="xtick_10">
     <g id="line2d_14">
      <g>
       <use xlink:href="#m7ffd5545f7" x="82.762956" y="238.048" style="stroke: #000000; stroke-width: 0.6"/>
      </g>
     </g>
    </g>
    <g id="xtick_11">
     <g id="line2d_15">
      <g>
       <use xlink:href="#m7ffd5545f7" x="84.695757" y="238.048" style="stroke: #000000; stroke-width: 0.6"/>
      </g>
     </g>
    </g>
    <g id="xtick_12">
     <g id="line2d_16">
      <g>
       <use xlink:href="#m7ffd5545f7" x="86.400608" y="238.048" style="stroke: #000000; stroke-width: 0.6"/>
      </g>
     </g>
    </g>
    <g id="xtick_13">
     <g id="line2d_17">
      <g>
       <use xlink:href="#m7ffd5545f7" x="97.958609" y="238.048" style="stroke: #000000; stroke-width: 0.6"/>
      </g>
     </g>
    </g>
    <g id="xtick_14">
     <g id="line2d_18">
      <g>
       <use xlink:href="#m7ffd5545f7" x="103.827515" y="238.048" style="stroke: #000000; stroke-width: 0.6"/>
      </g>
     </g>
    </g>
    <g id="xtick_15">
     <g id="line2d_19">
      <g>
       <use xlink:href="#m7ffd5545f7" x="107.99157" y="238.048" style="stroke: #000000; stroke-width: 0.6"/>
      </g>
     </g>
    </g>
    <g id="xtick_16">
     <g id="line2d_20">
      <g>
       <use xlink:href="#m7ffd5545f7" x="111.221462" y="238.048" style="stroke: #000000; stroke-width: 0.6"/>
      </g>
     </g>
    </g>
    <g id="xtick_17">
     <g id="line2d_21">
      <g>
       <use xlink:href="#m7ffd5545f7" x="113.860476" y="238.048" style="stroke: #000000; stroke-width: 0.6"/>
      </g>
     </g>
    </g>
    <g id="xtick_18">
     <g id="line2d_22">
      <g>
       <use xlink:href="#m7ffd5545f7" x="116.09173" y="238.048" style="stroke: #000000; stroke-width: 0.6"/>
      </g>
     </g>
    </g>
    <g id="xtick_19">
     <g id="line2d_23">
      <g>
       <use xlink:href="#m7ffd5545f7" x="118.024531" y="238.048" style="stroke: #000000; stroke-width: 0.6"/>
      </g>
     </g>
    </g>
    <g id="xtick_20">
     <g id="line2d_24">
      <g>
       <use xlink:href="#m7ffd5545f7" x="119.729381" y="238.048" style="stroke: #000000; stroke-width: 0.6"/>
      </g>
     </g>
    </g>
    <g id="xtick_21">
     <g id="line2d_25">
      <g>
       <use xlink:href="#m7ffd5545f7" x="131.287383" y="238.048" style="stroke: #000000; stroke-width: 0.6"/>
      </g>
     </g>
    </g>
    <g id="xtick_22">
     <g id="line2d_26">
      <g>
       <use xlink:href="#m7ffd5545f7" x="137.156289" y="238.048" style="stroke: #000000; stroke-width: 0.6"/>
      </g>
     </g>
    </g>
    <g id="xtick_23">
     <g id="line2d_27">
      <g>
       <use xlink:href="#m7ffd5545f7" x="141.320344" y="238.048" style="stroke: #000000; stroke-width: 0.6"/>
      </g>
     </g>
    </g>
    <g id="xtick_24">
     <g id="line2d_28">
      <g>
       <use xlink:href="#m7ffd5545f7" x="144.550236" y="238.048" style="stroke: #000000; stroke-width: 0.6"/>
      </g>
     </g>
    </g>
    <g id="xtick_25">
     <g id="line2d_29">
      <g>
       <use xlink:href="#m7ffd5545f7" x="147.18925" y="238.048" style="stroke: #000000; stroke-width: 0.6"/>
      </g>
     </g>
    </g>
    <g id="xtick_26">
     <g id="line2d_30">
      <g>
       <use xlink:href="#m7ffd5545f7" x="149.420504" y="238.048" style="stroke: #000000; stroke-width: 0.6"/>
      </g>
     </g>
    </g>
    <g id="xtick_27">
     <g id="line2d_31">
      <g>
       <use xlink:href="#m7ffd5545f7" x="151.353304" y="238.048" style="stroke: #000000; stroke-width: 0.6"/>
      </g>
     </g>
    </g>
    <g id="xtick_28">
     <g id="line2d_32">
      <g>
       <use xlink:href="#m7ffd5545f7" x="153.058155" y="238.048" style="stroke: #000000; stroke-width: 0.6"/>
      </g>
     </g>
    </g>
    <g id="text_5">
     <!-- Transfer Size (bytes) -->
     <g transform="translate(53.369723 268.260187) scale(0.1 -0.1)">
      <defs>
       <path id="DejaVuSans-54" d="M -19 4666 
L 3928 4666 
L 3928 4134 
L 2272 4134 
L 2272 0 
L 1638 0 
L 1638 4134 
L -19 4134 
L -19 4666 
z
" transform="scale(0.015625)"/>
       <path id="DejaVuSans-72" d="M 2631 2963 
Q 2534 3019 2420 3045 
Q 2306 3072 2169 3072 
Q 1681 3072 1420 2755 
Q 1159 2438 1159 1844 
L 1159 0 
L 581 0 
L 581 3500 
L 1159 3500 
L 1159 2956 
Q 1341 3275 1631 3429 
Q 1922 3584 2338 3584 
Q 2397 3584 2469 3576 
Q 2541 3569 2628 3553 
L 2631 2963 
z
" transform="scale(0.015625)"/>
       <path id="DejaVuSans-61" d="M 2194 1759 
Q 1497 1759 1228 1600 
Q 959 1441 959 1056 
Q 959 750 1161 570 
Q 1363 391 1709 391 
Q 2188 391 2477 730 
Q 2766 1069 2766 1631 
L 2766 1759 
L 2194 1759 
z
M 3341 1997 
L 3341 0 
L 2766 0 
L 2766 531 
Q 2569 213 2275 61 
Q 1981 -91 1556 -91 
Q 1019 -91 701 211 
Q 384 513 384 1019 
Q 384 1609 779 1909 
Q 1175 2209 1959 2209 
L 2766 2209 
L 2766 2266 
Q 2766 2663 2505 2880 
Q 2244 3097 1772 3097 
Q 1472 3097 1187 3025 
Q 903 2953 641 2809 
L 641 3341 
Q 956 3463 1253 3523 
Q 1550 3584 1831 3584 
Q 2591 3584 2966 3190 
Q 3341 2797 3341 1997 
z
" transform="scale(0.015625)"/>
       <path id="DejaVuSans-6e" d="M 3513 2113 
L 3513 0 
L 2938 0 
L 2938 2094 
Q 2938 2591 2744 2837 
Q 2550 3084 2163 3084 
Q 1697 3084 1428 2787 
Q 1159 2491 1159 1978 
L 1159 0 
L 581 0 
L 581 3500 
L 1159 3500 
L 1159 2956 
Q 1366 3272 1645 3428 
Q 1925 3584 2291 3584 
Q 2894 3584 3203 3211 
Q 3513 2838 3513 2113 
z
" transform="scale(0.015625)"/>
       <path id="DejaVuSans-73" d="M 2834 3397 
L 2834 2853 
Q 2591 2978 2328 3040 
Q 2066 3103 1784 3103 
Q 1356 3103 1142 2972 
Q 928 2841 928 2578 
Q 928 2378 1081 2264 
Q 1234 2150 1697 2047 
L 1894 2003 
Q 2506 1872 2764 1633 
Q 3022 1394 3022 966 
Q 3022 478 2636 193 
Q 2250 -91 1575 -91 
Q 1294 -91 989 -36 
Q 684 19 347 128 
L 347 722 
Q 666 556 975 473 
Q 1284 391 1588 391 
Q 1994 391 2212 530 
Q 2431 669 2431 922 
Q 2431 1156 2273 1281 
Q 2116 1406 1581 1522 
L 1381 1569 
Q 847 1681 609 1914 
Q 372 2147 372 2553 
Q 372 3047 722 3315 
Q 1072 3584 1716 3584 
Q 2034 3584 2315 3537 
Q 2597 3491 2834 3397 
z
" transform="scale(0.015625)"/>
       <path id="DejaVuSans-66" d="M 2375 4863 
L 2375 4384 
L 1825 4384 
Q 1516 4384 1395 4259 
Q 1275 4134 1275 3809 
L 1275 3500 
L 2222 3500 
L 2222 3053 
L 1275 3053 
L 1275 0 
L 697 0 
L 697 3053 
L 147 3053 
L 147 3500 
L 697 3500 
L 697 3744 
Q 697 4328 969 4595 
Q 1241 4863 1831 4863 
L 2375 4863 
z
" transform="scale(0.015625)"/>
       <path id="DejaVuSans-65" d="M 3597 1894 
L 3597 1613 
L 953 1613 
Q 991 1019 1311 708 
Q 1631 397 2203 397 
Q 2534 397 2845 478 
Q 3156 559 3463 722 
L 3463 178 
Q 3153 47 2828 -22 
Q 2503 -91 2169 -91 
Q 1331 -91 842 396 
Q 353 884 353 1716 
Q 353 2575 817 3079 
Q 1281 3584 2069 3584 
Q 2775 3584 3186 3129 
Q 3597 2675 3597 1894 
z
M 3022 2063 
Q 3016 2534 2758 2815 
Q 2500 3097 2075 3097 
Q 1594 3097 1305 2825 
Q 1016 2553 972 2059 
L 3022 2063 
z
" transform="scale(0.015625)"/>
       <path id="DejaVuSans-20" transform="scale(0.015625)"/>
       <path id="DejaVuSans-53" d="M 3425 4513 
L 3425 3897 
Q 3066 4069 2747 4153 
Q 2428 4238 2131 4238 
Q 1616 4238 1336 4038 
Q 1056 3838 1056 3469 
Q 1056 3159 1242 3001 
Q 1428 2844 1947 2747 
L 2328 2669 
Q 3034 2534 3370 2195 
Q 3706 1856 3706 1288 
Q 3706 609 3251 259 
Q 2797 -91 1919 -91 
Q 1588 -91 1214 -16 
Q 841 59 441 206 
L 441 856 
Q 825 641 1194 531 
Q 1563 422 1919 422 
Q 2459 422 2753 634 
Q 3047 847 3047 1241 
Q 3047 1584 2836 1778 
Q 2625 1972 2144 2069 
L 1759 2144 
Q 1053 2284 737 2584 
Q 422 2884 422 3419 
Q 422 4038 858 4394 
Q 1294 4750 2059 4750 
Q 2388 4750 2728 4690 
Q 3069 4631 3425 4513 
z
" transform="scale(0.015625)"/>
       <path id="DejaVuSans-69" d="M 603 3500 
L 1178 3500 
L 1178 0 
L 603 0 
L 603 3500 
z
M 603 4863 
L 1178 4863 
L 1178 4134 
L 603 4134 
L 603 4863 
z
" transform="scale(0.015625)"/>
       <path id="DejaVuSans-7a" d="M 353 3500 
L 3084 3500 
L 3084 2975 
L 922 459 
L 3084 459 
L 3084 0 
L 275 0 
L 275 525 
L 2438 3041 
L 353 3041 
L 353 3500 
z
" transform="scale(0.015625)"/>
       <path id="DejaVuSans-28" d="M 1984 4856 
Q 1566 4138 1362 3434 
Q 1159 2731 1159 2009 
Q 1159 1288 1364 580 
Q 1569 -128 1984 -844 
L 1484 -844 
Q 1016 -109 783 600 
Q 550 1309 550 2009 
Q 550 2706 781 3412 
Q 1013 4119 1484 4856 
L 1984 4856 
z
" transform="scale(0.015625)"/>
       <path id="DejaVuSans-62" d="M 3116 1747 
Q 3116 2381 2855 2742 
Q 2594 3103 2138 3103 
Q 1681 3103 1420 2742 
Q 1159 2381 1159 1747 
Q 1159 1113 1420 752 
Q 1681 391 2138 391 
Q 2594 391 2855 752 
Q 3116 1113 3116 1747 
z
M 1159 2969 
Q 1341 3281 1617 3432 
Q 1894 3584 2278 3584 
Q 2916 3584 3314 3078 
Q 3713 2572 3713 1747 
Q 3713 922 3314 415 
Q 2916 -91 2278 -91 
Q 1894 -91 1617 61 
Q 1341 213 1159 525 
L 1159 0 
L 581 0 
L 581 4863 
L 1159 4863 
L 1159 2969 
z
" transform="scale(0.015625)"/>
       <path id="DejaVuSans-79" d="M 2059 -325 
Q 1816 -950 1584 -1140 
Q 1353 -1331 966 -1331 
L 506 -1331 
L 506 -850 
L 844 -850 
Q 1081 -850 1212 -737 
Q 1344 -625 1503 -206 
L 1606 56 
L 191 3500 
L 800 3500 
L 1894 763 
L 2988 3500 
L 3597 3500 
L 2059 -325 
z
" transform="scale(0.015625)"/>
       <path id="DejaVuSans-74" d="M 1172 4494 
L 1172 3500 
L 2356 3500 
L 2356 3053 
L 1172 3053 
L 1172 1153 
Q 1172 725 1289 603 
Q 1406 481 1766 481 
L 2356 481 
L 2356 0 
L 1766 0 
Q 1100 0 847 248 
Q 594 497 594 1153 
L 594 3053 
L 172 3053 
L 172 3500 
L 594 3500 
L 594 4494 
L 1172 4494 
z
" transform="scale(0.015625)"/>
       <path id="DejaVuSans-29" d="M 513 4856 
L 1013 4856 
Q 1481 4119 1714 3412 
Q 1947 2706 1947 2009 
Q 1947 1309 1714 600 
Q 1481 -109 1013 -844 
L 513 -844 
Q 928 -128 1133 580 
Q 1338 1288 1338 2009 
Q 1338 2731 1133 3434 
Q 928 4138 513 4856 
z
" transform="scale(0.015625)"/>
      </defs>
      <use xlink:href="#DejaVuSans-54"/>
      <use xlink:href="#DejaVuSans-72" x="46.333984"/>
      <use xlink:href="#DejaVuSans-61" x="87.447266"/>
      <use xlink:href="#DejaVuSans-6e" x="148.726562"/>
      <use xlink:href="#DejaVuSans-73" x="212.105469"/>
      <use xlink:href="#DejaVuSans-66" x="264.205078"/>
      <use xlink:href="#DejaVuSans-65" x="299.410156"/>
      <use xlink:href="#DejaVuSans-72" x="360.933594"/>
      <use xlink:href="#DejaVuSans-20" x="402.046875"/>
      <use xlink:href="#DejaVuSans-53" x="433.833984"/>
      <use xlink:href="#DejaVuSans-69" x="497.310547"/>
      <use xlink:href="#DejaVuSans-7a" x="525.09375"/>
      <use xlink:href="#DejaVuSans-65" x="577.583984"/>
      <use xlink:href="#DejaVuSans-20" x="639.107422"/>
      <use xlink:href="#DejaVuSans-28" x="670.894531"/>
      <use xlink:href="#DejaVuSans-62" x="709.908203"/>
      <use xlink:href="#DejaVuSans-79" x="773.384766"/>
      <use xlink:href="#DejaVuSans-74" x="832.564453"/>
      <use xlink:href="#DejaVuSans-65" x="871.773438"/>
      <use xlink:href="#DejaVuSans-73" x="933.296875"/>
      <use xlink:href="#DejaVuSans-29" x="985.396484"/>
     </g>
    </g>
   </g>
   <g id="matplotlib.axis_2">
    <g id="ytick_1">
     <g id="line2d_33">
      <path d="M 54.596875 227.554909 
L 154.583196 227.554909 
" clip-path="url(#p5db9e712ac)" style="fill: none; stroke: #b0b0b0; stroke-width: 0.8; stroke-linecap: square"/>
     </g>
     <g id="line2d_34">
      <defs>
       <path id="m449ff642ff" d="M 0 0 
L -3.5 0 
" style="stroke: #000000; stroke-width: 0.8"/>
      </defs>
      <g>
       <use xlink:href="#m449ff642ff" x="54.596875" y="227.554909" style="stroke: #000000; stroke-width: 0.8"/>
      </g>
     </g>
     <g id="text_6">
      <!-- 0.00 -->
      <g transform="translate(20.878125 232.113972) scale(0.12 -0.12)">
       <defs>
        <path id="DejaVuSans-2e" d="M 684 794 
L 1344 794 
L 1344 0 
L 684 0 
L 684 794 
z
" transform="scale(0.015625)"/>
       </defs>
       <use xlink:href="#DejaVuSans-30"/>
       <use xlink:href="#DejaVuSans-2e" x="63.623047"/>
       <use xlink:href="#DejaVuSans-30" x="95.410156"/>
       <use xlink:href="#DejaVuSans-30" x="159.033203"/>
      </g>
     </g>
    </g>
    <g id="ytick_2">
     <g id="line2d_35">
      <path d="M 54.596875 198.806715 
L 154.583196 198.806715 
" clip-path="url(#p5db9e712ac)" style="fill: none; stroke: #b0b0b0; stroke-width: 0.8; stroke-linecap: square"/>
     </g>
     <g id="line2d_36">
      <g>
       <use xlink:href="#m449ff642ff" x="54.596875" y="198.806715" style="stroke: #000000; stroke-width: 0.8"/>
      </g>
     </g>
     <g id="text_7">
      <!-- 0.05 -->
      <g transform="translate(20.878125 203.365777) scale(0.12 -0.12)">
       <defs>
        <path id="DejaVuSans-35" d="M 691 4666 
L 3169 4666 
L 3169 4134 
L 1269 4134 
L 1269 2991 
Q 1406 3038 1543 3061 
Q 1681 3084 1819 3084 
Q 2600 3084 3056 2656 
Q 3513 2228 3513 1497 
Q 3513 744 3044 326 
Q 2575 -91 1722 -91 
Q 1428 -91 1123 -41 
Q 819 9 494 109 
L 494 744 
Q 775 591 1075 516 
Q 1375 441 1709 441 
Q 2250 441 2565 725 
Q 2881 1009 2881 1497 
Q 2881 1984 2565 2268 
Q 2250 2553 1709 2553 
Q 1456 2553 1204 2497 
Q 953 2441 691 2322 
L 691 4666 
z
" transform="scale(0.015625)"/>
       </defs>
       <use xlink:href="#DejaVuSans-30"/>
       <use xlink:href="#DejaVuSans-2e" x="63.623047"/>
       <use xlink:href="#DejaVuSans-30" x="95.410156"/>
       <use xlink:href="#DejaVuSans-35" x="159.033203"/>
      </g>
     </g>
    </g>
    <g id="ytick_3">
     <g id="line2d_37">
      <path d="M 54.596875 170.058521 
L 154.583196 170.058521 
" clip-path="url(#p5db9e712ac)" style="fill: none; stroke: #b0b0b0; stroke-width: 0.8; stroke-linecap: square"/>
     </g>
     <g id="line2d_38">
      <g>
       <use xlink:href="#m449ff642ff" x="54.596875" y="170.058521" style="stroke: #000000; stroke-width: 0.8"/>
      </g>
     </g>
     <g id="text_8">
      <!-- 0.10 -->
      <g transform="translate(20.878125 174.617583) scale(0.12 -0.12)">
       <use xlink:href="#DejaVuSans-30"/>
       <use xlink:href="#DejaVuSans-2e" x="63.623047"/>
       <use xlink:href="#DejaVuSans-31" x="95.410156"/>
       <use xlink:href="#DejaVuSans-30" x="159.033203"/>
      </g>
     </g>
    </g>
    <g id="ytick_4">
     <g id="line2d_39">
      <path d="M 54.596875 141.310326 
L 154.583196 141.310326 
" clip-path="url(#p5db9e712ac)" style="fill: none; stroke: #b0b0b0; stroke-width: 0.8; stroke-linecap: square"/>
     </g>
     <g id="line2d_40">
      <g>
       <use xlink:href="#m449ff642ff" x="54.596875" y="141.310326" style="stroke: #000000; stroke-width: 0.8"/>
      </g>
     </g>
     <g id="text_9">
      <!-- 0.15 -->
      <g transform="translate(20.878125 145.869389) scale(0.12 -0.12)">
       <use xlink:href="#DejaVuSans-30"/>
       <use xlink:href="#DejaVuSans-2e" x="63.623047"/>
       <use xlink:href="#DejaVuSans-31" x="95.410156"/>
       <use xlink:href="#DejaVuSans-35" x="159.033203"/>
      </g>
     </g>
    </g>
    <g id="ytick_5">
     <g id="line2d_41">
      <path d="M 54.596875 112.562132 
L 154.583196 112.562132 
" clip-path="url(#p5db9e712ac)" style="fill: none; stroke: #b0b0b0; stroke-width: 0.8; stroke-linecap: square"/>
     </g>
     <g id="line2d_42">
      <g>
       <use xlink:href="#m449ff642ff" x="54.596875" y="112.562132" style="stroke: #000000; stroke-width: 0.8"/>
      </g>
     </g>
     <g id="text_10">
      <!-- 0.20 -->
      <g transform="translate(20.878125 117.121195) scale(0.12 -0.12)">
       <defs>
        <path id="DejaVuSans-32" d="M 1228 531 
L 3431 531 
L 3431 0 
L 469 0 
L 469 531 
Q 828 903 1448 1529 
Q 2069 2156 2228 2338 
Q 2531 2678 2651 2914 
Q 2772 3150 2772 3378 
Q 2772 3750 2511 3984 
Q 2250 4219 1831 4219 
Q 1534 4219 1204 4116 
Q 875 4013 500 3803 
L 500 4441 
Q 881 4594 1212 4672 
Q 1544 4750 1819 4750 
Q 2544 4750 2975 4387 
Q 3406 4025 3406 3419 
Q 3406 3131 3298 2873 
Q 3191 2616 2906 2266 
Q 2828 2175 2409 1742 
Q 1991 1309 1228 531 
z
" transform="scale(0.015625)"/>
       </defs>
       <use xlink:href="#DejaVuSans-30"/>
       <use xlink:href="#DejaVuSans-2e" x="63.623047"/>
       <use xlink:href="#DejaVuSans-32" x="95.410156"/>
       <use xlink:href="#DejaVuSans-30" x="159.033203"/>
      </g>
     </g>
    </g>
    <g id="ytick_6">
     <g id="line2d_43">
      <path d="M 54.596875 83.813938 
L 154.583196 83.813938 
" clip-path="url(#p5db9e712ac)" style="fill: none; stroke: #b0b0b0; stroke-width: 0.8; stroke-linecap: square"/>
     </g>
     <g id="line2d_44">
      <g>
       <use xlink:href="#m449ff642ff" x="54.596875" y="83.813938" style="stroke: #000000; stroke-width: 0.8"/>
      </g>
     </g>
     <g id="text_11">
      <!-- 0.25 -->
      <g transform="translate(20.878125 88.373) scale(0.12 -0.12)">
       <use xlink:href="#DejaVuSans-30"/>
       <use xlink:href="#DejaVuSans-2e" x="63.623047"/>
       <use xlink:href="#DejaVuSans-32" x="95.410156"/>
       <use xlink:href="#DejaVuSans-35" x="159.033203"/>
      </g>
     </g>
    </g>
    <g id="ytick_7">
     <g id="line2d_45">
      <path d="M 54.596875 55.065743 
L 154.583196 55.065743 
" clip-path="url(#p5db9e712ac)" style="fill: none; stroke: #b0b0b0; stroke-width: 0.8; stroke-linecap: square"/>
     </g>
     <g id="line2d_46">
      <g>
       <use xlink:href="#m449ff642ff" x="54.596875" y="55.065743" style="stroke: #000000; stroke-width: 0.8"/>
      </g>
     </g>
     <g id="text_12">
      <!-- 0.30 -->
      <g transform="translate(20.878125 59.624806) scale(0.12 -0.12)">
       <defs>
        <path id="DejaVuSans-33" d="M 2597 2516 
Q 3050 2419 3304 2112 
Q 3559 1806 3559 1356 
Q 3559 666 3084 287 
Q 2609 -91 1734 -91 
Q 1441 -91 1130 -33 
Q 819 25 488 141 
L 488 750 
Q 750 597 1062 519 
Q 1375 441 1716 441 
Q 2309 441 2620 675 
Q 2931 909 2931 1356 
Q 2931 1769 2642 2001 
Q 2353 2234 1838 2234 
L 1294 2234 
L 1294 2753 
L 1863 2753 
Q 2328 2753 2575 2939 
Q 2822 3125 2822 3475 
Q 2822 3834 2567 4026 
Q 2313 4219 1838 4219 
Q 1578 4219 1281 4162 
Q 984 4106 628 3988 
L 628 4550 
Q 988 4650 1302 4700 
Q 1616 4750 1894 4750 
Q 2613 4750 3031 4423 
Q 3450 4097 3450 3541 
Q 3450 3153 3228 2886 
Q 3006 2619 2597 2516 
z
" transform="scale(0.015625)"/>
       </defs>
       <use xlink:href="#DejaVuSans-30"/>
       <use xlink:href="#DejaVuSans-2e" x="63.623047"/>
       <use xlink:href="#DejaVuSans-33" x="95.410156"/>
       <use xlink:href="#DejaVuSans-30" x="159.033203"/>
      </g>
     </g>
    </g>
    <g id="ytick_8">
     <g id="line2d_47">
      <path d="M 54.596875 26.317549 
L 154.583196 26.317549 
" clip-path="url(#p5db9e712ac)" style="fill: none; stroke: #b0b0b0; stroke-width: 0.8; stroke-linecap: square"/>
     </g>
     <g id="line2d_48">
      <g>
       <use xlink:href="#m449ff642ff" x="54.596875" y="26.317549" style="stroke: #000000; stroke-width: 0.8"/>
      </g>
     </g>
     <g id="text_13">
      <!-- 0.35 -->
      <g transform="translate(20.878125 30.876612) scale(0.12 -0.12)">
       <use xlink:href="#DejaVuSans-30"/>
       <use xlink:href="#DejaVuSans-2e" x="63.623047"/>
       <use xlink:href="#DejaVuSans-33" x="95.410156"/>
       <use xlink:href="#DejaVuSans-35" x="159.033203"/>
      </g>
     </g>
    </g>
    <g id="text_14">
     <!-- DRAMA -->
     <g transform="translate(14.798438 140.902906) rotate(-90) scale(0.1 -0.1)">
      <defs>
       <path id="DejaVuSans-44" d="M 1259 4147 
L 1259 519 
L 2022 519 
Q 2988 519 3436 956 
Q 3884 1394 3884 2338 
Q 3884 3275 3436 3711 
Q 2988 4147 2022 4147 
L 1259 4147 
z
M 628 4666 
L 1925 4666 
Q 3281 4666 3915 4102 
Q 4550 3538 4550 2338 
Q 4550 1131 3912 565 
Q 3275 0 1925 0 
L 628 0 
L 628 4666 
z
" transform="scale(0.015625)"/>
       <path id="DejaVuSans-52" d="M 2841 2188 
Q 3044 2119 3236 1894 
Q 3428 1669 3622 1275 
L 4263 0 
L 3584 0 
L 2988 1197 
Q 2756 1666 2539 1819 
Q 2322 1972 1947 1972 
L 1259 1972 
L 1259 0 
L 628 0 
L 628 4666 
L 2053 4666 
Q 2853 4666 3247 4331 
Q 3641 3997 3641 3322 
Q 3641 2881 3436 2590 
Q 3231 2300 2841 2188 
z
M 1259 4147 
L 1259 2491 
L 2053 2491 
Q 2509 2491 2742 2702 
Q 2975 2913 2975 3322 
Q 2975 3731 2742 3939 
Q 2509 4147 2053 4147 
L 1259 4147 
z
" transform="scale(0.015625)"/>
       <path id="DejaVuSans-41" d="M 2188 4044 
L 1331 1722 
L 3047 1722 
L 2188 4044 
z
M 1831 4666 
L 2547 4666 
L 4325 0 
L 3669 0 
L 3244 1197 
L 1141 1197 
L 716 0 
L 50 0 
L 1831 4666 
z
" transform="scale(0.015625)"/>
       <path id="DejaVuSans-4d" d="M 628 4666 
L 1569 4666 
L 2759 1491 
L 3956 4666 
L 4897 4666 
L 4897 0 
L 4281 0 
L 4281 4097 
L 3078 897 
L 2444 897 
L 1241 4097 
L 1241 0 
L 628 0 
L 628 4666 
z
" transform="scale(0.015625)"/>
      </defs>
      <use xlink:href="#DejaVuSans-44"/>
      <use xlink:href="#DejaVuSans-52" x="77.001953"/>
      <use xlink:href="#DejaVuSans-41" x="142.484375"/>
      <use xlink:href="#DejaVuSans-4d" x="210.892578"/>
      <use xlink:href="#DejaVuSans-41" x="297.171875"/>
     </g>
    </g>
   </g>
   <g id="line2d_49">
    <path d="M 55.283445 227.530886 
L 65.316405 227.522878 
L 75.349366 226.666037 
L 85.382327 226.95432 
L 95.415287 223.767194 
L 105.448248 218.099236 
L 115.481209 203.068494 
L 125.514169 178.492392 
L 135.54713 141.007629 
L 145.58009 76.757417 
" clip-path="url(#p5db9e712ac)" style="fill: none; stroke: #1f77b4; stroke-width: 2.2; stroke-linecap: square"/>
    <defs>
     <path id="m5cae90536c" d="M 0 3 
C 0.795609 3 1.55874 2.683901 2.12132 2.12132 
C 2.683901 1.55874 3 0.795609 3 0 
C 3 -0.795609 2.683901 -1.55874 2.12132 -2.12132 
C 1.55874 -2.683901 0.795609 -3 0 -3 
C -0.795609 -3 -1.55874 -2.683901 -2.12132 -2.12132 
C -2.683901 -1.55874 -3 -0.795609 -3 0 
C -3 0.795609 -2.683901 1.55874 -2.12132 2.12132 
C -1.55874 2.683901 -0.795609 3 0 3 
z
" style="stroke: #ffffff; stroke-width: 0.75"/>
    </defs>
    <g clip-path="url(#p5db9e712ac)">
     <use xlink:href="#m5cae90536c" x="55.283445" y="227.530886" style="fill: #1f77b4; stroke: #ffffff; stroke-width: 0.75"/>
     <use xlink:href="#m5cae90536c" x="65.316405" y="227.522878" style="fill: #1f77b4; stroke: #ffffff; stroke-width: 0.75"/>
     <use xlink:href="#m5cae90536c" x="75.349366" y="226.666037" style="fill: #1f77b4; stroke: #ffffff; stroke-width: 0.75"/>
     <use xlink:href="#m5cae90536c" x="85.382327" y="226.95432" style="fill: #1f77b4; stroke: #ffffff; stroke-width: 0.75"/>
     <use xlink:href="#m5cae90536c" x="95.415287" y="223.767194" style="fill: #1f77b4; stroke: #ffffff; stroke-width: 0.75"/>
     <use xlink:href="#m5cae90536c" x="105.448248" y="218.099236" style="fill: #1f77b4; stroke: #ffffff; stroke-width: 0.75"/>
     <use xlink:href="#m5cae90536c" x="115.481209" y="203.068494" style="fill: #1f77b4; stroke: #ffffff; stroke-width: 0.75"/>
     <use xlink:href="#m5cae90536c" x="125.514169" y="178.492392" style="fill: #1f77b4; stroke: #ffffff; stroke-width: 0.75"/>
     <use xlink:href="#m5cae90536c" x="135.54713" y="141.007629" style="fill: #1f77b4; stroke: #ffffff; stroke-width: 0.75"/>
     <use xlink:href="#m5cae90536c" x="145.58009" y="76.757417" style="fill: #1f77b4; stroke: #ffffff; stroke-width: 0.75"/>
    </g>
   </g>
   <g id="line2d_50">
    <path d="M 55.283445 227.540495 
L 65.316405 227.529284 
L 75.349366 226.965531 
L 85.382327 226.92389 
L 95.415287 223.658288 
L 105.448248 218.251385 
L 115.481209 203.625841 
L 125.514169 179.4181 
L 135.54713 141.802008 
L 145.58009 74.24135 
" clip-path="url(#p5db9e712ac)" style="fill: none; stroke-dasharray: 8.14,3.52; stroke-dashoffset: 0; stroke: #62a0cb; stroke-width: 2.2"/>
    <defs>
     <path id="m6e2308b034" d="M 0 3 
C 0.795609 3 1.55874 2.683901 2.12132 2.12132 
C 2.683901 1.55874 3 0.795609 3 0 
C 3 -0.795609 2.683901 -1.55874 2.12132 -2.12132 
C 1.55874 -2.683901 0.795609 -3 0 -3 
C -0.795609 -3 -1.55874 -2.683901 -2.12132 -2.12132 
C -2.683901 -1.55874 -3 -0.795609 -3 0 
C -3 0.795609 -2.683901 1.55874 -2.12132 2.12132 
C -1.55874 2.683901 -0.795609 3 0 3 
z
" style="stroke: #ffffff; stroke-width: 0.75"/>
    </defs>
    <g clip-path="url(#p5db9e712ac)">
     <use xlink:href="#m6e2308b034" x="55.283445" y="227.540495" style="fill: #62a0cb; stroke: #ffffff; stroke-width: 0.75"/>
     <use xlink:href="#m6e2308b034" x="65.316405" y="227.529284" style="fill: #62a0cb; stroke: #ffffff; stroke-width: 0.75"/>
     <use xlink:href="#m6e2308b034" x="75.349366" y="226.965531" style="fill: #62a0cb; stroke: #ffffff; stroke-width: 0.75"/>
     <use xlink:href="#m6e2308b034" x="85.382327" y="226.92389" style="fill: #62a0cb; stroke: #ffffff; stroke-width: 0.75"/>
     <use xlink:href="#m6e2308b034" x="95.415287" y="223.658288" style="fill: #62a0cb; stroke: #ffffff; stroke-width: 0.75"/>
     <use xlink:href="#m6e2308b034" x="105.448248" y="218.251385" style="fill: #62a0cb; stroke: #ffffff; stroke-width: 0.75"/>
     <use xlink:href="#m6e2308b034" x="115.481209" y="203.625841" style="fill: #62a0cb; stroke: #ffffff; stroke-width: 0.75"/>
     <use xlink:href="#m6e2308b034" x="125.514169" y="179.4181" style="fill: #62a0cb; stroke: #ffffff; stroke-width: 0.75"/>
     <use xlink:href="#m6e2308b034" x="135.54713" y="141.802008" style="fill: #62a0cb; stroke: #ffffff; stroke-width: 0.75"/>
     <use xlink:href="#m6e2308b034" x="145.58009" y="74.24135" style="fill: #62a0cb; stroke: #ffffff; stroke-width: 0.75"/>
    </g>
   </g>
   <g id="line2d_51">
    <path d="M 55.283445 227.550104 
L 65.316405 227.106469 
L 75.349366 226.571545 
L 85.382327 222.927971 
L 95.415287 217.357708 
L 105.448248 209.346652 
L 115.481209 197.792921 
L 125.514169 194.918101 
L 135.54713 179.871344 
L 145.58009 149.505564 
" clip-path="url(#p5db9e712ac)" style="fill: none; stroke: #ff7f0e; stroke-width: 2.2; stroke-linecap: square"/>
    <defs>
     <path id="m7cd3b1d5e0" d="M 0 3 
C 0.795609 3 1.55874 2.683901 2.12132 2.12132 
C 2.683901 1.55874 3 0.795609 3 0 
C 3 -0.795609 2.683901 -1.55874 2.12132 -2.12132 
C 1.55874 -2.683901 0.795609 -3 0 -3 
C -0.795609 -3 -1.55874 -2.683901 -2.12132 -2.12132 
C -2.683901 -1.55874 -3 -0.795609 -3 0 
C -3 0.795609 -2.683901 1.55874 -2.12132 2.12132 
C -1.55874 2.683901 -0.795609 3 0 3 
z
" style="stroke: #ffffff; stroke-width: 0.75"/>
    </defs>
    <g clip-path="url(#p5db9e712ac)">
     <use xlink:href="#m7cd3b1d5e0" x="55.283445" y="227.550104" style="fill: #ff7f0e; stroke: #ffffff; stroke-width: 0.75"/>
     <use xlink:href="#m7cd3b1d5e0" x="65.316405" y="227.106469" style="fill: #ff7f0e; stroke: #ffffff; stroke-width: 0.75"/>
     <use xlink:href="#m7cd3b1d5e0" x="75.349366" y="226.571545" style="fill: #ff7f0e; stroke: #ffffff; stroke-width: 0.75"/>
     <use xlink:href="#m7cd3b1d5e0" x="85.382327" y="222.927971" style="fill: #ff7f0e; stroke: #ffffff; stroke-width: 0.75"/>
     <use xlink:href="#m7cd3b1d5e0" x="95.415287" y="217.357708" style="fill: #ff7f0e; stroke: #ffffff; stroke-width: 0.75"/>
     <use xlink:href="#m7cd3b1d5e0" x="105.448248" y="209.346652" style="fill: #ff7f0e; stroke: #ffffff; stroke-width: 0.75"/>
     <use xlink:href="#m7cd3b1d5e0" x="115.481209" y="197.792921" style="fill: #ff7f0e; stroke: #ffffff; stroke-width: 0.75"/>
     <use xlink:href="#m7cd3b1d5e0" x="125.514169" y="194.918101" style="fill: #ff7f0e; stroke: #ffffff; stroke-width: 0.75"/>
     <use xlink:href="#m7cd3b1d5e0" x="135.54713" y="179.871344" style="fill: #ff7f0e; stroke: #ffffff; stroke-width: 0.75"/>
     <use xlink:href="#m7cd3b1d5e0" x="145.58009" y="149.505564" style="fill: #ff7f0e; stroke: #ffffff; stroke-width: 0.75"/>
    </g>
   </g>
   <g id="line2d_52">
    <path d="M 55.283445 227.550104 
L 65.316405 227.108071 
L 75.349366 226.561935 
L 85.382327 222.857502 
L 95.415287 217.758101 
L 105.448248 209.506809 
L 115.481209 197.764092 
L 125.514169 193.918721 
L 135.54713 180.007478 
L 145.58009 144.280439 
" clip-path="url(#p5db9e712ac)" style="fill: none; stroke-dasharray: 8.14,3.52; stroke-dashoffset: 0; stroke: #ffa556; stroke-width: 2.2"/>
    <defs>
     <path id="m7d57f3a19a" d="M 0 3 
C 0.795609 3 1.55874 2.683901 2.12132 2.12132 
C 2.683901 1.55874 3 0.795609 3 0 
C 3 -0.795609 2.683901 -1.55874 2.12132 -2.12132 
C 1.55874 -2.683901 0.795609 -3 0 -3 
C -0.795609 -3 -1.55874 -2.683901 -2.12132 -2.12132 
C -2.683901 -1.55874 -3 -0.795609 -3 0 
C -3 0.795609 -2.683901 1.55874 -2.12132 2.12132 
C -1.55874 2.683901 -0.795609 3 0 3 
z
" style="stroke: #ffffff; stroke-width: 0.75"/>
    </defs>
    <g clip-path="url(#p5db9e712ac)">
     <use xlink:href="#m7d57f3a19a" x="55.283445" y="227.550104" style="fill: #ffa556; stroke: #ffffff; stroke-width: 0.75"/>
     <use xlink:href="#m7d57f3a19a" x="65.316405" y="227.108071" style="fill: #ffa556; stroke: #ffffff; stroke-width: 0.75"/>
     <use xlink:href="#m7d57f3a19a" x="75.349366" y="226.561935" style="fill: #ffa556; stroke: #ffffff; stroke-width: 0.75"/>
     <use xlink:href="#m7d57f3a19a" x="85.382327" y="222.857502" style="fill: #ffa556; stroke: #ffffff; stroke-width: 0.75"/>
     <use xlink:href="#m7d57f3a19a" x="95.415287" y="217.758101" style="fill: #ffa556; stroke: #ffffff; stroke-width: 0.75"/>
     <use xlink:href="#m7d57f3a19a" x="105.448248" y="209.506809" style="fill: #ffa556; stroke: #ffffff; stroke-width: 0.75"/>
     <use xlink:href="#m7d57f3a19a" x="115.481209" y="197.764092" style="fill: #ffa556; stroke: #ffffff; stroke-width: 0.75"/>
     <use xlink:href="#m7d57f3a19a" x="125.514169" y="193.918721" style="fill: #ffa556; stroke: #ffffff; stroke-width: 0.75"/>
     <use xlink:href="#m7d57f3a19a" x="135.54713" y="180.007478" style="fill: #ffa556; stroke: #ffffff; stroke-width: 0.75"/>
     <use xlink:href="#m7d57f3a19a" x="145.58009" y="144.280439" style="fill: #ffa556; stroke: #ffffff; stroke-width: 0.75"/>
    </g>
   </g>
   <g id="line2d_53">
    <path d="M 55.283445 227.450807 
L 65.316405 227.184946 
L 75.349366 226.643615 
L 85.382327 226.193574 
L 95.415287 225.328726 
L 105.448248 223.743171 
L 115.481209 223.152191 
L 125.514169 222.950393 
L 135.54713 222.953596 
L 145.58009 222.953597 
" clip-path="url(#p5db9e712ac)" style="fill: none; stroke: #2ca02c; stroke-width: 2.2; stroke-linecap: square"/>
    <defs>
     <path id="mbebf6ad782" d="M 0 3 
C 0.795609 3 1.55874 2.683901 2.12132 2.12132 
C 2.683901 1.55874 3 0.795609 3 0 
C 3 -0.795609 2.683901 -1.55874 2.12132 -2.12132 
C 1.55874 -2.683901 0.795609 -3 0 -3 
C -0.795609 -3 -1.55874 -2.683901 -2.12132 -2.12132 
C -2.683901 -1.55874 -3 -0.795609 -3 0 
C -3 0.795609 -2.683901 1.55874 -2.12132 2.12132 
C -1.55874 2.683901 -0.795609 3 0 3 
z
" style="stroke: #ffffff; stroke-width: 0.75"/>
    </defs>
    <g clip-path="url(#p5db9e712ac)">
     <use xlink:href="#mbebf6ad782" x="55.283445" y="227.450807" style="fill: #2ca02c; stroke: #ffffff; stroke-width: 0.75"/>
     <use xlink:href="#mbebf6ad782" x="65.316405" y="227.184946" style="fill: #2ca02c; stroke: #ffffff; stroke-width: 0.75"/>
     <use xlink:href="#mbebf6ad782" x="75.349366" y="226.643615" style="fill: #2ca02c; stroke: #ffffff; stroke-width: 0.75"/>
     <use xlink:href="#mbebf6ad782" x="85.382327" y="226.193574" style="fill: #2ca02c; stroke: #ffffff; stroke-width: 0.75"/>
     <use xlink:href="#mbebf6ad782" x="95.415287" y="225.328726" style="fill: #2ca02c; stroke: #ffffff; stroke-width: 0.75"/>
     <use xlink:href="#mbebf6ad782" x="105.448248" y="223.743171" style="fill: #2ca02c; stroke: #ffffff; stroke-width: 0.75"/>
     <use xlink:href="#mbebf6ad782" x="115.481209" y="223.152191" style="fill: #2ca02c; stroke: #ffffff; stroke-width: 0.75"/>
     <use xlink:href="#mbebf6ad782" x="125.514169" y="222.950393" style="fill: #2ca02c; stroke: #ffffff; stroke-width: 0.75"/>
     <use xlink:href="#mbebf6ad782" x="135.54713" y="222.953596" style="fill: #2ca02c; stroke: #ffffff; stroke-width: 0.75"/>
     <use xlink:href="#mbebf6ad782" x="145.58009" y="222.953597" style="fill: #2ca02c; stroke: #ffffff; stroke-width: 0.75"/>
    </g>
   </g>
   <g id="line2d_54"/>
   <g id="line2d_55">
    <path d="M 55.283445 227.554909 
L 65.316405 227.434791 
L 75.349366 226.871038 
L 85.382327 226.404981 
L 95.415287 225.998182 
L 105.448248 225.652243 
L 115.481209 225.165366 
L 125.514169 224.491905 
L 135.54713 224.145378 
L 145.58009 224.105126 
" clip-path="url(#p5db9e712ac)" style="fill: none; stroke: #d62728; stroke-width: 2.2; stroke-linecap: square"/>
    <defs>
     <path id="m7124895779" d="M 0 3 
C 0.795609 3 1.55874 2.683901 2.12132 2.12132 
C 2.683901 1.55874 3 0.795609 3 0 
C 3 -0.795609 2.683901 -1.55874 2.12132 -2.12132 
C 1.55874 -2.683901 0.795609 -3 0 -3 
C -0.795609 -3 -1.55874 -2.683901 -2.12132 -2.12132 
C -2.683901 -1.55874 -3 -0.795609 -3 0 
C -3 0.795609 -2.683901 1.55874 -2.12132 2.12132 
C -1.55874 2.683901 -0.795609 3 0 3 
z
" style="stroke: #ffffff; stroke-width: 0.75"/>
    </defs>
    <g clip-path="url(#p5db9e712ac)">
     <use xlink:href="#m7124895779" x="55.283445" y="227.554909" style="fill: #d62728; stroke: #ffffff; stroke-width: 0.75"/>
     <use xlink:href="#m7124895779" x="65.316405" y="227.434791" style="fill: #d62728; stroke: #ffffff; stroke-width: 0.75"/>
     <use xlink:href="#m7124895779" x="75.349366" y="226.871038" style="fill: #d62728; stroke: #ffffff; stroke-width: 0.75"/>
     <use xlink:href="#m7124895779" x="85.382327" y="226.404981" style="fill: #d62728; stroke: #ffffff; stroke-width: 0.75"/>
     <use xlink:href="#m7124895779" x="95.415287" y="225.998182" style="fill: #d62728; stroke: #ffffff; stroke-width: 0.75"/>
     <use xlink:href="#m7124895779" x="105.448248" y="225.652243" style="fill: #d62728; stroke: #ffffff; stroke-width: 0.75"/>
     <use xlink:href="#m7124895779" x="115.481209" y="225.165366" style="fill: #d62728; stroke: #ffffff; stroke-width: 0.75"/>
     <use xlink:href="#m7124895779" x="125.514169" y="224.491905" style="fill: #d62728; stroke: #ffffff; stroke-width: 0.75"/>
     <use xlink:href="#m7124895779" x="135.54713" y="224.145378" style="fill: #d62728; stroke: #ffffff; stroke-width: 0.75"/>
     <use xlink:href="#m7124895779" x="145.58009" y="224.105126" style="fill: #d62728; stroke: #ffffff; stroke-width: 0.75"/>
    </g>
   </g>
   <g id="line2d_56">
    <path d="M 55.283445 227.554909 
L 65.316405 227.303462 
L 75.349366 226.84221 
L 85.382327 226.668952 
L 95.415287 226.399376 
L 105.448248 225.528121 
L 115.481209 225.196863 
L 125.514169 224.77234 
L 135.54713 224.330468 
L 145.58009 224.114729 
" clip-path="url(#p5db9e712ac)" style="fill: none; stroke-dasharray: 8.14,3.52; stroke-dashoffset: 0; stroke: #e26868; stroke-width: 2.2"/>
    <defs>
     <path id="m05b1c7406b" d="M 0 3 
C 0.795609 3 1.55874 2.683901 2.12132 2.12132 
C 2.683901 1.55874 3 0.795609 3 0 
C 3 -0.795609 2.683901 -1.55874 2.12132 -2.12132 
C 1.55874 -2.683901 0.795609 -3 0 -3 
C -0.795609 -3 -1.55874 -2.683901 -2.12132 -2.12132 
C -2.683901 -1.55874 -3 -0.795609 -3 0 
C -3 0.795609 -2.683901 1.55874 -2.12132 2.12132 
C -1.55874 2.683901 -0.795609 3 0 3 
z
" style="stroke: #ffffff; stroke-width: 0.75"/>
    </defs>
    <g clip-path="url(#p5db9e712ac)">
     <use xlink:href="#m05b1c7406b" x="55.283445" y="227.554909" style="fill: #e26868; stroke: #ffffff; stroke-width: 0.75"/>
     <use xlink:href="#m05b1c7406b" x="65.316405" y="227.303462" style="fill: #e26868; stroke: #ffffff; stroke-width: 0.75"/>
     <use xlink:href="#m05b1c7406b" x="75.349366" y="226.84221" style="fill: #e26868; stroke: #ffffff; stroke-width: 0.75"/>
     <use xlink:href="#m05b1c7406b" x="85.382327" y="226.668952" style="fill: #e26868; stroke: #ffffff; stroke-width: 0.75"/>
     <use xlink:href="#m05b1c7406b" x="95.415287" y="226.399376" style="fill: #e26868; stroke: #ffffff; stroke-width: 0.75"/>
     <use xlink:href="#m05b1c7406b" x="105.448248" y="225.528121" style="fill: #e26868; stroke: #ffffff; stroke-width: 0.75"/>
     <use xlink:href="#m05b1c7406b" x="115.481209" y="225.196863" style="fill: #e26868; stroke: #ffffff; stroke-width: 0.75"/>
     <use xlink:href="#m05b1c7406b" x="125.514169" y="224.77234" style="fill: #e26868; stroke: #ffffff; stroke-width: 0.75"/>
     <use xlink:href="#m05b1c7406b" x="135.54713" y="224.330468" style="fill: #e26868; stroke: #ffffff; stroke-width: 0.75"/>
     <use xlink:href="#m05b1c7406b" x="145.58009" y="224.114729" style="fill: #e26868; stroke: #ffffff; stroke-width: 0.75"/>
    </g>
   </g>
   <g id="patch_3">
    <path d="M 54.596875 238.048 
L 54.596875 7.2 
" style="fill: none; stroke: #000000; stroke-width: 0.8; stroke-linejoin: miter; stroke-linecap: square"/>
   </g>
   <g id="patch_4">
    <path d="M 154.583196 238.048 
L 154.583196 7.2 
" style="fill: none; stroke: #000000; stroke-width: 0.8; stroke-linejoin: miter; stroke-linecap: square"/>
   </g>
   <g id="patch_5">
    <path d="M 54.596875 238.048 
L 154.583196 238.048 
" style="fill: none; stroke: #000000; stroke-width: 0.8; stroke-linejoin: miter; stroke-linecap: square"/>
   </g>
   <g id="patch_6">
    <path d="M 54.596875 7.2 
L 154.583196 7.2 
" style="fill: none; stroke: #000000; stroke-width: 0.8; stroke-linejoin: miter; stroke-linecap: square"/>
   </g>
  </g>
 </g>
 <defs>
  <clipPath id="p5db9e712ac">
   <rect x="54.596875" y="7.2" width="99.986321" height="230.848"/>
  </clipPath>
 </defs>
</svg>
