<?xml version="1.0" encoding="utf-8" standalone="no"?>
<!DOCTYPE svg PUBLIC "-//W3C//DTD SVG 1.1//EN"
  "http://www.w3.org/Graphics/SVG/1.1/DTD/svg11.dtd">
<svg xmlns:xlink="http://www.w3.org/1999/xlink" width="193.363125pt" height="277.218312pt" viewBox="0 0 193.363125 277.218312" xmlns="http://www.w3.org/2000/svg" version="1.1">
 <metadata>
  <rdf:RDF xmlns:dc="http://purl.org/dc/elements/1.1/" xmlns:cc="http://creativecommons.org/ns#" xmlns:rdf="http://www.w3.org/1999/02/22-rdf-syntax-ns#">
   <cc:Work>
    <dc:type rdf:resource="http://purl.org/dc/dcmitype/StillImage"/>
    <dc:date>2024-08-09T22:45:47.332238</dc:date>
    <dc:format>image/svg+xml</dc:format>
    <dc:creator>
     <cc:Agent>
      <dc:title>Matplotlib v3.8.3, https://matplotlib.org/</dc:title>
     </cc:Agent>
    </dc:creator>
   </cc:Work>
  </rdf:RDF>
 </metadata>
 <defs>
  <style type="text/css">*{stroke-linejoin: round; stroke-linecap: butt}</style>
 </defs>
 <g id="figure_1">
  <g id="patch_1">
   <path d="M 0 277.218312 
L 193.363125 277.218312 
L 193.363125 0 
L 0 0 
z
" style="fill: #ffffff"/>
  </g>
  <g id="axes_1">
   <g id="patch_2">
    <path d="M 75.706804 237.726437 
L 175.603125 237.726437 
L 175.603125 17.798437 
L 75.706804 17.798437 
z
" style="fill: #ffffff"/>
   </g>
   <g id="PolyCollection_1"/>
   <g id="PolyCollection_2">
    <defs>
     <path id="m114469c6e9" d="M 76.392756 -49.767067 
L 76.392756 -49.594417 
L 86.416685 -49.606937 
L 96.440615 -49.619936 
L 106.464545 -49.610409 
L 116.488474 -49.594088 
L 126.512404 -49.539642 
L 136.536334 -49.656383 
L 146.560264 -49.688965 
L 156.584193 -49.713142 
L 166.608123 -49.769418 
L 166.608123 -49.84879 
L 166.608123 -49.84879 
L 156.584193 -49.793232 
L 146.560264 -49.72765 
L 136.536334 -49.733253 
L 126.512404 -49.898798 
L 116.488474 -49.769224 
L 106.464545 -49.691023 
L 96.440615 -49.715727 
L 86.416685 -49.755791 
L 76.392756 -49.767067 
z
" style="stroke: #1f77b4; stroke-opacity: 0.2"/>
    </defs>
    <g clip-path="url(#pdbb1e1f156)">
     <use xlink:href="#m114469c6e9" x="0" y="277.218312" style="fill: #1f77b4; fill-opacity: 0.2; stroke: #1f77b4; stroke-opacity: 0.2"/>
    </g>
   </g>
   <g id="PolyCollection_3"/>
   <g id="PolyCollection_4">
    <defs>
     <path id="m4d9d7fc36f" d="M 76.392756 -49.754697 
L 76.392756 -49.607634 
L 86.416685 -49.61124 
L 96.440615 -49.636496 
L 106.464545 -49.606103 
L 116.488474 -49.617527 
L 126.512404 -49.598018 
L 136.536334 -49.644529 
L 146.560264 -49.69164 
L 156.584193 -49.71868 
L 166.608123 -49.762746 
L 166.608123 -49.862129 
L 166.608123 -49.862129 
L 156.584193 -49.784888 
L 146.560264 -49.717267 
L 136.536334 -49.69859 
L 126.512404 -49.764806 
L 116.488474 -49.714976 
L 106.464545 -49.753001 
L 96.440615 -49.675369 
L 86.416685 -49.744576 
L 76.392756 -49.754697 
z
" style="stroke: #62a0cb; stroke-opacity: 0.2"/>
    </defs>
    <g clip-path="url(#pdbb1e1f156)">
     <use xlink:href="#m4d9d7fc36f" x="0" y="277.218312" style="fill: #62a0cb; fill-opacity: 0.2; stroke: #62a0cb; stroke-opacity: 0.2"/>
    </g>
   </g>
   <g id="PolyCollection_5"/>
   <g id="PolyCollection_6">
    <defs>
     <path id="me67111adfa" d="M 76.392756 -49.712565 
L 76.392756 -49.620883 
L 86.416685 -49.602473 
L 96.440615 -49.611759 
L 106.464545 -49.607209 
L 116.488474 -49.627639 
L 126.512404 -49.579955 
L 136.536334 -49.599738 
L 146.560264 -49.616061 
L 156.584193 -49.607356 
L 166.608123 -49.604697 
L 166.608123 -49.752354 
L 166.608123 -49.752354 
L 156.584193 -49.710023 
L 146.560264 -49.75139 
L 136.536334 -49.760005 
L 126.512404 -49.804041 
L 116.488474 -49.68912 
L 106.464545 -49.721041 
L 96.440615 -49.7276 
L 86.416685 -49.762663 
L 76.392756 -49.712565 
z
" style="stroke: #ff7f0e; stroke-opacity: 0.2"/>
    </defs>
    <g clip-path="url(#pdbb1e1f156)">
     <use xlink:href="#me67111adfa" x="0" y="277.218312" style="fill: #ff7f0e; fill-opacity: 0.2; stroke: #ff7f0e; stroke-opacity: 0.2"/>
    </g>
   </g>
   <g id="PolyCollection_7"/>
   <g id="PolyCollection_8">
    <defs>
     <path id="mf91a1a9562" d="M 76.392756 -49.720937 
L 76.392756 -49.608256 
L 86.416685 -49.617236 
L 96.440615 -49.603256 
L 106.464545 -49.613984 
L 116.488474 -49.608842 
L 126.512404 -49.596837 
L 136.536334 -49.61805 
L 146.560264 -49.575487 
L 156.584193 -49.618613 
L 166.608123 -49.613214 
L 166.608123 -49.752506 
L 166.608123 -49.752506 
L 156.584193 -49.714815 
L 146.560264 -49.806723 
L 136.536334 -49.71582 
L 126.512404 -49.769324 
L 116.488474 -49.751488 
L 106.464545 -49.719823 
L 96.440615 -49.766408 
L 86.416685 -49.718069 
L 76.392756 -49.720937 
z
" style="stroke: #ffa556; stroke-opacity: 0.2"/>
    </defs>
    <g clip-path="url(#pdbb1e1f156)">
     <use xlink:href="#mf91a1a9562" x="0" y="277.218312" style="fill: #ffa556; fill-opacity: 0.2; stroke: #ffa556; stroke-opacity: 0.2"/>
    </g>
   </g>
   <g id="PolyCollection_9"/>
   <g id="PolyCollection_10">
    <defs>
     <path id="mf12ef32298" d="M 76.392756 -150.396866 
L 76.392756 -49.488602 
L 86.416685 -52.606993 
L 96.440615 -85.558578 
L 106.464545 -125.810015 
L 116.488474 -89.046527 
L 126.512404 -187.84571 
L 136.536334 -226.759246 
L 146.560264 -226.762668 
L 156.584193 -226.760453 
L 166.608123 -226.761219 
L 166.608123 -226.782514 
L 166.608123 -226.782514 
L 156.584193 -226.782699 
L 146.560264 -226.774159 
L 136.536334 -226.777092 
L 126.512404 -246.227512 
L 116.488474 -237.083831 
L 106.464545 -140.654744 
L 96.440615 -116.656032 
L 86.416685 -129.736614 
L 76.392756 -150.396866 
z
" style="stroke: #2ca02c; stroke-opacity: 0.2"/>
    </defs>
    <g clip-path="url(#pdbb1e1f156)">
     <use xlink:href="#mf12ef32298" x="0" y="277.218312" style="fill: #2ca02c; fill-opacity: 0.2; stroke: #2ca02c; stroke-opacity: 0.2"/>
    </g>
   </g>
   <g id="PolyCollection_11"/>
   <g id="PolyCollection_12">
    <defs>
     <path id="meb0f39c132" d="M 76.392756 -125.5439 
L 76.392756 -49.488602 
L 86.416685 -66.804574 
L 96.440615 -90.76083 
L 106.464545 -118.24939 
L 116.488474 -55.259544 
L 126.512404 -196.4782 
L 136.536334 -226.759284 
L 146.560264 -226.757798 
L 156.584193 -226.759173 
L 166.608123 -226.760216 
L 166.608123 -226.784833 
L 166.608123 -226.784833 
L 156.584193 -226.781714 
L 146.560264 -226.784139 
L 136.536334 -226.772224 
L 126.512404 -241.911559 
L 116.488474 -249.423148 
L 106.464545 -145.879087 
L 96.440615 -98.867325 
L 86.416685 -108.479422 
L 76.392756 -125.5439 
z
" style="stroke: #6bbc6b; stroke-opacity: 0.2"/>
    </defs>
    <g clip-path="url(#pdbb1e1f156)">
     <use xlink:href="#meb0f39c132" x="0" y="277.218312" style="fill: #6bbc6b; fill-opacity: 0.2; stroke: #6bbc6b; stroke-opacity: 0.2"/>
    </g>
   </g>
   <g id="PolyCollection_13"/>
   <g id="PolyCollection_14">
    <defs>
     <path id="m5a5c5170f2" d="M 76.392756 -49.742233 
L 76.392756 -49.615965 
L 86.416685 -49.600065 
L 96.440615 -49.608559 
L 106.464545 -49.595879 
L 116.488474 -49.540564 
L 126.512404 -49.592871 
L 136.536334 -49.603435 
L 146.560264 -49.67803 
L 156.584193 -49.613554 
L 166.608123 -49.610209 
L 166.608123 -49.748612 
L 166.608123 -49.748612 
L 156.584193 -49.751058 
L 146.560264 -49.738126 
L 136.536334 -49.754016 
L 126.512404 -49.798158 
L 116.488474 -49.894774 
L 106.464545 -49.752985 
L 96.440615 -49.737549 
L 86.416685 -49.763249 
L 76.392756 -49.742233 
z
" style="stroke: #d62728; stroke-opacity: 0.2"/>
    </defs>
    <g clip-path="url(#pdbb1e1f156)">
     <use xlink:href="#m5a5c5170f2" x="0" y="277.218312" style="fill: #d62728; fill-opacity: 0.2; stroke: #d62728; stroke-opacity: 0.2"/>
    </g>
   </g>
   <g id="PolyCollection_15"/>
   <g id="PolyCollection_16">
    <defs>
     <path id="me4719af17f" d="M 76.392756 -49.747919 
L 76.392756 -49.610889 
L 86.416685 -49.632425 
L 96.440615 -49.597957 
L 106.464545 -49.61169 
L 116.488474 -49.612699 
L 126.512404 -49.568703 
L 136.536334 -49.628665 
L 146.560264 -49.609199 
L 156.584193 -49.611981 
L 166.608123 -49.624204 
L 166.608123 -49.71071 
L 166.608123 -49.71071 
L 156.584193 -49.74403 
L 146.560264 -49.721018 
L 136.536334 -49.706303 
L 126.512404 -49.826911 
L 116.488474 -49.745368 
L 106.464545 -49.753865 
L 96.440615 -49.759183 
L 86.416685 -49.687156 
L 76.392756 -49.747919 
z
" style="stroke: #e26868; stroke-opacity: 0.2"/>
    </defs>
    <g clip-path="url(#pdbb1e1f156)">
     <use xlink:href="#me4719af17f" x="0" y="277.218312" style="fill: #e26868; fill-opacity: 0.2; stroke: #e26868; stroke-opacity: 0.2"/>
    </g>
   </g>
   <g id="matplotlib.axis_1">
    <g id="xtick_1">
     <g id="line2d_1">
      <path d="M 75.706804 237.726437 
L 75.706804 17.798437 
" clip-path="url(#pdbb1e1f156)" style="fill: none; stroke: #b0b0b0; stroke-width: 0.8; stroke-linecap: square"/>
     </g>
     <g id="line2d_2">
      <defs>
       <path id="m824013b971" d="M 0 0 
L 0 3.5 
" style="stroke: #000000; stroke-width: 0.8"/>
      </defs>
      <g>
       <use xlink:href="#m824013b971" x="75.706804" y="237.726437" style="stroke: #000000; stroke-width: 0.8"/>
      </g>
     </g>
     <g id="text_1">
      <!-- $\mathdefault{10^{6}}$ -->
      <g transform="translate(65.146804 253.844562) scale(0.12 -0.12)">
       <defs>
        <path id="DejaVuSans-31" d="M 794 531 
L 1825 531 
L 1825 4091 
L 703 3866 
L 703 4441 
L 1819 4666 
L 2450 4666 
L 2450 531 
L 3481 531 
L 3481 0 
L 794 0 
L 794 531 
z
" transform="scale(0.015625)"/>
        <path id="DejaVuSans-30" d="M 2034 4250 
Q 1547 4250 1301 3770 
Q 1056 3291 1056 2328 
Q 1056 1369 1301 889 
Q 1547 409 2034 409 
Q 2525 409 2770 889 
Q 3016 1369 3016 2328 
Q 3016 3291 2770 3770 
Q 2525 4250 2034 4250 
z
M 2034 4750 
Q 2819 4750 3233 4129 
Q 3647 3509 3647 2328 
Q 3647 1150 3233 529 
Q 2819 -91 2034 -91 
Q 1250 -91 836 529 
Q 422 1150 422 2328 
Q 422 3509 836 4129 
Q 1250 4750 2034 4750 
z
" transform="scale(0.015625)"/>
        <path id="DejaVuSans-36" d="M 2113 2584 
Q 1688 2584 1439 2293 
Q 1191 2003 1191 1497 
Q 1191 994 1439 701 
Q 1688 409 2113 409 
Q 2538 409 2786 701 
Q 3034 994 3034 1497 
Q 3034 2003 2786 2293 
Q 2538 2584 2113 2584 
z
M 3366 4563 
L 3366 3988 
Q 3128 4100 2886 4159 
Q 2644 4219 2406 4219 
Q 1781 4219 1451 3797 
Q 1122 3375 1075 2522 
Q 1259 2794 1537 2939 
Q 1816 3084 2150 3084 
Q 2853 3084 3261 2657 
Q 3669 2231 3669 1497 
Q 3669 778 3244 343 
Q 2819 -91 2113 -91 
Q 1303 -91 875 529 
Q 447 1150 447 2328 
Q 447 3434 972 4092 
Q 1497 4750 2381 4750 
Q 2619 4750 2861 4703 
Q 3103 4656 3366 4563 
z
" transform="scale(0.015625)"/>
       </defs>
       <use xlink:href="#DejaVuSans-31" transform="translate(0 0.765625)"/>
       <use xlink:href="#DejaVuSans-30" transform="translate(63.623047 0.765625)"/>
       <use xlink:href="#DejaVuSans-36" transform="translate(128.203125 39.046875) scale(0.7)"/>
      </g>
     </g>
    </g>
    <g id="xtick_2">
     <g id="line2d_3">
      <path d="M 109.005577 237.726437 
L 109.005577 17.798437 
" clip-path="url(#pdbb1e1f156)" style="fill: none; stroke: #b0b0b0; stroke-width: 0.8; stroke-linecap: square"/>
     </g>
     <g id="line2d_4">
      <g>
       <use xlink:href="#m824013b971" x="109.005577" y="237.726437" style="stroke: #000000; stroke-width: 0.8"/>
      </g>
     </g>
     <g id="text_2">
      <!-- $\mathdefault{10^{7}}$ -->
      <g transform="translate(98.445577 253.844562) scale(0.12 -0.12)">
       <defs>
        <path id="DejaVuSans-37" d="M 525 4666 
L 3525 4666 
L 3525 4397 
L 1831 0 
L 1172 0 
L 2766 4134 
L 525 4134 
L 525 4666 
z
" transform="scale(0.015625)"/>
       </defs>
       <use xlink:href="#DejaVuSans-31" transform="translate(0 0.684375)"/>
       <use xlink:href="#DejaVuSans-30" transform="translate(63.623047 0.684375)"/>
       <use xlink:href="#DejaVuSans-37" transform="translate(128.203125 38.965625) scale(0.7)"/>
      </g>
     </g>
    </g>
    <g id="xtick_3">
     <g id="line2d_5">
      <path d="M 142.304351 237.726437 
L 142.304351 17.798437 
" clip-path="url(#pdbb1e1f156)" style="fill: none; stroke: #b0b0b0; stroke-width: 0.8; stroke-linecap: square"/>
     </g>
     <g id="line2d_6">
      <g>
       <use xlink:href="#m824013b971" x="142.304351" y="237.726437" style="stroke: #000000; stroke-width: 0.8"/>
      </g>
     </g>
     <g id="text_3">
      <!-- $\mathdefault{10^{8}}$ -->
      <g transform="translate(131.744351 253.844562) scale(0.12 -0.12)">
       <defs>
        <path id="DejaVuSans-38" d="M 2034 2216 
Q 1584 2216 1326 1975 
Q 1069 1734 1069 1313 
Q 1069 891 1326 650 
Q 1584 409 2034 409 
Q 2484 409 2743 651 
Q 3003 894 3003 1313 
Q 3003 1734 2745 1975 
Q 2488 2216 2034 2216 
z
M 1403 2484 
Q 997 2584 770 2862 
Q 544 3141 544 3541 
Q 544 4100 942 4425 
Q 1341 4750 2034 4750 
Q 2731 4750 3128 4425 
Q 3525 4100 3525 3541 
Q 3525 3141 3298 2862 
Q 3072 2584 2669 2484 
Q 3125 2378 3379 2068 
Q 3634 1759 3634 1313 
Q 3634 634 3220 271 
Q 2806 -91 2034 -91 
Q 1263 -91 848 271 
Q 434 634 434 1313 
Q 434 1759 690 2068 
Q 947 2378 1403 2484 
z
M 1172 3481 
Q 1172 3119 1398 2916 
Q 1625 2713 2034 2713 
Q 2441 2713 2670 2916 
Q 2900 3119 2900 3481 
Q 2900 3844 2670 4047 
Q 2441 4250 2034 4250 
Q 1625 4250 1398 4047 
Q 1172 3844 1172 3481 
z
" transform="scale(0.015625)"/>
       </defs>
       <use xlink:href="#DejaVuSans-31" transform="translate(0 0.765625)"/>
       <use xlink:href="#DejaVuSans-30" transform="translate(63.623047 0.765625)"/>
       <use xlink:href="#DejaVuSans-38" transform="translate(128.203125 39.046875) scale(0.7)"/>
      </g>
     </g>
    </g>
    <g id="xtick_4">
     <g id="line2d_7">
      <path d="M 175.603125 237.726437 
L 175.603125 17.798437 
" clip-path="url(#pdbb1e1f156)" style="fill: none; stroke: #b0b0b0; stroke-width: 0.8; stroke-linecap: square"/>
     </g>
     <g id="line2d_8">
      <g>
       <use xlink:href="#m824013b971" x="175.603125" y="237.726437" style="stroke: #000000; stroke-width: 0.8"/>
      </g>
     </g>
     <g id="text_4">
      <!-- $\mathdefault{10^{9}}$ -->
      <g transform="translate(165.043125 253.844562) scale(0.12 -0.12)">
       <defs>
        <path id="DejaVuSans-39" d="M 703 97 
L 703 672 
Q 941 559 1184 500 
Q 1428 441 1663 441 
Q 2288 441 2617 861 
Q 2947 1281 2994 2138 
Q 2813 1869 2534 1725 
Q 2256 1581 1919 1581 
Q 1219 1581 811 2004 
Q 403 2428 403 3163 
Q 403 3881 828 4315 
Q 1253 4750 1959 4750 
Q 2769 4750 3195 4129 
Q 3622 3509 3622 2328 
Q 3622 1225 3098 567 
Q 2575 -91 1691 -91 
Q 1453 -91 1209 -44 
Q 966 3 703 97 
z
M 1959 2075 
Q 2384 2075 2632 2365 
Q 2881 2656 2881 3163 
Q 2881 3666 2632 3958 
Q 2384 4250 1959 4250 
Q 1534 4250 1286 3958 
Q 1038 3666 1038 3163 
Q 1038 2656 1286 2365 
Q 1534 2075 1959 2075 
z
" transform="scale(0.015625)"/>
       </defs>
       <use xlink:href="#DejaVuSans-31" transform="translate(0 0.765625)"/>
       <use xlink:href="#DejaVuSans-30" transform="translate(63.623047 0.765625)"/>
       <use xlink:href="#DejaVuSans-39" transform="translate(128.203125 39.046875) scale(0.7)"/>
      </g>
     </g>
    </g>
    <g id="xtick_5">
     <g id="line2d_9">
      <defs>
       <path id="m6f8d18d7cb" d="M 0 0 
L 0 2 
" style="stroke: #000000; stroke-width: 0.6"/>
      </defs>
      <g>
       <use xlink:href="#m6f8d18d7cb" x="85.730733" y="237.726437" style="stroke: #000000; stroke-width: 0.6"/>
      </g>
     </g>
    </g>
    <g id="xtick_6">
     <g id="line2d_10">
      <g>
       <use xlink:href="#m6f8d18d7cb" x="91.594356" y="237.726437" style="stroke: #000000; stroke-width: 0.6"/>
      </g>
     </g>
    </g>
    <g id="xtick_7">
     <g id="line2d_11">
      <g>
       <use xlink:href="#m6f8d18d7cb" x="95.754663" y="237.726437" style="stroke: #000000; stroke-width: 0.6"/>
      </g>
     </g>
    </g>
    <g id="xtick_8">
     <g id="line2d_12">
      <g>
       <use xlink:href="#m6f8d18d7cb" x="98.981648" y="237.726437" style="stroke: #000000; stroke-width: 0.6"/>
      </g>
     </g>
    </g>
    <g id="xtick_9">
     <g id="line2d_13">
      <g>
       <use xlink:href="#m6f8d18d7cb" x="101.618286" y="237.726437" style="stroke: #000000; stroke-width: 0.6"/>
      </g>
     </g>
    </g>
    <g id="xtick_10">
     <g id="line2d_14">
      <g>
       <use xlink:href="#m6f8d18d7cb" x="103.847532" y="237.726437" style="stroke: #000000; stroke-width: 0.6"/>
      </g>
     </g>
    </g>
    <g id="xtick_11">
     <g id="line2d_15">
      <g>
       <use xlink:href="#m6f8d18d7cb" x="105.778593" y="237.726437" style="stroke: #000000; stroke-width: 0.6"/>
      </g>
     </g>
    </g>
    <g id="xtick_12">
     <g id="line2d_16">
      <g>
       <use xlink:href="#m6f8d18d7cb" x="107.481909" y="237.726437" style="stroke: #000000; stroke-width: 0.6"/>
      </g>
     </g>
    </g>
    <g id="xtick_13">
     <g id="line2d_17">
      <g>
       <use xlink:href="#m6f8d18d7cb" x="119.029507" y="237.726437" style="stroke: #000000; stroke-width: 0.6"/>
      </g>
     </g>
    </g>
    <g id="xtick_14">
     <g id="line2d_18">
      <g>
       <use xlink:href="#m6f8d18d7cb" x="124.89313" y="237.726437" style="stroke: #000000; stroke-width: 0.6"/>
      </g>
     </g>
    </g>
    <g id="xtick_15">
     <g id="line2d_19">
      <g>
       <use xlink:href="#m6f8d18d7cb" x="129.053437" y="237.726437" style="stroke: #000000; stroke-width: 0.6"/>
      </g>
     </g>
    </g>
    <g id="xtick_16">
     <g id="line2d_20">
      <g>
       <use xlink:href="#m6f8d18d7cb" x="132.280422" y="237.726437" style="stroke: #000000; stroke-width: 0.6"/>
      </g>
     </g>
    </g>
    <g id="xtick_17">
     <g id="line2d_21">
      <g>
       <use xlink:href="#m6f8d18d7cb" x="134.91706" y="237.726437" style="stroke: #000000; stroke-width: 0.6"/>
      </g>
     </g>
    </g>
    <g id="xtick_18">
     <g id="line2d_22">
      <g>
       <use xlink:href="#m6f8d18d7cb" x="137.146306" y="237.726437" style="stroke: #000000; stroke-width: 0.6"/>
      </g>
     </g>
    </g>
    <g id="xtick_19">
     <g id="line2d_23">
      <g>
       <use xlink:href="#m6f8d18d7cb" x="139.077367" y="237.726437" style="stroke: #000000; stroke-width: 0.6"/>
      </g>
     </g>
    </g>
    <g id="xtick_20">
     <g id="line2d_24">
      <g>
       <use xlink:href="#m6f8d18d7cb" x="140.780683" y="237.726437" style="stroke: #000000; stroke-width: 0.6"/>
      </g>
     </g>
    </g>
    <g id="xtick_21">
     <g id="line2d_25">
      <g>
       <use xlink:href="#m6f8d18d7cb" x="152.328281" y="237.726437" style="stroke: #000000; stroke-width: 0.6"/>
      </g>
     </g>
    </g>
    <g id="xtick_22">
     <g id="line2d_26">
      <g>
       <use xlink:href="#m6f8d18d7cb" x="158.191904" y="237.726437" style="stroke: #000000; stroke-width: 0.6"/>
      </g>
     </g>
    </g>
    <g id="xtick_23">
     <g id="line2d_27">
      <g>
       <use xlink:href="#m6f8d18d7cb" x="162.352211" y="237.726437" style="stroke: #000000; stroke-width: 0.6"/>
      </g>
     </g>
    </g>
    <g id="xtick_24">
     <g id="line2d_28">
      <g>
       <use xlink:href="#m6f8d18d7cb" x="165.579195" y="237.726437" style="stroke: #000000; stroke-width: 0.6"/>
      </g>
     </g>
    </g>
    <g id="xtick_25">
     <g id="line2d_29">
      <g>
       <use xlink:href="#m6f8d18d7cb" x="168.215834" y="237.726437" style="stroke: #000000; stroke-width: 0.6"/>
      </g>
     </g>
    </g>
    <g id="xtick_26">
     <g id="line2d_30">
      <g>
       <use xlink:href="#m6f8d18d7cb" x="170.44508" y="237.726437" style="stroke: #000000; stroke-width: 0.6"/>
      </g>
     </g>
    </g>
    <g id="xtick_27">
     <g id="line2d_31">
      <g>
       <use xlink:href="#m6f8d18d7cb" x="172.37614" y="237.726437" style="stroke: #000000; stroke-width: 0.6"/>
      </g>
     </g>
    </g>
    <g id="xtick_28">
     <g id="line2d_32">
      <g>
       <use xlink:href="#m6f8d18d7cb" x="174.079457" y="237.726437" style="stroke: #000000; stroke-width: 0.6"/>
      </g>
     </g>
    </g>
    <g id="text_5">
     <!-- Transfer Size (bytes) -->
     <g transform="translate(74.434652 267.938625) scale(0.1 -0.1)">
      <defs>
       <path id="DejaVuSans-54" d="M -19 4666 
L 3928 4666 
L 3928 4134 
L 2272 4134 
L 2272 0 
L 1638 0 
L 1638 4134 
L -19 4134 
L -19 4666 
z
" transform="scale(0.015625)"/>
       <path id="DejaVuSans-72" d="M 2631 2963 
Q 2534 3019 2420 3045 
Q 2306 3072 2169 3072 
Q 1681 3072 1420 2755 
Q 1159 2438 1159 1844 
L 1159 0 
L 581 0 
L 581 3500 
L 1159 3500 
L 1159 2956 
Q 1341 3275 1631 3429 
Q 1922 3584 2338 3584 
Q 2397 3584 2469 3576 
Q 2541 3569 2628 3553 
L 2631 2963 
z
" transform="scale(0.015625)"/>
       <path id="DejaVuSans-61" d="M 2194 1759 
Q 1497 1759 1228 1600 
Q 959 1441 959 1056 
Q 959 750 1161 570 
Q 1363 391 1709 391 
Q 2188 391 2477 730 
Q 2766 1069 2766 1631 
L 2766 1759 
L 2194 1759 
z
M 3341 1997 
L 3341 0 
L 2766 0 
L 2766 531 
Q 2569 213 2275 61 
Q 1981 -91 1556 -91 
Q 1019 -91 701 211 
Q 384 513 384 1019 
Q 384 1609 779 1909 
Q 1175 2209 1959 2209 
L 2766 2209 
L 2766 2266 
Q 2766 2663 2505 2880 
Q 2244 3097 1772 3097 
Q 1472 3097 1187 3025 
Q 903 2953 641 2809 
L 641 3341 
Q 956 3463 1253 3523 
Q 1550 3584 1831 3584 
Q 2591 3584 2966 3190 
Q 3341 2797 3341 1997 
z
" transform="scale(0.015625)"/>
       <path id="DejaVuSans-6e" d="M 3513 2113 
L 3513 0 
L 2938 0 
L 2938 2094 
Q 2938 2591 2744 2837 
Q 2550 3084 2163 3084 
Q 1697 3084 1428 2787 
Q 1159 2491 1159 1978 
L 1159 0 
L 581 0 
L 581 3500 
L 1159 3500 
L 1159 2956 
Q 1366 3272 1645 3428 
Q 1925 3584 2291 3584 
Q 2894 3584 3203 3211 
Q 3513 2838 3513 2113 
z
" transform="scale(0.015625)"/>
       <path id="DejaVuSans-73" d="M 2834 3397 
L 2834 2853 
Q 2591 2978 2328 3040 
Q 2066 3103 1784 3103 
Q 1356 3103 1142 2972 
Q 928 2841 928 2578 
Q 928 2378 1081 2264 
Q 1234 2150 1697 2047 
L 1894 2003 
Q 2506 1872 2764 1633 
Q 3022 1394 3022 966 
Q 3022 478 2636 193 
Q 2250 -91 1575 -91 
Q 1294 -91 989 -36 
Q 684 19 347 128 
L 347 722 
Q 666 556 975 473 
Q 1284 391 1588 391 
Q 1994 391 2212 530 
Q 2431 669 2431 922 
Q 2431 1156 2273 1281 
Q 2116 1406 1581 1522 
L 1381 1569 
Q 847 1681 609 1914 
Q 372 2147 372 2553 
Q 372 3047 722 3315 
Q 1072 3584 1716 3584 
Q 2034 3584 2315 3537 
Q 2597 3491 2834 3397 
z
" transform="scale(0.015625)"/>
       <path id="DejaVuSans-66" d="M 2375 4863 
L 2375 4384 
L 1825 4384 
Q 1516 4384 1395 4259 
Q 1275 4134 1275 3809 
L 1275 3500 
L 2222 3500 
L 2222 3053 
L 1275 3053 
L 1275 0 
L 697 0 
L 697 3053 
L 147 3053 
L 147 3500 
L 697 3500 
L 697 3744 
Q 697 4328 969 4595 
Q 1241 4863 1831 4863 
L 2375 4863 
z
" transform="scale(0.015625)"/>
       <path id="DejaVuSans-65" d="M 3597 1894 
L 3597 1613 
L 953 1613 
Q 991 1019 1311 708 
Q 1631 397 2203 397 
Q 2534 397 2845 478 
Q 3156 559 3463 722 
L 3463 178 
Q 3153 47 2828 -22 
Q 2503 -91 2169 -91 
Q 1331 -91 842 396 
Q 353 884 353 1716 
Q 353 2575 817 3079 
Q 1281 3584 2069 3584 
Q 2775 3584 3186 3129 
Q 3597 2675 3597 1894 
z
M 3022 2063 
Q 3016 2534 2758 2815 
Q 2500 3097 2075 3097 
Q 1594 3097 1305 2825 
Q 1016 2553 972 2059 
L 3022 2063 
z
" transform="scale(0.015625)"/>
       <path id="DejaVuSans-20" transform="scale(0.015625)"/>
       <path id="DejaVuSans-53" d="M 3425 4513 
L 3425 3897 
Q 3066 4069 2747 4153 
Q 2428 4238 2131 4238 
Q 1616 4238 1336 4038 
Q 1056 3838 1056 3469 
Q 1056 3159 1242 3001 
Q 1428 2844 1947 2747 
L 2328 2669 
Q 3034 2534 3370 2195 
Q 3706 1856 3706 1288 
Q 3706 609 3251 259 
Q 2797 -91 1919 -91 
Q 1588 -91 1214 -16 
Q 841 59 441 206 
L 441 856 
Q 825 641 1194 531 
Q 1563 422 1919 422 
Q 2459 422 2753 634 
Q 3047 847 3047 1241 
Q 3047 1584 2836 1778 
Q 2625 1972 2144 2069 
L 1759 2144 
Q 1053 2284 737 2584 
Q 422 2884 422 3419 
Q 422 4038 858 4394 
Q 1294 4750 2059 4750 
Q 2388 4750 2728 4690 
Q 3069 4631 3425 4513 
z
" transform="scale(0.015625)"/>
       <path id="DejaVuSans-69" d="M 603 3500 
L 1178 3500 
L 1178 0 
L 603 0 
L 603 3500 
z
M 603 4863 
L 1178 4863 
L 1178 4134 
L 603 4134 
L 603 4863 
z
" transform="scale(0.015625)"/>
       <path id="DejaVuSans-7a" d="M 353 3500 
L 3084 3500 
L 3084 2975 
L 922 459 
L 3084 459 
L 3084 0 
L 275 0 
L 275 525 
L 2438 3041 
L 353 3041 
L 353 3500 
z
" transform="scale(0.015625)"/>
       <path id="DejaVuSans-28" d="M 1984 4856 
Q 1566 4138 1362 3434 
Q 1159 2731 1159 2009 
Q 1159 1288 1364 580 
Q 1569 -128 1984 -844 
L 1484 -844 
Q 1016 -109 783 600 
Q 550 1309 550 2009 
Q 550 2706 781 3412 
Q 1013 4119 1484 4856 
L 1984 4856 
z
" transform="scale(0.015625)"/>
       <path id="DejaVuSans-62" d="M 3116 1747 
Q 3116 2381 2855 2742 
Q 2594 3103 2138 3103 
Q 1681 3103 1420 2742 
Q 1159 2381 1159 1747 
Q 1159 1113 1420 752 
Q 1681 391 2138 391 
Q 2594 391 2855 752 
Q 3116 1113 3116 1747 
z
M 1159 2969 
Q 1341 3281 1617 3432 
Q 1894 3584 2278 3584 
Q 2916 3584 3314 3078 
Q 3713 2572 3713 1747 
Q 3713 922 3314 415 
Q 2916 -91 2278 -91 
Q 1894 -91 1617 61 
Q 1341 213 1159 525 
L 1159 0 
L 581 0 
L 581 4863 
L 1159 4863 
L 1159 2969 
z
" transform="scale(0.015625)"/>
       <path id="DejaVuSans-79" d="M 2059 -325 
Q 1816 -950 1584 -1140 
Q 1353 -1331 966 -1331 
L 506 -1331 
L 506 -850 
L 844 -850 
Q 1081 -850 1212 -737 
Q 1344 -625 1503 -206 
L 1606 56 
L 191 3500 
L 800 3500 
L 1894 763 
L 2988 3500 
L 3597 3500 
L 2059 -325 
z
" transform="scale(0.015625)"/>
       <path id="DejaVuSans-74" d="M 1172 4494 
L 1172 3500 
L 2356 3500 
L 2356 3053 
L 1172 3053 
L 1172 1153 
Q 1172 725 1289 603 
Q 1406 481 1766 481 
L 2356 481 
L 2356 0 
L 1766 0 
Q 1100 0 847 248 
Q 594 497 594 1153 
L 594 3053 
L 172 3053 
L 172 3500 
L 594 3500 
L 594 4494 
L 1172 4494 
z
" transform="scale(0.015625)"/>
       <path id="DejaVuSans-29" d="M 513 4856 
L 1013 4856 
Q 1481 4119 1714 3412 
Q 1947 2706 1947 2009 
Q 1947 1309 1714 600 
Q 1481 -109 1013 -844 
L 513 -844 
Q 928 -128 1133 580 
Q 1338 1288 1338 2009 
Q 1338 2731 1133 3434 
Q 928 4138 513 4856 
z
" transform="scale(0.015625)"/>
      </defs>
      <use xlink:href="#DejaVuSans-54"/>
      <use xlink:href="#DejaVuSans-72" x="46.333984"/>
      <use xlink:href="#DejaVuSans-61" x="87.447266"/>
      <use xlink:href="#DejaVuSans-6e" x="148.726562"/>
      <use xlink:href="#DejaVuSans-73" x="212.105469"/>
      <use xlink:href="#DejaVuSans-66" x="264.205078"/>
      <use xlink:href="#DejaVuSans-65" x="299.410156"/>
      <use xlink:href="#DejaVuSans-72" x="360.933594"/>
      <use xlink:href="#DejaVuSans-20" x="402.046875"/>
      <use xlink:href="#DejaVuSans-53" x="433.833984"/>
      <use xlink:href="#DejaVuSans-69" x="497.310547"/>
      <use xlink:href="#DejaVuSans-7a" x="525.09375"/>
      <use xlink:href="#DejaVuSans-65" x="577.583984"/>
      <use xlink:href="#DejaVuSans-20" x="639.107422"/>
      <use xlink:href="#DejaVuSans-28" x="670.894531"/>
      <use xlink:href="#DejaVuSans-62" x="709.908203"/>
      <use xlink:href="#DejaVuSans-79" x="773.384766"/>
      <use xlink:href="#DejaVuSans-74" x="832.564453"/>
      <use xlink:href="#DejaVuSans-65" x="871.773438"/>
      <use xlink:href="#DejaVuSans-73" x="933.296875"/>
      <use xlink:href="#DejaVuSans-29" x="985.396484"/>
     </g>
    </g>
   </g>
   <g id="matplotlib.axis_2">
    <g id="ytick_1">
     <g id="line2d_33">
      <path d="M 75.706804 227.72971 
L 175.603125 227.72971 
" clip-path="url(#pdbb1e1f156)" style="fill: none; stroke: #b0b0b0; stroke-width: 0.8; stroke-linecap: square"/>
     </g>
     <g id="line2d_34">
      <defs>
       <path id="md36962f178" d="M 0 0 
L -3.5 0 
" style="stroke: #000000; stroke-width: 0.8"/>
      </defs>
      <g>
       <use xlink:href="#md36962f178" x="75.706804" y="227.72971" style="stroke: #000000; stroke-width: 0.8"/>
      </g>
     </g>
     <g id="text_6">
      <!-- 0.00 -->
      <g transform="translate(41.988054 232.288773) scale(0.12 -0.12)">
       <defs>
        <path id="DejaVuSans-2e" d="M 684 794 
L 1344 794 
L 1344 0 
L 684 0 
L 684 794 
z
" transform="scale(0.015625)"/>
       </defs>
       <use xlink:href="#DejaVuSans-30"/>
       <use xlink:href="#DejaVuSans-2e" x="63.623047"/>
       <use xlink:href="#DejaVuSans-30" x="95.410156"/>
       <use xlink:href="#DejaVuSans-30" x="159.033203"/>
      </g>
     </g>
    </g>
    <g id="ytick_2">
     <g id="line2d_35">
      <path d="M 75.706804 197.845587 
L 175.603125 197.845587 
" clip-path="url(#pdbb1e1f156)" style="fill: none; stroke: #b0b0b0; stroke-width: 0.8; stroke-linecap: square"/>
     </g>
     <g id="line2d_36">
      <g>
       <use xlink:href="#md36962f178" x="75.706804" y="197.845587" style="stroke: #000000; stroke-width: 0.8"/>
      </g>
     </g>
     <g id="text_7">
      <!-- 0.25 -->
      <g transform="translate(41.988054 202.404649) scale(0.12 -0.12)">
       <defs>
        <path id="DejaVuSans-32" d="M 1228 531 
L 3431 531 
L 3431 0 
L 469 0 
L 469 531 
Q 828 903 1448 1529 
Q 2069 2156 2228 2338 
Q 2531 2678 2651 2914 
Q 2772 3150 2772 3378 
Q 2772 3750 2511 3984 
Q 2250 4219 1831 4219 
Q 1534 4219 1204 4116 
Q 875 4013 500 3803 
L 500 4441 
Q 881 4594 1212 4672 
Q 1544 4750 1819 4750 
Q 2544 4750 2975 4387 
Q 3406 4025 3406 3419 
Q 3406 3131 3298 2873 
Q 3191 2616 2906 2266 
Q 2828 2175 2409 1742 
Q 1991 1309 1228 531 
z
" transform="scale(0.015625)"/>
        <path id="DejaVuSans-35" d="M 691 4666 
L 3169 4666 
L 3169 4134 
L 1269 4134 
L 1269 2991 
Q 1406 3038 1543 3061 
Q 1681 3084 1819 3084 
Q 2600 3084 3056 2656 
Q 3513 2228 3513 1497 
Q 3513 744 3044 326 
Q 2575 -91 1722 -91 
Q 1428 -91 1123 -41 
Q 819 9 494 109 
L 494 744 
Q 775 591 1075 516 
Q 1375 441 1709 441 
Q 2250 441 2565 725 
Q 2881 1009 2881 1497 
Q 2881 1984 2565 2268 
Q 2250 2553 1709 2553 
Q 1456 2553 1204 2497 
Q 953 2441 691 2322 
L 691 4666 
z
" transform="scale(0.015625)"/>
       </defs>
       <use xlink:href="#DejaVuSans-30"/>
       <use xlink:href="#DejaVuSans-2e" x="63.623047"/>
       <use xlink:href="#DejaVuSans-32" x="95.410156"/>
       <use xlink:href="#DejaVuSans-35" x="159.033203"/>
      </g>
     </g>
    </g>
    <g id="ytick_3">
     <g id="line2d_37">
      <path d="M 75.706804 167.961463 
L 175.603125 167.961463 
" clip-path="url(#pdbb1e1f156)" style="fill: none; stroke: #b0b0b0; stroke-width: 0.8; stroke-linecap: square"/>
     </g>
     <g id="line2d_38">
      <g>
       <use xlink:href="#md36962f178" x="75.706804" y="167.961463" style="stroke: #000000; stroke-width: 0.8"/>
      </g>
     </g>
     <g id="text_8">
      <!-- 0.50 -->
      <g transform="translate(41.988054 172.520526) scale(0.12 -0.12)">
       <use xlink:href="#DejaVuSans-30"/>
       <use xlink:href="#DejaVuSans-2e" x="63.623047"/>
       <use xlink:href="#DejaVuSans-35" x="95.410156"/>
       <use xlink:href="#DejaVuSans-30" x="159.033203"/>
      </g>
     </g>
    </g>
    <g id="ytick_4">
     <g id="line2d_39">
      <path d="M 75.706804 138.07734 
L 175.603125 138.07734 
" clip-path="url(#pdbb1e1f156)" style="fill: none; stroke: #b0b0b0; stroke-width: 0.8; stroke-linecap: square"/>
     </g>
     <g id="line2d_40">
      <g>
       <use xlink:href="#md36962f178" x="75.706804" y="138.07734" style="stroke: #000000; stroke-width: 0.8"/>
      </g>
     </g>
     <g id="text_9">
      <!-- 0.75 -->
      <g transform="translate(41.988054 142.636402) scale(0.12 -0.12)">
       <use xlink:href="#DejaVuSans-30"/>
       <use xlink:href="#DejaVuSans-2e" x="63.623047"/>
       <use xlink:href="#DejaVuSans-37" x="95.410156"/>
       <use xlink:href="#DejaVuSans-35" x="159.033203"/>
      </g>
     </g>
    </g>
    <g id="ytick_5">
     <g id="line2d_41">
      <path d="M 75.706804 108.193216 
L 175.603125 108.193216 
" clip-path="url(#pdbb1e1f156)" style="fill: none; stroke: #b0b0b0; stroke-width: 0.8; stroke-linecap: square"/>
     </g>
     <g id="line2d_42">
      <g>
       <use xlink:href="#md36962f178" x="75.706804" y="108.193216" style="stroke: #000000; stroke-width: 0.8"/>
      </g>
     </g>
     <g id="text_10">
      <!-- 1.00 -->
      <g transform="translate(41.988054 112.752279) scale(0.12 -0.12)">
       <use xlink:href="#DejaVuSans-31"/>
       <use xlink:href="#DejaVuSans-2e" x="63.623047"/>
       <use xlink:href="#DejaVuSans-30" x="95.410156"/>
       <use xlink:href="#DejaVuSans-30" x="159.033203"/>
      </g>
     </g>
    </g>
    <g id="ytick_6">
     <g id="line2d_43">
      <path d="M 75.706804 78.309093 
L 175.603125 78.309093 
" clip-path="url(#pdbb1e1f156)" style="fill: none; stroke: #b0b0b0; stroke-width: 0.8; stroke-linecap: square"/>
     </g>
     <g id="line2d_44">
      <g>
       <use xlink:href="#md36962f178" x="75.706804" y="78.309093" style="stroke: #000000; stroke-width: 0.8"/>
      </g>
     </g>
     <g id="text_11">
      <!-- 1.25 -->
      <g transform="translate(41.988054 82.868155) scale(0.12 -0.12)">
       <use xlink:href="#DejaVuSans-31"/>
       <use xlink:href="#DejaVuSans-2e" x="63.623047"/>
       <use xlink:href="#DejaVuSans-32" x="95.410156"/>
       <use xlink:href="#DejaVuSans-35" x="159.033203"/>
      </g>
     </g>
    </g>
    <g id="ytick_7">
     <g id="line2d_45">
      <path d="M 75.706804 48.424969 
L 175.603125 48.424969 
" clip-path="url(#pdbb1e1f156)" style="fill: none; stroke: #b0b0b0; stroke-width: 0.8; stroke-linecap: square"/>
     </g>
     <g id="line2d_46">
      <g>
       <use xlink:href="#md36962f178" x="75.706804" y="48.424969" style="stroke: #000000; stroke-width: 0.8"/>
      </g>
     </g>
     <g id="text_12">
      <!-- 1.50 -->
      <g transform="translate(41.988054 52.984032) scale(0.12 -0.12)">
       <use xlink:href="#DejaVuSans-31"/>
       <use xlink:href="#DejaVuSans-2e" x="63.623047"/>
       <use xlink:href="#DejaVuSans-35" x="95.410156"/>
       <use xlink:href="#DejaVuSans-30" x="159.033203"/>
      </g>
     </g>
    </g>
    <g id="ytick_8">
     <g id="line2d_47">
      <path d="M 75.706804 18.540846 
L 175.603125 18.540846 
" clip-path="url(#pdbb1e1f156)" style="fill: none; stroke: #b0b0b0; stroke-width: 0.8; stroke-linecap: square"/>
     </g>
     <g id="line2d_48">
      <g>
       <use xlink:href="#md36962f178" x="75.706804" y="18.540846" style="stroke: #000000; stroke-width: 0.8"/>
      </g>
     </g>
     <g id="text_13">
      <!-- 1.75 -->
      <g transform="translate(41.988054 23.099908) scale(0.12 -0.12)">
       <use xlink:href="#DejaVuSans-31"/>
       <use xlink:href="#DejaVuSans-2e" x="63.623047"/>
       <use xlink:href="#DejaVuSans-37" x="95.410156"/>
       <use xlink:href="#DejaVuSans-35" x="159.033203"/>
      </g>
     </g>
    </g>
    <g id="text_14">
     <!-- PCITX -->
     <g transform="translate(35.908366 142.222594) rotate(-90) scale(0.1 -0.1)">
      <defs>
       <path id="DejaVuSans-50" d="M 1259 4147 
L 1259 2394 
L 2053 2394 
Q 2494 2394 2734 2622 
Q 2975 2850 2975 3272 
Q 2975 3691 2734 3919 
Q 2494 4147 2053 4147 
L 1259 4147 
z
M 628 4666 
L 2053 4666 
Q 2838 4666 3239 4311 
Q 3641 3956 3641 3272 
Q 3641 2581 3239 2228 
Q 2838 1875 2053 1875 
L 1259 1875 
L 1259 0 
L 628 0 
L 628 4666 
z
" transform="scale(0.015625)"/>
       <path id="DejaVuSans-43" d="M 4122 4306 
L 4122 3641 
Q 3803 3938 3442 4084 
Q 3081 4231 2675 4231 
Q 1875 4231 1450 3742 
Q 1025 3253 1025 2328 
Q 1025 1406 1450 917 
Q 1875 428 2675 428 
Q 3081 428 3442 575 
Q 3803 722 4122 1019 
L 4122 359 
Q 3791 134 3420 21 
Q 3050 -91 2638 -91 
Q 1578 -91 968 557 
Q 359 1206 359 2328 
Q 359 3453 968 4101 
Q 1578 4750 2638 4750 
Q 3056 4750 3426 4639 
Q 3797 4528 4122 4306 
z
" transform="scale(0.015625)"/>
       <path id="DejaVuSans-49" d="M 628 4666 
L 1259 4666 
L 1259 0 
L 628 0 
L 628 4666 
z
" transform="scale(0.015625)"/>
       <path id="DejaVuSans-58" d="M 403 4666 
L 1081 4666 
L 2241 2931 
L 3406 4666 
L 4084 4666 
L 2584 2425 
L 4184 0 
L 3506 0 
L 2194 1984 
L 872 0 
L 191 0 
L 1856 2491 
L 403 4666 
z
" transform="scale(0.015625)"/>
      </defs>
      <use xlink:href="#DejaVuSans-50"/>
      <use xlink:href="#DejaVuSans-43" x="60.302734"/>
      <use xlink:href="#DejaVuSans-49" x="130.126953"/>
      <use xlink:href="#DejaVuSans-54" x="159.619141"/>
      <use xlink:href="#DejaVuSans-58" x="220.703125"/>
     </g>
    </g>
    <g id="text_15">
     <!-- 1e10 -->
     <g transform="translate(75.706804 14.798437) scale(0.1 -0.1)">
      <use xlink:href="#DejaVuSans-31"/>
      <use xlink:href="#DejaVuSans-65" x="63.623047"/>
      <use xlink:href="#DejaVuSans-31" x="125.146484"/>
      <use xlink:href="#DejaVuSans-30" x="188.769531"/>
     </g>
    </g>
   </g>
   <g id="line2d_49">
    <path d="M 76.392756 227.522245 
L 86.416685 227.521781 
L 96.440615 227.542054 
L 106.464545 227.564074 
L 116.488474 227.521319 
L 126.512404 227.513168 
L 136.536334 227.451507 
L 146.560264 227.500478 
L 156.584193 227.463641 
L 166.608123 227.407158 
" clip-path="url(#pdbb1e1f156)" style="fill: none; stroke: #1f77b4; stroke-width: 2.2; stroke-linecap: square"/>
    <defs>
     <path id="m80b0776ec6" d="M 0 3 
C 0.795609 3 1.55874 2.683901 2.12132 2.12132 
C 2.683901 1.55874 3 0.795609 3 0 
C 3 -0.795609 2.683901 -1.55874 2.12132 -2.12132 
C 1.55874 -2.683901 0.795609 -3 0 -3 
C -0.795609 -3 -1.55874 -2.683901 -2.12132 -2.12132 
C -2.683901 -1.55874 -3 -0.795609 -3 0 
C -3 0.795609 -2.683901 1.55874 -2.12132 2.12132 
C -1.55874 2.683901 -0.795609 3 0 3 
z
" style="stroke: #ffffff; stroke-width: 0.75"/>
    </defs>
    <g clip-path="url(#pdbb1e1f156)">
     <use xlink:href="#m80b0776ec6" x="76.392756" y="227.522245" style="fill: #1f77b4; stroke: #ffffff; stroke-width: 0.75"/>
     <use xlink:href="#m80b0776ec6" x="86.416685" y="227.521781" style="fill: #1f77b4; stroke: #ffffff; stroke-width: 0.75"/>
     <use xlink:href="#m80b0776ec6" x="96.440615" y="227.542054" style="fill: #1f77b4; stroke: #ffffff; stroke-width: 0.75"/>
     <use xlink:href="#m80b0776ec6" x="106.464545" y="227.564074" style="fill: #1f77b4; stroke: #ffffff; stroke-width: 0.75"/>
     <use xlink:href="#m80b0776ec6" x="116.488474" y="227.521319" style="fill: #1f77b4; stroke: #ffffff; stroke-width: 0.75"/>
     <use xlink:href="#m80b0776ec6" x="126.512404" y="227.513168" style="fill: #1f77b4; stroke: #ffffff; stroke-width: 0.75"/>
     <use xlink:href="#m80b0776ec6" x="136.536334" y="227.451507" style="fill: #1f77b4; stroke: #ffffff; stroke-width: 0.75"/>
     <use xlink:href="#m80b0776ec6" x="146.560264" y="227.500478" style="fill: #1f77b4; stroke: #ffffff; stroke-width: 0.75"/>
     <use xlink:href="#m80b0776ec6" x="156.584193" y="227.463641" style="fill: #1f77b4; stroke: #ffffff; stroke-width: 0.75"/>
     <use xlink:href="#m80b0776ec6" x="166.608123" y="227.407158" style="fill: #1f77b4; stroke: #ffffff; stroke-width: 0.75"/>
    </g>
   </g>
   <g id="line2d_50">
    <path d="M 76.392756 227.517812 
L 86.416685 227.526083 
L 96.440615 227.55208 
L 106.464545 227.544192 
L 116.488474 227.554624 
L 126.512404 227.532834 
L 136.536334 227.498899 
L 146.560264 227.512636 
L 156.584193 227.463382 
L 166.608123 227.405508 
" clip-path="url(#pdbb1e1f156)" style="fill: none; stroke-dasharray: 8.14,3.52; stroke-dashoffset: 0; stroke: #62a0cb; stroke-width: 2.2"/>
    <defs>
     <path id="ma89c79cfff" d="M 0 3 
C 0.795609 3 1.55874 2.683901 2.12132 2.12132 
C 2.683901 1.55874 3 0.795609 3 0 
C 3 -0.795609 2.683901 -1.55874 2.12132 -2.12132 
C 1.55874 -2.683901 0.795609 -3 0 -3 
C -0.795609 -3 -1.55874 -2.683901 -2.12132 -2.12132 
C -2.683901 -1.55874 -3 -0.795609 -3 0 
C -3 0.795609 -2.683901 1.55874 -2.12132 2.12132 
C -1.55874 2.683901 -0.795609 3 0 3 
z
" style="stroke: #ffffff; stroke-width: 0.75"/>
    </defs>
    <g clip-path="url(#pdbb1e1f156)">
     <use xlink:href="#ma89c79cfff" x="76.392756" y="227.517812" style="fill: #62a0cb; stroke: #ffffff; stroke-width: 0.75"/>
     <use xlink:href="#ma89c79cfff" x="86.416685" y="227.526083" style="fill: #62a0cb; stroke: #ffffff; stroke-width: 0.75"/>
     <use xlink:href="#ma89c79cfff" x="96.440615" y="227.55208" style="fill: #62a0cb; stroke: #ffffff; stroke-width: 0.75"/>
     <use xlink:href="#ma89c79cfff" x="106.464545" y="227.544192" style="fill: #62a0cb; stroke: #ffffff; stroke-width: 0.75"/>
     <use xlink:href="#ma89c79cfff" x="116.488474" y="227.554624" style="fill: #62a0cb; stroke: #ffffff; stroke-width: 0.75"/>
     <use xlink:href="#ma89c79cfff" x="126.512404" y="227.532834" style="fill: #62a0cb; stroke: #ffffff; stroke-width: 0.75"/>
     <use xlink:href="#ma89c79cfff" x="136.536334" y="227.498899" style="fill: #62a0cb; stroke: #ffffff; stroke-width: 0.75"/>
     <use xlink:href="#ma89c79cfff" x="146.560264" y="227.512636" style="fill: #62a0cb; stroke: #ffffff; stroke-width: 0.75"/>
     <use xlink:href="#ma89c79cfff" x="156.584193" y="227.463382" style="fill: #62a0cb; stroke: #ffffff; stroke-width: 0.75"/>
     <use xlink:href="#ma89c79cfff" x="166.608123" y="227.405508" style="fill: #62a0cb; stroke: #ffffff; stroke-width: 0.75"/>
    </g>
   </g>
   <g id="line2d_51">
    <path d="M 76.392756 227.552016 
L 86.416685 227.526535 
L 96.440615 227.543134 
L 106.464545 227.515075 
L 116.488474 227.557621 
L 126.512404 227.517639 
L 136.536334 227.526827 
L 146.560264 227.476924 
L 156.584193 227.552505 
L 166.608123 227.532805 
" clip-path="url(#pdbb1e1f156)" style="fill: none; stroke: #ff7f0e; stroke-width: 2.2; stroke-linecap: square"/>
    <defs>
     <path id="m2e3c4c64f9" d="M 0 3 
C 0.795609 3 1.55874 2.683901 2.12132 2.12132 
C 2.683901 1.55874 3 0.795609 3 0 
C 3 -0.795609 2.683901 -1.55874 2.12132 -2.12132 
C 1.55874 -2.683901 0.795609 -3 0 -3 
C -0.795609 -3 -1.55874 -2.683901 -2.12132 -2.12132 
C -2.683901 -1.55874 -3 -0.795609 -3 0 
C -3 0.795609 -2.683901 1.55874 -2.12132 2.12132 
C -1.55874 2.683901 -0.795609 3 0 3 
z
" style="stroke: #ffffff; stroke-width: 0.75"/>
    </defs>
    <g clip-path="url(#pdbb1e1f156)">
     <use xlink:href="#m2e3c4c64f9" x="76.392756" y="227.552016" style="fill: #ff7f0e; stroke: #ffffff; stroke-width: 0.75"/>
     <use xlink:href="#m2e3c4c64f9" x="86.416685" y="227.526535" style="fill: #ff7f0e; stroke: #ffffff; stroke-width: 0.75"/>
     <use xlink:href="#m2e3c4c64f9" x="96.440615" y="227.543134" style="fill: #ff7f0e; stroke: #ffffff; stroke-width: 0.75"/>
     <use xlink:href="#m2e3c4c64f9" x="106.464545" y="227.515075" style="fill: #ff7f0e; stroke: #ffffff; stroke-width: 0.75"/>
     <use xlink:href="#m2e3c4c64f9" x="116.488474" y="227.557621" style="fill: #ff7f0e; stroke: #ffffff; stroke-width: 0.75"/>
     <use xlink:href="#m2e3c4c64f9" x="126.512404" y="227.517639" style="fill: #ff7f0e; stroke: #ffffff; stroke-width: 0.75"/>
     <use xlink:href="#m2e3c4c64f9" x="136.536334" y="227.526827" style="fill: #ff7f0e; stroke: #ffffff; stroke-width: 0.75"/>
     <use xlink:href="#m2e3c4c64f9" x="146.560264" y="227.476924" style="fill: #ff7f0e; stroke: #ffffff; stroke-width: 0.75"/>
     <use xlink:href="#m2e3c4c64f9" x="156.584193" y="227.552505" style="fill: #ff7f0e; stroke: #ffffff; stroke-width: 0.75"/>
     <use xlink:href="#m2e3c4c64f9" x="166.608123" y="227.532805" style="fill: #ff7f0e; stroke: #ffffff; stroke-width: 0.75"/>
    </g>
   </g>
   <g id="line2d_52">
    <path d="M 76.392756 227.552288 
L 86.416685 227.551446 
L 96.440615 227.517842 
L 106.464545 227.553551 
L 116.488474 227.528382 
L 126.512404 227.52704 
L 136.536334 227.550931 
L 146.560264 227.520055 
L 156.584193 227.544157 
L 166.608123 227.530787 
" clip-path="url(#pdbb1e1f156)" style="fill: none; stroke-dasharray: 8.14,3.52; stroke-dashoffset: 0; stroke: #ffa556; stroke-width: 2.2"/>
    <defs>
     <path id="m5331fed861" d="M 0 3 
C 0.795609 3 1.55874 2.683901 2.12132 2.12132 
C 2.683901 1.55874 3 0.795609 3 0 
C 3 -0.795609 2.683901 -1.55874 2.12132 -2.12132 
C 1.55874 -2.683901 0.795609 -3 0 -3 
C -0.795609 -3 -1.55874 -2.683901 -2.12132 -2.12132 
C -2.683901 -1.55874 -3 -0.795609 -3 0 
C -3 0.795609 -2.683901 1.55874 -2.12132 2.12132 
C -1.55874 2.683901 -0.795609 3 0 3 
z
" style="stroke: #ffffff; stroke-width: 0.75"/>
    </defs>
    <g clip-path="url(#pdbb1e1f156)">
     <use xlink:href="#m5331fed861" x="76.392756" y="227.552288" style="fill: #ffa556; stroke: #ffffff; stroke-width: 0.75"/>
     <use xlink:href="#m5331fed861" x="86.416685" y="227.551446" style="fill: #ffa556; stroke: #ffffff; stroke-width: 0.75"/>
     <use xlink:href="#m5331fed861" x="96.440615" y="227.517842" style="fill: #ffa556; stroke: #ffffff; stroke-width: 0.75"/>
     <use xlink:href="#m5331fed861" x="106.464545" y="227.553551" style="fill: #ffa556; stroke: #ffffff; stroke-width: 0.75"/>
     <use xlink:href="#m5331fed861" x="116.488474" y="227.528382" style="fill: #ffa556; stroke: #ffffff; stroke-width: 0.75"/>
     <use xlink:href="#m5331fed861" x="126.512404" y="227.52704" style="fill: #ffa556; stroke: #ffffff; stroke-width: 0.75"/>
     <use xlink:href="#m5331fed861" x="136.536334" y="227.550931" style="fill: #ffa556; stroke: #ffffff; stroke-width: 0.75"/>
     <use xlink:href="#m5331fed861" x="146.560264" y="227.520055" style="fill: #ffa556; stroke: #ffffff; stroke-width: 0.75"/>
     <use xlink:href="#m5331fed861" x="156.584193" y="227.544157" style="fill: #ffa556; stroke: #ffffff; stroke-width: 0.75"/>
     <use xlink:href="#m5331fed861" x="166.608123" y="227.530787" style="fill: #ffa556; stroke: #ffffff; stroke-width: 0.75"/>
    </g>
   </g>
   <g id="line2d_53">
    <path d="M 76.392756 207.607365 
L 86.416685 188.245155 
L 96.440615 175.812364 
L 106.464545 144.670385 
L 116.488474 112.610817 
L 126.512404 59.440608 
L 136.536334 50.449838 
L 146.560264 50.448522 
L 156.584193 50.446031 
L 166.608123 50.445499 
" clip-path="url(#pdbb1e1f156)" style="fill: none; stroke: #2ca02c; stroke-width: 2.2; stroke-linecap: square"/>
    <defs>
     <path id="m035d0c7509" d="M 0 3 
C 0.795609 3 1.55874 2.683901 2.12132 2.12132 
C 2.683901 1.55874 3 0.795609 3 0 
C 3 -0.795609 2.683901 -1.55874 2.12132 -2.12132 
C 1.55874 -2.683901 0.795609 -3 0 -3 
C -0.795609 -3 -1.55874 -2.683901 -2.12132 -2.12132 
C -2.683901 -1.55874 -3 -0.795609 -3 0 
C -3 0.795609 -2.683901 1.55874 -2.12132 2.12132 
C -1.55874 2.683901 -0.795609 3 0 3 
z
" style="stroke: #ffffff; stroke-width: 0.75"/>
    </defs>
    <g clip-path="url(#pdbb1e1f156)">
     <use xlink:href="#m035d0c7509" x="76.392756" y="207.607365" style="fill: #2ca02c; stroke: #ffffff; stroke-width: 0.75"/>
     <use xlink:href="#m035d0c7509" x="86.416685" y="188.245155" style="fill: #2ca02c; stroke: #ffffff; stroke-width: 0.75"/>
     <use xlink:href="#m035d0c7509" x="96.440615" y="175.812364" style="fill: #2ca02c; stroke: #ffffff; stroke-width: 0.75"/>
     <use xlink:href="#m035d0c7509" x="106.464545" y="144.670385" style="fill: #2ca02c; stroke: #ffffff; stroke-width: 0.75"/>
     <use xlink:href="#m035d0c7509" x="116.488474" y="112.610817" style="fill: #2ca02c; stroke: #ffffff; stroke-width: 0.75"/>
     <use xlink:href="#m035d0c7509" x="126.512404" y="59.440608" style="fill: #2ca02c; stroke: #ffffff; stroke-width: 0.75"/>
     <use xlink:href="#m035d0c7509" x="136.536334" y="50.449838" style="fill: #2ca02c; stroke: #ffffff; stroke-width: 0.75"/>
     <use xlink:href="#m035d0c7509" x="146.560264" y="50.448522" style="fill: #2ca02c; stroke: #ffffff; stroke-width: 0.75"/>
     <use xlink:href="#m035d0c7509" x="156.584193" y="50.446031" style="fill: #2ca02c; stroke: #ffffff; stroke-width: 0.75"/>
     <use xlink:href="#m035d0c7509" x="166.608123" y="50.445499" style="fill: #2ca02c; stroke: #ffffff; stroke-width: 0.75"/>
    </g>
   </g>
   <g id="line2d_54">
    <path d="M 76.392756 207.833298 
L 86.416685 190.038642 
L 96.440615 182.519591 
L 106.464545 144.838052 
L 116.488474 124.73229 
L 126.512404 58.563323 
L 136.536334 50.451536 
L 146.560264 50.447075 
L 156.584193 50.447418 
L 166.608123 50.444884 
" clip-path="url(#pdbb1e1f156)" style="fill: none; stroke-dasharray: 8.14,3.52; stroke-dashoffset: 0; stroke: #6bbc6b; stroke-width: 2.2"/>
    <defs>
     <path id="m5c0f6983e4" d="M 0 3 
C 0.795609 3 1.55874 2.683901 2.12132 2.12132 
C 2.683901 1.55874 3 0.795609 3 0 
C 3 -0.795609 2.683901 -1.55874 2.12132 -2.12132 
C 1.55874 -2.683901 0.795609 -3 0 -3 
C -0.795609 -3 -1.55874 -2.683901 -2.12132 -2.12132 
C -2.683901 -1.55874 -3 -0.795609 -3 0 
C -3 0.795609 -2.683901 1.55874 -2.12132 2.12132 
C -1.55874 2.683901 -0.795609 3 0 3 
z
" style="stroke: #ffffff; stroke-width: 0.75"/>
    </defs>
    <g clip-path="url(#pdbb1e1f156)">
     <use xlink:href="#m5c0f6983e4" x="76.392756" y="207.833298" style="fill: #6bbc6b; stroke: #ffffff; stroke-width: 0.75"/>
     <use xlink:href="#m5c0f6983e4" x="86.416685" y="190.038642" style="fill: #6bbc6b; stroke: #ffffff; stroke-width: 0.75"/>
     <use xlink:href="#m5c0f6983e4" x="96.440615" y="182.519591" style="fill: #6bbc6b; stroke: #ffffff; stroke-width: 0.75"/>
     <use xlink:href="#m5c0f6983e4" x="106.464545" y="144.838052" style="fill: #6bbc6b; stroke: #ffffff; stroke-width: 0.75"/>
     <use xlink:href="#m5c0f6983e4" x="116.488474" y="124.73229" style="fill: #6bbc6b; stroke: #ffffff; stroke-width: 0.75"/>
     <use xlink:href="#m5c0f6983e4" x="126.512404" y="58.563323" style="fill: #6bbc6b; stroke: #ffffff; stroke-width: 0.75"/>
     <use xlink:href="#m5c0f6983e4" x="136.536334" y="50.451536" style="fill: #6bbc6b; stroke: #ffffff; stroke-width: 0.75"/>
     <use xlink:href="#m5c0f6983e4" x="146.560264" y="50.447075" style="fill: #6bbc6b; stroke: #ffffff; stroke-width: 0.75"/>
     <use xlink:href="#m5c0f6983e4" x="156.584193" y="50.447418" style="fill: #6bbc6b; stroke: #ffffff; stroke-width: 0.75"/>
     <use xlink:href="#m5c0f6983e4" x="166.608123" y="50.444884" style="fill: #6bbc6b; stroke: #ffffff; stroke-width: 0.75"/>
    </g>
   </g>
   <g id="line2d_55">
    <path d="M 76.392756 227.529734 
L 86.416685 227.529528 
L 96.440615 227.529122 
L 106.464545 227.540328 
L 116.488474 227.516101 
L 126.512404 227.520167 
L 136.536334 227.523809 
L 146.560264 227.425808 
L 156.584193 227.529293 
L 166.608123 227.529966 
" clip-path="url(#pdbb1e1f156)" style="fill: none; stroke: #d62728; stroke-width: 2.2; stroke-linecap: square"/>
    <defs>
     <path id="m538780b2cc" d="M 0 3 
C 0.795609 3 1.55874 2.683901 2.12132 2.12132 
C 2.683901 1.55874 3 0.795609 3 0 
C 3 -0.795609 2.683901 -1.55874 2.12132 -2.12132 
C 1.55874 -2.683901 0.795609 -3 0 -3 
C -0.795609 -3 -1.55874 -2.683901 -2.12132 -2.12132 
C -2.683901 -1.55874 -3 -0.795609 -3 0 
C -3 0.795609 -2.683901 1.55874 -2.12132 2.12132 
C -1.55874 2.683901 -0.795609 3 0 3 
z
" style="stroke: #ffffff; stroke-width: 0.75"/>
    </defs>
    <g clip-path="url(#pdbb1e1f156)">
     <use xlink:href="#m538780b2cc" x="76.392756" y="227.529734" style="fill: #d62728; stroke: #ffffff; stroke-width: 0.75"/>
     <use xlink:href="#m538780b2cc" x="86.416685" y="227.529528" style="fill: #d62728; stroke: #ffffff; stroke-width: 0.75"/>
     <use xlink:href="#m538780b2cc" x="96.440615" y="227.529122" style="fill: #d62728; stroke: #ffffff; stroke-width: 0.75"/>
     <use xlink:href="#m538780b2cc" x="106.464545" y="227.540328" style="fill: #d62728; stroke: #ffffff; stroke-width: 0.75"/>
     <use xlink:href="#m538780b2cc" x="116.488474" y="227.516101" style="fill: #d62728; stroke: #ffffff; stroke-width: 0.75"/>
     <use xlink:href="#m538780b2cc" x="126.512404" y="227.520167" style="fill: #d62728; stroke: #ffffff; stroke-width: 0.75"/>
     <use xlink:href="#m538780b2cc" x="136.536334" y="227.523809" style="fill: #d62728; stroke: #ffffff; stroke-width: 0.75"/>
     <use xlink:href="#m538780b2cc" x="146.560264" y="227.425808" style="fill: #d62728; stroke: #ffffff; stroke-width: 0.75"/>
     <use xlink:href="#m538780b2cc" x="156.584193" y="227.529293" style="fill: #d62728; stroke: #ffffff; stroke-width: 0.75"/>
     <use xlink:href="#m538780b2cc" x="166.608123" y="227.529966" style="fill: #d62728; stroke: #ffffff; stroke-width: 0.75"/>
    </g>
   </g>
   <g id="line2d_56">
    <path d="M 76.392756 227.526742 
L 86.416685 227.553853 
L 96.440615 227.536591 
L 106.464545 227.517444 
L 116.488474 227.529731 
L 126.512404 227.518907 
L 136.536334 227.542986 
L 146.560264 227.553277 
L 156.584193 227.523574 
L 166.608123 227.50165 
" clip-path="url(#pdbb1e1f156)" style="fill: none; stroke-dasharray: 8.14,3.52; stroke-dashoffset: 0; stroke: #e26868; stroke-width: 2.2"/>
    <defs>
     <path id="m8b3dd28540" d="M 0 3 
C 0.795609 3 1.55874 2.683901 2.12132 2.12132 
C 2.683901 1.55874 3 0.795609 3 0 
C 3 -0.795609 2.683901 -1.55874 2.12132 -2.12132 
C 1.55874 -2.683901 0.795609 -3 0 -3 
C -0.795609 -3 -1.55874 -2.683901 -2.12132 -2.12132 
C -2.683901 -1.55874 -3 -0.795609 -3 0 
C -3 0.795609 -2.683901 1.55874 -2.12132 2.12132 
C -1.55874 2.683901 -0.795609 3 0 3 
z
" style="stroke: #ffffff; stroke-width: 0.75"/>
    </defs>
    <g clip-path="url(#pdbb1e1f156)">
     <use xlink:href="#m8b3dd28540" x="76.392756" y="227.526742" style="fill: #e26868; stroke: #ffffff; stroke-width: 0.75"/>
     <use xlink:href="#m8b3dd28540" x="86.416685" y="227.553853" style="fill: #e26868; stroke: #ffffff; stroke-width: 0.75"/>
     <use xlink:href="#m8b3dd28540" x="96.440615" y="227.536591" style="fill: #e26868; stroke: #ffffff; stroke-width: 0.75"/>
     <use xlink:href="#m8b3dd28540" x="106.464545" y="227.517444" style="fill: #e26868; stroke: #ffffff; stroke-width: 0.75"/>
     <use xlink:href="#m8b3dd28540" x="116.488474" y="227.529731" style="fill: #e26868; stroke: #ffffff; stroke-width: 0.75"/>
     <use xlink:href="#m8b3dd28540" x="126.512404" y="227.518907" style="fill: #e26868; stroke: #ffffff; stroke-width: 0.75"/>
     <use xlink:href="#m8b3dd28540" x="136.536334" y="227.542986" style="fill: #e26868; stroke: #ffffff; stroke-width: 0.75"/>
     <use xlink:href="#m8b3dd28540" x="146.560264" y="227.553277" style="fill: #e26868; stroke: #ffffff; stroke-width: 0.75"/>
     <use xlink:href="#m8b3dd28540" x="156.584193" y="227.523574" style="fill: #e26868; stroke: #ffffff; stroke-width: 0.75"/>
     <use xlink:href="#m8b3dd28540" x="166.608123" y="227.50165" style="fill: #e26868; stroke: #ffffff; stroke-width: 0.75"/>
    </g>
   </g>
   <g id="patch_3">
    <path d="M 75.706804 237.726437 
L 75.706804 17.798437 
" style="fill: none; stroke: #000000; stroke-width: 0.8; stroke-linejoin: miter; stroke-linecap: square"/>
   </g>
   <g id="patch_4">
    <path d="M 175.603125 237.726437 
L 175.603125 17.798437 
" style="fill: none; stroke: #000000; stroke-width: 0.8; stroke-linejoin: miter; stroke-linecap: square"/>
   </g>
   <g id="patch_5">
    <path d="M 75.706804 237.726437 
L 175.603125 237.726437 
" style="fill: none; stroke: #000000; stroke-width: 0.8; stroke-linejoin: miter; stroke-linecap: square"/>
   </g>
   <g id="patch_6">
    <path d="M 75.706804 17.798437 
L 175.603125 17.798437 
" style="fill: none; stroke: #000000; stroke-width: 0.8; stroke-linejoin: miter; stroke-linecap: square"/>
   </g>
   <g id="legend_1">
    <g id="patch_7">
     <path d="M 9.2 187.974937 
L 168.603125 187.974937 
Q 170.603125 187.974937 170.603125 185.974937 
L 170.603125 69.549937 
Q 170.603125 67.549937 168.603125 67.549937 
L 9.2 67.549937 
Q 7.2 67.549937 7.2 69.549937 
L 7.2 185.974937 
Q 7.2 187.974937 9.2 187.974937 
z
" style="fill: #ffffff; opacity: 0.8; stroke: #cccccc; stroke-linejoin: miter"/>
    </g>
    <g id="line2d_57">
     <path d="M 11.2 75.648375 
L 21.2 75.648375 
L 31.2 75.648375 
" style="fill: none; stroke: #1f77b4; stroke-width: 2.2; stroke-linecap: square"/>
     <g>
      <use xlink:href="#m80b0776ec6" x="21.2" y="75.648375" style="fill: #1f77b4; stroke: #ffffff; stroke-width: 0.75"/>
     </g>
    </g>
    <g id="text_16">
     <!-- NCCL (Native) -->
     <g transform="translate(39.2 79.148375) scale(0.1 -0.1)">
      <defs>
       <path id="DejaVuSans-4e" d="M 628 4666 
L 1478 4666 
L 3547 763 
L 3547 4666 
L 4159 4666 
L 4159 0 
L 3309 0 
L 1241 3903 
L 1241 0 
L 628 0 
L 628 4666 
z
" transform="scale(0.015625)"/>
       <path id="DejaVuSans-4c" d="M 628 4666 
L 1259 4666 
L 1259 531 
L 3531 531 
L 3531 0 
L 628 0 
L 628 4666 
z
" transform="scale(0.015625)"/>
       <path id="DejaVuSans-76" d="M 191 3500 
L 800 3500 
L 1894 563 
L 2988 3500 
L 3597 3500 
L 2284 0 
L 1503 0 
L 191 3500 
z
" transform="scale(0.015625)"/>
      </defs>
      <use xlink:href="#DejaVuSans-4e"/>
      <use xlink:href="#DejaVuSans-43" x="74.804688"/>
      <use xlink:href="#DejaVuSans-43" x="144.628906"/>
      <use xlink:href="#DejaVuSans-4c" x="214.453125"/>
      <use xlink:href="#DejaVuSans-20" x="270.166016"/>
      <use xlink:href="#DejaVuSans-28" x="301.953125"/>
      <use xlink:href="#DejaVuSans-4e" x="340.966797"/>
      <use xlink:href="#DejaVuSans-61" x="415.771484"/>
      <use xlink:href="#DejaVuSans-74" x="477.050781"/>
      <use xlink:href="#DejaVuSans-69" x="516.259766"/>
      <use xlink:href="#DejaVuSans-76" x="544.042969"/>
      <use xlink:href="#DejaVuSans-65" x="603.222656"/>
      <use xlink:href="#DejaVuSans-29" x="664.746094"/>
     </g>
    </g>
    <g id="line2d_58">
     <path d="M 11.2 90.3265 
L 21.2 90.3265 
L 31.2 90.3265 
" style="fill: none; stroke-dasharray: 8.14,3.52; stroke-dashoffset: 0; stroke: #62a0cb; stroke-width: 2.2"/>
     <g>
      <use xlink:href="#ma89c79cfff" x="21.2" y="90.3265" style="fill: #62a0cb; stroke: #ffffff; stroke-width: 0.75"/>
     </g>
    </g>
    <g id="text_17">
     <!-- NCCL (Hybrid) -->
     <g transform="translate(39.2 93.8265) scale(0.1 -0.1)">
      <defs>
       <path id="DejaVuSans-48" d="M 628 4666 
L 1259 4666 
L 1259 2753 
L 3553 2753 
L 3553 4666 
L 4184 4666 
L 4184 0 
L 3553 0 
L 3553 2222 
L 1259 2222 
L 1259 0 
L 628 0 
L 628 4666 
z
" transform="scale(0.015625)"/>
       <path id="DejaVuSans-64" d="M 2906 2969 
L 2906 4863 
L 3481 4863 
L 3481 0 
L 2906 0 
L 2906 525 
Q 2725 213 2448 61 
Q 2172 -91 1784 -91 
Q 1150 -91 751 415 
Q 353 922 353 1747 
Q 353 2572 751 3078 
Q 1150 3584 1784 3584 
Q 2172 3584 2448 3432 
Q 2725 3281 2906 2969 
z
M 947 1747 
Q 947 1113 1208 752 
Q 1469 391 1925 391 
Q 2381 391 2643 752 
Q 2906 1113 2906 1747 
Q 2906 2381 2643 2742 
Q 2381 3103 1925 3103 
Q 1469 3103 1208 2742 
Q 947 2381 947 1747 
z
" transform="scale(0.015625)"/>
      </defs>
      <use xlink:href="#DejaVuSans-4e"/>
      <use xlink:href="#DejaVuSans-43" x="74.804688"/>
      <use xlink:href="#DejaVuSans-43" x="144.628906"/>
      <use xlink:href="#DejaVuSans-4c" x="214.453125"/>
      <use xlink:href="#DejaVuSans-20" x="270.166016"/>
      <use xlink:href="#DejaVuSans-28" x="301.953125"/>
      <use xlink:href="#DejaVuSans-48" x="340.966797"/>
      <use xlink:href="#DejaVuSans-79" x="416.162109"/>
      <use xlink:href="#DejaVuSans-62" x="475.341797"/>
      <use xlink:href="#DejaVuSans-72" x="538.818359"/>
      <use xlink:href="#DejaVuSans-69" x="579.931641"/>
      <use xlink:href="#DejaVuSans-64" x="607.714844"/>
      <use xlink:href="#DejaVuSans-29" x="671.191406"/>
     </g>
    </g>
    <g id="line2d_59">
     <path d="M 11.2 105.004625 
L 21.2 105.004625 
L 31.2 105.004625 
" style="fill: none; stroke: #ff7f0e; stroke-width: 2.2; stroke-linecap: square"/>
     <g>
      <use xlink:href="#m2e3c4c64f9" x="21.2" y="105.004625" style="fill: #ff7f0e; stroke: #ffffff; stroke-width: 0.75"/>
     </g>
    </g>
    <g id="text_18">
     <!-- TrivialStaging (Native) -->
     <g transform="translate(39.2 108.504625) scale(0.1 -0.1)">
      <defs>
       <path id="DejaVuSans-6c" d="M 603 4863 
L 1178 4863 
L 1178 0 
L 603 0 
L 603 4863 
z
" transform="scale(0.015625)"/>
       <path id="DejaVuSans-67" d="M 2906 1791 
Q 2906 2416 2648 2759 
Q 2391 3103 1925 3103 
Q 1463 3103 1205 2759 
Q 947 2416 947 1791 
Q 947 1169 1205 825 
Q 1463 481 1925 481 
Q 2391 481 2648 825 
Q 2906 1169 2906 1791 
z
M 3481 434 
Q 3481 -459 3084 -895 
Q 2688 -1331 1869 -1331 
Q 1566 -1331 1297 -1286 
Q 1028 -1241 775 -1147 
L 775 -588 
Q 1028 -725 1275 -790 
Q 1522 -856 1778 -856 
Q 2344 -856 2625 -561 
Q 2906 -266 2906 331 
L 2906 616 
Q 2728 306 2450 153 
Q 2172 0 1784 0 
Q 1141 0 747 490 
Q 353 981 353 1791 
Q 353 2603 747 3093 
Q 1141 3584 1784 3584 
Q 2172 3584 2450 3431 
Q 2728 3278 2906 2969 
L 2906 3500 
L 3481 3500 
L 3481 434 
z
" transform="scale(0.015625)"/>
      </defs>
      <use xlink:href="#DejaVuSans-54"/>
      <use xlink:href="#DejaVuSans-72" x="46.333984"/>
      <use xlink:href="#DejaVuSans-69" x="87.447266"/>
      <use xlink:href="#DejaVuSans-76" x="115.230469"/>
      <use xlink:href="#DejaVuSans-69" x="174.410156"/>
      <use xlink:href="#DejaVuSans-61" x="202.193359"/>
      <use xlink:href="#DejaVuSans-6c" x="263.472656"/>
      <use xlink:href="#DejaVuSans-53" x="291.255859"/>
      <use xlink:href="#DejaVuSans-74" x="354.732422"/>
      <use xlink:href="#DejaVuSans-61" x="393.941406"/>
      <use xlink:href="#DejaVuSans-67" x="455.220703"/>
      <use xlink:href="#DejaVuSans-69" x="518.697266"/>
      <use xlink:href="#DejaVuSans-6e" x="546.480469"/>
      <use xlink:href="#DejaVuSans-67" x="609.859375"/>
      <use xlink:href="#DejaVuSans-20" x="673.335938"/>
      <use xlink:href="#DejaVuSans-28" x="705.123047"/>
      <use xlink:href="#DejaVuSans-4e" x="744.136719"/>
      <use xlink:href="#DejaVuSans-61" x="818.941406"/>
      <use xlink:href="#DejaVuSans-74" x="880.220703"/>
      <use xlink:href="#DejaVuSans-69" x="919.429688"/>
      <use xlink:href="#DejaVuSans-76" x="947.212891"/>
      <use xlink:href="#DejaVuSans-65" x="1006.392578"/>
      <use xlink:href="#DejaVuSans-29" x="1067.916016"/>
     </g>
    </g>
    <g id="line2d_60">
     <path d="M 11.2 119.68275 
L 21.2 119.68275 
L 31.2 119.68275 
" style="fill: none; stroke-dasharray: 8.14,3.52; stroke-dashoffset: 0; stroke: #ffa556; stroke-width: 2.2"/>
     <g>
      <use xlink:href="#m5331fed861" x="21.2" y="119.68275" style="fill: #ffa556; stroke: #ffffff; stroke-width: 0.75"/>
     </g>
    </g>
    <g id="text_19">
     <!-- TrivialStaging (Hybrid) -->
     <g transform="translate(39.2 123.18275) scale(0.1 -0.1)">
      <use xlink:href="#DejaVuSans-54"/>
      <use xlink:href="#DejaVuSans-72" x="46.333984"/>
      <use xlink:href="#DejaVuSans-69" x="87.447266"/>
      <use xlink:href="#DejaVuSans-76" x="115.230469"/>
      <use xlink:href="#DejaVuSans-69" x="174.410156"/>
      <use xlink:href="#DejaVuSans-61" x="202.193359"/>
      <use xlink:href="#DejaVuSans-6c" x="263.472656"/>
      <use xlink:href="#DejaVuSans-53" x="291.255859"/>
      <use xlink:href="#DejaVuSans-74" x="354.732422"/>
      <use xlink:href="#DejaVuSans-61" x="393.941406"/>
      <use xlink:href="#DejaVuSans-67" x="455.220703"/>
      <use xlink:href="#DejaVuSans-69" x="518.697266"/>
      <use xlink:href="#DejaVuSans-6e" x="546.480469"/>
      <use xlink:href="#DejaVuSans-67" x="609.859375"/>
      <use xlink:href="#DejaVuSans-20" x="673.335938"/>
      <use xlink:href="#DejaVuSans-28" x="705.123047"/>
      <use xlink:href="#DejaVuSans-48" x="744.136719"/>
      <use xlink:href="#DejaVuSans-79" x="819.332031"/>
      <use xlink:href="#DejaVuSans-62" x="878.511719"/>
      <use xlink:href="#DejaVuSans-72" x="941.988281"/>
      <use xlink:href="#DejaVuSans-69" x="983.101562"/>
      <use xlink:href="#DejaVuSans-64" x="1010.884766"/>
      <use xlink:href="#DejaVuSans-29" x="1074.361328"/>
     </g>
    </g>
    <g id="line2d_61">
     <path d="M 11.2 134.360875 
L 21.2 134.360875 
L 31.2 134.360875 
" style="fill: none; stroke: #2ca02c; stroke-width: 2.2; stroke-linecap: square"/>
     <g>
      <use xlink:href="#m035d0c7509" x="21.2" y="134.360875" style="fill: #2ca02c; stroke: #ffffff; stroke-width: 0.75"/>
     </g>
    </g>
    <g id="text_20">
     <!-- CUDA IPC (Native) -->
     <g transform="translate(39.2 137.860875) scale(0.1 -0.1)">
      <defs>
       <path id="DejaVuSans-55" d="M 556 4666 
L 1191 4666 
L 1191 1831 
Q 1191 1081 1462 751 
Q 1734 422 2344 422 
Q 2950 422 3222 751 
Q 3494 1081 3494 1831 
L 3494 4666 
L 4128 4666 
L 4128 1753 
Q 4128 841 3676 375 
Q 3225 -91 2344 -91 
Q 1459 -91 1007 375 
Q 556 841 556 1753 
L 556 4666 
z
" transform="scale(0.015625)"/>
       <path id="DejaVuSans-44" d="M 1259 4147 
L 1259 519 
L 2022 519 
Q 2988 519 3436 956 
Q 3884 1394 3884 2338 
Q 3884 3275 3436 3711 
Q 2988 4147 2022 4147 
L 1259 4147 
z
M 628 4666 
L 1925 4666 
Q 3281 4666 3915 4102 
Q 4550 3538 4550 2338 
Q 4550 1131 3912 565 
Q 3275 0 1925 0 
L 628 0 
L 628 4666 
z
" transform="scale(0.015625)"/>
       <path id="DejaVuSans-41" d="M 2188 4044 
L 1331 1722 
L 3047 1722 
L 2188 4044 
z
M 1831 4666 
L 2547 4666 
L 4325 0 
L 3669 0 
L 3244 1197 
L 1141 1197 
L 716 0 
L 50 0 
L 1831 4666 
z
" transform="scale(0.015625)"/>
      </defs>
      <use xlink:href="#DejaVuSans-43"/>
      <use xlink:href="#DejaVuSans-55" x="69.824219"/>
      <use xlink:href="#DejaVuSans-44" x="143.017578"/>
      <use xlink:href="#DejaVuSans-41" x="218.269531"/>
      <use xlink:href="#DejaVuSans-20" x="286.677734"/>
      <use xlink:href="#DejaVuSans-49" x="318.464844"/>
      <use xlink:href="#DejaVuSans-50" x="347.957031"/>
      <use xlink:href="#DejaVuSans-43" x="408.259766"/>
      <use xlink:href="#DejaVuSans-20" x="478.083984"/>
      <use xlink:href="#DejaVuSans-28" x="509.871094"/>
      <use xlink:href="#DejaVuSans-4e" x="548.884766"/>
      <use xlink:href="#DejaVuSans-61" x="623.689453"/>
      <use xlink:href="#DejaVuSans-74" x="684.96875"/>
      <use xlink:href="#DejaVuSans-69" x="724.177734"/>
      <use xlink:href="#DejaVuSans-76" x="751.960938"/>
      <use xlink:href="#DejaVuSans-65" x="811.140625"/>
      <use xlink:href="#DejaVuSans-29" x="872.664062"/>
     </g>
    </g>
    <g id="line2d_62">
     <path d="M 11.2 149.039 
L 21.2 149.039 
L 31.2 149.039 
" style="fill: none; stroke-dasharray: 8.14,3.52; stroke-dashoffset: 0; stroke: #6bbc6b; stroke-width: 2.2"/>
     <g>
      <use xlink:href="#m5c0f6983e4" x="21.2" y="149.039" style="fill: #6bbc6b; stroke: #ffffff; stroke-width: 0.75"/>
     </g>
    </g>
    <g id="text_21">
     <!-- CUDA IPC (Hybrid) -->
     <g transform="translate(39.2 152.539) scale(0.1 -0.1)">
      <use xlink:href="#DejaVuSans-43"/>
      <use xlink:href="#DejaVuSans-55" x="69.824219"/>
      <use xlink:href="#DejaVuSans-44" x="143.017578"/>
      <use xlink:href="#DejaVuSans-41" x="218.269531"/>
      <use xlink:href="#DejaVuSans-20" x="286.677734"/>
      <use xlink:href="#DejaVuSans-49" x="318.464844"/>
      <use xlink:href="#DejaVuSans-50" x="347.957031"/>
      <use xlink:href="#DejaVuSans-43" x="408.259766"/>
      <use xlink:href="#DejaVuSans-20" x="478.083984"/>
      <use xlink:href="#DejaVuSans-28" x="509.871094"/>
      <use xlink:href="#DejaVuSans-48" x="548.884766"/>
      <use xlink:href="#DejaVuSans-79" x="624.080078"/>
      <use xlink:href="#DejaVuSans-62" x="683.259766"/>
      <use xlink:href="#DejaVuSans-72" x="746.736328"/>
      <use xlink:href="#DejaVuSans-69" x="787.849609"/>
      <use xlink:href="#DejaVuSans-64" x="815.632812"/>
      <use xlink:href="#DejaVuSans-29" x="879.109375"/>
     </g>
    </g>
    <g id="line2d_63">
     <path d="M 11.2 163.717125 
L 21.2 163.717125 
L 31.2 163.717125 
" style="fill: none; stroke: #d62728; stroke-width: 2.2; stroke-linecap: square"/>
     <g>
      <use xlink:href="#m538780b2cc" x="21.2" y="163.717125" style="fill: #d62728; stroke: #ffffff; stroke-width: 0.75"/>
     </g>
    </g>
    <g id="text_22">
     <!-- CUDA-Aware MPI (Native) -->
     <g transform="translate(39.2 167.217125) scale(0.1 -0.1)">
      <defs>
       <path id="DejaVuSans-2d" d="M 313 2009 
L 1997 2009 
L 1997 1497 
L 313 1497 
L 313 2009 
z
" transform="scale(0.015625)"/>
       <path id="DejaVuSans-77" d="M 269 3500 
L 844 3500 
L 1563 769 
L 2278 3500 
L 2956 3500 
L 3675 769 
L 4391 3500 
L 4966 3500 
L 4050 0 
L 3372 0 
L 2619 2869 
L 1863 0 
L 1184 0 
L 269 3500 
z
" transform="scale(0.015625)"/>
       <path id="DejaVuSans-4d" d="M 628 4666 
L 1569 4666 
L 2759 1491 
L 3956 4666 
L 4897 4666 
L 4897 0 
L 4281 0 
L 4281 4097 
L 3078 897 
L 2444 897 
L 1241 4097 
L 1241 0 
L 628 0 
L 628 4666 
z
" transform="scale(0.015625)"/>
      </defs>
      <use xlink:href="#DejaVuSans-43"/>
      <use xlink:href="#DejaVuSans-55" x="69.824219"/>
      <use xlink:href="#DejaVuSans-44" x="143.017578"/>
      <use xlink:href="#DejaVuSans-41" x="218.269531"/>
      <use xlink:href="#DejaVuSans-2d" x="284.427734"/>
      <use xlink:href="#DejaVuSans-41" x="318.261719"/>
      <use xlink:href="#DejaVuSans-77" x="382.669922"/>
      <use xlink:href="#DejaVuSans-61" x="464.457031"/>
      <use xlink:href="#DejaVuSans-72" x="525.736328"/>
      <use xlink:href="#DejaVuSans-65" x="564.599609"/>
      <use xlink:href="#DejaVuSans-20" x="626.123047"/>
      <use xlink:href="#DejaVuSans-4d" x="657.910156"/>
      <use xlink:href="#DejaVuSans-50" x="744.189453"/>
      <use xlink:href="#DejaVuSans-49" x="804.492188"/>
      <use xlink:href="#DejaVuSans-20" x="833.984375"/>
      <use xlink:href="#DejaVuSans-28" x="865.771484"/>
      <use xlink:href="#DejaVuSans-4e" x="904.785156"/>
      <use xlink:href="#DejaVuSans-61" x="979.589844"/>
      <use xlink:href="#DejaVuSans-74" x="1040.869141"/>
      <use xlink:href="#DejaVuSans-69" x="1080.078125"/>
      <use xlink:href="#DejaVuSans-76" x="1107.861328"/>
      <use xlink:href="#DejaVuSans-65" x="1167.041016"/>
      <use xlink:href="#DejaVuSans-29" x="1228.564453"/>
     </g>
    </g>
    <g id="line2d_64">
     <path d="M 11.2 178.39525 
L 21.2 178.39525 
L 31.2 178.39525 
" style="fill: none; stroke-dasharray: 8.14,3.52; stroke-dashoffset: 0; stroke: #e26868; stroke-width: 2.2"/>
     <g>
      <use xlink:href="#m8b3dd28540" x="21.2" y="178.39525" style="fill: #e26868; stroke: #ffffff; stroke-width: 0.75"/>
     </g>
    </g>
    <g id="text_23">
     <!-- CUDA-Aware MPI (Hybrid) -->
     <g transform="translate(39.2 181.89525) scale(0.1 -0.1)">
      <use xlink:href="#DejaVuSans-43"/>
      <use xlink:href="#DejaVuSans-55" x="69.824219"/>
      <use xlink:href="#DejaVuSans-44" x="143.017578"/>
      <use xlink:href="#DejaVuSans-41" x="218.269531"/>
      <use xlink:href="#DejaVuSans-2d" x="284.427734"/>
      <use xlink:href="#DejaVuSans-41" x="318.261719"/>
      <use xlink:href="#DejaVuSans-77" x="382.669922"/>
      <use xlink:href="#DejaVuSans-61" x="464.457031"/>
      <use xlink:href="#DejaVuSans-72" x="525.736328"/>
      <use xlink:href="#DejaVuSans-65" x="564.599609"/>
      <use xlink:href="#DejaVuSans-20" x="626.123047"/>
      <use xlink:href="#DejaVuSans-4d" x="657.910156"/>
      <use xlink:href="#DejaVuSans-50" x="744.189453"/>
      <use xlink:href="#DejaVuSans-49" x="804.492188"/>
      <use xlink:href="#DejaVuSans-20" x="833.984375"/>
      <use xlink:href="#DejaVuSans-28" x="865.771484"/>
      <use xlink:href="#DejaVuSans-48" x="904.785156"/>
      <use xlink:href="#DejaVuSans-79" x="979.980469"/>
      <use xlink:href="#DejaVuSans-62" x="1039.160156"/>
      <use xlink:href="#DejaVuSans-72" x="1102.636719"/>
      <use xlink:href="#DejaVuSans-69" x="1143.75"/>
      <use xlink:href="#DejaVuSans-64" x="1171.533203"/>
      <use xlink:href="#DejaVuSans-29" x="1235.009766"/>
     </g>
    </g>
   </g>
  </g>
 </g>
 <defs>
  <clipPath id="pdbb1e1f156">
   <rect x="75.706804" y="17.798437" width="99.896321" height="219.928"/>
  </clipPath>
 </defs>
</svg>
