<?xml version="1.0" encoding="utf-8" standalone="no"?>
<!DOCTYPE svg PUBLIC "-//W3C//DTD SVG 1.1//EN"
  "http://www.w3.org/Graphics/SVG/1.1/DTD/svg11.dtd">
<svg xmlns:xlink="http://www.w3.org/1999/xlink" width="193.363125pt" height="277.218312pt" viewBox="0 0 193.363125 277.218312" xmlns="http://www.w3.org/2000/svg" version="1.1">
 <metadata>
  <rdf:RDF xmlns:dc="http://purl.org/dc/elements/1.1/" xmlns:cc="http://creativecommons.org/ns#" xmlns:rdf="http://www.w3.org/1999/02/22-rdf-syntax-ns#">
   <cc:Work>
    <dc:type rdf:resource="http://purl.org/dc/dcmitype/StillImage"/>
    <dc:date>2024-08-09T22:46:36.146281</dc:date>
    <dc:format>image/svg+xml</dc:format>
    <dc:creator>
     <cc:Agent>
      <dc:title>Matplotlib v3.8.3, https://matplotlib.org/</dc:title>
     </cc:Agent>
    </dc:creator>
   </cc:Work>
  </rdf:RDF>
 </metadata>
 <defs>
  <style type="text/css">*{stroke-linejoin: round; stroke-linecap: butt}</style>
 </defs>
 <g id="figure_1">
  <g id="patch_1">
   <path d="M 0 277.218312 
L 193.363125 277.218312 
L 193.363125 0 
L 0 0 
z
" style="fill: #ffffff"/>
  </g>
  <g id="axes_1">
   <g id="patch_2">
    <path d="M 75.706804 237.726437 
L 175.603125 237.726437 
L 175.603125 17.798437 
L 75.706804 17.798437 
z
" style="fill: #ffffff"/>
   </g>
   <g id="PolyCollection_1"/>
   <g id="PolyCollection_2">
    <defs>
     <path id="m20f410706c" d="M 76.392756 -49.641355 
L 76.392756 -49.616415 
L 86.416685 -49.616665 
L 96.440615 -49.61668 
L 106.464545 -49.617966 
L 116.488474 -49.625905 
L 126.512404 -49.608321 
L 136.536334 -49.646921 
L 146.560264 -49.680222 
L 156.584193 -49.704698 
L 166.608123 -49.767054 
L 166.608123 -49.840501 
L 166.608123 -49.840501 
L 156.584193 -49.78959 
L 146.560264 -49.70959 
L 136.536334 -49.688425 
L 126.512404 -49.703361 
L 116.488474 -49.645727 
L 106.464545 -49.634448 
L 96.440615 -49.63223 
L 86.416685 -49.640221 
L 76.392756 -49.641355 
z
" style="stroke: #1f77b4; stroke-opacity: 0.2"/>
    </defs>
    <g clip-path="url(#p9b7ebc47a9)">
     <use xlink:href="#m20f410706c" x="0" y="277.218312" style="fill: #1f77b4; fill-opacity: 0.2; stroke: #1f77b4; stroke-opacity: 0.2"/>
    </g>
   </g>
   <g id="PolyCollection_3"/>
   <g id="PolyCollection_4">
    <defs>
     <path id="mac79c0a87f" d="M 76.392756 -49.674733 
L 76.392756 -49.546656 
L 86.416685 -49.551553 
L 96.440615 -49.576221 
L 106.464545 -49.550172 
L 116.488474 -49.578988 
L 126.512404 -49.572271 
L 136.536334 -49.611925 
L 146.560264 -49.64829 
L 156.584193 -49.699234 
L 166.608123 -49.732635 
L 166.608123 -49.842333 
L 166.608123 -49.842333 
L 156.584193 -49.748903 
L 146.560264 -49.672044 
L 136.536334 -49.636506 
L 126.512404 -49.658517 
L 116.488474 -49.613536 
L 106.464545 -49.667848 
L 96.440615 -49.601641 
L 86.416685 -49.662336 
L 76.392756 -49.674733 
z
" style="stroke: #62a0cb; stroke-opacity: 0.2"/>
    </defs>
    <g clip-path="url(#p9b7ebc47a9)">
     <use xlink:href="#mac79c0a87f" x="0" y="277.218312" style="fill: #62a0cb; fill-opacity: 0.2; stroke: #62a0cb; stroke-opacity: 0.2"/>
    </g>
   </g>
   <g id="PolyCollection_5"/>
   <g id="PolyCollection_6">
    <defs>
     <path id="m386a61d733" d="M 76.392756 -49.619392 
L 76.392756 -49.569712 
L 86.416685 -49.54667 
L 96.440615 -49.572499 
L 106.464545 -49.568409 
L 116.488474 -49.577471 
L 126.512404 -49.540404 
L 136.536334 -49.541605 
L 146.560264 -49.552421 
L 156.584193 -49.56407 
L 166.608123 -49.587362 
L 166.608123 -49.64665 
L 166.608123 -49.64665 
L 156.584193 -49.613807 
L 146.560264 -49.669204 
L 136.536334 -49.675883 
L 126.512404 -49.68079 
L 116.488474 -49.602882 
L 106.464545 -49.613999 
L 96.440615 -49.621025 
L 86.416685 -49.673883 
L 76.392756 -49.619392 
z
" style="stroke: #ff7f0e; stroke-opacity: 0.2"/>
    </defs>
    <g clip-path="url(#p9b7ebc47a9)">
     <use xlink:href="#m386a61d733" x="0" y="277.218312" style="fill: #ff7f0e; fill-opacity: 0.2; stroke: #ff7f0e; stroke-opacity: 0.2"/>
    </g>
   </g>
   <g id="PolyCollection_7"/>
   <g id="PolyCollection_8">
    <defs>
     <path id="m405dd09387" d="M 76.392756 -49.647307 
L 76.392756 -49.551495 
L 86.416685 -49.568366 
L 96.440615 -49.543141 
L 106.464545 -49.57302 
L 116.488474 -49.546753 
L 126.512404 -49.542738 
L 136.536334 -49.571752 
L 146.560264 -49.542727 
L 156.584193 -49.574087 
L 166.608123 -49.59613 
L 166.608123 -49.650392 
L 166.608123 -49.650392 
L 156.584193 -49.609815 
L 146.560264 -49.67324 
L 136.536334 -49.614953 
L 126.512404 -49.678181 
L 116.488474 -49.670261 
L 106.464545 -49.613301 
L 96.440615 -49.679452 
L 86.416685 -49.621607 
L 76.392756 -49.647307 
z
" style="stroke: #ffa556; stroke-opacity: 0.2"/>
    </defs>
    <g clip-path="url(#p9b7ebc47a9)">
     <use xlink:href="#m405dd09387" x="0" y="277.218312" style="fill: #ffa556; fill-opacity: 0.2; stroke: #ffa556; stroke-opacity: 0.2"/>
    </g>
   </g>
   <g id="PolyCollection_9"/>
   <g id="PolyCollection_10">
    <defs>
     <path id="m75ee6bf99b" d="M 76.392756 -142.236046 
L 76.392756 -49.488602 
L 86.416685 -69.744051 
L 96.440615 -81.446865 
L 106.464545 -117.653721 
L 116.488474 -84.589012 
L 126.512404 -189.777034 
L 136.536334 -214.22909 
L 146.560264 -227.294506 
L 156.584193 -227.292437 
L 166.608123 -227.294529 
L 166.608123 -227.327557 
L 166.608123 -227.327557 
L 156.584193 -227.335249 
L 146.560264 -227.321631 
L 136.536334 -233.847976 
L 126.512404 -246.060276 
L 116.488474 -245.524265 
L 106.464545 -139.555699 
L 96.440615 -111.673903 
L 86.416685 -117.117179 
L 76.392756 -142.236046 
z
" style="stroke: #2ca02c; stroke-opacity: 0.2"/>
    </defs>
    <g clip-path="url(#p9b7ebc47a9)">
     <use xlink:href="#m75ee6bf99b" x="0" y="277.218312" style="fill: #2ca02c; fill-opacity: 0.2; stroke: #2ca02c; stroke-opacity: 0.2"/>
    </g>
   </g>
   <g id="PolyCollection_11"/>
   <g id="PolyCollection_12">
    <defs>
     <path id="me26f830ddc" d="M 76.392756 -117.421488 
L 76.392756 -49.488602 
L 86.416685 -58.124727 
L 96.440615 -89.208216 
L 106.464545 -123.102896 
L 116.488474 -62.353635 
L 126.512404 -201.993138 
L 136.536334 -213.680684 
L 146.560264 -227.210309 
L 156.584193 -227.215227 
L 166.608123 -227.215718 
L 166.608123 -227.254385 
L 166.608123 -227.254385 
L 156.584193 -227.254511 
L 146.560264 -227.252854 
L 136.536334 -234.017399 
L 126.512404 -239.828129 
L 116.488474 -249.423148 
L 106.464545 -139.699671 
L 96.440615 -94.740951 
L 86.416685 -110.104755 
L 76.392756 -117.421488 
z
" style="stroke: #6bbc6b; stroke-opacity: 0.2"/>
    </defs>
    <g clip-path="url(#p9b7ebc47a9)">
     <use xlink:href="#me26f830ddc" x="0" y="277.218312" style="fill: #6bbc6b; fill-opacity: 0.2; stroke: #6bbc6b; stroke-opacity: 0.2"/>
    </g>
   </g>
   <g id="PolyCollection_13"/>
   <g id="PolyCollection_14">
    <defs>
     <path id="mc363c524df" d="M 76.392756 -49.664861 
L 76.392756 -49.552994 
L 86.416685 -49.546186 
L 96.440615 -49.55453 
L 106.464545 -49.547787 
L 116.488474 -49.511183 
L 126.512404 -49.543186 
L 136.536334 -49.547183 
L 146.560264 -49.619623 
L 156.584193 -49.548289 
L 166.608123 -49.588772 
L 166.608123 -49.648273 
L 166.608123 -49.648273 
L 156.584193 -49.673155 
L 146.560264 -49.635215 
L 136.536334 -49.670387 
L 126.512404 -49.683999 
L 116.488474 -49.744574 
L 106.464545 -49.665373 
L 96.440615 -49.656125 
L 86.416685 -49.671367 
L 76.392756 -49.664861 
z
" style="stroke: #d62728; stroke-opacity: 0.2"/>
    </defs>
    <g clip-path="url(#p9b7ebc47a9)">
     <use xlink:href="#mc363c524df" x="0" y="277.218312" style="fill: #d62728; fill-opacity: 0.2; stroke: #d62728; stroke-opacity: 0.2"/>
    </g>
   </g>
   <g id="PolyCollection_15"/>
   <g id="PolyCollection_16">
    <defs>
     <path id="ma045943151" d="M 76.392756 -49.670004 
L 76.392756 -49.546844 
L 86.416685 -49.578609 
L 96.440615 -49.542826 
L 106.464545 -49.548289 
L 116.488474 -49.550796 
L 126.512404 -49.541236 
L 136.536334 -49.573946 
L 146.560264 -49.568713 
L 156.584193 -49.556464 
L 166.608123 -49.589454 
L 166.608123 -49.642717 
L 166.608123 -49.642717 
L 156.584193 -49.659441 
L 146.560264 -49.620052 
L 136.536334 -49.617391 
L 126.512404 -49.68522 
L 116.488474 -49.664733 
L 106.464545 -49.672415 
L 96.440615 -49.673183 
L 86.416685 -49.605745 
L 76.392756 -49.670004 
z
" style="stroke: #e26868; stroke-opacity: 0.2"/>
    </defs>
    <g clip-path="url(#p9b7ebc47a9)">
     <use xlink:href="#ma045943151" x="0" y="277.218312" style="fill: #e26868; fill-opacity: 0.2; stroke: #e26868; stroke-opacity: 0.2"/>
    </g>
   </g>
   <g id="matplotlib.axis_1">
    <g id="xtick_1">
     <g id="line2d_1">
      <path d="M 75.706804 237.726437 
L 75.706804 17.798437 
" clip-path="url(#p9b7ebc47a9)" style="fill: none; stroke: #b0b0b0; stroke-width: 0.8; stroke-linecap: square"/>
     </g>
     <g id="line2d_2">
      <defs>
       <path id="m5cd35e06b7" d="M 0 0 
L 0 3.5 
" style="stroke: #000000; stroke-width: 0.8"/>
      </defs>
      <g>
       <use xlink:href="#m5cd35e06b7" x="75.706804" y="237.726437" style="stroke: #000000; stroke-width: 0.8"/>
      </g>
     </g>
     <g id="text_1">
      <!-- $\mathdefault{10^{6}}$ -->
      <g transform="translate(65.146804 253.844562) scale(0.12 -0.12)">
       <defs>
        <path id="DejaVuSans-31" d="M 794 531 
L 1825 531 
L 1825 4091 
L 703 3866 
L 703 4441 
L 1819 4666 
L 2450 4666 
L 2450 531 
L 3481 531 
L 3481 0 
L 794 0 
L 794 531 
z
" transform="scale(0.015625)"/>
        <path id="DejaVuSans-30" d="M 2034 4250 
Q 1547 4250 1301 3770 
Q 1056 3291 1056 2328 
Q 1056 1369 1301 889 
Q 1547 409 2034 409 
Q 2525 409 2770 889 
Q 3016 1369 3016 2328 
Q 3016 3291 2770 3770 
Q 2525 4250 2034 4250 
z
M 2034 4750 
Q 2819 4750 3233 4129 
Q 3647 3509 3647 2328 
Q 3647 1150 3233 529 
Q 2819 -91 2034 -91 
Q 1250 -91 836 529 
Q 422 1150 422 2328 
Q 422 3509 836 4129 
Q 1250 4750 2034 4750 
z
" transform="scale(0.015625)"/>
        <path id="DejaVuSans-36" d="M 2113 2584 
Q 1688 2584 1439 2293 
Q 1191 2003 1191 1497 
Q 1191 994 1439 701 
Q 1688 409 2113 409 
Q 2538 409 2786 701 
Q 3034 994 3034 1497 
Q 3034 2003 2786 2293 
Q 2538 2584 2113 2584 
z
M 3366 4563 
L 3366 3988 
Q 3128 4100 2886 4159 
Q 2644 4219 2406 4219 
Q 1781 4219 1451 3797 
Q 1122 3375 1075 2522 
Q 1259 2794 1537 2939 
Q 1816 3084 2150 3084 
Q 2853 3084 3261 2657 
Q 3669 2231 3669 1497 
Q 3669 778 3244 343 
Q 2819 -91 2113 -91 
Q 1303 -91 875 529 
Q 447 1150 447 2328 
Q 447 3434 972 4092 
Q 1497 4750 2381 4750 
Q 2619 4750 2861 4703 
Q 3103 4656 3366 4563 
z
" transform="scale(0.015625)"/>
       </defs>
       <use xlink:href="#DejaVuSans-31" transform="translate(0 0.765625)"/>
       <use xlink:href="#DejaVuSans-30" transform="translate(63.623047 0.765625)"/>
       <use xlink:href="#DejaVuSans-36" transform="translate(128.203125 39.046875) scale(0.7)"/>
      </g>
     </g>
    </g>
    <g id="xtick_2">
     <g id="line2d_3">
      <path d="M 109.005577 237.726437 
L 109.005577 17.798437 
" clip-path="url(#p9b7ebc47a9)" style="fill: none; stroke: #b0b0b0; stroke-width: 0.8; stroke-linecap: square"/>
     </g>
     <g id="line2d_4">
      <g>
       <use xlink:href="#m5cd35e06b7" x="109.005577" y="237.726437" style="stroke: #000000; stroke-width: 0.8"/>
      </g>
     </g>
     <g id="text_2">
      <!-- $\mathdefault{10^{7}}$ -->
      <g transform="translate(98.445577 253.844562) scale(0.12 -0.12)">
       <defs>
        <path id="DejaVuSans-37" d="M 525 4666 
L 3525 4666 
L 3525 4397 
L 1831 0 
L 1172 0 
L 2766 4134 
L 525 4134 
L 525 4666 
z
" transform="scale(0.015625)"/>
       </defs>
       <use xlink:href="#DejaVuSans-31" transform="translate(0 0.684375)"/>
       <use xlink:href="#DejaVuSans-30" transform="translate(63.623047 0.684375)"/>
       <use xlink:href="#DejaVuSans-37" transform="translate(128.203125 38.965625) scale(0.7)"/>
      </g>
     </g>
    </g>
    <g id="xtick_3">
     <g id="line2d_5">
      <path d="M 142.304351 237.726437 
L 142.304351 17.798437 
" clip-path="url(#p9b7ebc47a9)" style="fill: none; stroke: #b0b0b0; stroke-width: 0.8; stroke-linecap: square"/>
     </g>
     <g id="line2d_6">
      <g>
       <use xlink:href="#m5cd35e06b7" x="142.304351" y="237.726437" style="stroke: #000000; stroke-width: 0.8"/>
      </g>
     </g>
     <g id="text_3">
      <!-- $\mathdefault{10^{8}}$ -->
      <g transform="translate(131.744351 253.844562) scale(0.12 -0.12)">
       <defs>
        <path id="DejaVuSans-38" d="M 2034 2216 
Q 1584 2216 1326 1975 
Q 1069 1734 1069 1313 
Q 1069 891 1326 650 
Q 1584 409 2034 409 
Q 2484 409 2743 651 
Q 3003 894 3003 1313 
Q 3003 1734 2745 1975 
Q 2488 2216 2034 2216 
z
M 1403 2484 
Q 997 2584 770 2862 
Q 544 3141 544 3541 
Q 544 4100 942 4425 
Q 1341 4750 2034 4750 
Q 2731 4750 3128 4425 
Q 3525 4100 3525 3541 
Q 3525 3141 3298 2862 
Q 3072 2584 2669 2484 
Q 3125 2378 3379 2068 
Q 3634 1759 3634 1313 
Q 3634 634 3220 271 
Q 2806 -91 2034 -91 
Q 1263 -91 848 271 
Q 434 634 434 1313 
Q 434 1759 690 2068 
Q 947 2378 1403 2484 
z
M 1172 3481 
Q 1172 3119 1398 2916 
Q 1625 2713 2034 2713 
Q 2441 2713 2670 2916 
Q 2900 3119 2900 3481 
Q 2900 3844 2670 4047 
Q 2441 4250 2034 4250 
Q 1625 4250 1398 4047 
Q 1172 3844 1172 3481 
z
" transform="scale(0.015625)"/>
       </defs>
       <use xlink:href="#DejaVuSans-31" transform="translate(0 0.765625)"/>
       <use xlink:href="#DejaVuSans-30" transform="translate(63.623047 0.765625)"/>
       <use xlink:href="#DejaVuSans-38" transform="translate(128.203125 39.046875) scale(0.7)"/>
      </g>
     </g>
    </g>
    <g id="xtick_4">
     <g id="line2d_7">
      <path d="M 175.603125 237.726437 
L 175.603125 17.798437 
" clip-path="url(#p9b7ebc47a9)" style="fill: none; stroke: #b0b0b0; stroke-width: 0.8; stroke-linecap: square"/>
     </g>
     <g id="line2d_8">
      <g>
       <use xlink:href="#m5cd35e06b7" x="175.603125" y="237.726437" style="stroke: #000000; stroke-width: 0.8"/>
      </g>
     </g>
     <g id="text_4">
      <!-- $\mathdefault{10^{9}}$ -->
      <g transform="translate(165.043125 253.844562) scale(0.12 -0.12)">
       <defs>
        <path id="DejaVuSans-39" d="M 703 97 
L 703 672 
Q 941 559 1184 500 
Q 1428 441 1663 441 
Q 2288 441 2617 861 
Q 2947 1281 2994 2138 
Q 2813 1869 2534 1725 
Q 2256 1581 1919 1581 
Q 1219 1581 811 2004 
Q 403 2428 403 3163 
Q 403 3881 828 4315 
Q 1253 4750 1959 4750 
Q 2769 4750 3195 4129 
Q 3622 3509 3622 2328 
Q 3622 1225 3098 567 
Q 2575 -91 1691 -91 
Q 1453 -91 1209 -44 
Q 966 3 703 97 
z
M 1959 2075 
Q 2384 2075 2632 2365 
Q 2881 2656 2881 3163 
Q 2881 3666 2632 3958 
Q 2384 4250 1959 4250 
Q 1534 4250 1286 3958 
Q 1038 3666 1038 3163 
Q 1038 2656 1286 2365 
Q 1534 2075 1959 2075 
z
" transform="scale(0.015625)"/>
       </defs>
       <use xlink:href="#DejaVuSans-31" transform="translate(0 0.765625)"/>
       <use xlink:href="#DejaVuSans-30" transform="translate(63.623047 0.765625)"/>
       <use xlink:href="#DejaVuSans-39" transform="translate(128.203125 39.046875) scale(0.7)"/>
      </g>
     </g>
    </g>
    <g id="xtick_5">
     <g id="line2d_9">
      <defs>
       <path id="m8b2713a2f8" d="M 0 0 
L 0 2 
" style="stroke: #000000; stroke-width: 0.6"/>
      </defs>
      <g>
       <use xlink:href="#m8b2713a2f8" x="85.730733" y="237.726437" style="stroke: #000000; stroke-width: 0.6"/>
      </g>
     </g>
    </g>
    <g id="xtick_6">
     <g id="line2d_10">
      <g>
       <use xlink:href="#m8b2713a2f8" x="91.594356" y="237.726437" style="stroke: #000000; stroke-width: 0.6"/>
      </g>
     </g>
    </g>
    <g id="xtick_7">
     <g id="line2d_11">
      <g>
       <use xlink:href="#m8b2713a2f8" x="95.754663" y="237.726437" style="stroke: #000000; stroke-width: 0.6"/>
      </g>
     </g>
    </g>
    <g id="xtick_8">
     <g id="line2d_12">
      <g>
       <use xlink:href="#m8b2713a2f8" x="98.981648" y="237.726437" style="stroke: #000000; stroke-width: 0.6"/>
      </g>
     </g>
    </g>
    <g id="xtick_9">
     <g id="line2d_13">
      <g>
       <use xlink:href="#m8b2713a2f8" x="101.618286" y="237.726437" style="stroke: #000000; stroke-width: 0.6"/>
      </g>
     </g>
    </g>
    <g id="xtick_10">
     <g id="line2d_14">
      <g>
       <use xlink:href="#m8b2713a2f8" x="103.847532" y="237.726437" style="stroke: #000000; stroke-width: 0.6"/>
      </g>
     </g>
    </g>
    <g id="xtick_11">
     <g id="line2d_15">
      <g>
       <use xlink:href="#m8b2713a2f8" x="105.778593" y="237.726437" style="stroke: #000000; stroke-width: 0.6"/>
      </g>
     </g>
    </g>
    <g id="xtick_12">
     <g id="line2d_16">
      <g>
       <use xlink:href="#m8b2713a2f8" x="107.481909" y="237.726437" style="stroke: #000000; stroke-width: 0.6"/>
      </g>
     </g>
    </g>
    <g id="xtick_13">
     <g id="line2d_17">
      <g>
       <use xlink:href="#m8b2713a2f8" x="119.029507" y="237.726437" style="stroke: #000000; stroke-width: 0.6"/>
      </g>
     </g>
    </g>
    <g id="xtick_14">
     <g id="line2d_18">
      <g>
       <use xlink:href="#m8b2713a2f8" x="124.89313" y="237.726437" style="stroke: #000000; stroke-width: 0.6"/>
      </g>
     </g>
    </g>
    <g id="xtick_15">
     <g id="line2d_19">
      <g>
       <use xlink:href="#m8b2713a2f8" x="129.053437" y="237.726437" style="stroke: #000000; stroke-width: 0.6"/>
      </g>
     </g>
    </g>
    <g id="xtick_16">
     <g id="line2d_20">
      <g>
       <use xlink:href="#m8b2713a2f8" x="132.280422" y="237.726437" style="stroke: #000000; stroke-width: 0.6"/>
      </g>
     </g>
    </g>
    <g id="xtick_17">
     <g id="line2d_21">
      <g>
       <use xlink:href="#m8b2713a2f8" x="134.91706" y="237.726437" style="stroke: #000000; stroke-width: 0.6"/>
      </g>
     </g>
    </g>
    <g id="xtick_18">
     <g id="line2d_22">
      <g>
       <use xlink:href="#m8b2713a2f8" x="137.146306" y="237.726437" style="stroke: #000000; stroke-width: 0.6"/>
      </g>
     </g>
    </g>
    <g id="xtick_19">
     <g id="line2d_23">
      <g>
       <use xlink:href="#m8b2713a2f8" x="139.077367" y="237.726437" style="stroke: #000000; stroke-width: 0.6"/>
      </g>
     </g>
    </g>
    <g id="xtick_20">
     <g id="line2d_24">
      <g>
       <use xlink:href="#m8b2713a2f8" x="140.780683" y="237.726437" style="stroke: #000000; stroke-width: 0.6"/>
      </g>
     </g>
    </g>
    <g id="xtick_21">
     <g id="line2d_25">
      <g>
       <use xlink:href="#m8b2713a2f8" x="152.328281" y="237.726437" style="stroke: #000000; stroke-width: 0.6"/>
      </g>
     </g>
    </g>
    <g id="xtick_22">
     <g id="line2d_26">
      <g>
       <use xlink:href="#m8b2713a2f8" x="158.191904" y="237.726437" style="stroke: #000000; stroke-width: 0.6"/>
      </g>
     </g>
    </g>
    <g id="xtick_23">
     <g id="line2d_27">
      <g>
       <use xlink:href="#m8b2713a2f8" x="162.352211" y="237.726437" style="stroke: #000000; stroke-width: 0.6"/>
      </g>
     </g>
    </g>
    <g id="xtick_24">
     <g id="line2d_28">
      <g>
       <use xlink:href="#m8b2713a2f8" x="165.579195" y="237.726437" style="stroke: #000000; stroke-width: 0.6"/>
      </g>
     </g>
    </g>
    <g id="xtick_25">
     <g id="line2d_29">
      <g>
       <use xlink:href="#m8b2713a2f8" x="168.215834" y="237.726437" style="stroke: #000000; stroke-width: 0.6"/>
      </g>
     </g>
    </g>
    <g id="xtick_26">
     <g id="line2d_30">
      <g>
       <use xlink:href="#m8b2713a2f8" x="170.44508" y="237.726437" style="stroke: #000000; stroke-width: 0.6"/>
      </g>
     </g>
    </g>
    <g id="xtick_27">
     <g id="line2d_31">
      <g>
       <use xlink:href="#m8b2713a2f8" x="172.37614" y="237.726437" style="stroke: #000000; stroke-width: 0.6"/>
      </g>
     </g>
    </g>
    <g id="xtick_28">
     <g id="line2d_32">
      <g>
       <use xlink:href="#m8b2713a2f8" x="174.079457" y="237.726437" style="stroke: #000000; stroke-width: 0.6"/>
      </g>
     </g>
    </g>
    <g id="text_5">
     <!-- Transfer Size (bytes) -->
     <g transform="translate(74.434652 267.938625) scale(0.1 -0.1)">
      <defs>
       <path id="DejaVuSans-54" d="M -19 4666 
L 3928 4666 
L 3928 4134 
L 2272 4134 
L 2272 0 
L 1638 0 
L 1638 4134 
L -19 4134 
L -19 4666 
z
" transform="scale(0.015625)"/>
       <path id="DejaVuSans-72" d="M 2631 2963 
Q 2534 3019 2420 3045 
Q 2306 3072 2169 3072 
Q 1681 3072 1420 2755 
Q 1159 2438 1159 1844 
L 1159 0 
L 581 0 
L 581 3500 
L 1159 3500 
L 1159 2956 
Q 1341 3275 1631 3429 
Q 1922 3584 2338 3584 
Q 2397 3584 2469 3576 
Q 2541 3569 2628 3553 
L 2631 2963 
z
" transform="scale(0.015625)"/>
       <path id="DejaVuSans-61" d="M 2194 1759 
Q 1497 1759 1228 1600 
Q 959 1441 959 1056 
Q 959 750 1161 570 
Q 1363 391 1709 391 
Q 2188 391 2477 730 
Q 2766 1069 2766 1631 
L 2766 1759 
L 2194 1759 
z
M 3341 1997 
L 3341 0 
L 2766 0 
L 2766 531 
Q 2569 213 2275 61 
Q 1981 -91 1556 -91 
Q 1019 -91 701 211 
Q 384 513 384 1019 
Q 384 1609 779 1909 
Q 1175 2209 1959 2209 
L 2766 2209 
L 2766 2266 
Q 2766 2663 2505 2880 
Q 2244 3097 1772 3097 
Q 1472 3097 1187 3025 
Q 903 2953 641 2809 
L 641 3341 
Q 956 3463 1253 3523 
Q 1550 3584 1831 3584 
Q 2591 3584 2966 3190 
Q 3341 2797 3341 1997 
z
" transform="scale(0.015625)"/>
       <path id="DejaVuSans-6e" d="M 3513 2113 
L 3513 0 
L 2938 0 
L 2938 2094 
Q 2938 2591 2744 2837 
Q 2550 3084 2163 3084 
Q 1697 3084 1428 2787 
Q 1159 2491 1159 1978 
L 1159 0 
L 581 0 
L 581 3500 
L 1159 3500 
L 1159 2956 
Q 1366 3272 1645 3428 
Q 1925 3584 2291 3584 
Q 2894 3584 3203 3211 
Q 3513 2838 3513 2113 
z
" transform="scale(0.015625)"/>
       <path id="DejaVuSans-73" d="M 2834 3397 
L 2834 2853 
Q 2591 2978 2328 3040 
Q 2066 3103 1784 3103 
Q 1356 3103 1142 2972 
Q 928 2841 928 2578 
Q 928 2378 1081 2264 
Q 1234 2150 1697 2047 
L 1894 2003 
Q 2506 1872 2764 1633 
Q 3022 1394 3022 966 
Q 3022 478 2636 193 
Q 2250 -91 1575 -91 
Q 1294 -91 989 -36 
Q 684 19 347 128 
L 347 722 
Q 666 556 975 473 
Q 1284 391 1588 391 
Q 1994 391 2212 530 
Q 2431 669 2431 922 
Q 2431 1156 2273 1281 
Q 2116 1406 1581 1522 
L 1381 1569 
Q 847 1681 609 1914 
Q 372 2147 372 2553 
Q 372 3047 722 3315 
Q 1072 3584 1716 3584 
Q 2034 3584 2315 3537 
Q 2597 3491 2834 3397 
z
" transform="scale(0.015625)"/>
       <path id="DejaVuSans-66" d="M 2375 4863 
L 2375 4384 
L 1825 4384 
Q 1516 4384 1395 4259 
Q 1275 4134 1275 3809 
L 1275 3500 
L 2222 3500 
L 2222 3053 
L 1275 3053 
L 1275 0 
L 697 0 
L 697 3053 
L 147 3053 
L 147 3500 
L 697 3500 
L 697 3744 
Q 697 4328 969 4595 
Q 1241 4863 1831 4863 
L 2375 4863 
z
" transform="scale(0.015625)"/>
       <path id="DejaVuSans-65" d="M 3597 1894 
L 3597 1613 
L 953 1613 
Q 991 1019 1311 708 
Q 1631 397 2203 397 
Q 2534 397 2845 478 
Q 3156 559 3463 722 
L 3463 178 
Q 3153 47 2828 -22 
Q 2503 -91 2169 -91 
Q 1331 -91 842 396 
Q 353 884 353 1716 
Q 353 2575 817 3079 
Q 1281 3584 2069 3584 
Q 2775 3584 3186 3129 
Q 3597 2675 3597 1894 
z
M 3022 2063 
Q 3016 2534 2758 2815 
Q 2500 3097 2075 3097 
Q 1594 3097 1305 2825 
Q 1016 2553 972 2059 
L 3022 2063 
z
" transform="scale(0.015625)"/>
       <path id="DejaVuSans-20" transform="scale(0.015625)"/>
       <path id="DejaVuSans-53" d="M 3425 4513 
L 3425 3897 
Q 3066 4069 2747 4153 
Q 2428 4238 2131 4238 
Q 1616 4238 1336 4038 
Q 1056 3838 1056 3469 
Q 1056 3159 1242 3001 
Q 1428 2844 1947 2747 
L 2328 2669 
Q 3034 2534 3370 2195 
Q 3706 1856 3706 1288 
Q 3706 609 3251 259 
Q 2797 -91 1919 -91 
Q 1588 -91 1214 -16 
Q 841 59 441 206 
L 441 856 
Q 825 641 1194 531 
Q 1563 422 1919 422 
Q 2459 422 2753 634 
Q 3047 847 3047 1241 
Q 3047 1584 2836 1778 
Q 2625 1972 2144 2069 
L 1759 2144 
Q 1053 2284 737 2584 
Q 422 2884 422 3419 
Q 422 4038 858 4394 
Q 1294 4750 2059 4750 
Q 2388 4750 2728 4690 
Q 3069 4631 3425 4513 
z
" transform="scale(0.015625)"/>
       <path id="DejaVuSans-69" d="M 603 3500 
L 1178 3500 
L 1178 0 
L 603 0 
L 603 3500 
z
M 603 4863 
L 1178 4863 
L 1178 4134 
L 603 4134 
L 603 4863 
z
" transform="scale(0.015625)"/>
       <path id="DejaVuSans-7a" d="M 353 3500 
L 3084 3500 
L 3084 2975 
L 922 459 
L 3084 459 
L 3084 0 
L 275 0 
L 275 525 
L 2438 3041 
L 353 3041 
L 353 3500 
z
" transform="scale(0.015625)"/>
       <path id="DejaVuSans-28" d="M 1984 4856 
Q 1566 4138 1362 3434 
Q 1159 2731 1159 2009 
Q 1159 1288 1364 580 
Q 1569 -128 1984 -844 
L 1484 -844 
Q 1016 -109 783 600 
Q 550 1309 550 2009 
Q 550 2706 781 3412 
Q 1013 4119 1484 4856 
L 1984 4856 
z
" transform="scale(0.015625)"/>
       <path id="DejaVuSans-62" d="M 3116 1747 
Q 3116 2381 2855 2742 
Q 2594 3103 2138 3103 
Q 1681 3103 1420 2742 
Q 1159 2381 1159 1747 
Q 1159 1113 1420 752 
Q 1681 391 2138 391 
Q 2594 391 2855 752 
Q 3116 1113 3116 1747 
z
M 1159 2969 
Q 1341 3281 1617 3432 
Q 1894 3584 2278 3584 
Q 2916 3584 3314 3078 
Q 3713 2572 3713 1747 
Q 3713 922 3314 415 
Q 2916 -91 2278 -91 
Q 1894 -91 1617 61 
Q 1341 213 1159 525 
L 1159 0 
L 581 0 
L 581 4863 
L 1159 4863 
L 1159 2969 
z
" transform="scale(0.015625)"/>
       <path id="DejaVuSans-79" d="M 2059 -325 
Q 1816 -950 1584 -1140 
Q 1353 -1331 966 -1331 
L 506 -1331 
L 506 -850 
L 844 -850 
Q 1081 -850 1212 -737 
Q 1344 -625 1503 -206 
L 1606 56 
L 191 3500 
L 800 3500 
L 1894 763 
L 2988 3500 
L 3597 3500 
L 2059 -325 
z
" transform="scale(0.015625)"/>
       <path id="DejaVuSans-74" d="M 1172 4494 
L 1172 3500 
L 2356 3500 
L 2356 3053 
L 1172 3053 
L 1172 1153 
Q 1172 725 1289 603 
Q 1406 481 1766 481 
L 2356 481 
L 2356 0 
L 1766 0 
Q 1100 0 847 248 
Q 594 497 594 1153 
L 594 3053 
L 172 3053 
L 172 3500 
L 594 3500 
L 594 4494 
L 1172 4494 
z
" transform="scale(0.015625)"/>
       <path id="DejaVuSans-29" d="M 513 4856 
L 1013 4856 
Q 1481 4119 1714 3412 
Q 1947 2706 1947 2009 
Q 1947 1309 1714 600 
Q 1481 -109 1013 -844 
L 513 -844 
Q 928 -128 1133 580 
Q 1338 1288 1338 2009 
Q 1338 2731 1133 3434 
Q 928 4138 513 4856 
z
" transform="scale(0.015625)"/>
      </defs>
      <use xlink:href="#DejaVuSans-54"/>
      <use xlink:href="#DejaVuSans-72" x="46.333984"/>
      <use xlink:href="#DejaVuSans-61" x="87.447266"/>
      <use xlink:href="#DejaVuSans-6e" x="148.726562"/>
      <use xlink:href="#DejaVuSans-73" x="212.105469"/>
      <use xlink:href="#DejaVuSans-66" x="264.205078"/>
      <use xlink:href="#DejaVuSans-65" x="299.410156"/>
      <use xlink:href="#DejaVuSans-72" x="360.933594"/>
      <use xlink:href="#DejaVuSans-20" x="402.046875"/>
      <use xlink:href="#DejaVuSans-53" x="433.833984"/>
      <use xlink:href="#DejaVuSans-69" x="497.310547"/>
      <use xlink:href="#DejaVuSans-7a" x="525.09375"/>
      <use xlink:href="#DejaVuSans-65" x="577.583984"/>
      <use xlink:href="#DejaVuSans-20" x="639.107422"/>
      <use xlink:href="#DejaVuSans-28" x="670.894531"/>
      <use xlink:href="#DejaVuSans-62" x="709.908203"/>
      <use xlink:href="#DejaVuSans-79" x="773.384766"/>
      <use xlink:href="#DejaVuSans-74" x="832.564453"/>
      <use xlink:href="#DejaVuSans-65" x="871.773438"/>
      <use xlink:href="#DejaVuSans-73" x="933.296875"/>
      <use xlink:href="#DejaVuSans-29" x="985.396484"/>
     </g>
    </g>
   </g>
   <g id="matplotlib.axis_2">
    <g id="ytick_1">
     <g id="line2d_33">
      <path d="M 75.706804 227.72971 
L 175.603125 227.72971 
" clip-path="url(#p9b7ebc47a9)" style="fill: none; stroke: #b0b0b0; stroke-width: 0.8; stroke-linecap: square"/>
     </g>
     <g id="line2d_34">
      <defs>
       <path id="m764add9d42" d="M 0 0 
L -3.5 0 
" style="stroke: #000000; stroke-width: 0.8"/>
      </defs>
      <g>
       <use xlink:href="#m764add9d42" x="75.706804" y="227.72971" style="stroke: #000000; stroke-width: 0.8"/>
      </g>
     </g>
     <g id="text_6">
      <!-- 0.00 -->
      <g transform="translate(41.988054 232.288773) scale(0.12 -0.12)">
       <defs>
        <path id="DejaVuSans-2e" d="M 684 794 
L 1344 794 
L 1344 0 
L 684 0 
L 684 794 
z
" transform="scale(0.015625)"/>
       </defs>
       <use xlink:href="#DejaVuSans-30"/>
       <use xlink:href="#DejaVuSans-2e" x="63.623047"/>
       <use xlink:href="#DejaVuSans-30" x="95.410156"/>
       <use xlink:href="#DejaVuSans-30" x="159.033203"/>
      </g>
     </g>
    </g>
    <g id="ytick_2">
     <g id="line2d_35">
      <path d="M 75.706804 197.300038 
L 175.603125 197.300038 
" clip-path="url(#p9b7ebc47a9)" style="fill: none; stroke: #b0b0b0; stroke-width: 0.8; stroke-linecap: square"/>
     </g>
     <g id="line2d_36">
      <g>
       <use xlink:href="#m764add9d42" x="75.706804" y="197.300038" style="stroke: #000000; stroke-width: 0.8"/>
      </g>
     </g>
     <g id="text_7">
      <!-- 0.25 -->
      <g transform="translate(41.988054 201.8591) scale(0.12 -0.12)">
       <defs>
        <path id="DejaVuSans-32" d="M 1228 531 
L 3431 531 
L 3431 0 
L 469 0 
L 469 531 
Q 828 903 1448 1529 
Q 2069 2156 2228 2338 
Q 2531 2678 2651 2914 
Q 2772 3150 2772 3378 
Q 2772 3750 2511 3984 
Q 2250 4219 1831 4219 
Q 1534 4219 1204 4116 
Q 875 4013 500 3803 
L 500 4441 
Q 881 4594 1212 4672 
Q 1544 4750 1819 4750 
Q 2544 4750 2975 4387 
Q 3406 4025 3406 3419 
Q 3406 3131 3298 2873 
Q 3191 2616 2906 2266 
Q 2828 2175 2409 1742 
Q 1991 1309 1228 531 
z
" transform="scale(0.015625)"/>
        <path id="DejaVuSans-35" d="M 691 4666 
L 3169 4666 
L 3169 4134 
L 1269 4134 
L 1269 2991 
Q 1406 3038 1543 3061 
Q 1681 3084 1819 3084 
Q 2600 3084 3056 2656 
Q 3513 2228 3513 1497 
Q 3513 744 3044 326 
Q 2575 -91 1722 -91 
Q 1428 -91 1123 -41 
Q 819 9 494 109 
L 494 744 
Q 775 591 1075 516 
Q 1375 441 1709 441 
Q 2250 441 2565 725 
Q 2881 1009 2881 1497 
Q 2881 1984 2565 2268 
Q 2250 2553 1709 2553 
Q 1456 2553 1204 2497 
Q 953 2441 691 2322 
L 691 4666 
z
" transform="scale(0.015625)"/>
       </defs>
       <use xlink:href="#DejaVuSans-30"/>
       <use xlink:href="#DejaVuSans-2e" x="63.623047"/>
       <use xlink:href="#DejaVuSans-32" x="95.410156"/>
       <use xlink:href="#DejaVuSans-35" x="159.033203"/>
      </g>
     </g>
    </g>
    <g id="ytick_3">
     <g id="line2d_37">
      <path d="M 75.706804 166.870366 
L 175.603125 166.870366 
" clip-path="url(#p9b7ebc47a9)" style="fill: none; stroke: #b0b0b0; stroke-width: 0.8; stroke-linecap: square"/>
     </g>
     <g id="line2d_38">
      <g>
       <use xlink:href="#m764add9d42" x="75.706804" y="166.870366" style="stroke: #000000; stroke-width: 0.8"/>
      </g>
     </g>
     <g id="text_8">
      <!-- 0.50 -->
      <g transform="translate(41.988054 171.429428) scale(0.12 -0.12)">
       <use xlink:href="#DejaVuSans-30"/>
       <use xlink:href="#DejaVuSans-2e" x="63.623047"/>
       <use xlink:href="#DejaVuSans-35" x="95.410156"/>
       <use xlink:href="#DejaVuSans-30" x="159.033203"/>
      </g>
     </g>
    </g>
    <g id="ytick_4">
     <g id="line2d_39">
      <path d="M 75.706804 136.440693 
L 175.603125 136.440693 
" clip-path="url(#p9b7ebc47a9)" style="fill: none; stroke: #b0b0b0; stroke-width: 0.8; stroke-linecap: square"/>
     </g>
     <g id="line2d_40">
      <g>
       <use xlink:href="#m764add9d42" x="75.706804" y="136.440693" style="stroke: #000000; stroke-width: 0.8"/>
      </g>
     </g>
     <g id="text_9">
      <!-- 0.75 -->
      <g transform="translate(41.988054 140.999756) scale(0.12 -0.12)">
       <use xlink:href="#DejaVuSans-30"/>
       <use xlink:href="#DejaVuSans-2e" x="63.623047"/>
       <use xlink:href="#DejaVuSans-37" x="95.410156"/>
       <use xlink:href="#DejaVuSans-35" x="159.033203"/>
      </g>
     </g>
    </g>
    <g id="ytick_5">
     <g id="line2d_41">
      <path d="M 75.706804 106.011021 
L 175.603125 106.011021 
" clip-path="url(#p9b7ebc47a9)" style="fill: none; stroke: #b0b0b0; stroke-width: 0.8; stroke-linecap: square"/>
     </g>
     <g id="line2d_42">
      <g>
       <use xlink:href="#m764add9d42" x="75.706804" y="106.011021" style="stroke: #000000; stroke-width: 0.8"/>
      </g>
     </g>
     <g id="text_10">
      <!-- 1.00 -->
      <g transform="translate(41.988054 110.570083) scale(0.12 -0.12)">
       <use xlink:href="#DejaVuSans-31"/>
       <use xlink:href="#DejaVuSans-2e" x="63.623047"/>
       <use xlink:href="#DejaVuSans-30" x="95.410156"/>
       <use xlink:href="#DejaVuSans-30" x="159.033203"/>
      </g>
     </g>
    </g>
    <g id="ytick_6">
     <g id="line2d_43">
      <path d="M 75.706804 75.581348 
L 175.603125 75.581348 
" clip-path="url(#p9b7ebc47a9)" style="fill: none; stroke: #b0b0b0; stroke-width: 0.8; stroke-linecap: square"/>
     </g>
     <g id="line2d_44">
      <g>
       <use xlink:href="#m764add9d42" x="75.706804" y="75.581348" style="stroke: #000000; stroke-width: 0.8"/>
      </g>
     </g>
     <g id="text_11">
      <!-- 1.25 -->
      <g transform="translate(41.988054 80.140411) scale(0.12 -0.12)">
       <use xlink:href="#DejaVuSans-31"/>
       <use xlink:href="#DejaVuSans-2e" x="63.623047"/>
       <use xlink:href="#DejaVuSans-32" x="95.410156"/>
       <use xlink:href="#DejaVuSans-35" x="159.033203"/>
      </g>
     </g>
    </g>
    <g id="ytick_7">
     <g id="line2d_45">
      <path d="M 75.706804 45.151676 
L 175.603125 45.151676 
" clip-path="url(#p9b7ebc47a9)" style="fill: none; stroke: #b0b0b0; stroke-width: 0.8; stroke-linecap: square"/>
     </g>
     <g id="line2d_46">
      <g>
       <use xlink:href="#m764add9d42" x="75.706804" y="45.151676" style="stroke: #000000; stroke-width: 0.8"/>
      </g>
     </g>
     <g id="text_12">
      <!-- 1.50 -->
      <g transform="translate(41.988054 49.710739) scale(0.12 -0.12)">
       <use xlink:href="#DejaVuSans-31"/>
       <use xlink:href="#DejaVuSans-2e" x="63.623047"/>
       <use xlink:href="#DejaVuSans-35" x="95.410156"/>
       <use xlink:href="#DejaVuSans-30" x="159.033203"/>
      </g>
     </g>
    </g>
    <g id="text_13">
     <!-- PCIRX -->
     <g transform="translate(35.908366 142.642906) rotate(-90) scale(0.1 -0.1)">
      <defs>
       <path id="DejaVuSans-50" d="M 1259 4147 
L 1259 2394 
L 2053 2394 
Q 2494 2394 2734 2622 
Q 2975 2850 2975 3272 
Q 2975 3691 2734 3919 
Q 2494 4147 2053 4147 
L 1259 4147 
z
M 628 4666 
L 2053 4666 
Q 2838 4666 3239 4311 
Q 3641 3956 3641 3272 
Q 3641 2581 3239 2228 
Q 2838 1875 2053 1875 
L 1259 1875 
L 1259 0 
L 628 0 
L 628 4666 
z
" transform="scale(0.015625)"/>
       <path id="DejaVuSans-43" d="M 4122 4306 
L 4122 3641 
Q 3803 3938 3442 4084 
Q 3081 4231 2675 4231 
Q 1875 4231 1450 3742 
Q 1025 3253 1025 2328 
Q 1025 1406 1450 917 
Q 1875 428 2675 428 
Q 3081 428 3442 575 
Q 3803 722 4122 1019 
L 4122 359 
Q 3791 134 3420 21 
Q 3050 -91 2638 -91 
Q 1578 -91 968 557 
Q 359 1206 359 2328 
Q 359 3453 968 4101 
Q 1578 4750 2638 4750 
Q 3056 4750 3426 4639 
Q 3797 4528 4122 4306 
z
" transform="scale(0.015625)"/>
       <path id="DejaVuSans-49" d="M 628 4666 
L 1259 4666 
L 1259 0 
L 628 0 
L 628 4666 
z
" transform="scale(0.015625)"/>
       <path id="DejaVuSans-52" d="M 2841 2188 
Q 3044 2119 3236 1894 
Q 3428 1669 3622 1275 
L 4263 0 
L 3584 0 
L 2988 1197 
Q 2756 1666 2539 1819 
Q 2322 1972 1947 1972 
L 1259 1972 
L 1259 0 
L 628 0 
L 628 4666 
L 2053 4666 
Q 2853 4666 3247 4331 
Q 3641 3997 3641 3322 
Q 3641 2881 3436 2590 
Q 3231 2300 2841 2188 
z
M 1259 4147 
L 1259 2491 
L 2053 2491 
Q 2509 2491 2742 2702 
Q 2975 2913 2975 3322 
Q 2975 3731 2742 3939 
Q 2509 4147 2053 4147 
L 1259 4147 
z
" transform="scale(0.015625)"/>
       <path id="DejaVuSans-58" d="M 403 4666 
L 1081 4666 
L 2241 2931 
L 3406 4666 
L 4084 4666 
L 2584 2425 
L 4184 0 
L 3506 0 
L 2194 1984 
L 872 0 
L 191 0 
L 1856 2491 
L 403 4666 
z
" transform="scale(0.015625)"/>
      </defs>
      <use xlink:href="#DejaVuSans-50"/>
      <use xlink:href="#DejaVuSans-43" x="60.302734"/>
      <use xlink:href="#DejaVuSans-49" x="130.126953"/>
      <use xlink:href="#DejaVuSans-52" x="159.619141"/>
      <use xlink:href="#DejaVuSans-58" x="229.101562"/>
     </g>
    </g>
    <g id="text_14">
     <!-- 1e10 -->
     <g transform="translate(75.706804 14.798437) scale(0.1 -0.1)">
      <use xlink:href="#DejaVuSans-31"/>
      <use xlink:href="#DejaVuSans-65" x="63.623047"/>
      <use xlink:href="#DejaVuSans-31" x="125.146484"/>
      <use xlink:href="#DejaVuSans-30" x="188.769531"/>
     </g>
    </g>
   </g>
   <g id="line2d_47">
    <path d="M 76.392756 227.581141 
L 86.416685 227.580054 
L 96.440615 227.58801 
L 106.464545 227.591765 
L 116.488474 227.574042 
L 126.512404 227.56582 
L 136.536334 227.526375 
L 146.560264 227.522791 
L 156.584193 227.471276 
L 166.608123 227.413033 
" clip-path="url(#p9b7ebc47a9)" style="fill: none; stroke: #1f77b4; stroke-width: 2.2; stroke-linecap: square"/>
    <defs>
     <path id="mf99e0916ed" d="M 0 3 
C 0.795609 3 1.55874 2.683901 2.12132 2.12132 
C 2.683901 1.55874 3 0.795609 3 0 
C 3 -0.795609 2.683901 -1.55874 2.12132 -2.12132 
C 1.55874 -2.683901 0.795609 -3 0 -3 
C -0.795609 -3 -1.55874 -2.683901 -2.12132 -2.12132 
C -2.683901 -1.55874 -3 -0.795609 -3 0 
C -3 0.795609 -2.683901 1.55874 -2.12132 2.12132 
C -1.55874 2.683901 -0.795609 3 0 3 
z
" style="stroke: #ffffff; stroke-width: 0.75"/>
    </defs>
    <g clip-path="url(#p9b7ebc47a9)">
     <use xlink:href="#mf99e0916ed" x="76.392756" y="227.581141" style="fill: #1f77b4; stroke: #ffffff; stroke-width: 0.75"/>
     <use xlink:href="#mf99e0916ed" x="86.416685" y="227.580054" style="fill: #1f77b4; stroke: #ffffff; stroke-width: 0.75"/>
     <use xlink:href="#mf99e0916ed" x="96.440615" y="227.58801" style="fill: #1f77b4; stroke: #ffffff; stroke-width: 0.75"/>
     <use xlink:href="#mf99e0916ed" x="106.464545" y="227.591765" style="fill: #1f77b4; stroke: #ffffff; stroke-width: 0.75"/>
     <use xlink:href="#mf99e0916ed" x="116.488474" y="227.574042" style="fill: #1f77b4; stroke: #ffffff; stroke-width: 0.75"/>
     <use xlink:href="#mf99e0916ed" x="126.512404" y="227.56582" style="fill: #1f77b4; stroke: #ffffff; stroke-width: 0.75"/>
     <use xlink:href="#mf99e0916ed" x="136.536334" y="227.526375" style="fill: #1f77b4; stroke: #ffffff; stroke-width: 0.75"/>
     <use xlink:href="#mf99e0916ed" x="146.560264" y="227.522791" style="fill: #1f77b4; stroke: #ffffff; stroke-width: 0.75"/>
     <use xlink:href="#mf99e0916ed" x="156.584193" y="227.471276" style="fill: #1f77b4; stroke: #ffffff; stroke-width: 0.75"/>
     <use xlink:href="#mf99e0916ed" x="166.608123" y="227.413033" style="fill: #1f77b4; stroke: #ffffff; stroke-width: 0.75"/>
    </g>
   </g>
   <g id="line2d_48">
    <path d="M 76.392756 227.595841 
L 86.416685 227.603396 
L 96.440615 227.622349 
L 106.464545 227.614586 
L 116.488474 227.619043 
L 126.512404 227.599113 
L 136.536334 227.575635 
L 146.560264 227.557487 
L 156.584193 227.495215 
L 166.608123 227.429286 
" clip-path="url(#p9b7ebc47a9)" style="fill: none; stroke-dasharray: 8.14,3.52; stroke-dashoffset: 0; stroke: #62a0cb; stroke-width: 2.2"/>
    <defs>
     <path id="mbb45a837ef" d="M 0 3 
C 0.795609 3 1.55874 2.683901 2.12132 2.12132 
C 2.683901 1.55874 3 0.795609 3 0 
C 3 -0.795609 2.683901 -1.55874 2.12132 -2.12132 
C 1.55874 -2.683901 0.795609 -3 0 -3 
C -0.795609 -3 -1.55874 -2.683901 -2.12132 -2.12132 
C -2.683901 -1.55874 -3 -0.795609 -3 0 
C -3 0.795609 -2.683901 1.55874 -2.12132 2.12132 
C -1.55874 2.683901 -0.795609 3 0 3 
z
" style="stroke: #ffffff; stroke-width: 0.75"/>
    </defs>
    <g clip-path="url(#p9b7ebc47a9)">
     <use xlink:href="#mbb45a837ef" x="76.392756" y="227.595841" style="fill: #62a0cb; stroke: #ffffff; stroke-width: 0.75"/>
     <use xlink:href="#mbb45a837ef" x="86.416685" y="227.603396" style="fill: #62a0cb; stroke: #ffffff; stroke-width: 0.75"/>
     <use xlink:href="#mbb45a837ef" x="96.440615" y="227.622349" style="fill: #62a0cb; stroke: #ffffff; stroke-width: 0.75"/>
     <use xlink:href="#mbb45a837ef" x="106.464545" y="227.614586" style="fill: #62a0cb; stroke: #ffffff; stroke-width: 0.75"/>
     <use xlink:href="#mbb45a837ef" x="116.488474" y="227.619043" style="fill: #62a0cb; stroke: #ffffff; stroke-width: 0.75"/>
     <use xlink:href="#mbb45a837ef" x="126.512404" y="227.599113" style="fill: #62a0cb; stroke: #ffffff; stroke-width: 0.75"/>
     <use xlink:href="#mbb45a837ef" x="136.536334" y="227.575635" style="fill: #62a0cb; stroke: #ffffff; stroke-width: 0.75"/>
     <use xlink:href="#mbb45a837ef" x="146.560264" y="227.557487" style="fill: #62a0cb; stroke: #ffffff; stroke-width: 0.75"/>
     <use xlink:href="#mbb45a837ef" x="156.584193" y="227.495215" style="fill: #62a0cb; stroke: #ffffff; stroke-width: 0.75"/>
     <use xlink:href="#mbb45a837ef" x="166.608123" y="227.429286" style="fill: #62a0cb; stroke: #ffffff; stroke-width: 0.75"/>
    </g>
   </g>
   <g id="line2d_49">
    <path d="M 76.392756 227.621879 
L 86.416685 227.602747 
L 96.440615 227.614896 
L 106.464545 227.607576 
L 116.488474 227.626163 
L 126.512404 227.599146 
L 136.536334 227.603481 
L 146.560264 227.581068 
L 156.584193 227.621103 
L 166.608123 227.595074 
" clip-path="url(#p9b7ebc47a9)" style="fill: none; stroke: #ff7f0e; stroke-width: 2.2; stroke-linecap: square"/>
    <defs>
     <path id="m18d7daa171" d="M 0 3 
C 0.795609 3 1.55874 2.683901 2.12132 2.12132 
C 2.683901 1.55874 3 0.795609 3 0 
C 3 -0.795609 2.683901 -1.55874 2.12132 -2.12132 
C 1.55874 -2.683901 0.795609 -3 0 -3 
C -0.795609 -3 -1.55874 -2.683901 -2.12132 -2.12132 
C -2.683901 -1.55874 -3 -0.795609 -3 0 
C -3 0.795609 -2.683901 1.55874 -2.12132 2.12132 
C -1.55874 2.683901 -0.795609 3 0 3 
z
" style="stroke: #ffffff; stroke-width: 0.75"/>
    </defs>
    <g clip-path="url(#p9b7ebc47a9)">
     <use xlink:href="#m18d7daa171" x="76.392756" y="227.621879" style="fill: #ff7f0e; stroke: #ffffff; stroke-width: 0.75"/>
     <use xlink:href="#m18d7daa171" x="86.416685" y="227.602747" style="fill: #ff7f0e; stroke: #ffffff; stroke-width: 0.75"/>
     <use xlink:href="#m18d7daa171" x="96.440615" y="227.614896" style="fill: #ff7f0e; stroke: #ffffff; stroke-width: 0.75"/>
     <use xlink:href="#m18d7daa171" x="106.464545" y="227.607576" style="fill: #ff7f0e; stroke: #ffffff; stroke-width: 0.75"/>
     <use xlink:href="#m18d7daa171" x="116.488474" y="227.626163" style="fill: #ff7f0e; stroke: #ffffff; stroke-width: 0.75"/>
     <use xlink:href="#m18d7daa171" x="126.512404" y="227.599146" style="fill: #ff7f0e; stroke: #ffffff; stroke-width: 0.75"/>
     <use xlink:href="#m18d7daa171" x="136.536334" y="227.603481" style="fill: #ff7f0e; stroke: #ffffff; stroke-width: 0.75"/>
     <use xlink:href="#m18d7daa171" x="146.560264" y="227.581068" style="fill: #ff7f0e; stroke: #ffffff; stroke-width: 0.75"/>
     <use xlink:href="#m18d7daa171" x="156.584193" y="227.621103" style="fill: #ff7f0e; stroke: #ffffff; stroke-width: 0.75"/>
     <use xlink:href="#m18d7daa171" x="166.608123" y="227.595074" style="fill: #ff7f0e; stroke: #ffffff; stroke-width: 0.75"/>
    </g>
   </g>
   <g id="line2d_50">
    <path d="M 76.392756 227.620842 
L 86.416685 227.621812 
L 96.440615 227.597777 
L 106.464545 227.622201 
L 116.488474 227.604752 
L 126.512404 227.605216 
L 136.536334 227.620802 
L 146.560264 227.599079 
L 156.584193 227.61695 
L 166.608123 227.592931 
" clip-path="url(#p9b7ebc47a9)" style="fill: none; stroke-dasharray: 8.14,3.52; stroke-dashoffset: 0; stroke: #ffa556; stroke-width: 2.2"/>
    <defs>
     <path id="m096be1b4fd" d="M 0 3 
C 0.795609 3 1.55874 2.683901 2.12132 2.12132 
C 2.683901 1.55874 3 0.795609 3 0 
C 3 -0.795609 2.683901 -1.55874 2.12132 -2.12132 
C 1.55874 -2.683901 0.795609 -3 0 -3 
C -0.795609 -3 -1.55874 -2.683901 -2.12132 -2.12132 
C -2.683901 -1.55874 -3 -0.795609 -3 0 
C -3 0.795609 -2.683901 1.55874 -2.12132 2.12132 
C -1.55874 2.683901 -0.795609 3 0 3 
z
" style="stroke: #ffffff; stroke-width: 0.75"/>
    </defs>
    <g clip-path="url(#p9b7ebc47a9)">
     <use xlink:href="#m096be1b4fd" x="76.392756" y="227.620842" style="fill: #ffa556; stroke: #ffffff; stroke-width: 0.75"/>
     <use xlink:href="#m096be1b4fd" x="86.416685" y="227.621812" style="fill: #ffa556; stroke: #ffffff; stroke-width: 0.75"/>
     <use xlink:href="#m096be1b4fd" x="96.440615" y="227.597777" style="fill: #ffa556; stroke: #ffffff; stroke-width: 0.75"/>
     <use xlink:href="#m096be1b4fd" x="106.464545" y="227.622201" style="fill: #ffa556; stroke: #ffffff; stroke-width: 0.75"/>
     <use xlink:href="#m096be1b4fd" x="116.488474" y="227.604752" style="fill: #ffa556; stroke: #ffffff; stroke-width: 0.75"/>
     <use xlink:href="#m096be1b4fd" x="126.512404" y="227.605216" style="fill: #ffa556; stroke: #ffffff; stroke-width: 0.75"/>
     <use xlink:href="#m096be1b4fd" x="136.536334" y="227.620802" style="fill: #ffa556; stroke: #ffffff; stroke-width: 0.75"/>
     <use xlink:href="#m096be1b4fd" x="146.560264" y="227.599079" style="fill: #ffa556; stroke: #ffffff; stroke-width: 0.75"/>
     <use xlink:href="#m096be1b4fd" x="156.584193" y="227.61695" style="fill: #ffa556; stroke: #ffffff; stroke-width: 0.75"/>
     <use xlink:href="#m096be1b4fd" x="166.608123" y="227.592931" style="fill: #ffa556; stroke: #ffffff; stroke-width: 0.75"/>
    </g>
   </g>
   <g id="line2d_51">
    <path d="M 76.392756 209.518428 
L 86.416685 191.427797 
L 96.440615 179.826983 
L 106.464545 148.266667 
L 116.488474 111.952849 
L 126.512404 60.885371 
L 136.536334 51.732307 
L 146.560264 49.907954 
L 156.584193 49.902703 
L 166.608123 49.904537 
" clip-path="url(#p9b7ebc47a9)" style="fill: none; stroke: #2ca02c; stroke-width: 2.2; stroke-linecap: square"/>
    <defs>
     <path id="mbf35343b26" d="M 0 3 
C 0.795609 3 1.55874 2.683901 2.12132 2.12132 
C 2.683901 1.55874 3 0.795609 3 0 
C 3 -0.795609 2.683901 -1.55874 2.12132 -2.12132 
C 1.55874 -2.683901 0.795609 -3 0 -3 
C -0.795609 -3 -1.55874 -2.683901 -2.12132 -2.12132 
C -2.683901 -1.55874 -3 -0.795609 -3 0 
C -3 0.795609 -2.683901 1.55874 -2.12132 2.12132 
C -1.55874 2.683901 -0.795609 3 0 3 
z
" style="stroke: #ffffff; stroke-width: 0.75"/>
    </defs>
    <g clip-path="url(#p9b7ebc47a9)">
     <use xlink:href="#mbf35343b26" x="76.392756" y="209.518428" style="fill: #2ca02c; stroke: #ffffff; stroke-width: 0.75"/>
     <use xlink:href="#mbf35343b26" x="86.416685" y="191.427797" style="fill: #2ca02c; stroke: #ffffff; stroke-width: 0.75"/>
     <use xlink:href="#mbf35343b26" x="96.440615" y="179.826983" style="fill: #2ca02c; stroke: #ffffff; stroke-width: 0.75"/>
     <use xlink:href="#mbf35343b26" x="106.464545" y="148.266667" style="fill: #2ca02c; stroke: #ffffff; stroke-width: 0.75"/>
     <use xlink:href="#mbf35343b26" x="116.488474" y="111.952849" style="fill: #2ca02c; stroke: #ffffff; stroke-width: 0.75"/>
     <use xlink:href="#mbf35343b26" x="126.512404" y="60.885371" style="fill: #2ca02c; stroke: #ffffff; stroke-width: 0.75"/>
     <use xlink:href="#mbf35343b26" x="136.536334" y="51.732307" style="fill: #2ca02c; stroke: #ffffff; stroke-width: 0.75"/>
     <use xlink:href="#mbf35343b26" x="146.560264" y="49.907954" style="fill: #2ca02c; stroke: #ffffff; stroke-width: 0.75"/>
     <use xlink:href="#mbf35343b26" x="156.584193" y="49.902703" style="fill: #2ca02c; stroke: #ffffff; stroke-width: 0.75"/>
     <use xlink:href="#mbf35343b26" x="166.608123" y="49.904537" style="fill: #2ca02c; stroke: #ffffff; stroke-width: 0.75"/>
    </g>
   </g>
   <g id="line2d_52">
    <path d="M 76.392756 209.706223 
L 86.416685 192.885642 
L 96.440615 185.732184 
L 106.464545 146.164802 
L 116.488474 121.139681 
L 126.512404 59.355876 
L 136.536334 51.952914 
L 146.560264 49.989644 
L 156.584193 49.982087 
L 166.608123 49.981813 
" clip-path="url(#p9b7ebc47a9)" style="fill: none; stroke-dasharray: 8.14,3.52; stroke-dashoffset: 0; stroke: #6bbc6b; stroke-width: 2.2"/>
    <defs>
     <path id="mcdf08de88b" d="M 0 3 
C 0.795609 3 1.55874 2.683901 2.12132 2.12132 
C 2.683901 1.55874 3 0.795609 3 0 
C 3 -0.795609 2.683901 -1.55874 2.12132 -2.12132 
C 1.55874 -2.683901 0.795609 -3 0 -3 
C -0.795609 -3 -1.55874 -2.683901 -2.12132 -2.12132 
C -2.683901 -1.55874 -3 -0.795609 -3 0 
C -3 0.795609 -2.683901 1.55874 -2.12132 2.12132 
C -1.55874 2.683901 -0.795609 3 0 3 
z
" style="stroke: #ffffff; stroke-width: 0.75"/>
    </defs>
    <g clip-path="url(#p9b7ebc47a9)">
     <use xlink:href="#mcdf08de88b" x="76.392756" y="209.706223" style="fill: #6bbc6b; stroke: #ffffff; stroke-width: 0.75"/>
     <use xlink:href="#mcdf08de88b" x="86.416685" y="192.885642" style="fill: #6bbc6b; stroke: #ffffff; stroke-width: 0.75"/>
     <use xlink:href="#mcdf08de88b" x="96.440615" y="185.732184" style="fill: #6bbc6b; stroke: #ffffff; stroke-width: 0.75"/>
     <use xlink:href="#mcdf08de88b" x="106.464545" y="146.164802" style="fill: #6bbc6b; stroke: #ffffff; stroke-width: 0.75"/>
     <use xlink:href="#mcdf08de88b" x="116.488474" y="121.139681" style="fill: #6bbc6b; stroke: #ffffff; stroke-width: 0.75"/>
     <use xlink:href="#mcdf08de88b" x="126.512404" y="59.355876" style="fill: #6bbc6b; stroke: #ffffff; stroke-width: 0.75"/>
     <use xlink:href="#mcdf08de88b" x="136.536334" y="51.952914" style="fill: #6bbc6b; stroke: #ffffff; stroke-width: 0.75"/>
     <use xlink:href="#mcdf08de88b" x="146.560264" y="49.989644" style="fill: #6bbc6b; stroke: #ffffff; stroke-width: 0.75"/>
     <use xlink:href="#mcdf08de88b" x="156.584193" y="49.982087" style="fill: #6bbc6b; stroke: #ffffff; stroke-width: 0.75"/>
     <use xlink:href="#mcdf08de88b" x="166.608123" y="49.981813" style="fill: #6bbc6b; stroke: #ffffff; stroke-width: 0.75"/>
    </g>
   </g>
   <g id="line2d_53">
    <path d="M 76.392756 227.605484 
L 86.416685 227.60494 
L 96.440615 227.605205 
L 106.464545 227.611872 
L 116.488474 227.595459 
L 126.512404 227.59937 
L 136.536334 227.599601 
L 146.560264 227.550986 
L 156.584193 227.603984 
L 166.608123 227.593553 
" clip-path="url(#p9b7ebc47a9)" style="fill: none; stroke: #d62728; stroke-width: 2.2; stroke-linecap: square"/>
    <defs>
     <path id="m042160564c" d="M 0 3 
C 0.795609 3 1.55874 2.683901 2.12132 2.12132 
C 2.683901 1.55874 3 0.795609 3 0 
C 3 -0.795609 2.683901 -1.55874 2.12132 -2.12132 
C 1.55874 -2.683901 0.795609 -3 0 -3 
C -0.795609 -3 -1.55874 -2.683901 -2.12132 -2.12132 
C -2.683901 -1.55874 -3 -0.795609 -3 0 
C -3 0.795609 -2.683901 1.55874 -2.12132 2.12132 
C -1.55874 2.683901 -0.795609 3 0 3 
z
" style="stroke: #ffffff; stroke-width: 0.75"/>
    </defs>
    <g clip-path="url(#p9b7ebc47a9)">
     <use xlink:href="#m042160564c" x="76.392756" y="227.605484" style="fill: #d62728; stroke: #ffffff; stroke-width: 0.75"/>
     <use xlink:href="#m042160564c" x="86.416685" y="227.60494" style="fill: #d62728; stroke: #ffffff; stroke-width: 0.75"/>
     <use xlink:href="#m042160564c" x="96.440615" y="227.605205" style="fill: #d62728; stroke: #ffffff; stroke-width: 0.75"/>
     <use xlink:href="#m042160564c" x="106.464545" y="227.611872" style="fill: #d62728; stroke: #ffffff; stroke-width: 0.75"/>
     <use xlink:href="#m042160564c" x="116.488474" y="227.595459" style="fill: #d62728; stroke: #ffffff; stroke-width: 0.75"/>
     <use xlink:href="#m042160564c" x="126.512404" y="227.59937" style="fill: #d62728; stroke: #ffffff; stroke-width: 0.75"/>
     <use xlink:href="#m042160564c" x="136.536334" y="227.599601" style="fill: #d62728; stroke: #ffffff; stroke-width: 0.75"/>
     <use xlink:href="#m042160564c" x="146.560264" y="227.550986" style="fill: #d62728; stroke: #ffffff; stroke-width: 0.75"/>
     <use xlink:href="#m042160564c" x="156.584193" y="227.603984" style="fill: #d62728; stroke: #ffffff; stroke-width: 0.75"/>
     <use xlink:href="#m042160564c" x="166.608123" y="227.593553" style="fill: #d62728; stroke: #ffffff; stroke-width: 0.75"/>
    </g>
   </g>
   <g id="line2d_54">
    <path d="M 76.392756 227.603738 
L 86.416685 227.622232 
L 96.440615 227.610412 
L 106.464545 227.597461 
L 116.488474 227.605296 
L 126.512404 227.601035 
L 136.536334 227.615177 
L 146.560264 227.621162 
L 156.584193 227.601756 
L 166.608123 227.580476 
" clip-path="url(#p9b7ebc47a9)" style="fill: none; stroke-dasharray: 8.14,3.52; stroke-dashoffset: 0; stroke: #e26868; stroke-width: 2.2"/>
    <defs>
     <path id="m37b4124235" d="M 0 3 
C 0.795609 3 1.55874 2.683901 2.12132 2.12132 
C 2.683901 1.55874 3 0.795609 3 0 
C 3 -0.795609 2.683901 -1.55874 2.12132 -2.12132 
C 1.55874 -2.683901 0.795609 -3 0 -3 
C -0.795609 -3 -1.55874 -2.683901 -2.12132 -2.12132 
C -2.683901 -1.55874 -3 -0.795609 -3 0 
C -3 0.795609 -2.683901 1.55874 -2.12132 2.12132 
C -1.55874 2.683901 -0.795609 3 0 3 
z
" style="stroke: #ffffff; stroke-width: 0.75"/>
    </defs>
    <g clip-path="url(#p9b7ebc47a9)">
     <use xlink:href="#m37b4124235" x="76.392756" y="227.603738" style="fill: #e26868; stroke: #ffffff; stroke-width: 0.75"/>
     <use xlink:href="#m37b4124235" x="86.416685" y="227.622232" style="fill: #e26868; stroke: #ffffff; stroke-width: 0.75"/>
     <use xlink:href="#m37b4124235" x="96.440615" y="227.610412" style="fill: #e26868; stroke: #ffffff; stroke-width: 0.75"/>
     <use xlink:href="#m37b4124235" x="106.464545" y="227.597461" style="fill: #e26868; stroke: #ffffff; stroke-width: 0.75"/>
     <use xlink:href="#m37b4124235" x="116.488474" y="227.605296" style="fill: #e26868; stroke: #ffffff; stroke-width: 0.75"/>
     <use xlink:href="#m37b4124235" x="126.512404" y="227.601035" style="fill: #e26868; stroke: #ffffff; stroke-width: 0.75"/>
     <use xlink:href="#m37b4124235" x="136.536334" y="227.615177" style="fill: #e26868; stroke: #ffffff; stroke-width: 0.75"/>
     <use xlink:href="#m37b4124235" x="146.560264" y="227.621162" style="fill: #e26868; stroke: #ffffff; stroke-width: 0.75"/>
     <use xlink:href="#m37b4124235" x="156.584193" y="227.601756" style="fill: #e26868; stroke: #ffffff; stroke-width: 0.75"/>
     <use xlink:href="#m37b4124235" x="166.608123" y="227.580476" style="fill: #e26868; stroke: #ffffff; stroke-width: 0.75"/>
    </g>
   </g>
   <g id="patch_3">
    <path d="M 75.706804 237.726437 
L 75.706804 17.798437 
" style="fill: none; stroke: #000000; stroke-width: 0.8; stroke-linejoin: miter; stroke-linecap: square"/>
   </g>
   <g id="patch_4">
    <path d="M 175.603125 237.726437 
L 175.603125 17.798437 
" style="fill: none; stroke: #000000; stroke-width: 0.8; stroke-linejoin: miter; stroke-linecap: square"/>
   </g>
   <g id="patch_5">
    <path d="M 75.706804 237.726437 
L 175.603125 237.726437 
" style="fill: none; stroke: #000000; stroke-width: 0.8; stroke-linejoin: miter; stroke-linecap: square"/>
   </g>
   <g id="patch_6">
    <path d="M 75.706804 17.798437 
L 175.603125 17.798437 
" style="fill: none; stroke: #000000; stroke-width: 0.8; stroke-linejoin: miter; stroke-linecap: square"/>
   </g>
   <g id="legend_1">
    <g id="patch_7">
     <path d="M 9.2 187.974937 
L 168.603125 187.974937 
Q 170.603125 187.974937 170.603125 185.974937 
L 170.603125 69.549937 
Q 170.603125 67.549937 168.603125 67.549937 
L 9.2 67.549937 
Q 7.2 67.549937 7.2 69.549937 
L 7.2 185.974937 
Q 7.2 187.974937 9.2 187.974937 
z
" style="fill: #ffffff; opacity: 0.8; stroke: #cccccc; stroke-linejoin: miter"/>
    </g>
    <g id="line2d_55">
     <path d="M 11.2 75.648375 
L 21.2 75.648375 
L 31.2 75.648375 
" style="fill: none; stroke: #1f77b4; stroke-width: 2.2; stroke-linecap: square"/>
     <g>
      <use xlink:href="#mf99e0916ed" x="21.2" y="75.648375" style="fill: #1f77b4; stroke: #ffffff; stroke-width: 0.75"/>
     </g>
    </g>
    <g id="text_15">
     <!-- NCCL (Native) -->
     <g transform="translate(39.2 79.148375) scale(0.1 -0.1)">
      <defs>
       <path id="DejaVuSans-4e" d="M 628 4666 
L 1478 4666 
L 3547 763 
L 3547 4666 
L 4159 4666 
L 4159 0 
L 3309 0 
L 1241 3903 
L 1241 0 
L 628 0 
L 628 4666 
z
" transform="scale(0.015625)"/>
       <path id="DejaVuSans-4c" d="M 628 4666 
L 1259 4666 
L 1259 531 
L 3531 531 
L 3531 0 
L 628 0 
L 628 4666 
z
" transform="scale(0.015625)"/>
       <path id="DejaVuSans-76" d="M 191 3500 
L 800 3500 
L 1894 563 
L 2988 3500 
L 3597 3500 
L 2284 0 
L 1503 0 
L 191 3500 
z
" transform="scale(0.015625)"/>
      </defs>
      <use xlink:href="#DejaVuSans-4e"/>
      <use xlink:href="#DejaVuSans-43" x="74.804688"/>
      <use xlink:href="#DejaVuSans-43" x="144.628906"/>
      <use xlink:href="#DejaVuSans-4c" x="214.453125"/>
      <use xlink:href="#DejaVuSans-20" x="270.166016"/>
      <use xlink:href="#DejaVuSans-28" x="301.953125"/>
      <use xlink:href="#DejaVuSans-4e" x="340.966797"/>
      <use xlink:href="#DejaVuSans-61" x="415.771484"/>
      <use xlink:href="#DejaVuSans-74" x="477.050781"/>
      <use xlink:href="#DejaVuSans-69" x="516.259766"/>
      <use xlink:href="#DejaVuSans-76" x="544.042969"/>
      <use xlink:href="#DejaVuSans-65" x="603.222656"/>
      <use xlink:href="#DejaVuSans-29" x="664.746094"/>
     </g>
    </g>
    <g id="line2d_56">
     <path d="M 11.2 90.3265 
L 21.2 90.3265 
L 31.2 90.3265 
" style="fill: none; stroke-dasharray: 8.14,3.52; stroke-dashoffset: 0; stroke: #62a0cb; stroke-width: 2.2"/>
     <g>
      <use xlink:href="#mbb45a837ef" x="21.2" y="90.3265" style="fill: #62a0cb; stroke: #ffffff; stroke-width: 0.75"/>
     </g>
    </g>
    <g id="text_16">
     <!-- NCCL (Hybrid) -->
     <g transform="translate(39.2 93.8265) scale(0.1 -0.1)">
      <defs>
       <path id="DejaVuSans-48" d="M 628 4666 
L 1259 4666 
L 1259 2753 
L 3553 2753 
L 3553 4666 
L 4184 4666 
L 4184 0 
L 3553 0 
L 3553 2222 
L 1259 2222 
L 1259 0 
L 628 0 
L 628 4666 
z
" transform="scale(0.015625)"/>
       <path id="DejaVuSans-64" d="M 2906 2969 
L 2906 4863 
L 3481 4863 
L 3481 0 
L 2906 0 
L 2906 525 
Q 2725 213 2448 61 
Q 2172 -91 1784 -91 
Q 1150 -91 751 415 
Q 353 922 353 1747 
Q 353 2572 751 3078 
Q 1150 3584 1784 3584 
Q 2172 3584 2448 3432 
Q 2725 3281 2906 2969 
z
M 947 1747 
Q 947 1113 1208 752 
Q 1469 391 1925 391 
Q 2381 391 2643 752 
Q 2906 1113 2906 1747 
Q 2906 2381 2643 2742 
Q 2381 3103 1925 3103 
Q 1469 3103 1208 2742 
Q 947 2381 947 1747 
z
" transform="scale(0.015625)"/>
      </defs>
      <use xlink:href="#DejaVuSans-4e"/>
      <use xlink:href="#DejaVuSans-43" x="74.804688"/>
      <use xlink:href="#DejaVuSans-43" x="144.628906"/>
      <use xlink:href="#DejaVuSans-4c" x="214.453125"/>
      <use xlink:href="#DejaVuSans-20" x="270.166016"/>
      <use xlink:href="#DejaVuSans-28" x="301.953125"/>
      <use xlink:href="#DejaVuSans-48" x="340.966797"/>
      <use xlink:href="#DejaVuSans-79" x="416.162109"/>
      <use xlink:href="#DejaVuSans-62" x="475.341797"/>
      <use xlink:href="#DejaVuSans-72" x="538.818359"/>
      <use xlink:href="#DejaVuSans-69" x="579.931641"/>
      <use xlink:href="#DejaVuSans-64" x="607.714844"/>
      <use xlink:href="#DejaVuSans-29" x="671.191406"/>
     </g>
    </g>
    <g id="line2d_57">
     <path d="M 11.2 105.004625 
L 21.2 105.004625 
L 31.2 105.004625 
" style="fill: none; stroke: #ff7f0e; stroke-width: 2.2; stroke-linecap: square"/>
     <g>
      <use xlink:href="#m18d7daa171" x="21.2" y="105.004625" style="fill: #ff7f0e; stroke: #ffffff; stroke-width: 0.75"/>
     </g>
    </g>
    <g id="text_17">
     <!-- TrivialStaging (Native) -->
     <g transform="translate(39.2 108.504625) scale(0.1 -0.1)">
      <defs>
       <path id="DejaVuSans-6c" d="M 603 4863 
L 1178 4863 
L 1178 0 
L 603 0 
L 603 4863 
z
" transform="scale(0.015625)"/>
       <path id="DejaVuSans-67" d="M 2906 1791 
Q 2906 2416 2648 2759 
Q 2391 3103 1925 3103 
Q 1463 3103 1205 2759 
Q 947 2416 947 1791 
Q 947 1169 1205 825 
Q 1463 481 1925 481 
Q 2391 481 2648 825 
Q 2906 1169 2906 1791 
z
M 3481 434 
Q 3481 -459 3084 -895 
Q 2688 -1331 1869 -1331 
Q 1566 -1331 1297 -1286 
Q 1028 -1241 775 -1147 
L 775 -588 
Q 1028 -725 1275 -790 
Q 1522 -856 1778 -856 
Q 2344 -856 2625 -561 
Q 2906 -266 2906 331 
L 2906 616 
Q 2728 306 2450 153 
Q 2172 0 1784 0 
Q 1141 0 747 490 
Q 353 981 353 1791 
Q 353 2603 747 3093 
Q 1141 3584 1784 3584 
Q 2172 3584 2450 3431 
Q 2728 3278 2906 2969 
L 2906 3500 
L 3481 3500 
L 3481 434 
z
" transform="scale(0.015625)"/>
      </defs>
      <use xlink:href="#DejaVuSans-54"/>
      <use xlink:href="#DejaVuSans-72" x="46.333984"/>
      <use xlink:href="#DejaVuSans-69" x="87.447266"/>
      <use xlink:href="#DejaVuSans-76" x="115.230469"/>
      <use xlink:href="#DejaVuSans-69" x="174.410156"/>
      <use xlink:href="#DejaVuSans-61" x="202.193359"/>
      <use xlink:href="#DejaVuSans-6c" x="263.472656"/>
      <use xlink:href="#DejaVuSans-53" x="291.255859"/>
      <use xlink:href="#DejaVuSans-74" x="354.732422"/>
      <use xlink:href="#DejaVuSans-61" x="393.941406"/>
      <use xlink:href="#DejaVuSans-67" x="455.220703"/>
      <use xlink:href="#DejaVuSans-69" x="518.697266"/>
      <use xlink:href="#DejaVuSans-6e" x="546.480469"/>
      <use xlink:href="#DejaVuSans-67" x="609.859375"/>
      <use xlink:href="#DejaVuSans-20" x="673.335938"/>
      <use xlink:href="#DejaVuSans-28" x="705.123047"/>
      <use xlink:href="#DejaVuSans-4e" x="744.136719"/>
      <use xlink:href="#DejaVuSans-61" x="818.941406"/>
      <use xlink:href="#DejaVuSans-74" x="880.220703"/>
      <use xlink:href="#DejaVuSans-69" x="919.429688"/>
      <use xlink:href="#DejaVuSans-76" x="947.212891"/>
      <use xlink:href="#DejaVuSans-65" x="1006.392578"/>
      <use xlink:href="#DejaVuSans-29" x="1067.916016"/>
     </g>
    </g>
    <g id="line2d_58">
     <path d="M 11.2 119.68275 
L 21.2 119.68275 
L 31.2 119.68275 
" style="fill: none; stroke-dasharray: 8.14,3.52; stroke-dashoffset: 0; stroke: #ffa556; stroke-width: 2.2"/>
     <g>
      <use xlink:href="#m096be1b4fd" x="21.2" y="119.68275" style="fill: #ffa556; stroke: #ffffff; stroke-width: 0.75"/>
     </g>
    </g>
    <g id="text_18">
     <!-- TrivialStaging (Hybrid) -->
     <g transform="translate(39.2 123.18275) scale(0.1 -0.1)">
      <use xlink:href="#DejaVuSans-54"/>
      <use xlink:href="#DejaVuSans-72" x="46.333984"/>
      <use xlink:href="#DejaVuSans-69" x="87.447266"/>
      <use xlink:href="#DejaVuSans-76" x="115.230469"/>
      <use xlink:href="#DejaVuSans-69" x="174.410156"/>
      <use xlink:href="#DejaVuSans-61" x="202.193359"/>
      <use xlink:href="#DejaVuSans-6c" x="263.472656"/>
      <use xlink:href="#DejaVuSans-53" x="291.255859"/>
      <use xlink:href="#DejaVuSans-74" x="354.732422"/>
      <use xlink:href="#DejaVuSans-61" x="393.941406"/>
      <use xlink:href="#DejaVuSans-67" x="455.220703"/>
      <use xlink:href="#DejaVuSans-69" x="518.697266"/>
      <use xlink:href="#DejaVuSans-6e" x="546.480469"/>
      <use xlink:href="#DejaVuSans-67" x="609.859375"/>
      <use xlink:href="#DejaVuSans-20" x="673.335938"/>
      <use xlink:href="#DejaVuSans-28" x="705.123047"/>
      <use xlink:href="#DejaVuSans-48" x="744.136719"/>
      <use xlink:href="#DejaVuSans-79" x="819.332031"/>
      <use xlink:href="#DejaVuSans-62" x="878.511719"/>
      <use xlink:href="#DejaVuSans-72" x="941.988281"/>
      <use xlink:href="#DejaVuSans-69" x="983.101562"/>
      <use xlink:href="#DejaVuSans-64" x="1010.884766"/>
      <use xlink:href="#DejaVuSans-29" x="1074.361328"/>
     </g>
    </g>
    <g id="line2d_59">
     <path d="M 11.2 134.360875 
L 21.2 134.360875 
L 31.2 134.360875 
" style="fill: none; stroke: #2ca02c; stroke-width: 2.2; stroke-linecap: square"/>
     <g>
      <use xlink:href="#mbf35343b26" x="21.2" y="134.360875" style="fill: #2ca02c; stroke: #ffffff; stroke-width: 0.75"/>
     </g>
    </g>
    <g id="text_19">
     <!-- CUDA IPC (Native) -->
     <g transform="translate(39.2 137.860875) scale(0.1 -0.1)">
      <defs>
       <path id="DejaVuSans-55" d="M 556 4666 
L 1191 4666 
L 1191 1831 
Q 1191 1081 1462 751 
Q 1734 422 2344 422 
Q 2950 422 3222 751 
Q 3494 1081 3494 1831 
L 3494 4666 
L 4128 4666 
L 4128 1753 
Q 4128 841 3676 375 
Q 3225 -91 2344 -91 
Q 1459 -91 1007 375 
Q 556 841 556 1753 
L 556 4666 
z
" transform="scale(0.015625)"/>
       <path id="DejaVuSans-44" d="M 1259 4147 
L 1259 519 
L 2022 519 
Q 2988 519 3436 956 
Q 3884 1394 3884 2338 
Q 3884 3275 3436 3711 
Q 2988 4147 2022 4147 
L 1259 4147 
z
M 628 4666 
L 1925 4666 
Q 3281 4666 3915 4102 
Q 4550 3538 4550 2338 
Q 4550 1131 3912 565 
Q 3275 0 1925 0 
L 628 0 
L 628 4666 
z
" transform="scale(0.015625)"/>
       <path id="DejaVuSans-41" d="M 2188 4044 
L 1331 1722 
L 3047 1722 
L 2188 4044 
z
M 1831 4666 
L 2547 4666 
L 4325 0 
L 3669 0 
L 3244 1197 
L 1141 1197 
L 716 0 
L 50 0 
L 1831 4666 
z
" transform="scale(0.015625)"/>
      </defs>
      <use xlink:href="#DejaVuSans-43"/>
      <use xlink:href="#DejaVuSans-55" x="69.824219"/>
      <use xlink:href="#DejaVuSans-44" x="143.017578"/>
      <use xlink:href="#DejaVuSans-41" x="218.269531"/>
      <use xlink:href="#DejaVuSans-20" x="286.677734"/>
      <use xlink:href="#DejaVuSans-49" x="318.464844"/>
      <use xlink:href="#DejaVuSans-50" x="347.957031"/>
      <use xlink:href="#DejaVuSans-43" x="408.259766"/>
      <use xlink:href="#DejaVuSans-20" x="478.083984"/>
      <use xlink:href="#DejaVuSans-28" x="509.871094"/>
      <use xlink:href="#DejaVuSans-4e" x="548.884766"/>
      <use xlink:href="#DejaVuSans-61" x="623.689453"/>
      <use xlink:href="#DejaVuSans-74" x="684.96875"/>
      <use xlink:href="#DejaVuSans-69" x="724.177734"/>
      <use xlink:href="#DejaVuSans-76" x="751.960938"/>
      <use xlink:href="#DejaVuSans-65" x="811.140625"/>
      <use xlink:href="#DejaVuSans-29" x="872.664062"/>
     </g>
    </g>
    <g id="line2d_60">
     <path d="M 11.2 149.039 
L 21.2 149.039 
L 31.2 149.039 
" style="fill: none; stroke-dasharray: 8.14,3.52; stroke-dashoffset: 0; stroke: #6bbc6b; stroke-width: 2.2"/>
     <g>
      <use xlink:href="#mcdf08de88b" x="21.2" y="149.039" style="fill: #6bbc6b; stroke: #ffffff; stroke-width: 0.75"/>
     </g>
    </g>
    <g id="text_20">
     <!-- CUDA IPC (Hybrid) -->
     <g transform="translate(39.2 152.539) scale(0.1 -0.1)">
      <use xlink:href="#DejaVuSans-43"/>
      <use xlink:href="#DejaVuSans-55" x="69.824219"/>
      <use xlink:href="#DejaVuSans-44" x="143.017578"/>
      <use xlink:href="#DejaVuSans-41" x="218.269531"/>
      <use xlink:href="#DejaVuSans-20" x="286.677734"/>
      <use xlink:href="#DejaVuSans-49" x="318.464844"/>
      <use xlink:href="#DejaVuSans-50" x="347.957031"/>
      <use xlink:href="#DejaVuSans-43" x="408.259766"/>
      <use xlink:href="#DejaVuSans-20" x="478.083984"/>
      <use xlink:href="#DejaVuSans-28" x="509.871094"/>
      <use xlink:href="#DejaVuSans-48" x="548.884766"/>
      <use xlink:href="#DejaVuSans-79" x="624.080078"/>
      <use xlink:href="#DejaVuSans-62" x="683.259766"/>
      <use xlink:href="#DejaVuSans-72" x="746.736328"/>
      <use xlink:href="#DejaVuSans-69" x="787.849609"/>
      <use xlink:href="#DejaVuSans-64" x="815.632812"/>
      <use xlink:href="#DejaVuSans-29" x="879.109375"/>
     </g>
    </g>
    <g id="line2d_61">
     <path d="M 11.2 163.717125 
L 21.2 163.717125 
L 31.2 163.717125 
" style="fill: none; stroke: #d62728; stroke-width: 2.2; stroke-linecap: square"/>
     <g>
      <use xlink:href="#m042160564c" x="21.2" y="163.717125" style="fill: #d62728; stroke: #ffffff; stroke-width: 0.75"/>
     </g>
    </g>
    <g id="text_21">
     <!-- CUDA-Aware MPI (Native) -->
     <g transform="translate(39.2 167.217125) scale(0.1 -0.1)">
      <defs>
       <path id="DejaVuSans-2d" d="M 313 2009 
L 1997 2009 
L 1997 1497 
L 313 1497 
L 313 2009 
z
" transform="scale(0.015625)"/>
       <path id="DejaVuSans-77" d="M 269 3500 
L 844 3500 
L 1563 769 
L 2278 3500 
L 2956 3500 
L 3675 769 
L 4391 3500 
L 4966 3500 
L 4050 0 
L 3372 0 
L 2619 2869 
L 1863 0 
L 1184 0 
L 269 3500 
z
" transform="scale(0.015625)"/>
       <path id="DejaVuSans-4d" d="M 628 4666 
L 1569 4666 
L 2759 1491 
L 3956 4666 
L 4897 4666 
L 4897 0 
L 4281 0 
L 4281 4097 
L 3078 897 
L 2444 897 
L 1241 4097 
L 1241 0 
L 628 0 
L 628 4666 
z
" transform="scale(0.015625)"/>
      </defs>
      <use xlink:href="#DejaVuSans-43"/>
      <use xlink:href="#DejaVuSans-55" x="69.824219"/>
      <use xlink:href="#DejaVuSans-44" x="143.017578"/>
      <use xlink:href="#DejaVuSans-41" x="218.269531"/>
      <use xlink:href="#DejaVuSans-2d" x="284.427734"/>
      <use xlink:href="#DejaVuSans-41" x="318.261719"/>
      <use xlink:href="#DejaVuSans-77" x="382.669922"/>
      <use xlink:href="#DejaVuSans-61" x="464.457031"/>
      <use xlink:href="#DejaVuSans-72" x="525.736328"/>
      <use xlink:href="#DejaVuSans-65" x="564.599609"/>
      <use xlink:href="#DejaVuSans-20" x="626.123047"/>
      <use xlink:href="#DejaVuSans-4d" x="657.910156"/>
      <use xlink:href="#DejaVuSans-50" x="744.189453"/>
      <use xlink:href="#DejaVuSans-49" x="804.492188"/>
      <use xlink:href="#DejaVuSans-20" x="833.984375"/>
      <use xlink:href="#DejaVuSans-28" x="865.771484"/>
      <use xlink:href="#DejaVuSans-4e" x="904.785156"/>
      <use xlink:href="#DejaVuSans-61" x="979.589844"/>
      <use xlink:href="#DejaVuSans-74" x="1040.869141"/>
      <use xlink:href="#DejaVuSans-69" x="1080.078125"/>
      <use xlink:href="#DejaVuSans-76" x="1107.861328"/>
      <use xlink:href="#DejaVuSans-65" x="1167.041016"/>
      <use xlink:href="#DejaVuSans-29" x="1228.564453"/>
     </g>
    </g>
    <g id="line2d_62">
     <path d="M 11.2 178.39525 
L 21.2 178.39525 
L 31.2 178.39525 
" style="fill: none; stroke-dasharray: 8.14,3.52; stroke-dashoffset: 0; stroke: #e26868; stroke-width: 2.2"/>
     <g>
      <use xlink:href="#m37b4124235" x="21.2" y="178.39525" style="fill: #e26868; stroke: #ffffff; stroke-width: 0.75"/>
     </g>
    </g>
    <g id="text_22">
     <!-- CUDA-Aware MPI (Hybrid) -->
     <g transform="translate(39.2 181.89525) scale(0.1 -0.1)">
      <use xlink:href="#DejaVuSans-43"/>
      <use xlink:href="#DejaVuSans-55" x="69.824219"/>
      <use xlink:href="#DejaVuSans-44" x="143.017578"/>
      <use xlink:href="#DejaVuSans-41" x="218.269531"/>
      <use xlink:href="#DejaVuSans-2d" x="284.427734"/>
      <use xlink:href="#DejaVuSans-41" x="318.261719"/>
      <use xlink:href="#DejaVuSans-77" x="382.669922"/>
      <use xlink:href="#DejaVuSans-61" x="464.457031"/>
      <use xlink:href="#DejaVuSans-72" x="525.736328"/>
      <use xlink:href="#DejaVuSans-65" x="564.599609"/>
      <use xlink:href="#DejaVuSans-20" x="626.123047"/>
      <use xlink:href="#DejaVuSans-4d" x="657.910156"/>
      <use xlink:href="#DejaVuSans-50" x="744.189453"/>
      <use xlink:href="#DejaVuSans-49" x="804.492188"/>
      <use xlink:href="#DejaVuSans-20" x="833.984375"/>
      <use xlink:href="#DejaVuSans-28" x="865.771484"/>
      <use xlink:href="#DejaVuSans-48" x="904.785156"/>
      <use xlink:href="#DejaVuSans-79" x="979.980469"/>
      <use xlink:href="#DejaVuSans-62" x="1039.160156"/>
      <use xlink:href="#DejaVuSans-72" x="1102.636719"/>
      <use xlink:href="#DejaVuSans-69" x="1143.75"/>
      <use xlink:href="#DejaVuSans-64" x="1171.533203"/>
      <use xlink:href="#DejaVuSans-29" x="1235.009766"/>
     </g>
    </g>
   </g>
  </g>
 </g>
 <defs>
  <clipPath id="p9b7ebc47a9">
   <rect x="75.706804" y="17.798437" width="99.896321" height="219.928"/>
  </clipPath>
 </defs>
</svg>
