<?xml version="1.0" encoding="utf-8" standalone="no"?>
<!DOCTYPE svg PUBLIC "-//W3C//DTD SVG 1.1//EN"
  "http://www.w3.org/Graphics/SVG/1.1/DTD/svg11.dtd">
<svg xmlns:xlink="http://www.w3.org/1999/xlink" width="172.268196pt" height="277.218312pt" viewBox="0 0 172.268196 277.218312" xmlns="http://www.w3.org/2000/svg" version="1.1">
 <metadata>
  <rdf:RDF xmlns:dc="http://purl.org/dc/elements/1.1/" xmlns:cc="http://creativecommons.org/ns#" xmlns:rdf="http://www.w3.org/1999/02/22-rdf-syntax-ns#">
   <cc:Work>
    <dc:type rdf:resource="http://purl.org/dc/dcmitype/StillImage"/>
    <dc:date>2024-08-05T01:47:40.410460</dc:date>
    <dc:format>image/svg+xml</dc:format>
    <dc:creator>
     <cc:Agent>
      <dc:title>Matplotlib v3.8.3, https://matplotlib.org/</dc:title>
     </cc:Agent>
    </dc:creator>
   </cc:Work>
  </rdf:RDF>
 </metadata>
 <defs>
  <style type="text/css">*{stroke-linejoin: round; stroke-linecap: butt}</style>
 </defs>
 <g id="figure_1">
  <g id="patch_1">
   <path d="M 0 277.218312 
L 172.268196 277.218312 
L 172.268196 0 
L 0 0 
z
" style="fill: #ffffff"/>
  </g>
  <g id="axes_1">
   <g id="patch_2">
    <path d="M 46.961875 237.726437 
L 154.508196 237.726437 
L 154.508196 17.798437 
L 46.961875 17.798437 
z
" style="fill: #ffffff"/>
   </g>
   <g id="PolyCollection_1"/>
   <g id="PolyCollection_2">
    <defs>
     <path id="mb2cddc99f6" d="M 47.700357 -49.640529 
L 47.700357 -49.631438 
L 58.491913 -49.627937 
L 69.283469 -49.629347 
L 80.075025 -49.627228 
L 90.866581 -49.627744 
L 101.658138 -49.622675 
L 112.449694 -49.629669 
L 123.24125 -49.624772 
L 134.032806 -49.633644 
L 144.824363 -49.639693 
L 144.824363 -49.678272 
L 144.824363 -49.678272 
L 134.032806 -49.679986 
L 123.24125 -49.672253 
L 112.449694 -49.654783 
L 101.658138 -49.650733 
L 90.866581 -49.64421 
L 80.075025 -49.640824 
L 69.283469 -49.638565 
L 58.491913 -49.646283 
L 47.700357 -49.640529 
z
" style="stroke: #1f77b4; stroke-opacity: 0.2"/>
    </defs>
    <g clip-path="url(#p8f24ad877e)">
     <use xlink:href="#mb2cddc99f6" x="0" y="277.218312" style="fill: #1f77b4; fill-opacity: 0.2; stroke: #1f77b4; stroke-opacity: 0.2"/>
    </g>
   </g>
   <g id="PolyCollection_3"/>
   <g id="PolyCollection_4">
    <defs>
     <path id="maf644a36c2" d="M 47.700357 -49.611831 
L 47.700357 -49.600088 
L 58.491913 -49.599912 
L 69.283469 -49.598373 
L 80.075025 -49.59741 
L 90.866581 -49.599166 
L 101.658138 -49.576435 
L 112.449694 -49.599252 
L 123.24125 -49.608243 
L 134.032806 -49.622977 
L 144.824363 -49.623878 
L 144.824363 -49.682888 
L 144.824363 -49.682888 
L 134.032806 -49.668503 
L 123.24125 -49.6507 
L 112.449694 -49.636358 
L 101.658138 -49.674424 
L 90.866581 -49.617173 
L 80.075025 -49.615132 
L 69.283469 -49.611 
L 58.491913 -49.611936 
L 47.700357 -49.611831 
z
" style="stroke: #62a0cb; stroke-opacity: 0.2"/>
    </defs>
    <g clip-path="url(#p8f24ad877e)">
     <use xlink:href="#maf644a36c2" x="0" y="277.218312" style="fill: #62a0cb; fill-opacity: 0.2; stroke: #62a0cb; stroke-opacity: 0.2"/>
    </g>
   </g>
   <g id="PolyCollection_5"/>
   <g id="PolyCollection_6">
    <defs>
     <path id="m9ea09303e5" d="M 47.700357 -49.679784 
L 47.700357 -49.556585 
L 58.491913 -49.591562 
L 69.283469 -49.595283 
L 80.075025 -49.588424 
L 90.866581 -49.5956 
L 101.658138 -49.556232 
L 112.449694 -49.5954 
L 123.24125 -49.558289 
L 134.032806 -49.564248 
L 144.824363 -49.593855 
L 144.824363 -49.608796 
L 144.824363 -49.608796 
L 134.032806 -49.670523 
L 123.24125 -49.678501 
L 112.449694 -49.607236 
L 101.658138 -49.682711 
L 90.866581 -49.603457 
L 80.075025 -49.615477 
L 69.283469 -49.606253 
L 58.491913 -49.610581 
L 47.700357 -49.679784 
z
" style="stroke: #ff7f0e; stroke-opacity: 0.2"/>
    </defs>
    <g clip-path="url(#p8f24ad877e)">
     <use xlink:href="#m9ea09303e5" x="0" y="277.218312" style="fill: #ff7f0e; fill-opacity: 0.2; stroke: #ff7f0e; stroke-opacity: 0.2"/>
    </g>
   </g>
   <g id="PolyCollection_7"/>
   <g id="PolyCollection_8">
    <defs>
     <path id="me9a1cf61ce" d="M 47.700357 -49.606166 
L 47.700357 -49.593876 
L 58.491913 -49.594159 
L 69.283469 -49.594733 
L 80.075025 -49.594193 
L 90.866581 -49.592419 
L 101.658138 -49.59376 
L 112.449694 -49.594271 
L 123.24125 -49.594663 
L 134.032806 -49.593854 
L 144.824363 -49.645298 
L 144.824363 -49.646696 
L 144.824363 -49.646696 
L 134.032806 -49.610201 
L 123.24125 -49.605562 
L 112.449694 -49.60768 
L 101.658138 -49.606029 
L 90.866581 -49.607223 
L 80.075025 -49.607043 
L 69.283469 -49.605069 
L 58.491913 -49.606721 
L 47.700357 -49.606166 
z
" style="stroke: #ffa556; stroke-opacity: 0.2"/>
    </defs>
    <g clip-path="url(#p8f24ad877e)">
     <use xlink:href="#me9a1cf61ce" x="0" y="277.218312" style="fill: #ffa556; fill-opacity: 0.2; stroke: #ffa556; stroke-opacity: 0.2"/>
    </g>
   </g>
   <g id="PolyCollection_9"/>
   <g id="PolyCollection_10">
    <defs>
     <path id="m3f16246b67" d="M 47.700357 -50.09959 
L 47.700357 -49.488602 
L 58.491913 -49.488602 
L 69.283469 -50.317084 
L 80.075025 -64.131889 
L 90.866581 -70.17168 
L 101.658138 -86.750597 
L 112.449694 -49.488602 
L 123.24125 -177.594316 
L 134.032806 -177.596431 
L 144.824363 -187.865765 
L 144.824363 -187.90048 
L 144.824363 -187.90048 
L 134.032806 -193.033472 
L 123.24125 -193.031973 
L 112.449694 -249.423148 
L 101.658138 -189.292294 
L 90.866581 -132.260515 
L 80.075025 -87.816996 
L 69.283469 -79.634715 
L 58.491913 -84.166638 
L 47.700357 -50.09959 
z
" style="stroke: #2ca02c; stroke-opacity: 0.2"/>
    </defs>
    <g clip-path="url(#p8f24ad877e)">
     <use xlink:href="#m3f16246b67" x="0" y="277.218312" style="fill: #2ca02c; fill-opacity: 0.2; stroke: #2ca02c; stroke-opacity: 0.2"/>
    </g>
   </g>
   <g id="PolyCollection_11"/>
   <g id="PolyCollection_12"/>
   <g id="PolyCollection_13"/>
   <g id="PolyCollection_14">
    <defs>
     <path id="mc7e2114f80" d="M 47.700357 -49.638008 
L 47.700357 -49.578085 
L 58.491913 -49.573121 
L 69.283469 -49.567807 
L 80.075025 -49.594107 
L 90.866581 -49.556903 
L 101.658138 -49.558312 
L 112.449694 -49.587674 
L 123.24125 -49.556932 
L 134.032806 -49.583545 
L 144.824363 -49.589914 
L 144.824363 -49.614951 
L 144.824363 -49.614951 
L 134.032806 -49.632893 
L 123.24125 -49.682615 
L 112.449694 -49.618779 
L 101.658138 -49.681262 
L 90.866581 -49.681729 
L 80.075025 -49.606414 
L 69.283469 -49.658794 
L 58.491913 -49.64707 
L 47.700357 -49.638008 
z
" style="stroke: #d62728; stroke-opacity: 0.2"/>
    </defs>
    <g clip-path="url(#p8f24ad877e)">
     <use xlink:href="#mc7e2114f80" x="0" y="277.218312" style="fill: #d62728; fill-opacity: 0.2; stroke: #d62728; stroke-opacity: 0.2"/>
    </g>
   </g>
   <g id="PolyCollection_15"/>
   <g id="PolyCollection_16">
    <defs>
     <path id="mbd5d64453a" d="M 47.700357 -49.606722 
L 47.700357 -49.595487 
L 58.491913 -49.565475 
L 69.283469 -49.58739 
L 80.075025 -49.591082 
L 90.866581 -49.56759 
L 101.658138 -49.567197 
L 112.449694 -49.555503 
L 123.24125 -49.592301 
L 134.032806 -49.592599 
L 144.824363 -49.586854 
L 144.824363 -49.621002 
L 144.824363 -49.621002 
L 134.032806 -49.611351 
L 123.24125 -49.610957 
L 112.449694 -49.682545 
L 101.658138 -49.661796 
L 90.866581 -49.660392 
L 80.075025 -49.616235 
L 69.283469 -49.620561 
L 58.491913 -49.668992 
L 47.700357 -49.606722 
z
" style="stroke: #e26868; stroke-opacity: 0.2"/>
    </defs>
    <g clip-path="url(#p8f24ad877e)">
     <use xlink:href="#mbd5d64453a" x="0" y="277.218312" style="fill: #e26868; fill-opacity: 0.2; stroke: #e26868; stroke-opacity: 0.2"/>
    </g>
   </g>
   <g id="matplotlib.axis_1">
    <g id="xtick_1">
     <g id="line2d_1">
      <path d="M 46.961875 237.726437 
L 46.961875 17.798437 
" clip-path="url(#p8f24ad877e)" style="fill: none; stroke: #b0b0b0; stroke-width: 0.8; stroke-linecap: square"/>
     </g>
     <g id="line2d_2">
      <defs>
       <path id="m1f483af5f5" d="M 0 0 
L 0 3.5 
" style="stroke: #000000; stroke-width: 0.8"/>
      </defs>
      <g>
       <use xlink:href="#m1f483af5f5" x="46.961875" y="237.726437" style="stroke: #000000; stroke-width: 0.8"/>
      </g>
     </g>
     <g id="text_1">
      <!-- $\mathdefault{10^{6}}$ -->
      <g transform="translate(36.401875 253.844562) scale(0.12 -0.12)">
       <defs>
        <path id="DejaVuSans-31" d="M 794 531 
L 1825 531 
L 1825 4091 
L 703 3866 
L 703 4441 
L 1819 4666 
L 2450 4666 
L 2450 531 
L 3481 531 
L 3481 0 
L 794 0 
L 794 531 
z
" transform="scale(0.015625)"/>
        <path id="DejaVuSans-30" d="M 2034 4250 
Q 1547 4250 1301 3770 
Q 1056 3291 1056 2328 
Q 1056 1369 1301 889 
Q 1547 409 2034 409 
Q 2525 409 2770 889 
Q 3016 1369 3016 2328 
Q 3016 3291 2770 3770 
Q 2525 4250 2034 4250 
z
M 2034 4750 
Q 2819 4750 3233 4129 
Q 3647 3509 3647 2328 
Q 3647 1150 3233 529 
Q 2819 -91 2034 -91 
Q 1250 -91 836 529 
Q 422 1150 422 2328 
Q 422 3509 836 4129 
Q 1250 4750 2034 4750 
z
" transform="scale(0.015625)"/>
        <path id="DejaVuSans-36" d="M 2113 2584 
Q 1688 2584 1439 2293 
Q 1191 2003 1191 1497 
Q 1191 994 1439 701 
Q 1688 409 2113 409 
Q 2538 409 2786 701 
Q 3034 994 3034 1497 
Q 3034 2003 2786 2293 
Q 2538 2584 2113 2584 
z
M 3366 4563 
L 3366 3988 
Q 3128 4100 2886 4159 
Q 2644 4219 2406 4219 
Q 1781 4219 1451 3797 
Q 1122 3375 1075 2522 
Q 1259 2794 1537 2939 
Q 1816 3084 2150 3084 
Q 2853 3084 3261 2657 
Q 3669 2231 3669 1497 
Q 3669 778 3244 343 
Q 2819 -91 2113 -91 
Q 1303 -91 875 529 
Q 447 1150 447 2328 
Q 447 3434 972 4092 
Q 1497 4750 2381 4750 
Q 2619 4750 2861 4703 
Q 3103 4656 3366 4563 
z
" transform="scale(0.015625)"/>
       </defs>
       <use xlink:href="#DejaVuSans-31" transform="translate(0 0.765625)"/>
       <use xlink:href="#DejaVuSans-30" transform="translate(63.623047 0.765625)"/>
       <use xlink:href="#DejaVuSans-36" transform="translate(128.203125 39.046875) scale(0.7)"/>
      </g>
     </g>
    </g>
    <g id="xtick_2">
     <g id="line2d_3">
      <path d="M 82.810649 237.726437 
L 82.810649 17.798437 
" clip-path="url(#p8f24ad877e)" style="fill: none; stroke: #b0b0b0; stroke-width: 0.8; stroke-linecap: square"/>
     </g>
     <g id="line2d_4">
      <g>
       <use xlink:href="#m1f483af5f5" x="82.810649" y="237.726437" style="stroke: #000000; stroke-width: 0.8"/>
      </g>
     </g>
     <g id="text_2">
      <!-- $\mathdefault{10^{7}}$ -->
      <g transform="translate(72.250649 253.844562) scale(0.12 -0.12)">
       <defs>
        <path id="DejaVuSans-37" d="M 525 4666 
L 3525 4666 
L 3525 4397 
L 1831 0 
L 1172 0 
L 2766 4134 
L 525 4134 
L 525 4666 
z
" transform="scale(0.015625)"/>
       </defs>
       <use xlink:href="#DejaVuSans-31" transform="translate(0 0.684375)"/>
       <use xlink:href="#DejaVuSans-30" transform="translate(63.623047 0.684375)"/>
       <use xlink:href="#DejaVuSans-37" transform="translate(128.203125 38.965625) scale(0.7)"/>
      </g>
     </g>
    </g>
    <g id="xtick_3">
     <g id="line2d_5">
      <path d="M 118.659423 237.726437 
L 118.659423 17.798437 
" clip-path="url(#p8f24ad877e)" style="fill: none; stroke: #b0b0b0; stroke-width: 0.8; stroke-linecap: square"/>
     </g>
     <g id="line2d_6">
      <g>
       <use xlink:href="#m1f483af5f5" x="118.659423" y="237.726437" style="stroke: #000000; stroke-width: 0.8"/>
      </g>
     </g>
     <g id="text_3">
      <!-- $\mathdefault{10^{8}}$ -->
      <g transform="translate(108.099423 253.844562) scale(0.12 -0.12)">
       <defs>
        <path id="DejaVuSans-38" d="M 2034 2216 
Q 1584 2216 1326 1975 
Q 1069 1734 1069 1313 
Q 1069 891 1326 650 
Q 1584 409 2034 409 
Q 2484 409 2743 651 
Q 3003 894 3003 1313 
Q 3003 1734 2745 1975 
Q 2488 2216 2034 2216 
z
M 1403 2484 
Q 997 2584 770 2862 
Q 544 3141 544 3541 
Q 544 4100 942 4425 
Q 1341 4750 2034 4750 
Q 2731 4750 3128 4425 
Q 3525 4100 3525 3541 
Q 3525 3141 3298 2862 
Q 3072 2584 2669 2484 
Q 3125 2378 3379 2068 
Q 3634 1759 3634 1313 
Q 3634 634 3220 271 
Q 2806 -91 2034 -91 
Q 1263 -91 848 271 
Q 434 634 434 1313 
Q 434 1759 690 2068 
Q 947 2378 1403 2484 
z
M 1172 3481 
Q 1172 3119 1398 2916 
Q 1625 2713 2034 2713 
Q 2441 2713 2670 2916 
Q 2900 3119 2900 3481 
Q 2900 3844 2670 4047 
Q 2441 4250 2034 4250 
Q 1625 4250 1398 4047 
Q 1172 3844 1172 3481 
z
" transform="scale(0.015625)"/>
       </defs>
       <use xlink:href="#DejaVuSans-31" transform="translate(0 0.765625)"/>
       <use xlink:href="#DejaVuSans-30" transform="translate(63.623047 0.765625)"/>
       <use xlink:href="#DejaVuSans-38" transform="translate(128.203125 39.046875) scale(0.7)"/>
      </g>
     </g>
    </g>
    <g id="xtick_4">
     <g id="line2d_7">
      <path d="M 154.508196 237.726437 
L 154.508196 17.798437 
" clip-path="url(#p8f24ad877e)" style="fill: none; stroke: #b0b0b0; stroke-width: 0.8; stroke-linecap: square"/>
     </g>
     <g id="line2d_8">
      <g>
       <use xlink:href="#m1f483af5f5" x="154.508196" y="237.726437" style="stroke: #000000; stroke-width: 0.8"/>
      </g>
     </g>
     <g id="text_4">
      <!-- $\mathdefault{10^{9}}$ -->
      <g transform="translate(143.948196 253.844562) scale(0.12 -0.12)">
       <defs>
        <path id="DejaVuSans-39" d="M 703 97 
L 703 672 
Q 941 559 1184 500 
Q 1428 441 1663 441 
Q 2288 441 2617 861 
Q 2947 1281 2994 2138 
Q 2813 1869 2534 1725 
Q 2256 1581 1919 1581 
Q 1219 1581 811 2004 
Q 403 2428 403 3163 
Q 403 3881 828 4315 
Q 1253 4750 1959 4750 
Q 2769 4750 3195 4129 
Q 3622 3509 3622 2328 
Q 3622 1225 3098 567 
Q 2575 -91 1691 -91 
Q 1453 -91 1209 -44 
Q 966 3 703 97 
z
M 1959 2075 
Q 2384 2075 2632 2365 
Q 2881 2656 2881 3163 
Q 2881 3666 2632 3958 
Q 2384 4250 1959 4250 
Q 1534 4250 1286 3958 
Q 1038 3666 1038 3163 
Q 1038 2656 1286 2365 
Q 1534 2075 1959 2075 
z
" transform="scale(0.015625)"/>
       </defs>
       <use xlink:href="#DejaVuSans-31" transform="translate(0 0.765625)"/>
       <use xlink:href="#DejaVuSans-30" transform="translate(63.623047 0.765625)"/>
       <use xlink:href="#DejaVuSans-39" transform="translate(128.203125 39.046875) scale(0.7)"/>
      </g>
     </g>
    </g>
    <g id="xtick_5">
     <g id="line2d_9">
      <defs>
       <path id="m1a06554514" d="M 0 0 
L 0 2 
" style="stroke: #000000; stroke-width: 0.6"/>
      </defs>
      <g>
       <use xlink:href="#m1a06554514" x="57.753431" y="237.726437" style="stroke: #000000; stroke-width: 0.6"/>
      </g>
     </g>
    </g>
    <g id="xtick_6">
     <g id="line2d_10">
      <g>
       <use xlink:href="#m1a06554514" x="64.066087" y="237.726437" style="stroke: #000000; stroke-width: 0.6"/>
      </g>
     </g>
    </g>
    <g id="xtick_7">
     <g id="line2d_11">
      <g>
       <use xlink:href="#m1a06554514" x="68.544987" y="237.726437" style="stroke: #000000; stroke-width: 0.6"/>
      </g>
     </g>
    </g>
    <g id="xtick_8">
     <g id="line2d_12">
      <g>
       <use xlink:href="#m1a06554514" x="72.019093" y="237.726437" style="stroke: #000000; stroke-width: 0.6"/>
      </g>
     </g>
    </g>
    <g id="xtick_9">
     <g id="line2d_13">
      <g>
       <use xlink:href="#m1a06554514" x="74.857643" y="237.726437" style="stroke: #000000; stroke-width: 0.6"/>
      </g>
     </g>
    </g>
    <g id="xtick_10">
     <g id="line2d_14">
      <g>
       <use xlink:href="#m1a06554514" x="77.257603" y="237.726437" style="stroke: #000000; stroke-width: 0.6"/>
      </g>
     </g>
    </g>
    <g id="xtick_11">
     <g id="line2d_15">
      <g>
       <use xlink:href="#m1a06554514" x="79.336544" y="237.726437" style="stroke: #000000; stroke-width: 0.6"/>
      </g>
     </g>
    </g>
    <g id="xtick_12">
     <g id="line2d_16">
      <g>
       <use xlink:href="#m1a06554514" x="81.170299" y="237.726437" style="stroke: #000000; stroke-width: 0.6"/>
      </g>
     </g>
    </g>
    <g id="xtick_13">
     <g id="line2d_17">
      <g>
       <use xlink:href="#m1a06554514" x="93.602205" y="237.726437" style="stroke: #000000; stroke-width: 0.6"/>
      </g>
     </g>
    </g>
    <g id="xtick_14">
     <g id="line2d_18">
      <g>
       <use xlink:href="#m1a06554514" x="99.914861" y="237.726437" style="stroke: #000000; stroke-width: 0.6"/>
      </g>
     </g>
    </g>
    <g id="xtick_15">
     <g id="line2d_19">
      <g>
       <use xlink:href="#m1a06554514" x="104.393761" y="237.726437" style="stroke: #000000; stroke-width: 0.6"/>
      </g>
     </g>
    </g>
    <g id="xtick_16">
     <g id="line2d_20">
      <g>
       <use xlink:href="#m1a06554514" x="107.867866" y="237.726437" style="stroke: #000000; stroke-width: 0.6"/>
      </g>
     </g>
    </g>
    <g id="xtick_17">
     <g id="line2d_21">
      <g>
       <use xlink:href="#m1a06554514" x="110.706417" y="237.726437" style="stroke: #000000; stroke-width: 0.6"/>
      </g>
     </g>
    </g>
    <g id="xtick_18">
     <g id="line2d_22">
      <g>
       <use xlink:href="#m1a06554514" x="113.106377" y="237.726437" style="stroke: #000000; stroke-width: 0.6"/>
      </g>
     </g>
    </g>
    <g id="xtick_19">
     <g id="line2d_23">
      <g>
       <use xlink:href="#m1a06554514" x="115.185317" y="237.726437" style="stroke: #000000; stroke-width: 0.6"/>
      </g>
     </g>
    </g>
    <g id="xtick_20">
     <g id="line2d_24">
      <g>
       <use xlink:href="#m1a06554514" x="117.019073" y="237.726437" style="stroke: #000000; stroke-width: 0.6"/>
      </g>
     </g>
    </g>
    <g id="xtick_21">
     <g id="line2d_25">
      <g>
       <use xlink:href="#m1a06554514" x="129.450979" y="237.726437" style="stroke: #000000; stroke-width: 0.6"/>
      </g>
     </g>
    </g>
    <g id="xtick_22">
     <g id="line2d_26">
      <g>
       <use xlink:href="#m1a06554514" x="135.763634" y="237.726437" style="stroke: #000000; stroke-width: 0.6"/>
      </g>
     </g>
    </g>
    <g id="xtick_23">
     <g id="line2d_27">
      <g>
       <use xlink:href="#m1a06554514" x="140.242535" y="237.726437" style="stroke: #000000; stroke-width: 0.6"/>
      </g>
     </g>
    </g>
    <g id="xtick_24">
     <g id="line2d_28">
      <g>
       <use xlink:href="#m1a06554514" x="143.71664" y="237.726437" style="stroke: #000000; stroke-width: 0.6"/>
      </g>
     </g>
    </g>
    <g id="xtick_25">
     <g id="line2d_29">
      <g>
       <use xlink:href="#m1a06554514" x="146.555191" y="237.726437" style="stroke: #000000; stroke-width: 0.6"/>
      </g>
     </g>
    </g>
    <g id="xtick_26">
     <g id="line2d_30">
      <g>
       <use xlink:href="#m1a06554514" x="148.955151" y="237.726437" style="stroke: #000000; stroke-width: 0.6"/>
      </g>
     </g>
    </g>
    <g id="xtick_27">
     <g id="line2d_31">
      <g>
       <use xlink:href="#m1a06554514" x="151.034091" y="237.726437" style="stroke: #000000; stroke-width: 0.6"/>
      </g>
     </g>
    </g>
    <g id="xtick_28">
     <g id="line2d_32">
      <g>
       <use xlink:href="#m1a06554514" x="152.867846" y="237.726437" style="stroke: #000000; stroke-width: 0.6"/>
      </g>
     </g>
    </g>
    <g id="text_5">
     <!-- Transfer Size (bytes) -->
     <g transform="translate(49.514723 267.938625) scale(0.1 -0.1)">
      <defs>
       <path id="DejaVuSans-54" d="M -19 4666 
L 3928 4666 
L 3928 4134 
L 2272 4134 
L 2272 0 
L 1638 0 
L 1638 4134 
L -19 4134 
L -19 4666 
z
" transform="scale(0.015625)"/>
       <path id="DejaVuSans-72" d="M 2631 2963 
Q 2534 3019 2420 3045 
Q 2306 3072 2169 3072 
Q 1681 3072 1420 2755 
Q 1159 2438 1159 1844 
L 1159 0 
L 581 0 
L 581 3500 
L 1159 3500 
L 1159 2956 
Q 1341 3275 1631 3429 
Q 1922 3584 2338 3584 
Q 2397 3584 2469 3576 
Q 2541 3569 2628 3553 
L 2631 2963 
z
" transform="scale(0.015625)"/>
       <path id="DejaVuSans-61" d="M 2194 1759 
Q 1497 1759 1228 1600 
Q 959 1441 959 1056 
Q 959 750 1161 570 
Q 1363 391 1709 391 
Q 2188 391 2477 730 
Q 2766 1069 2766 1631 
L 2766 1759 
L 2194 1759 
z
M 3341 1997 
L 3341 0 
L 2766 0 
L 2766 531 
Q 2569 213 2275 61 
Q 1981 -91 1556 -91 
Q 1019 -91 701 211 
Q 384 513 384 1019 
Q 384 1609 779 1909 
Q 1175 2209 1959 2209 
L 2766 2209 
L 2766 2266 
Q 2766 2663 2505 2880 
Q 2244 3097 1772 3097 
Q 1472 3097 1187 3025 
Q 903 2953 641 2809 
L 641 3341 
Q 956 3463 1253 3523 
Q 1550 3584 1831 3584 
Q 2591 3584 2966 3190 
Q 3341 2797 3341 1997 
z
" transform="scale(0.015625)"/>
       <path id="DejaVuSans-6e" d="M 3513 2113 
L 3513 0 
L 2938 0 
L 2938 2094 
Q 2938 2591 2744 2837 
Q 2550 3084 2163 3084 
Q 1697 3084 1428 2787 
Q 1159 2491 1159 1978 
L 1159 0 
L 581 0 
L 581 3500 
L 1159 3500 
L 1159 2956 
Q 1366 3272 1645 3428 
Q 1925 3584 2291 3584 
Q 2894 3584 3203 3211 
Q 3513 2838 3513 2113 
z
" transform="scale(0.015625)"/>
       <path id="DejaVuSans-73" d="M 2834 3397 
L 2834 2853 
Q 2591 2978 2328 3040 
Q 2066 3103 1784 3103 
Q 1356 3103 1142 2972 
Q 928 2841 928 2578 
Q 928 2378 1081 2264 
Q 1234 2150 1697 2047 
L 1894 2003 
Q 2506 1872 2764 1633 
Q 3022 1394 3022 966 
Q 3022 478 2636 193 
Q 2250 -91 1575 -91 
Q 1294 -91 989 -36 
Q 684 19 347 128 
L 347 722 
Q 666 556 975 473 
Q 1284 391 1588 391 
Q 1994 391 2212 530 
Q 2431 669 2431 922 
Q 2431 1156 2273 1281 
Q 2116 1406 1581 1522 
L 1381 1569 
Q 847 1681 609 1914 
Q 372 2147 372 2553 
Q 372 3047 722 3315 
Q 1072 3584 1716 3584 
Q 2034 3584 2315 3537 
Q 2597 3491 2834 3397 
z
" transform="scale(0.015625)"/>
       <path id="DejaVuSans-66" d="M 2375 4863 
L 2375 4384 
L 1825 4384 
Q 1516 4384 1395 4259 
Q 1275 4134 1275 3809 
L 1275 3500 
L 2222 3500 
L 2222 3053 
L 1275 3053 
L 1275 0 
L 697 0 
L 697 3053 
L 147 3053 
L 147 3500 
L 697 3500 
L 697 3744 
Q 697 4328 969 4595 
Q 1241 4863 1831 4863 
L 2375 4863 
z
" transform="scale(0.015625)"/>
       <path id="DejaVuSans-65" d="M 3597 1894 
L 3597 1613 
L 953 1613 
Q 991 1019 1311 708 
Q 1631 397 2203 397 
Q 2534 397 2845 478 
Q 3156 559 3463 722 
L 3463 178 
Q 3153 47 2828 -22 
Q 2503 -91 2169 -91 
Q 1331 -91 842 396 
Q 353 884 353 1716 
Q 353 2575 817 3079 
Q 1281 3584 2069 3584 
Q 2775 3584 3186 3129 
Q 3597 2675 3597 1894 
z
M 3022 2063 
Q 3016 2534 2758 2815 
Q 2500 3097 2075 3097 
Q 1594 3097 1305 2825 
Q 1016 2553 972 2059 
L 3022 2063 
z
" transform="scale(0.015625)"/>
       <path id="DejaVuSans-20" transform="scale(0.015625)"/>
       <path id="DejaVuSans-53" d="M 3425 4513 
L 3425 3897 
Q 3066 4069 2747 4153 
Q 2428 4238 2131 4238 
Q 1616 4238 1336 4038 
Q 1056 3838 1056 3469 
Q 1056 3159 1242 3001 
Q 1428 2844 1947 2747 
L 2328 2669 
Q 3034 2534 3370 2195 
Q 3706 1856 3706 1288 
Q 3706 609 3251 259 
Q 2797 -91 1919 -91 
Q 1588 -91 1214 -16 
Q 841 59 441 206 
L 441 856 
Q 825 641 1194 531 
Q 1563 422 1919 422 
Q 2459 422 2753 634 
Q 3047 847 3047 1241 
Q 3047 1584 2836 1778 
Q 2625 1972 2144 2069 
L 1759 2144 
Q 1053 2284 737 2584 
Q 422 2884 422 3419 
Q 422 4038 858 4394 
Q 1294 4750 2059 4750 
Q 2388 4750 2728 4690 
Q 3069 4631 3425 4513 
z
" transform="scale(0.015625)"/>
       <path id="DejaVuSans-69" d="M 603 3500 
L 1178 3500 
L 1178 0 
L 603 0 
L 603 3500 
z
M 603 4863 
L 1178 4863 
L 1178 4134 
L 603 4134 
L 603 4863 
z
" transform="scale(0.015625)"/>
       <path id="DejaVuSans-7a" d="M 353 3500 
L 3084 3500 
L 3084 2975 
L 922 459 
L 3084 459 
L 3084 0 
L 275 0 
L 275 525 
L 2438 3041 
L 353 3041 
L 353 3500 
z
" transform="scale(0.015625)"/>
       <path id="DejaVuSans-28" d="M 1984 4856 
Q 1566 4138 1362 3434 
Q 1159 2731 1159 2009 
Q 1159 1288 1364 580 
Q 1569 -128 1984 -844 
L 1484 -844 
Q 1016 -109 783 600 
Q 550 1309 550 2009 
Q 550 2706 781 3412 
Q 1013 4119 1484 4856 
L 1984 4856 
z
" transform="scale(0.015625)"/>
       <path id="DejaVuSans-62" d="M 3116 1747 
Q 3116 2381 2855 2742 
Q 2594 3103 2138 3103 
Q 1681 3103 1420 2742 
Q 1159 2381 1159 1747 
Q 1159 1113 1420 752 
Q 1681 391 2138 391 
Q 2594 391 2855 752 
Q 3116 1113 3116 1747 
z
M 1159 2969 
Q 1341 3281 1617 3432 
Q 1894 3584 2278 3584 
Q 2916 3584 3314 3078 
Q 3713 2572 3713 1747 
Q 3713 922 3314 415 
Q 2916 -91 2278 -91 
Q 1894 -91 1617 61 
Q 1341 213 1159 525 
L 1159 0 
L 581 0 
L 581 4863 
L 1159 4863 
L 1159 2969 
z
" transform="scale(0.015625)"/>
       <path id="DejaVuSans-79" d="M 2059 -325 
Q 1816 -950 1584 -1140 
Q 1353 -1331 966 -1331 
L 506 -1331 
L 506 -850 
L 844 -850 
Q 1081 -850 1212 -737 
Q 1344 -625 1503 -206 
L 1606 56 
L 191 3500 
L 800 3500 
L 1894 763 
L 2988 3500 
L 3597 3500 
L 2059 -325 
z
" transform="scale(0.015625)"/>
       <path id="DejaVuSans-74" d="M 1172 4494 
L 1172 3500 
L 2356 3500 
L 2356 3053 
L 1172 3053 
L 1172 1153 
Q 1172 725 1289 603 
Q 1406 481 1766 481 
L 2356 481 
L 2356 0 
L 1766 0 
Q 1100 0 847 248 
Q 594 497 594 1153 
L 594 3053 
L 172 3053 
L 172 3500 
L 594 3500 
L 594 4494 
L 1172 4494 
z
" transform="scale(0.015625)"/>
       <path id="DejaVuSans-29" d="M 513 4856 
L 1013 4856 
Q 1481 4119 1714 3412 
Q 1947 2706 1947 2009 
Q 1947 1309 1714 600 
Q 1481 -109 1013 -844 
L 513 -844 
Q 928 -128 1133 580 
Q 1338 1288 1338 2009 
Q 1338 2731 1133 3434 
Q 928 4138 513 4856 
z
" transform="scale(0.015625)"/>
      </defs>
      <use xlink:href="#DejaVuSans-54"/>
      <use xlink:href="#DejaVuSans-72" x="46.333984"/>
      <use xlink:href="#DejaVuSans-61" x="87.447266"/>
      <use xlink:href="#DejaVuSans-6e" x="148.726562"/>
      <use xlink:href="#DejaVuSans-73" x="212.105469"/>
      <use xlink:href="#DejaVuSans-66" x="264.205078"/>
      <use xlink:href="#DejaVuSans-65" x="299.410156"/>
      <use xlink:href="#DejaVuSans-72" x="360.933594"/>
      <use xlink:href="#DejaVuSans-20" x="402.046875"/>
      <use xlink:href="#DejaVuSans-53" x="433.833984"/>
      <use xlink:href="#DejaVuSans-69" x="497.310547"/>
      <use xlink:href="#DejaVuSans-7a" x="525.09375"/>
      <use xlink:href="#DejaVuSans-65" x="577.583984"/>
      <use xlink:href="#DejaVuSans-20" x="639.107422"/>
      <use xlink:href="#DejaVuSans-28" x="670.894531"/>
      <use xlink:href="#DejaVuSans-62" x="709.908203"/>
      <use xlink:href="#DejaVuSans-79" x="773.384766"/>
      <use xlink:href="#DejaVuSans-74" x="832.564453"/>
      <use xlink:href="#DejaVuSans-65" x="871.773438"/>
      <use xlink:href="#DejaVuSans-73" x="933.296875"/>
      <use xlink:href="#DejaVuSans-29" x="985.396484"/>
     </g>
    </g>
   </g>
   <g id="matplotlib.axis_2">
    <g id="ytick_1">
     <g id="line2d_33">
      <path d="M 46.961875 227.72971 
L 154.508196 227.72971 
" clip-path="url(#p8f24ad877e)" style="fill: none; stroke: #b0b0b0; stroke-width: 0.8; stroke-linecap: square"/>
     </g>
     <g id="line2d_34">
      <defs>
       <path id="mc25ea26811" d="M 0 0 
L -3.5 0 
" style="stroke: #000000; stroke-width: 0.8"/>
      </defs>
      <g>
       <use xlink:href="#mc25ea26811" x="46.961875" y="227.72971" style="stroke: #000000; stroke-width: 0.8"/>
      </g>
     </g>
     <g id="text_6">
      <!-- 0.0 -->
      <g transform="translate(20.878125 232.288773) scale(0.12 -0.12)">
       <defs>
        <path id="DejaVuSans-2e" d="M 684 794 
L 1344 794 
L 1344 0 
L 684 0 
L 684 794 
z
" transform="scale(0.015625)"/>
       </defs>
       <use xlink:href="#DejaVuSans-30"/>
       <use xlink:href="#DejaVuSans-2e" x="63.623047"/>
       <use xlink:href="#DejaVuSans-30" x="95.410156"/>
      </g>
     </g>
    </g>
    <g id="ytick_2">
     <g id="line2d_35">
      <path d="M 46.961875 180.369134 
L 154.508196 180.369134 
" clip-path="url(#p8f24ad877e)" style="fill: none; stroke: #b0b0b0; stroke-width: 0.8; stroke-linecap: square"/>
     </g>
     <g id="line2d_36">
      <g>
       <use xlink:href="#mc25ea26811" x="46.961875" y="180.369134" style="stroke: #000000; stroke-width: 0.8"/>
      </g>
     </g>
     <g id="text_7">
      <!-- 0.5 -->
      <g transform="translate(20.878125 184.928196) scale(0.12 -0.12)">
       <defs>
        <path id="DejaVuSans-35" d="M 691 4666 
L 3169 4666 
L 3169 4134 
L 1269 4134 
L 1269 2991 
Q 1406 3038 1543 3061 
Q 1681 3084 1819 3084 
Q 2600 3084 3056 2656 
Q 3513 2228 3513 1497 
Q 3513 744 3044 326 
Q 2575 -91 1722 -91 
Q 1428 -91 1123 -41 
Q 819 9 494 109 
L 494 744 
Q 775 591 1075 516 
Q 1375 441 1709 441 
Q 2250 441 2565 725 
Q 2881 1009 2881 1497 
Q 2881 1984 2565 2268 
Q 2250 2553 1709 2553 
Q 1456 2553 1204 2497 
Q 953 2441 691 2322 
L 691 4666 
z
" transform="scale(0.015625)"/>
       </defs>
       <use xlink:href="#DejaVuSans-30"/>
       <use xlink:href="#DejaVuSans-2e" x="63.623047"/>
       <use xlink:href="#DejaVuSans-35" x="95.410156"/>
      </g>
     </g>
    </g>
    <g id="ytick_3">
     <g id="line2d_37">
      <path d="M 46.961875 133.008557 
L 154.508196 133.008557 
" clip-path="url(#p8f24ad877e)" style="fill: none; stroke: #b0b0b0; stroke-width: 0.8; stroke-linecap: square"/>
     </g>
     <g id="line2d_38">
      <g>
       <use xlink:href="#mc25ea26811" x="46.961875" y="133.008557" style="stroke: #000000; stroke-width: 0.8"/>
      </g>
     </g>
     <g id="text_8">
      <!-- 1.0 -->
      <g transform="translate(20.878125 137.56762) scale(0.12 -0.12)">
       <use xlink:href="#DejaVuSans-31"/>
       <use xlink:href="#DejaVuSans-2e" x="63.623047"/>
       <use xlink:href="#DejaVuSans-30" x="95.410156"/>
      </g>
     </g>
    </g>
    <g id="ytick_4">
     <g id="line2d_39">
      <path d="M 46.961875 85.647981 
L 154.508196 85.647981 
" clip-path="url(#p8f24ad877e)" style="fill: none; stroke: #b0b0b0; stroke-width: 0.8; stroke-linecap: square"/>
     </g>
     <g id="line2d_40">
      <g>
       <use xlink:href="#mc25ea26811" x="46.961875" y="85.647981" style="stroke: #000000; stroke-width: 0.8"/>
      </g>
     </g>
     <g id="text_9">
      <!-- 1.5 -->
      <g transform="translate(20.878125 90.207044) scale(0.12 -0.12)">
       <use xlink:href="#DejaVuSans-31"/>
       <use xlink:href="#DejaVuSans-2e" x="63.623047"/>
       <use xlink:href="#DejaVuSans-35" x="95.410156"/>
      </g>
     </g>
    </g>
    <g id="ytick_5">
     <g id="line2d_41">
      <path d="M 46.961875 38.287405 
L 154.508196 38.287405 
" clip-path="url(#p8f24ad877e)" style="fill: none; stroke: #b0b0b0; stroke-width: 0.8; stroke-linecap: square"/>
     </g>
     <g id="line2d_42">
      <g>
       <use xlink:href="#mc25ea26811" x="46.961875" y="38.287405" style="stroke: #000000; stroke-width: 0.8"/>
      </g>
     </g>
     <g id="text_10">
      <!-- 2.0 -->
      <g transform="translate(20.878125 42.846467) scale(0.12 -0.12)">
       <defs>
        <path id="DejaVuSans-32" d="M 1228 531 
L 3431 531 
L 3431 0 
L 469 0 
L 469 531 
Q 828 903 1448 1529 
Q 2069 2156 2228 2338 
Q 2531 2678 2651 2914 
Q 2772 3150 2772 3378 
Q 2772 3750 2511 3984 
Q 2250 4219 1831 4219 
Q 1534 4219 1204 4116 
Q 875 4013 500 3803 
L 500 4441 
Q 881 4594 1212 4672 
Q 1544 4750 1819 4750 
Q 2544 4750 2975 4387 
Q 3406 4025 3406 3419 
Q 3406 3131 3298 2873 
Q 3191 2616 2906 2266 
Q 2828 2175 2409 1742 
Q 1991 1309 1228 531 
z
" transform="scale(0.015625)"/>
       </defs>
       <use xlink:href="#DejaVuSans-32"/>
       <use xlink:href="#DejaVuSans-2e" x="63.623047"/>
       <use xlink:href="#DejaVuSans-30" x="95.410156"/>
      </g>
     </g>
    </g>
    <g id="text_11">
     <!-- PCIRX -->
     <g transform="translate(14.798438 142.642906) rotate(-90) scale(0.1 -0.1)">
      <defs>
       <path id="DejaVuSans-50" d="M 1259 4147 
L 1259 2394 
L 2053 2394 
Q 2494 2394 2734 2622 
Q 2975 2850 2975 3272 
Q 2975 3691 2734 3919 
Q 2494 4147 2053 4147 
L 1259 4147 
z
M 628 4666 
L 2053 4666 
Q 2838 4666 3239 4311 
Q 3641 3956 3641 3272 
Q 3641 2581 3239 2228 
Q 2838 1875 2053 1875 
L 1259 1875 
L 1259 0 
L 628 0 
L 628 4666 
z
" transform="scale(0.015625)"/>
       <path id="DejaVuSans-43" d="M 4122 4306 
L 4122 3641 
Q 3803 3938 3442 4084 
Q 3081 4231 2675 4231 
Q 1875 4231 1450 3742 
Q 1025 3253 1025 2328 
Q 1025 1406 1450 917 
Q 1875 428 2675 428 
Q 3081 428 3442 575 
Q 3803 722 4122 1019 
L 4122 359 
Q 3791 134 3420 21 
Q 3050 -91 2638 -91 
Q 1578 -91 968 557 
Q 359 1206 359 2328 
Q 359 3453 968 4101 
Q 1578 4750 2638 4750 
Q 3056 4750 3426 4639 
Q 3797 4528 4122 4306 
z
" transform="scale(0.015625)"/>
       <path id="DejaVuSans-49" d="M 628 4666 
L 1259 4666 
L 1259 0 
L 628 0 
L 628 4666 
z
" transform="scale(0.015625)"/>
       <path id="DejaVuSans-52" d="M 2841 2188 
Q 3044 2119 3236 1894 
Q 3428 1669 3622 1275 
L 4263 0 
L 3584 0 
L 2988 1197 
Q 2756 1666 2539 1819 
Q 2322 1972 1947 1972 
L 1259 1972 
L 1259 0 
L 628 0 
L 628 4666 
L 2053 4666 
Q 2853 4666 3247 4331 
Q 3641 3997 3641 3322 
Q 3641 2881 3436 2590 
Q 3231 2300 2841 2188 
z
M 1259 4147 
L 1259 2491 
L 2053 2491 
Q 2509 2491 2742 2702 
Q 2975 2913 2975 3322 
Q 2975 3731 2742 3939 
Q 2509 4147 2053 4147 
L 1259 4147 
z
" transform="scale(0.015625)"/>
       <path id="DejaVuSans-58" d="M 403 4666 
L 1081 4666 
L 2241 2931 
L 3406 4666 
L 4084 4666 
L 2584 2425 
L 4184 0 
L 3506 0 
L 2194 1984 
L 872 0 
L 191 0 
L 1856 2491 
L 403 4666 
z
" transform="scale(0.015625)"/>
      </defs>
      <use xlink:href="#DejaVuSans-50"/>
      <use xlink:href="#DejaVuSans-43" x="60.302734"/>
      <use xlink:href="#DejaVuSans-49" x="130.126953"/>
      <use xlink:href="#DejaVuSans-52" x="159.619141"/>
      <use xlink:href="#DejaVuSans-58" x="229.101562"/>
     </g>
    </g>
    <g id="text_12">
     <!-- 1e10 -->
     <g transform="translate(46.961875 14.798437) scale(0.1 -0.1)">
      <use xlink:href="#DejaVuSans-31"/>
      <use xlink:href="#DejaVuSans-65" x="63.623047"/>
      <use xlink:href="#DejaVuSans-31" x="125.146484"/>
      <use xlink:href="#DejaVuSans-30" x="188.769531"/>
     </g>
    </g>
   </g>
   <g id="line2d_43">
    <path d="M 47.700357 227.560579 
L 58.491913 227.58129 
L 69.283469 227.564318 
L 80.075025 227.564425 
L 90.866581 227.563429 
L 101.658138 227.56387 
L 112.449694 227.558987 
L 123.24125 227.57053 
L 134.032806 227.544126 
L 144.824363 227.550973 
" clip-path="url(#p8f24ad877e)" style="fill: none; stroke: #1f77b4; stroke-width: 2.2; stroke-linecap: square"/>
    <defs>
     <path id="m5f856028e5" d="M 0 3 
C 0.795609 3 1.55874 2.683901 2.12132 2.12132 
C 2.683901 1.55874 3 0.795609 3 0 
C 3 -0.795609 2.683901 -1.55874 2.12132 -2.12132 
C 1.55874 -2.683901 0.795609 -3 0 -3 
C -0.795609 -3 -1.55874 -2.683901 -2.12132 -2.12132 
C -2.683901 -1.55874 -3 -0.795609 -3 0 
C -3 0.795609 -2.683901 1.55874 -2.12132 2.12132 
C -1.55874 2.683901 -0.795609 3 0 3 
z
" style="stroke: #ffffff; stroke-width: 0.75"/>
    </defs>
    <g clip-path="url(#p8f24ad877e)">
     <use xlink:href="#m5f856028e5" x="47.700357" y="227.560579" style="fill: #1f77b4; stroke: #ffffff; stroke-width: 0.75"/>
     <use xlink:href="#m5f856028e5" x="58.491913" y="227.58129" style="fill: #1f77b4; stroke: #ffffff; stroke-width: 0.75"/>
     <use xlink:href="#m5f856028e5" x="69.283469" y="227.564318" style="fill: #1f77b4; stroke: #ffffff; stroke-width: 0.75"/>
     <use xlink:href="#m5f856028e5" x="80.075025" y="227.564425" style="fill: #1f77b4; stroke: #ffffff; stroke-width: 0.75"/>
     <use xlink:href="#m5f856028e5" x="90.866581" y="227.563429" style="fill: #1f77b4; stroke: #ffffff; stroke-width: 0.75"/>
     <use xlink:href="#m5f856028e5" x="101.658138" y="227.56387" style="fill: #1f77b4; stroke: #ffffff; stroke-width: 0.75"/>
     <use xlink:href="#m5f856028e5" x="112.449694" y="227.558987" style="fill: #1f77b4; stroke: #ffffff; stroke-width: 0.75"/>
     <use xlink:href="#m5f856028e5" x="123.24125" y="227.57053" style="fill: #1f77b4; stroke: #ffffff; stroke-width: 0.75"/>
     <use xlink:href="#m5f856028e5" x="134.032806" y="227.544126" style="fill: #1f77b4; stroke: #ffffff; stroke-width: 0.75"/>
     <use xlink:href="#m5f856028e5" x="144.824363" y="227.550973" style="fill: #1f77b4; stroke: #ffffff; stroke-width: 0.75"/>
    </g>
   </g>
   <g id="line2d_44">
    <path d="M 47.700357 227.58511 
L 58.491913 227.586856 
L 69.283469 227.592335 
L 80.075025 227.60031 
L 90.866581 227.582776 
L 101.658138 227.58033 
L 112.449694 227.580538 
L 123.24125 227.583136 
L 134.032806 227.554214 
L 144.824363 227.547775 
" clip-path="url(#p8f24ad877e)" style="fill: none; stroke-dasharray: 8.14,3.52; stroke-dashoffset: 0; stroke: #62a0cb; stroke-width: 2.2"/>
    <defs>
     <path id="m8ddbf7abac" d="M 0 3 
C 0.795609 3 1.55874 2.683901 2.12132 2.12132 
C 2.683901 1.55874 3 0.795609 3 0 
C 3 -0.795609 2.683901 -1.55874 2.12132 -2.12132 
C 1.55874 -2.683901 0.795609 -3 0 -3 
C -0.795609 -3 -1.55874 -2.683901 -2.12132 -2.12132 
C -2.683901 -1.55874 -3 -0.795609 -3 0 
C -3 0.795609 -2.683901 1.55874 -2.12132 2.12132 
C -1.55874 2.683901 -0.795609 3 0 3 
z
" style="stroke: #ffffff; stroke-width: 0.75"/>
    </defs>
    <g clip-path="url(#p8f24ad877e)">
     <use xlink:href="#m8ddbf7abac" x="47.700357" y="227.58511" style="fill: #62a0cb; stroke: #ffffff; stroke-width: 0.75"/>
     <use xlink:href="#m8ddbf7abac" x="58.491913" y="227.586856" style="fill: #62a0cb; stroke: #ffffff; stroke-width: 0.75"/>
     <use xlink:href="#m8ddbf7abac" x="69.283469" y="227.592335" style="fill: #62a0cb; stroke: #ffffff; stroke-width: 0.75"/>
     <use xlink:href="#m8ddbf7abac" x="80.075025" y="227.60031" style="fill: #62a0cb; stroke: #ffffff; stroke-width: 0.75"/>
     <use xlink:href="#m8ddbf7abac" x="90.866581" y="227.582776" style="fill: #62a0cb; stroke: #ffffff; stroke-width: 0.75"/>
     <use xlink:href="#m8ddbf7abac" x="101.658138" y="227.58033" style="fill: #62a0cb; stroke: #ffffff; stroke-width: 0.75"/>
     <use xlink:href="#m8ddbf7abac" x="112.449694" y="227.580538" style="fill: #62a0cb; stroke: #ffffff; stroke-width: 0.75"/>
     <use xlink:href="#m8ddbf7abac" x="123.24125" y="227.583136" style="fill: #62a0cb; stroke: #ffffff; stroke-width: 0.75"/>
     <use xlink:href="#m8ddbf7abac" x="134.032806" y="227.554214" style="fill: #62a0cb; stroke: #ffffff; stroke-width: 0.75"/>
     <use xlink:href="#m8ddbf7abac" x="144.824363" y="227.547775" style="fill: #62a0cb; stroke: #ffffff; stroke-width: 0.75"/>
    </g>
   </g>
   <g id="line2d_45">
    <path d="M 47.700357 227.606769 
L 58.491913 227.588154 
L 69.283469 227.591745 
L 80.075025 227.588271 
L 90.866581 227.597304 
L 101.658138 227.582898 
L 112.449694 227.593883 
L 123.24125 227.581885 
L 134.032806 227.583039 
L 144.824363 227.58901 
" clip-path="url(#p8f24ad877e)" style="fill: none; stroke: #ff7f0e; stroke-width: 2.2; stroke-linecap: square"/>
    <defs>
     <path id="m22b136409e" d="M 0 3 
C 0.795609 3 1.55874 2.683901 2.12132 2.12132 
C 2.683901 1.55874 3 0.795609 3 0 
C 3 -0.795609 2.683901 -1.55874 2.12132 -2.12132 
C 1.55874 -2.683901 0.795609 -3 0 -3 
C -0.795609 -3 -1.55874 -2.683901 -2.12132 -2.12132 
C -2.683901 -1.55874 -3 -0.795609 -3 0 
C -3 0.795609 -2.683901 1.55874 -2.12132 2.12132 
C -1.55874 2.683901 -0.795609 3 0 3 
z
" style="stroke: #ffffff; stroke-width: 0.75"/>
    </defs>
    <g clip-path="url(#p8f24ad877e)">
     <use xlink:href="#m22b136409e" x="47.700357" y="227.606769" style="fill: #ff7f0e; stroke: #ffffff; stroke-width: 0.75"/>
     <use xlink:href="#m22b136409e" x="58.491913" y="227.588154" style="fill: #ff7f0e; stroke: #ffffff; stroke-width: 0.75"/>
     <use xlink:href="#m22b136409e" x="69.283469" y="227.591745" style="fill: #ff7f0e; stroke: #ffffff; stroke-width: 0.75"/>
     <use xlink:href="#m22b136409e" x="80.075025" y="227.588271" style="fill: #ff7f0e; stroke: #ffffff; stroke-width: 0.75"/>
     <use xlink:href="#m22b136409e" x="90.866581" y="227.597304" style="fill: #ff7f0e; stroke: #ffffff; stroke-width: 0.75"/>
     <use xlink:href="#m22b136409e" x="101.658138" y="227.582898" style="fill: #ff7f0e; stroke: #ffffff; stroke-width: 0.75"/>
     <use xlink:href="#m22b136409e" x="112.449694" y="227.593883" style="fill: #ff7f0e; stroke: #ffffff; stroke-width: 0.75"/>
     <use xlink:href="#m22b136409e" x="123.24125" y="227.581885" style="fill: #ff7f0e; stroke: #ffffff; stroke-width: 0.75"/>
     <use xlink:href="#m22b136409e" x="134.032806" y="227.583039" style="fill: #ff7f0e; stroke: #ffffff; stroke-width: 0.75"/>
     <use xlink:href="#m22b136409e" x="144.824363" y="227.58901" style="fill: #ff7f0e; stroke: #ffffff; stroke-width: 0.75"/>
    </g>
   </g>
   <g id="line2d_46">
    <path d="M 47.700357 227.592433 
L 58.491913 227.590607 
L 69.283469 227.596053 
L 80.075025 227.592357 
L 90.866581 227.593039 
L 101.658138 227.591612 
L 112.449694 227.591323 
L 123.24125 227.595165 
L 134.032806 227.587881 
L 144.824363 227.56017 
" clip-path="url(#p8f24ad877e)" style="fill: none; stroke-dasharray: 8.14,3.52; stroke-dashoffset: 0; stroke: #ffa556; stroke-width: 2.2"/>
    <defs>
     <path id="m1fac2b6a40" d="M 0 3 
C 0.795609 3 1.55874 2.683901 2.12132 2.12132 
C 2.683901 1.55874 3 0.795609 3 0 
C 3 -0.795609 2.683901 -1.55874 2.12132 -2.12132 
C 1.55874 -2.683901 0.795609 -3 0 -3 
C -0.795609 -3 -1.55874 -2.683901 -2.12132 -2.12132 
C -2.683901 -1.55874 -3 -0.795609 -3 0 
C -3 0.795609 -2.683901 1.55874 -2.12132 2.12132 
C -1.55874 2.683901 -0.795609 3 0 3 
z
" style="stroke: #ffffff; stroke-width: 0.75"/>
    </defs>
    <g clip-path="url(#p8f24ad877e)">
     <use xlink:href="#m1fac2b6a40" x="47.700357" y="227.592433" style="fill: #ffa556; stroke: #ffffff; stroke-width: 0.75"/>
     <use xlink:href="#m1fac2b6a40" x="58.491913" y="227.590607" style="fill: #ffa556; stroke: #ffffff; stroke-width: 0.75"/>
     <use xlink:href="#m1fac2b6a40" x="69.283469" y="227.596053" style="fill: #ffa556; stroke: #ffffff; stroke-width: 0.75"/>
     <use xlink:href="#m1fac2b6a40" x="80.075025" y="227.592357" style="fill: #ffa556; stroke: #ffffff; stroke-width: 0.75"/>
     <use xlink:href="#m1fac2b6a40" x="90.866581" y="227.593039" style="fill: #ffa556; stroke: #ffffff; stroke-width: 0.75"/>
     <use xlink:href="#m1fac2b6a40" x="101.658138" y="227.591612" style="fill: #ffa556; stroke: #ffffff; stroke-width: 0.75"/>
     <use xlink:href="#m1fac2b6a40" x="112.449694" y="227.591323" style="fill: #ffa556; stroke: #ffffff; stroke-width: 0.75"/>
     <use xlink:href="#m1fac2b6a40" x="123.24125" y="227.595165" style="fill: #ffa556; stroke: #ffffff; stroke-width: 0.75"/>
     <use xlink:href="#m1fac2b6a40" x="134.032806" y="227.587881" style="fill: #ffa556; stroke: #ffffff; stroke-width: 0.75"/>
     <use xlink:href="#m1fac2b6a40" x="144.824363" y="227.56017" style="fill: #ffa556; stroke: #ffffff; stroke-width: 0.75"/>
    </g>
   </g>
   <g id="line2d_47">
    <path d="M 47.700357 224.030607 
L 58.491913 220.506358 
L 69.283469 213.434441 
L 80.075025 200.942247 
L 90.866581 176.344131 
L 101.658138 138.503294 
L 112.449694 129.623689 
L 123.24125 91.645374 
L 134.032806 90.994033 
L 144.824363 90.230118 
" clip-path="url(#p8f24ad877e)" style="fill: none; stroke: #2ca02c; stroke-width: 2.2; stroke-linecap: square"/>
    <defs>
     <path id="ma73c5e2bcd" d="M 0 3 
C 0.795609 3 1.55874 2.683901 2.12132 2.12132 
C 2.683901 1.55874 3 0.795609 3 0 
C 3 -0.795609 2.683901 -1.55874 2.12132 -2.12132 
C 1.55874 -2.683901 0.795609 -3 0 -3 
C -0.795609 -3 -1.55874 -2.683901 -2.12132 -2.12132 
C -2.683901 -1.55874 -3 -0.795609 -3 0 
C -3 0.795609 -2.683901 1.55874 -2.12132 2.12132 
C -1.55874 2.683901 -0.795609 3 0 3 
z
" style="stroke: #ffffff; stroke-width: 0.75"/>
    </defs>
    <g clip-path="url(#p8f24ad877e)">
     <use xlink:href="#ma73c5e2bcd" x="47.700357" y="224.030607" style="fill: #2ca02c; stroke: #ffffff; stroke-width: 0.75"/>
     <use xlink:href="#ma73c5e2bcd" x="58.491913" y="220.506358" style="fill: #2ca02c; stroke: #ffffff; stroke-width: 0.75"/>
     <use xlink:href="#ma73c5e2bcd" x="69.283469" y="213.434441" style="fill: #2ca02c; stroke: #ffffff; stroke-width: 0.75"/>
     <use xlink:href="#ma73c5e2bcd" x="80.075025" y="200.942247" style="fill: #2ca02c; stroke: #ffffff; stroke-width: 0.75"/>
     <use xlink:href="#ma73c5e2bcd" x="90.866581" y="176.344131" style="fill: #2ca02c; stroke: #ffffff; stroke-width: 0.75"/>
     <use xlink:href="#ma73c5e2bcd" x="101.658138" y="138.503294" style="fill: #2ca02c; stroke: #ffffff; stroke-width: 0.75"/>
     <use xlink:href="#ma73c5e2bcd" x="112.449694" y="129.623689" style="fill: #2ca02c; stroke: #ffffff; stroke-width: 0.75"/>
     <use xlink:href="#ma73c5e2bcd" x="123.24125" y="91.645374" style="fill: #2ca02c; stroke: #ffffff; stroke-width: 0.75"/>
     <use xlink:href="#ma73c5e2bcd" x="134.032806" y="90.994033" style="fill: #2ca02c; stroke: #ffffff; stroke-width: 0.75"/>
     <use xlink:href="#ma73c5e2bcd" x="144.824363" y="90.230118" style="fill: #2ca02c; stroke: #ffffff; stroke-width: 0.75"/>
    </g>
   </g>
   <g id="line2d_48"/>
   <g id="line2d_49">
    <path d="M 47.700357 227.607771 
L 58.491913 227.591927 
L 69.283469 227.592071 
L 80.075025 227.594162 
L 90.866581 227.60481 
L 101.658138 227.581546 
L 112.449694 227.591687 
L 123.24125 227.587183 
L 134.032806 227.606527 
L 144.824363 227.58778 
" clip-path="url(#p8f24ad877e)" style="fill: none; stroke: #d62728; stroke-width: 2.2; stroke-linecap: square"/>
    <defs>
     <path id="m07abfdd444" d="M 0 3 
C 0.795609 3 1.55874 2.683901 2.12132 2.12132 
C 2.683901 1.55874 3 0.795609 3 0 
C 3 -0.795609 2.683901 -1.55874 2.12132 -2.12132 
C 1.55874 -2.683901 0.795609 -3 0 -3 
C -0.795609 -3 -1.55874 -2.683901 -2.12132 -2.12132 
C -2.683901 -1.55874 -3 -0.795609 -3 0 
C -3 0.795609 -2.683901 1.55874 -2.12132 2.12132 
C -1.55874 2.683901 -0.795609 3 0 3 
z
" style="stroke: #ffffff; stroke-width: 0.75"/>
    </defs>
    <g clip-path="url(#p8f24ad877e)">
     <use xlink:href="#m07abfdd444" x="47.700357" y="227.607771" style="fill: #d62728; stroke: #ffffff; stroke-width: 0.75"/>
     <use xlink:href="#m07abfdd444" x="58.491913" y="227.591927" style="fill: #d62728; stroke: #ffffff; stroke-width: 0.75"/>
     <use xlink:href="#m07abfdd444" x="69.283469" y="227.592071" style="fill: #d62728; stroke: #ffffff; stroke-width: 0.75"/>
     <use xlink:href="#m07abfdd444" x="80.075025" y="227.594162" style="fill: #d62728; stroke: #ffffff; stroke-width: 0.75"/>
     <use xlink:href="#m07abfdd444" x="90.866581" y="227.60481" style="fill: #d62728; stroke: #ffffff; stroke-width: 0.75"/>
     <use xlink:href="#m07abfdd444" x="101.658138" y="227.581546" style="fill: #d62728; stroke: #ffffff; stroke-width: 0.75"/>
     <use xlink:href="#m07abfdd444" x="112.449694" y="227.591687" style="fill: #d62728; stroke: #ffffff; stroke-width: 0.75"/>
     <use xlink:href="#m07abfdd444" x="123.24125" y="227.587183" style="fill: #d62728; stroke: #ffffff; stroke-width: 0.75"/>
     <use xlink:href="#m07abfdd444" x="134.032806" y="227.606527" style="fill: #d62728; stroke: #ffffff; stroke-width: 0.75"/>
     <use xlink:href="#m07abfdd444" x="144.824363" y="227.58778" style="fill: #d62728; stroke: #ffffff; stroke-width: 0.75"/>
    </g>
   </g>
   <g id="line2d_50">
    <path d="M 47.700357 227.589833 
L 58.491913 227.586208 
L 69.283469 227.5901 
L 80.075025 227.587257 
L 90.866581 227.585504 
L 101.658138 227.586223 
L 112.449694 227.590444 
L 123.24125 227.588277 
L 134.032806 227.58858 
L 144.824363 227.591264 
" clip-path="url(#p8f24ad877e)" style="fill: none; stroke-dasharray: 8.14,3.52; stroke-dashoffset: 0; stroke: #e26868; stroke-width: 2.2"/>
    <defs>
     <path id="m74e76c0d3d" d="M 0 3 
C 0.795609 3 1.55874 2.683901 2.12132 2.12132 
C 2.683901 1.55874 3 0.795609 3 0 
C 3 -0.795609 2.683901 -1.55874 2.12132 -2.12132 
C 1.55874 -2.683901 0.795609 -3 0 -3 
C -0.795609 -3 -1.55874 -2.683901 -2.12132 -2.12132 
C -2.683901 -1.55874 -3 -0.795609 -3 0 
C -3 0.795609 -2.683901 1.55874 -2.12132 2.12132 
C -1.55874 2.683901 -0.795609 3 0 3 
z
" style="stroke: #ffffff; stroke-width: 0.75"/>
    </defs>
    <g clip-path="url(#p8f24ad877e)">
     <use xlink:href="#m74e76c0d3d" x="47.700357" y="227.589833" style="fill: #e26868; stroke: #ffffff; stroke-width: 0.75"/>
     <use xlink:href="#m74e76c0d3d" x="58.491913" y="227.586208" style="fill: #e26868; stroke: #ffffff; stroke-width: 0.75"/>
     <use xlink:href="#m74e76c0d3d" x="69.283469" y="227.5901" style="fill: #e26868; stroke: #ffffff; stroke-width: 0.75"/>
     <use xlink:href="#m74e76c0d3d" x="80.075025" y="227.587257" style="fill: #e26868; stroke: #ffffff; stroke-width: 0.75"/>
     <use xlink:href="#m74e76c0d3d" x="90.866581" y="227.585504" style="fill: #e26868; stroke: #ffffff; stroke-width: 0.75"/>
     <use xlink:href="#m74e76c0d3d" x="101.658138" y="227.586223" style="fill: #e26868; stroke: #ffffff; stroke-width: 0.75"/>
     <use xlink:href="#m74e76c0d3d" x="112.449694" y="227.590444" style="fill: #e26868; stroke: #ffffff; stroke-width: 0.75"/>
     <use xlink:href="#m74e76c0d3d" x="123.24125" y="227.588277" style="fill: #e26868; stroke: #ffffff; stroke-width: 0.75"/>
     <use xlink:href="#m74e76c0d3d" x="134.032806" y="227.58858" style="fill: #e26868; stroke: #ffffff; stroke-width: 0.75"/>
     <use xlink:href="#m74e76c0d3d" x="144.824363" y="227.591264" style="fill: #e26868; stroke: #ffffff; stroke-width: 0.75"/>
    </g>
   </g>
   <g id="patch_3">
    <path d="M 46.961875 237.726437 
L 46.961875 17.798437 
" style="fill: none; stroke: #000000; stroke-width: 0.8; stroke-linejoin: miter; stroke-linecap: square"/>
   </g>
   <g id="patch_4">
    <path d="M 154.508196 237.726437 
L 154.508196 17.798437 
" style="fill: none; stroke: #000000; stroke-width: 0.8; stroke-linejoin: miter; stroke-linecap: square"/>
   </g>
   <g id="patch_5">
    <path d="M 46.961875 237.726437 
L 154.508196 237.726437 
" style="fill: none; stroke: #000000; stroke-width: 0.8; stroke-linejoin: miter; stroke-linecap: square"/>
   </g>
   <g id="patch_6">
    <path d="M 46.961875 17.798437 
L 154.508196 17.798437 
" style="fill: none; stroke: #000000; stroke-width: 0.8; stroke-linejoin: miter; stroke-linecap: square"/>
   </g>
  </g>
 </g>
 <defs>
  <clipPath id="p8f24ad877e">
   <rect x="46.961875" y="17.798437" width="107.546321" height="219.928"/>
  </clipPath>
 </defs>
</svg>
