<?xml version="1.0" encoding="utf-8" standalone="no"?>
<!DOCTYPE svg PUBLIC "-//W3C//DTD SVG 1.1//EN"
  "http://www.w3.org/Graphics/SVG/1.1/DTD/svg11.dtd">
<svg xmlns:xlink="http://www.w3.org/1999/xlink" width="185.60375pt" height="214.9475pt" viewBox="0 0 185.60375 214.9475" xmlns="http://www.w3.org/2000/svg" version="1.1">
 <metadata>
  <rdf:RDF xmlns:dc="http://purl.org/dc/elements/1.1/" xmlns:cc="http://creativecommons.org/ns#" xmlns:rdf="http://www.w3.org/1999/02/22-rdf-syntax-ns#">
   <cc:Work>
    <dc:type rdf:resource="http://purl.org/dc/dcmitype/StillImage"/>
    <dc:date>2024-08-12T16:11:45.840126</dc:date>
    <dc:format>image/svg+xml</dc:format>
    <dc:creator>
     <cc:Agent>
      <dc:title>Matplotlib v3.8.3, https://matplotlib.org/</dc:title>
     </cc:Agent>
    </dc:creator>
   </cc:Work>
  </rdf:RDF>
 </metadata>
 <defs>
  <style type="text/css">*{stroke-linejoin: round; stroke-linecap: butt}</style>
 </defs>
 <g id="figure_1">
  <g id="patch_1">
   <path d="M 0 214.9475 
L 185.60375 214.9475 
L 185.60375 0 
L 0 0 
z
" style="fill: #ffffff"/>
  </g>
  <g id="axes_1">
   <g id="patch_2">
    <path d="M 45.08375 173.52 
L 167.84375 173.52 
L 167.84375 7.2 
L 45.08375 7.2 
z
" style="fill: #ffffff"/>
   </g>
   <g id="PolyCollection_1">
    <defs>
     <path id="m4485803efe" d="M 45.08375 -48.987539 
L 45.08375 -48.987519 
L 51.591684 -48.987833 
L 56.610887 -48.98839 
L 60.716936 -48.98942 
L 64.822986 -48.991572 
L 68.929035 -48.995749 
L 73.035084 -49.004051 
L 77.141133 -49.019307 
L 81.247182 -49.050726 
L 85.353231 -49.111474 
L 89.45928 -49.221122 
L 93.56533 -49.401814 
L 97.671379 -49.727749 
L 101.777428 -50.379758 
L 105.883477 -51.638011 
L 109.989526 -53.56518 
L 114.095575 -57.434141 
L 118.201624 -61.47793 
L 122.307674 -59.90416 
L 126.413723 -71.970496 
L 130.519772 -82.126281 
L 134.625821 -90.551516 
L 138.73187 -94.974891 
L 142.837919 -98.106561 
L 146.943968 -99.699433 
L 151.050018 -100.552538 
L 155.156067 -100.870342 
L 159.262116 -101.083587 
L 163.368165 -101.402403 
L 167.474214 -101.970971 
L 167.474214 -102.000034 
L 167.474214 -102.000034 
L 163.368165 -101.424161 
L 159.262116 -101.088088 
L 155.156067 -100.89011 
L 151.050018 -100.575776 
L 146.943968 -99.816703 
L 142.837919 -98.117454 
L 138.73187 -95.231727 
L 134.625821 -90.558 
L 130.519772 -82.142736 
L 126.413723 -72.2547 
L 122.307674 -59.937003 
L 118.201624 -61.489769 
L 114.095575 -58.175432 
L 109.989526 -53.832904 
L 105.883477 -51.728628 
L 101.777428 -50.385143 
L 97.671379 -49.754962 
L 93.56533 -49.410865 
L 89.45928 -49.229113 
L 85.353231 -49.114808 
L 81.247182 -49.053677 
L 77.141133 -49.019834 
L 73.035084 -49.004112 
L 68.929035 -48.996046 
L 64.822986 -48.99161 
L 60.716936 -48.989518 
L 56.610887 -48.988436 
L 51.591684 -48.987865 
L 45.08375 -48.987539 
z
" style="stroke: #1f77b4; stroke-opacity: 0.2"/>
    </defs>
    <g clip-path="url(#p0a7a849dd9)">
     <use xlink:href="#m4485803efe" x="0" y="214.9475" style="fill: #1f77b4; fill-opacity: 0.2; stroke: #1f77b4; stroke-opacity: 0.2"/>
    </g>
   </g>
   <g id="PolyCollection_2"/>
   <g id="PolyCollection_3">
    <defs>
     <path id="m3d46676374" d="M 45.08375 -48.987683 
L 45.08375 -48.987679 
L 51.591684 -48.988279 
L 56.610887 -48.989497 
L 60.716936 -48.991616 
L 64.822986 -48.995854 
L 68.929035 -49.003961 
L 73.035084 -49.015666 
L 77.141133 -49.037886 
L 81.247182 -49.107885 
L 85.353231 -49.224446 
L 89.45928 -49.457874 
L 93.56533 -49.829031 
L 97.671379 -50.506429 
L 101.777428 -51.476263 
L 105.883477 -53.222867 
L 109.989526 -56.153893 
L 114.095575 -59.209564 
L 118.201624 -62.01339 
L 122.307674 -63.535785 
L 126.413723 -65.220529 
L 130.519772 -66.994275 
L 134.625821 -68.574251 
L 138.73187 -68.559336 
L 142.837919 -66.608422 
L 146.943968 -64.72386 
L 151.050018 -61.254396 
L 155.156067 -61.719508 
L 159.262116 -62.34164 
L 163.368165 -62.499364 
L 167.474214 -62.595781 
L 167.474214 -62.609142 
L 167.474214 -62.609142 
L 163.368165 -62.527258 
L 159.262116 -62.369213 
L 155.156067 -61.857497 
L 151.050018 -61.522572 
L 146.943968 -66.211679 
L 142.837919 -69.141348 
L 138.73187 -69.38515 
L 134.625821 -68.747845 
L 130.519772 -67.068613 
L 126.413723 -65.619342 
L 122.307674 -63.853473 
L 118.201624 -62.14248 
L 114.095575 -59.340339 
L 109.989526 -56.232808 
L 105.883477 -53.264063 
L 101.777428 -51.491787 
L 97.671379 -50.507038 
L 93.56533 -49.849648 
L 89.45928 -49.461073 
L 85.353231 -49.225078 
L 81.247182 -49.107936 
L 77.141133 -49.040741 
L 73.035084 -49.016895 
L 68.929035 -49.004042 
L 64.822986 -48.995918 
L 60.716936 -48.991623 
L 56.610887 -48.989511 
L 51.591684 -48.988281 
L 45.08375 -48.987683 
z
" style="stroke: #2ca02c; stroke-opacity: 0.2"/>
    </defs>
    <g clip-path="url(#p0a7a849dd9)">
     <use xlink:href="#m3d46676374" x="0" y="214.9475" style="fill: #2ca02c; fill-opacity: 0.2; stroke: #2ca02c; stroke-opacity: 0.2"/>
    </g>
   </g>
   <g id="PolyCollection_4"/>
   <g id="PolyCollection_5"/>
   <g id="PolyCollection_6"/>
   <g id="matplotlib.axis_1">
    <g id="xtick_1">
     <g id="line2d_1">
      <path d="M 45.08375 173.52 
L 45.08375 7.2 
" clip-path="url(#p0a7a849dd9)" style="fill: none; stroke-dasharray: 2.96,1.28; stroke-dashoffset: 0; stroke: #b0b0b0; stroke-width: 0.8"/>
     </g>
     <g id="line2d_2">
      <defs>
       <path id="m825819899f" d="M 0 0 
L 0 3.5 
" style="stroke: #000000; stroke-width: 0.8"/>
      </defs>
      <g>
       <use xlink:href="#m825819899f" x="45.08375" y="173.52" style="stroke: #000000; stroke-width: 0.8"/>
      </g>
     </g>
     <g id="text_1">
      <!-- $\mathdefault{10^{0}}$ -->
      <g transform="translate(34.52375 189.638125) scale(0.12 -0.12)">
       <defs>
        <path id="DejaVuSans-31" d="M 794 531 
L 1825 531 
L 1825 4091 
L 703 3866 
L 703 4441 
L 1819 4666 
L 2450 4666 
L 2450 531 
L 3481 531 
L 3481 0 
L 794 0 
L 794 531 
z
" transform="scale(0.015625)"/>
        <path id="DejaVuSans-30" d="M 2034 4250 
Q 1547 4250 1301 3770 
Q 1056 3291 1056 2328 
Q 1056 1369 1301 889 
Q 1547 409 2034 409 
Q 2525 409 2770 889 
Q 3016 1369 3016 2328 
Q 3016 3291 2770 3770 
Q 2525 4250 2034 4250 
z
M 2034 4750 
Q 2819 4750 3233 4129 
Q 3647 3509 3647 2328 
Q 3647 1150 3233 529 
Q 2819 -91 2034 -91 
Q 1250 -91 836 529 
Q 422 1150 422 2328 
Q 422 3509 836 4129 
Q 1250 4750 2034 4750 
z
" transform="scale(0.015625)"/>
       </defs>
       <use xlink:href="#DejaVuSans-31" transform="translate(0 0.765625)"/>
       <use xlink:href="#DejaVuSans-30" transform="translate(63.623047 0.765625)"/>
       <use xlink:href="#DejaVuSans-30" transform="translate(128.203125 39.046875) scale(0.7)"/>
      </g>
     </g>
    </g>
    <g id="xtick_2">
     <g id="line2d_3">
      <path d="M 86.00375 173.52 
L 86.00375 7.2 
" clip-path="url(#p0a7a849dd9)" style="fill: none; stroke-dasharray: 2.96,1.28; stroke-dashoffset: 0; stroke: #b0b0b0; stroke-width: 0.8"/>
     </g>
     <g id="line2d_4">
      <g>
       <use xlink:href="#m825819899f" x="86.00375" y="173.52" style="stroke: #000000; stroke-width: 0.8"/>
      </g>
     </g>
     <g id="text_2">
      <!-- $\mathdefault{10^{3}}$ -->
      <g transform="translate(75.44375 189.638125) scale(0.12 -0.12)">
       <defs>
        <path id="DejaVuSans-33" d="M 2597 2516 
Q 3050 2419 3304 2112 
Q 3559 1806 3559 1356 
Q 3559 666 3084 287 
Q 2609 -91 1734 -91 
Q 1441 -91 1130 -33 
Q 819 25 488 141 
L 488 750 
Q 750 597 1062 519 
Q 1375 441 1716 441 
Q 2309 441 2620 675 
Q 2931 909 2931 1356 
Q 2931 1769 2642 2001 
Q 2353 2234 1838 2234 
L 1294 2234 
L 1294 2753 
L 1863 2753 
Q 2328 2753 2575 2939 
Q 2822 3125 2822 3475 
Q 2822 3834 2567 4026 
Q 2313 4219 1838 4219 
Q 1578 4219 1281 4162 
Q 984 4106 628 3988 
L 628 4550 
Q 988 4650 1302 4700 
Q 1616 4750 1894 4750 
Q 2613 4750 3031 4423 
Q 3450 4097 3450 3541 
Q 3450 3153 3228 2886 
Q 3006 2619 2597 2516 
z
" transform="scale(0.015625)"/>
       </defs>
       <use xlink:href="#DejaVuSans-31" transform="translate(0 0.765625)"/>
       <use xlink:href="#DejaVuSans-30" transform="translate(63.623047 0.765625)"/>
       <use xlink:href="#DejaVuSans-33" transform="translate(128.203125 39.046875) scale(0.7)"/>
      </g>
     </g>
    </g>
    <g id="xtick_3">
     <g id="line2d_5">
      <path d="M 126.92375 173.52 
L 126.92375 7.2 
" clip-path="url(#p0a7a849dd9)" style="fill: none; stroke-dasharray: 2.96,1.28; stroke-dashoffset: 0; stroke: #b0b0b0; stroke-width: 0.8"/>
     </g>
     <g id="line2d_6">
      <g>
       <use xlink:href="#m825819899f" x="126.92375" y="173.52" style="stroke: #000000; stroke-width: 0.8"/>
      </g>
     </g>
     <g id="text_3">
      <!-- $\mathdefault{10^{6}}$ -->
      <g transform="translate(116.36375 189.638125) scale(0.12 -0.12)">
       <defs>
        <path id="DejaVuSans-36" d="M 2113 2584 
Q 1688 2584 1439 2293 
Q 1191 2003 1191 1497 
Q 1191 994 1439 701 
Q 1688 409 2113 409 
Q 2538 409 2786 701 
Q 3034 994 3034 1497 
Q 3034 2003 2786 2293 
Q 2538 2584 2113 2584 
z
M 3366 4563 
L 3366 3988 
Q 3128 4100 2886 4159 
Q 2644 4219 2406 4219 
Q 1781 4219 1451 3797 
Q 1122 3375 1075 2522 
Q 1259 2794 1537 2939 
Q 1816 3084 2150 3084 
Q 2853 3084 3261 2657 
Q 3669 2231 3669 1497 
Q 3669 778 3244 343 
Q 2819 -91 2113 -91 
Q 1303 -91 875 529 
Q 447 1150 447 2328 
Q 447 3434 972 4092 
Q 1497 4750 2381 4750 
Q 2619 4750 2861 4703 
Q 3103 4656 3366 4563 
z
" transform="scale(0.015625)"/>
       </defs>
       <use xlink:href="#DejaVuSans-31" transform="translate(0 0.765625)"/>
       <use xlink:href="#DejaVuSans-30" transform="translate(63.623047 0.765625)"/>
       <use xlink:href="#DejaVuSans-36" transform="translate(128.203125 39.046875) scale(0.7)"/>
      </g>
     </g>
    </g>
    <g id="xtick_4">
     <g id="line2d_7">
      <path d="M 167.84375 173.52 
L 167.84375 7.2 
" clip-path="url(#p0a7a849dd9)" style="fill: none; stroke-dasharray: 2.96,1.28; stroke-dashoffset: 0; stroke: #b0b0b0; stroke-width: 0.8"/>
     </g>
     <g id="line2d_8">
      <g>
       <use xlink:href="#m825819899f" x="167.84375" y="173.52" style="stroke: #000000; stroke-width: 0.8"/>
      </g>
     </g>
     <g id="text_4">
      <!-- $\mathdefault{10^{9}}$ -->
      <g transform="translate(157.28375 189.638125) scale(0.12 -0.12)">
       <defs>
        <path id="DejaVuSans-39" d="M 703 97 
L 703 672 
Q 941 559 1184 500 
Q 1428 441 1663 441 
Q 2288 441 2617 861 
Q 2947 1281 2994 2138 
Q 2813 1869 2534 1725 
Q 2256 1581 1919 1581 
Q 1219 1581 811 2004 
Q 403 2428 403 3163 
Q 403 3881 828 4315 
Q 1253 4750 1959 4750 
Q 2769 4750 3195 4129 
Q 3622 3509 3622 2328 
Q 3622 1225 3098 567 
Q 2575 -91 1691 -91 
Q 1453 -91 1209 -44 
Q 966 3 703 97 
z
M 1959 2075 
Q 2384 2075 2632 2365 
Q 2881 2656 2881 3163 
Q 2881 3666 2632 3958 
Q 2384 4250 1959 4250 
Q 1534 4250 1286 3958 
Q 1038 3666 1038 3163 
Q 1038 2656 1286 2365 
Q 1534 2075 1959 2075 
z
" transform="scale(0.015625)"/>
       </defs>
       <use xlink:href="#DejaVuSans-31" transform="translate(0 0.765625)"/>
       <use xlink:href="#DejaVuSans-30" transform="translate(63.623047 0.765625)"/>
       <use xlink:href="#DejaVuSans-39" transform="translate(128.203125 39.046875) scale(0.7)"/>
      </g>
     </g>
    </g>
    <g id="text_5">
     <!-- Transfer Size (B) -->
     <g transform="translate(57.412813 205.251875) scale(0.12 -0.12)">
      <defs>
       <path id="DejaVuSans-54" d="M -19 4666 
L 3928 4666 
L 3928 4134 
L 2272 4134 
L 2272 0 
L 1638 0 
L 1638 4134 
L -19 4134 
L -19 4666 
z
" transform="scale(0.015625)"/>
       <path id="DejaVuSans-72" d="M 2631 2963 
Q 2534 3019 2420 3045 
Q 2306 3072 2169 3072 
Q 1681 3072 1420 2755 
Q 1159 2438 1159 1844 
L 1159 0 
L 581 0 
L 581 3500 
L 1159 3500 
L 1159 2956 
Q 1341 3275 1631 3429 
Q 1922 3584 2338 3584 
Q 2397 3584 2469 3576 
Q 2541 3569 2628 3553 
L 2631 2963 
z
" transform="scale(0.015625)"/>
       <path id="DejaVuSans-61" d="M 2194 1759 
Q 1497 1759 1228 1600 
Q 959 1441 959 1056 
Q 959 750 1161 570 
Q 1363 391 1709 391 
Q 2188 391 2477 730 
Q 2766 1069 2766 1631 
L 2766 1759 
L 2194 1759 
z
M 3341 1997 
L 3341 0 
L 2766 0 
L 2766 531 
Q 2569 213 2275 61 
Q 1981 -91 1556 -91 
Q 1019 -91 701 211 
Q 384 513 384 1019 
Q 384 1609 779 1909 
Q 1175 2209 1959 2209 
L 2766 2209 
L 2766 2266 
Q 2766 2663 2505 2880 
Q 2244 3097 1772 3097 
Q 1472 3097 1187 3025 
Q 903 2953 641 2809 
L 641 3341 
Q 956 3463 1253 3523 
Q 1550 3584 1831 3584 
Q 2591 3584 2966 3190 
Q 3341 2797 3341 1997 
z
" transform="scale(0.015625)"/>
       <path id="DejaVuSans-6e" d="M 3513 2113 
L 3513 0 
L 2938 0 
L 2938 2094 
Q 2938 2591 2744 2837 
Q 2550 3084 2163 3084 
Q 1697 3084 1428 2787 
Q 1159 2491 1159 1978 
L 1159 0 
L 581 0 
L 581 3500 
L 1159 3500 
L 1159 2956 
Q 1366 3272 1645 3428 
Q 1925 3584 2291 3584 
Q 2894 3584 3203 3211 
Q 3513 2838 3513 2113 
z
" transform="scale(0.015625)"/>
       <path id="DejaVuSans-73" d="M 2834 3397 
L 2834 2853 
Q 2591 2978 2328 3040 
Q 2066 3103 1784 3103 
Q 1356 3103 1142 2972 
Q 928 2841 928 2578 
Q 928 2378 1081 2264 
Q 1234 2150 1697 2047 
L 1894 2003 
Q 2506 1872 2764 1633 
Q 3022 1394 3022 966 
Q 3022 478 2636 193 
Q 2250 -91 1575 -91 
Q 1294 -91 989 -36 
Q 684 19 347 128 
L 347 722 
Q 666 556 975 473 
Q 1284 391 1588 391 
Q 1994 391 2212 530 
Q 2431 669 2431 922 
Q 2431 1156 2273 1281 
Q 2116 1406 1581 1522 
L 1381 1569 
Q 847 1681 609 1914 
Q 372 2147 372 2553 
Q 372 3047 722 3315 
Q 1072 3584 1716 3584 
Q 2034 3584 2315 3537 
Q 2597 3491 2834 3397 
z
" transform="scale(0.015625)"/>
       <path id="DejaVuSans-66" d="M 2375 4863 
L 2375 4384 
L 1825 4384 
Q 1516 4384 1395 4259 
Q 1275 4134 1275 3809 
L 1275 3500 
L 2222 3500 
L 2222 3053 
L 1275 3053 
L 1275 0 
L 697 0 
L 697 3053 
L 147 3053 
L 147 3500 
L 697 3500 
L 697 3744 
Q 697 4328 969 4595 
Q 1241 4863 1831 4863 
L 2375 4863 
z
" transform="scale(0.015625)"/>
       <path id="DejaVuSans-65" d="M 3597 1894 
L 3597 1613 
L 953 1613 
Q 991 1019 1311 708 
Q 1631 397 2203 397 
Q 2534 397 2845 478 
Q 3156 559 3463 722 
L 3463 178 
Q 3153 47 2828 -22 
Q 2503 -91 2169 -91 
Q 1331 -91 842 396 
Q 353 884 353 1716 
Q 353 2575 817 3079 
Q 1281 3584 2069 3584 
Q 2775 3584 3186 3129 
Q 3597 2675 3597 1894 
z
M 3022 2063 
Q 3016 2534 2758 2815 
Q 2500 3097 2075 3097 
Q 1594 3097 1305 2825 
Q 1016 2553 972 2059 
L 3022 2063 
z
" transform="scale(0.015625)"/>
       <path id="DejaVuSans-20" transform="scale(0.015625)"/>
       <path id="DejaVuSans-53" d="M 3425 4513 
L 3425 3897 
Q 3066 4069 2747 4153 
Q 2428 4238 2131 4238 
Q 1616 4238 1336 4038 
Q 1056 3838 1056 3469 
Q 1056 3159 1242 3001 
Q 1428 2844 1947 2747 
L 2328 2669 
Q 3034 2534 3370 2195 
Q 3706 1856 3706 1288 
Q 3706 609 3251 259 
Q 2797 -91 1919 -91 
Q 1588 -91 1214 -16 
Q 841 59 441 206 
L 441 856 
Q 825 641 1194 531 
Q 1563 422 1919 422 
Q 2459 422 2753 634 
Q 3047 847 3047 1241 
Q 3047 1584 2836 1778 
Q 2625 1972 2144 2069 
L 1759 2144 
Q 1053 2284 737 2584 
Q 422 2884 422 3419 
Q 422 4038 858 4394 
Q 1294 4750 2059 4750 
Q 2388 4750 2728 4690 
Q 3069 4631 3425 4513 
z
" transform="scale(0.015625)"/>
       <path id="DejaVuSans-69" d="M 603 3500 
L 1178 3500 
L 1178 0 
L 603 0 
L 603 3500 
z
M 603 4863 
L 1178 4863 
L 1178 4134 
L 603 4134 
L 603 4863 
z
" transform="scale(0.015625)"/>
       <path id="DejaVuSans-7a" d="M 353 3500 
L 3084 3500 
L 3084 2975 
L 922 459 
L 3084 459 
L 3084 0 
L 275 0 
L 275 525 
L 2438 3041 
L 353 3041 
L 353 3500 
z
" transform="scale(0.015625)"/>
       <path id="DejaVuSans-28" d="M 1984 4856 
Q 1566 4138 1362 3434 
Q 1159 2731 1159 2009 
Q 1159 1288 1364 580 
Q 1569 -128 1984 -844 
L 1484 -844 
Q 1016 -109 783 600 
Q 550 1309 550 2009 
Q 550 2706 781 3412 
Q 1013 4119 1484 4856 
L 1984 4856 
z
" transform="scale(0.015625)"/>
       <path id="DejaVuSans-42" d="M 1259 2228 
L 1259 519 
L 2272 519 
Q 2781 519 3026 730 
Q 3272 941 3272 1375 
Q 3272 1813 3026 2020 
Q 2781 2228 2272 2228 
L 1259 2228 
z
M 1259 4147 
L 1259 2741 
L 2194 2741 
Q 2656 2741 2882 2914 
Q 3109 3088 3109 3444 
Q 3109 3797 2882 3972 
Q 2656 4147 2194 4147 
L 1259 4147 
z
M 628 4666 
L 2241 4666 
Q 2963 4666 3353 4366 
Q 3744 4066 3744 3513 
Q 3744 3084 3544 2831 
Q 3344 2578 2956 2516 
Q 3422 2416 3680 2098 
Q 3938 1781 3938 1306 
Q 3938 681 3513 340 
Q 3088 0 2303 0 
L 628 0 
L 628 4666 
z
" transform="scale(0.015625)"/>
       <path id="DejaVuSans-29" d="M 513 4856 
L 1013 4856 
Q 1481 4119 1714 3412 
Q 1947 2706 1947 2009 
Q 1947 1309 1714 600 
Q 1481 -109 1013 -844 
L 513 -844 
Q 928 -128 1133 580 
Q 1338 1288 1338 2009 
Q 1338 2731 1133 3434 
Q 928 4138 513 4856 
z
" transform="scale(0.015625)"/>
      </defs>
      <use xlink:href="#DejaVuSans-54"/>
      <use xlink:href="#DejaVuSans-72" x="46.333984"/>
      <use xlink:href="#DejaVuSans-61" x="87.447266"/>
      <use xlink:href="#DejaVuSans-6e" x="148.726562"/>
      <use xlink:href="#DejaVuSans-73" x="212.105469"/>
      <use xlink:href="#DejaVuSans-66" x="264.205078"/>
      <use xlink:href="#DejaVuSans-65" x="299.410156"/>
      <use xlink:href="#DejaVuSans-72" x="360.933594"/>
      <use xlink:href="#DejaVuSans-20" x="402.046875"/>
      <use xlink:href="#DejaVuSans-53" x="433.833984"/>
      <use xlink:href="#DejaVuSans-69" x="497.310547"/>
      <use xlink:href="#DejaVuSans-7a" x="525.09375"/>
      <use xlink:href="#DejaVuSans-65" x="577.583984"/>
      <use xlink:href="#DejaVuSans-20" x="639.107422"/>
      <use xlink:href="#DejaVuSans-28" x="670.894531"/>
      <use xlink:href="#DejaVuSans-42" x="709.908203"/>
      <use xlink:href="#DejaVuSans-29" x="778.511719"/>
     </g>
    </g>
   </g>
   <g id="matplotlib.axis_2">
    <g id="ytick_1">
     <g id="line2d_9">
      <path d="M 45.08375 165.960125 
L 167.84375 165.960125 
" clip-path="url(#p0a7a849dd9)" style="fill: none; stroke-dasharray: 2.96,1.28; stroke-dashoffset: 0; stroke: #b0b0b0; stroke-width: 0.8"/>
     </g>
     <g id="line2d_10">
      <defs>
       <path id="mbf3ec9f97e" d="M 0 0 
L -3.5 0 
" style="stroke: #000000; stroke-width: 0.8"/>
      </defs>
      <g>
       <use xlink:href="#mbf3ec9f97e" x="45.08375" y="165.960125" style="stroke: #000000; stroke-width: 0.8"/>
      </g>
     </g>
     <g id="text_6">
      <!-- 0 -->
      <g transform="translate(30.44875 170.519187) scale(0.12 -0.12)">
       <use xlink:href="#DejaVuSans-30"/>
      </g>
     </g>
    </g>
    <g id="ytick_2">
     <g id="line2d_11">
      <path d="M 45.08375 132.124198 
L 167.84375 132.124198 
" clip-path="url(#p0a7a849dd9)" style="fill: none; stroke-dasharray: 2.96,1.28; stroke-dashoffset: 0; stroke: #b0b0b0; stroke-width: 0.8"/>
     </g>
     <g id="line2d_12">
      <g>
       <use xlink:href="#mbf3ec9f97e" x="45.08375" y="132.124198" style="stroke: #000000; stroke-width: 0.8"/>
      </g>
     </g>
     <g id="text_7">
      <!-- 5 -->
      <g transform="translate(30.44875 136.68326) scale(0.12 -0.12)">
       <defs>
        <path id="DejaVuSans-35" d="M 691 4666 
L 3169 4666 
L 3169 4134 
L 1269 4134 
L 1269 2991 
Q 1406 3038 1543 3061 
Q 1681 3084 1819 3084 
Q 2600 3084 3056 2656 
Q 3513 2228 3513 1497 
Q 3513 744 3044 326 
Q 2575 -91 1722 -91 
Q 1428 -91 1123 -41 
Q 819 9 494 109 
L 494 744 
Q 775 591 1075 516 
Q 1375 441 1709 441 
Q 2250 441 2565 725 
Q 2881 1009 2881 1497 
Q 2881 1984 2565 2268 
Q 2250 2553 1709 2553 
Q 1456 2553 1204 2497 
Q 953 2441 691 2322 
L 691 4666 
z
" transform="scale(0.015625)"/>
       </defs>
       <use xlink:href="#DejaVuSans-35"/>
      </g>
     </g>
    </g>
    <g id="ytick_3">
     <g id="line2d_13">
      <path d="M 45.08375 98.288271 
L 167.84375 98.288271 
" clip-path="url(#p0a7a849dd9)" style="fill: none; stroke-dasharray: 2.96,1.28; stroke-dashoffset: 0; stroke: #b0b0b0; stroke-width: 0.8"/>
     </g>
     <g id="line2d_14">
      <g>
       <use xlink:href="#mbf3ec9f97e" x="45.08375" y="98.288271" style="stroke: #000000; stroke-width: 0.8"/>
      </g>
     </g>
     <g id="text_8">
      <!-- 10 -->
      <g transform="translate(22.81375 102.847333) scale(0.12 -0.12)">
       <use xlink:href="#DejaVuSans-31"/>
       <use xlink:href="#DejaVuSans-30" x="63.623047"/>
      </g>
     </g>
    </g>
    <g id="ytick_4">
     <g id="line2d_15">
      <path d="M 45.08375 64.452344 
L 167.84375 64.452344 
" clip-path="url(#p0a7a849dd9)" style="fill: none; stroke-dasharray: 2.96,1.28; stroke-dashoffset: 0; stroke: #b0b0b0; stroke-width: 0.8"/>
     </g>
     <g id="line2d_16">
      <g>
       <use xlink:href="#mbf3ec9f97e" x="45.08375" y="64.452344" style="stroke: #000000; stroke-width: 0.8"/>
      </g>
     </g>
     <g id="text_9">
      <!-- 15 -->
      <g transform="translate(22.81375 69.011406) scale(0.12 -0.12)">
       <use xlink:href="#DejaVuSans-31"/>
       <use xlink:href="#DejaVuSans-35" x="63.623047"/>
      </g>
     </g>
    </g>
    <g id="ytick_5">
     <g id="line2d_17">
      <path d="M 45.08375 30.616417 
L 167.84375 30.616417 
" clip-path="url(#p0a7a849dd9)" style="fill: none; stroke-dasharray: 2.96,1.28; stroke-dashoffset: 0; stroke: #b0b0b0; stroke-width: 0.8"/>
     </g>
     <g id="line2d_18">
      <g>
       <use xlink:href="#mbf3ec9f97e" x="45.08375" y="30.616417" style="stroke: #000000; stroke-width: 0.8"/>
      </g>
     </g>
     <g id="text_10">
      <!-- 20 -->
      <g transform="translate(22.81375 35.175479) scale(0.12 -0.12)">
       <defs>
        <path id="DejaVuSans-32" d="M 1228 531 
L 3431 531 
L 3431 0 
L 469 0 
L 469 531 
Q 828 903 1448 1529 
Q 2069 2156 2228 2338 
Q 2531 2678 2651 2914 
Q 2772 3150 2772 3378 
Q 2772 3750 2511 3984 
Q 2250 4219 1831 4219 
Q 1534 4219 1204 4116 
Q 875 4013 500 3803 
L 500 4441 
Q 881 4594 1212 4672 
Q 1544 4750 1819 4750 
Q 2544 4750 2975 4387 
Q 3406 4025 3406 3419 
Q 3406 3131 3298 2873 
Q 3191 2616 2906 2266 
Q 2828 2175 2409 1742 
Q 1991 1309 1228 531 
z
" transform="scale(0.015625)"/>
       </defs>
       <use xlink:href="#DejaVuSans-32"/>
       <use xlink:href="#DejaVuSans-30" x="63.623047"/>
      </g>
     </g>
    </g>
    <g id="ytick_6">
     <g id="line2d_19">
      <defs>
       <path id="m682f4a6bac" d="M 0 0 
L -2 0 
" style="stroke: #000000; stroke-width: 0.6"/>
      </defs>
      <g>
       <use xlink:href="#m682f4a6bac" x="45.08375" y="172.72731" style="stroke: #000000; stroke-width: 0.6"/>
      </g>
     </g>
    </g>
    <g id="ytick_7">
     <g id="line2d_20">
      <g>
       <use xlink:href="#m682f4a6bac" x="45.08375" y="159.192939" style="stroke: #000000; stroke-width: 0.6"/>
      </g>
     </g>
    </g>
    <g id="ytick_8">
     <g id="line2d_21">
      <g>
       <use xlink:href="#m682f4a6bac" x="45.08375" y="152.425754" style="stroke: #000000; stroke-width: 0.6"/>
      </g>
     </g>
    </g>
    <g id="ytick_9">
     <g id="line2d_22">
      <g>
       <use xlink:href="#m682f4a6bac" x="45.08375" y="145.658568" style="stroke: #000000; stroke-width: 0.6"/>
      </g>
     </g>
    </g>
    <g id="ytick_10">
     <g id="line2d_23">
      <g>
       <use xlink:href="#m682f4a6bac" x="45.08375" y="138.891383" style="stroke: #000000; stroke-width: 0.6"/>
      </g>
     </g>
    </g>
    <g id="ytick_11">
     <g id="line2d_24">
      <g>
       <use xlink:href="#m682f4a6bac" x="45.08375" y="125.357012" style="stroke: #000000; stroke-width: 0.6"/>
      </g>
     </g>
    </g>
    <g id="ytick_12">
     <g id="line2d_25">
      <g>
       <use xlink:href="#m682f4a6bac" x="45.08375" y="118.589827" style="stroke: #000000; stroke-width: 0.6"/>
      </g>
     </g>
    </g>
    <g id="ytick_13">
     <g id="line2d_26">
      <g>
       <use xlink:href="#m682f4a6bac" x="45.08375" y="111.822642" style="stroke: #000000; stroke-width: 0.6"/>
      </g>
     </g>
    </g>
    <g id="ytick_14">
     <g id="line2d_27">
      <g>
       <use xlink:href="#m682f4a6bac" x="45.08375" y="105.055456" style="stroke: #000000; stroke-width: 0.6"/>
      </g>
     </g>
    </g>
    <g id="ytick_15">
     <g id="line2d_28">
      <g>
       <use xlink:href="#m682f4a6bac" x="45.08375" y="91.521085" style="stroke: #000000; stroke-width: 0.6"/>
      </g>
     </g>
    </g>
    <g id="ytick_16">
     <g id="line2d_29">
      <g>
       <use xlink:href="#m682f4a6bac" x="45.08375" y="84.7539" style="stroke: #000000; stroke-width: 0.6"/>
      </g>
     </g>
    </g>
    <g id="ytick_17">
     <g id="line2d_30">
      <g>
       <use xlink:href="#m682f4a6bac" x="45.08375" y="77.986715" style="stroke: #000000; stroke-width: 0.6"/>
      </g>
     </g>
    </g>
    <g id="ytick_18">
     <g id="line2d_31">
      <g>
       <use xlink:href="#m682f4a6bac" x="45.08375" y="71.219529" style="stroke: #000000; stroke-width: 0.6"/>
      </g>
     </g>
    </g>
    <g id="ytick_19">
     <g id="line2d_32">
      <g>
       <use xlink:href="#m682f4a6bac" x="45.08375" y="57.685158" style="stroke: #000000; stroke-width: 0.6"/>
      </g>
     </g>
    </g>
    <g id="ytick_20">
     <g id="line2d_33">
      <g>
       <use xlink:href="#m682f4a6bac" x="45.08375" y="50.917973" style="stroke: #000000; stroke-width: 0.6"/>
      </g>
     </g>
    </g>
    <g id="ytick_21">
     <g id="line2d_34">
      <g>
       <use xlink:href="#m682f4a6bac" x="45.08375" y="44.150788" style="stroke: #000000; stroke-width: 0.6"/>
      </g>
     </g>
    </g>
    <g id="ytick_22">
     <g id="line2d_35">
      <g>
       <use xlink:href="#m682f4a6bac" x="45.08375" y="37.383602" style="stroke: #000000; stroke-width: 0.6"/>
      </g>
     </g>
    </g>
    <g id="ytick_23">
     <g id="line2d_36">
      <g>
       <use xlink:href="#m682f4a6bac" x="45.08375" y="23.849232" style="stroke: #000000; stroke-width: 0.6"/>
      </g>
     </g>
    </g>
    <g id="ytick_24">
     <g id="line2d_37">
      <g>
       <use xlink:href="#m682f4a6bac" x="45.08375" y="17.082046" style="stroke: #000000; stroke-width: 0.6"/>
      </g>
     </g>
    </g>
    <g id="ytick_25">
     <g id="line2d_38">
      <g>
       <use xlink:href="#m682f4a6bac" x="45.08375" y="10.314861" style="stroke: #000000; stroke-width: 0.6"/>
      </g>
     </g>
    </g>
    <g id="text_11">
     <!-- Bandwidth (GB/s) -->
     <g transform="translate(16.318125 142.80375) rotate(-90) scale(0.12 -0.12)">
      <defs>
       <path id="DejaVuSans-64" d="M 2906 2969 
L 2906 4863 
L 3481 4863 
L 3481 0 
L 2906 0 
L 2906 525 
Q 2725 213 2448 61 
Q 2172 -91 1784 -91 
Q 1150 -91 751 415 
Q 353 922 353 1747 
Q 353 2572 751 3078 
Q 1150 3584 1784 3584 
Q 2172 3584 2448 3432 
Q 2725 3281 2906 2969 
z
M 947 1747 
Q 947 1113 1208 752 
Q 1469 391 1925 391 
Q 2381 391 2643 752 
Q 2906 1113 2906 1747 
Q 2906 2381 2643 2742 
Q 2381 3103 1925 3103 
Q 1469 3103 1208 2742 
Q 947 2381 947 1747 
z
" transform="scale(0.015625)"/>
       <path id="DejaVuSans-77" d="M 269 3500 
L 844 3500 
L 1563 769 
L 2278 3500 
L 2956 3500 
L 3675 769 
L 4391 3500 
L 4966 3500 
L 4050 0 
L 3372 0 
L 2619 2869 
L 1863 0 
L 1184 0 
L 269 3500 
z
" transform="scale(0.015625)"/>
       <path id="DejaVuSans-74" d="M 1172 4494 
L 1172 3500 
L 2356 3500 
L 2356 3053 
L 1172 3053 
L 1172 1153 
Q 1172 725 1289 603 
Q 1406 481 1766 481 
L 2356 481 
L 2356 0 
L 1766 0 
Q 1100 0 847 248 
Q 594 497 594 1153 
L 594 3053 
L 172 3053 
L 172 3500 
L 594 3500 
L 594 4494 
L 1172 4494 
z
" transform="scale(0.015625)"/>
       <path id="DejaVuSans-68" d="M 3513 2113 
L 3513 0 
L 2938 0 
L 2938 2094 
Q 2938 2591 2744 2837 
Q 2550 3084 2163 3084 
Q 1697 3084 1428 2787 
Q 1159 2491 1159 1978 
L 1159 0 
L 581 0 
L 581 4863 
L 1159 4863 
L 1159 2956 
Q 1366 3272 1645 3428 
Q 1925 3584 2291 3584 
Q 2894 3584 3203 3211 
Q 3513 2838 3513 2113 
z
" transform="scale(0.015625)"/>
       <path id="DejaVuSans-47" d="M 3809 666 
L 3809 1919 
L 2778 1919 
L 2778 2438 
L 4434 2438 
L 4434 434 
Q 4069 175 3628 42 
Q 3188 -91 2688 -91 
Q 1594 -91 976 548 
Q 359 1188 359 2328 
Q 359 3472 976 4111 
Q 1594 4750 2688 4750 
Q 3144 4750 3555 4637 
Q 3966 4525 4313 4306 
L 4313 3634 
Q 3963 3931 3569 4081 
Q 3175 4231 2741 4231 
Q 1884 4231 1454 3753 
Q 1025 3275 1025 2328 
Q 1025 1384 1454 906 
Q 1884 428 2741 428 
Q 3075 428 3337 486 
Q 3600 544 3809 666 
z
" transform="scale(0.015625)"/>
       <path id="DejaVuSans-2f" d="M 1625 4666 
L 2156 4666 
L 531 -594 
L 0 -594 
L 1625 4666 
z
" transform="scale(0.015625)"/>
      </defs>
      <use xlink:href="#DejaVuSans-42"/>
      <use xlink:href="#DejaVuSans-61" x="68.603516"/>
      <use xlink:href="#DejaVuSans-6e" x="129.882812"/>
      <use xlink:href="#DejaVuSans-64" x="193.261719"/>
      <use xlink:href="#DejaVuSans-77" x="256.738281"/>
      <use xlink:href="#DejaVuSans-69" x="338.525391"/>
      <use xlink:href="#DejaVuSans-64" x="366.308594"/>
      <use xlink:href="#DejaVuSans-74" x="429.785156"/>
      <use xlink:href="#DejaVuSans-68" x="468.994141"/>
      <use xlink:href="#DejaVuSans-20" x="532.373047"/>
      <use xlink:href="#DejaVuSans-28" x="564.160156"/>
      <use xlink:href="#DejaVuSans-47" x="603.173828"/>
      <use xlink:href="#DejaVuSans-42" x="680.664062"/>
      <use xlink:href="#DejaVuSans-2f" x="749.267578"/>
      <use xlink:href="#DejaVuSans-73" x="782.958984"/>
      <use xlink:href="#DejaVuSans-29" x="835.058594"/>
     </g>
    </g>
   </g>
   <g id="line2d_39">
    <path d="M 45.08375 165.959971 
L 51.591684 165.959651 
L 56.610887 165.959087 
L 60.716936 165.958031 
L 64.822986 165.955909 
L 68.929035 165.951603 
L 73.035084 165.943419 
L 77.141133 165.92793 
L 81.247182 165.895299 
L 85.353231 165.834359 
L 89.45928 165.722383 
L 93.56533 165.54116 
L 97.671379 165.206144 
L 101.777428 164.56505 
L 105.883477 163.264181 
L 109.989526 161.248458 
L 114.095575 157.142714 
L 118.201624 153.463651 
L 122.307674 155.026919 
L 126.413723 142.834902 
L 130.519772 132.812992 
L 134.625821 124.392742 
L 138.73187 119.844191 
L 142.837919 116.835492 
L 146.943968 115.189432 
L 151.050018 114.383343 
L 155.156067 114.067274 
L 159.262116 113.861662 
L 163.368165 113.534218 
L 167.474214 112.961998 
" clip-path="url(#p0a7a849dd9)" style="fill: none; stroke: #1f77b4; stroke-width: 2.2; stroke-linecap: square"/>
    <defs>
     <path id="m7cb86e1569" d="M 0 3 
C 0.795609 3 1.55874 2.683901 2.12132 2.12132 
C 2.683901 1.55874 3 0.795609 3 0 
C 3 -0.795609 2.683901 -1.55874 2.12132 -2.12132 
C 1.55874 -2.683901 0.795609 -3 0 -3 
C -0.795609 -3 -1.55874 -2.683901 -2.12132 -2.12132 
C -2.683901 -1.55874 -3 -0.795609 -3 0 
C -3 0.795609 -2.683901 1.55874 -2.12132 2.12132 
C -1.55874 2.683901 -0.795609 3 0 3 
z
" style="stroke: #ffffff; stroke-width: 0.75"/>
    </defs>
    <g clip-path="url(#p0a7a849dd9)">
     <use xlink:href="#m7cb86e1569" x="45.08375" y="165.959971" style="fill: #1f77b4; stroke: #ffffff; stroke-width: 0.75"/>
     <use xlink:href="#m7cb86e1569" x="51.591684" y="165.959651" style="fill: #1f77b4; stroke: #ffffff; stroke-width: 0.75"/>
     <use xlink:href="#m7cb86e1569" x="56.610887" y="165.959087" style="fill: #1f77b4; stroke: #ffffff; stroke-width: 0.75"/>
     <use xlink:href="#m7cb86e1569" x="60.716936" y="165.958031" style="fill: #1f77b4; stroke: #ffffff; stroke-width: 0.75"/>
     <use xlink:href="#m7cb86e1569" x="64.822986" y="165.955909" style="fill: #1f77b4; stroke: #ffffff; stroke-width: 0.75"/>
     <use xlink:href="#m7cb86e1569" x="68.929035" y="165.951603" style="fill: #1f77b4; stroke: #ffffff; stroke-width: 0.75"/>
     <use xlink:href="#m7cb86e1569" x="73.035084" y="165.943419" style="fill: #1f77b4; stroke: #ffffff; stroke-width: 0.75"/>
     <use xlink:href="#m7cb86e1569" x="77.141133" y="165.92793" style="fill: #1f77b4; stroke: #ffffff; stroke-width: 0.75"/>
     <use xlink:href="#m7cb86e1569" x="81.247182" y="165.895299" style="fill: #1f77b4; stroke: #ffffff; stroke-width: 0.75"/>
     <use xlink:href="#m7cb86e1569" x="85.353231" y="165.834359" style="fill: #1f77b4; stroke: #ffffff; stroke-width: 0.75"/>
     <use xlink:href="#m7cb86e1569" x="89.45928" y="165.722383" style="fill: #1f77b4; stroke: #ffffff; stroke-width: 0.75"/>
     <use xlink:href="#m7cb86e1569" x="93.56533" y="165.54116" style="fill: #1f77b4; stroke: #ffffff; stroke-width: 0.75"/>
     <use xlink:href="#m7cb86e1569" x="97.671379" y="165.206144" style="fill: #1f77b4; stroke: #ffffff; stroke-width: 0.75"/>
     <use xlink:href="#m7cb86e1569" x="101.777428" y="164.56505" style="fill: #1f77b4; stroke: #ffffff; stroke-width: 0.75"/>
     <use xlink:href="#m7cb86e1569" x="105.883477" y="163.264181" style="fill: #1f77b4; stroke: #ffffff; stroke-width: 0.75"/>
     <use xlink:href="#m7cb86e1569" x="109.989526" y="161.248458" style="fill: #1f77b4; stroke: #ffffff; stroke-width: 0.75"/>
     <use xlink:href="#m7cb86e1569" x="114.095575" y="157.142714" style="fill: #1f77b4; stroke: #ffffff; stroke-width: 0.75"/>
     <use xlink:href="#m7cb86e1569" x="118.201624" y="153.463651" style="fill: #1f77b4; stroke: #ffffff; stroke-width: 0.75"/>
     <use xlink:href="#m7cb86e1569" x="122.307674" y="155.026919" style="fill: #1f77b4; stroke: #ffffff; stroke-width: 0.75"/>
     <use xlink:href="#m7cb86e1569" x="126.413723" y="142.834902" style="fill: #1f77b4; stroke: #ffffff; stroke-width: 0.75"/>
     <use xlink:href="#m7cb86e1569" x="130.519772" y="132.812992" style="fill: #1f77b4; stroke: #ffffff; stroke-width: 0.75"/>
     <use xlink:href="#m7cb86e1569" x="134.625821" y="124.392742" style="fill: #1f77b4; stroke: #ffffff; stroke-width: 0.75"/>
     <use xlink:href="#m7cb86e1569" x="138.73187" y="119.844191" style="fill: #1f77b4; stroke: #ffffff; stroke-width: 0.75"/>
     <use xlink:href="#m7cb86e1569" x="142.837919" y="116.835492" style="fill: #1f77b4; stroke: #ffffff; stroke-width: 0.75"/>
     <use xlink:href="#m7cb86e1569" x="146.943968" y="115.189432" style="fill: #1f77b4; stroke: #ffffff; stroke-width: 0.75"/>
     <use xlink:href="#m7cb86e1569" x="151.050018" y="114.383343" style="fill: #1f77b4; stroke: #ffffff; stroke-width: 0.75"/>
     <use xlink:href="#m7cb86e1569" x="155.156067" y="114.067274" style="fill: #1f77b4; stroke: #ffffff; stroke-width: 0.75"/>
     <use xlink:href="#m7cb86e1569" x="159.262116" y="113.861662" style="fill: #1f77b4; stroke: #ffffff; stroke-width: 0.75"/>
     <use xlink:href="#m7cb86e1569" x="163.368165" y="113.534218" style="fill: #1f77b4; stroke: #ffffff; stroke-width: 0.75"/>
     <use xlink:href="#m7cb86e1569" x="167.474214" y="112.961998" style="fill: #1f77b4; stroke: #ffffff; stroke-width: 0.75"/>
    </g>
   </g>
   <g id="line2d_40">
    <path d="M 45.08375 165.959962 
L 51.591684 165.959664 
L 56.610887 165.959099 
L 60.716936 165.958014 
L 64.822986 165.955933 
L 68.929035 165.951979 
L 73.035084 165.944186 
L 77.141133 165.926519 
L 81.247182 165.895645 
L 85.353231 165.822603 
L 89.45928 165.720488 
L 93.56533 165.479154 
L 97.671379 165.125168 
L 101.777428 164.33892 
L 105.883477 163.023883 
L 109.989526 160.944154 
L 114.095575 157.464594 
L 118.201624 149.156138 
L 122.307674 140.750395 
L 126.413723 137.380485 
L 130.519772 134.105777 
L 134.625821 106.77716 
L 138.73187 90.093321 
L 142.837919 83.603246 
L 146.943968 60.547644 
L 151.050018 42.763448 
L 155.156067 31.104052 
L 159.262116 23.275183 
L 163.368165 17.803255 
L 167.474214 14.76 
" clip-path="url(#p0a7a849dd9)" style="fill: none; stroke-dasharray: 8.14,3.52; stroke-dashoffset: 0; stroke: #62a0cb; stroke-width: 2.2"/>
    <defs>
     <path id="m6ef018da5a" d="M 0 2.5 
C 0.663008 2.5 1.29895 2.236584 1.767767 1.767767 
C 2.236584 1.29895 2.5 0.663008 2.5 0 
C 2.5 -0.663008 2.236584 -1.29895 1.767767 -1.767767 
C 1.29895 -2.236584 0.663008 -2.5 0 -2.5 
C -0.663008 -2.5 -1.29895 -2.236584 -1.767767 -1.767767 
C -2.236584 -1.29895 -2.5 -0.663008 -2.5 0 
C -2.5 0.663008 -2.236584 1.29895 -1.767767 1.767767 
C -1.29895 2.236584 -0.663008 2.5 0 2.5 
z
" style="stroke: #ffffff; stroke-width: 0.75"/>
    </defs>
    <g clip-path="url(#p0a7a849dd9)">
     <use xlink:href="#m6ef018da5a" x="45.08375" y="165.959962" style="fill: #62a0cb; stroke: #ffffff; stroke-width: 0.75"/>
     <use xlink:href="#m6ef018da5a" x="51.591684" y="165.959664" style="fill: #62a0cb; stroke: #ffffff; stroke-width: 0.75"/>
     <use xlink:href="#m6ef018da5a" x="56.610887" y="165.959099" style="fill: #62a0cb; stroke: #ffffff; stroke-width: 0.75"/>
     <use xlink:href="#m6ef018da5a" x="60.716936" y="165.958014" style="fill: #62a0cb; stroke: #ffffff; stroke-width: 0.75"/>
     <use xlink:href="#m6ef018da5a" x="64.822986" y="165.955933" style="fill: #62a0cb; stroke: #ffffff; stroke-width: 0.75"/>
     <use xlink:href="#m6ef018da5a" x="68.929035" y="165.951979" style="fill: #62a0cb; stroke: #ffffff; stroke-width: 0.75"/>
     <use xlink:href="#m6ef018da5a" x="73.035084" y="165.944186" style="fill: #62a0cb; stroke: #ffffff; stroke-width: 0.75"/>
     <use xlink:href="#m6ef018da5a" x="77.141133" y="165.926519" style="fill: #62a0cb; stroke: #ffffff; stroke-width: 0.75"/>
     <use xlink:href="#m6ef018da5a" x="81.247182" y="165.895645" style="fill: #62a0cb; stroke: #ffffff; stroke-width: 0.75"/>
     <use xlink:href="#m6ef018da5a" x="85.353231" y="165.822603" style="fill: #62a0cb; stroke: #ffffff; stroke-width: 0.75"/>
     <use xlink:href="#m6ef018da5a" x="89.45928" y="165.720488" style="fill: #62a0cb; stroke: #ffffff; stroke-width: 0.75"/>
     <use xlink:href="#m6ef018da5a" x="93.56533" y="165.479154" style="fill: #62a0cb; stroke: #ffffff; stroke-width: 0.75"/>
     <use xlink:href="#m6ef018da5a" x="97.671379" y="165.125168" style="fill: #62a0cb; stroke: #ffffff; stroke-width: 0.75"/>
     <use xlink:href="#m6ef018da5a" x="101.777428" y="164.33892" style="fill: #62a0cb; stroke: #ffffff; stroke-width: 0.75"/>
     <use xlink:href="#m6ef018da5a" x="105.883477" y="163.023883" style="fill: #62a0cb; stroke: #ffffff; stroke-width: 0.75"/>
     <use xlink:href="#m6ef018da5a" x="109.989526" y="160.944154" style="fill: #62a0cb; stroke: #ffffff; stroke-width: 0.75"/>
     <use xlink:href="#m6ef018da5a" x="114.095575" y="157.464594" style="fill: #62a0cb; stroke: #ffffff; stroke-width: 0.75"/>
     <use xlink:href="#m6ef018da5a" x="118.201624" y="149.156138" style="fill: #62a0cb; stroke: #ffffff; stroke-width: 0.75"/>
     <use xlink:href="#m6ef018da5a" x="122.307674" y="140.750395" style="fill: #62a0cb; stroke: #ffffff; stroke-width: 0.75"/>
     <use xlink:href="#m6ef018da5a" x="126.413723" y="137.380485" style="fill: #62a0cb; stroke: #ffffff; stroke-width: 0.75"/>
     <use xlink:href="#m6ef018da5a" x="130.519772" y="134.105777" style="fill: #62a0cb; stroke: #ffffff; stroke-width: 0.75"/>
     <use xlink:href="#m6ef018da5a" x="134.625821" y="106.77716" style="fill: #62a0cb; stroke: #ffffff; stroke-width: 0.75"/>
     <use xlink:href="#m6ef018da5a" x="138.73187" y="90.093321" style="fill: #62a0cb; stroke: #ffffff; stroke-width: 0.75"/>
     <use xlink:href="#m6ef018da5a" x="142.837919" y="83.603246" style="fill: #62a0cb; stroke: #ffffff; stroke-width: 0.75"/>
     <use xlink:href="#m6ef018da5a" x="146.943968" y="60.547644" style="fill: #62a0cb; stroke: #ffffff; stroke-width: 0.75"/>
     <use xlink:href="#m6ef018da5a" x="151.050018" y="42.763448" style="fill: #62a0cb; stroke: #ffffff; stroke-width: 0.75"/>
     <use xlink:href="#m6ef018da5a" x="155.156067" y="31.104052" style="fill: #62a0cb; stroke: #ffffff; stroke-width: 0.75"/>
     <use xlink:href="#m6ef018da5a" x="159.262116" y="23.275183" style="fill: #62a0cb; stroke: #ffffff; stroke-width: 0.75"/>
     <use xlink:href="#m6ef018da5a" x="163.368165" y="17.803255" style="fill: #62a0cb; stroke: #ffffff; stroke-width: 0.75"/>
     <use xlink:href="#m6ef018da5a" x="167.474214" y="14.76" style="fill: #62a0cb; stroke: #ffffff; stroke-width: 0.75"/>
    </g>
   </g>
   <g id="line2d_41">
    <path d="M 45.08375 165.959819 
L 51.591684 165.95922 
L 56.610887 165.957996 
L 60.716936 165.955881 
L 64.822986 165.951614 
L 68.929035 165.943499 
L 73.035084 165.93122 
L 77.141133 165.908187 
L 81.247182 165.83959 
L 85.353231 165.722738 
L 89.45928 165.488026 
L 93.56533 165.10816 
L 97.671379 164.440767 
L 101.777428 163.463475 
L 105.883477 161.704035 
L 109.989526 158.754149 
L 114.095575 155.672548 
L 118.201624 152.869565 
L 122.307674 151.252871 
L 126.413723 149.527565 
L 130.519772 147.916056 
L 134.625821 146.286452 
L 138.73187 145.975257 
L 142.837919 147.072615 
L 146.943968 149.47973 
L 151.050018 153.559016 
L 155.156067 153.158998 
L 159.262116 152.592073 
L 163.368165 152.434189 
L 167.474214 152.345039 
" clip-path="url(#p0a7a849dd9)" style="fill: none; stroke: #2ca02c; stroke-width: 2.2; stroke-linecap: square"/>
    <defs>
     <path id="m69d1c73653" d="M 0 3 
C 0.795609 3 1.55874 2.683901 2.12132 2.12132 
C 2.683901 1.55874 3 0.795609 3 0 
C 3 -0.795609 2.683901 -1.55874 2.12132 -2.12132 
C 1.55874 -2.683901 0.795609 -3 0 -3 
C -0.795609 -3 -1.55874 -2.683901 -2.12132 -2.12132 
C -2.683901 -1.55874 -3 -0.795609 -3 0 
C -3 0.795609 -2.683901 1.55874 -2.12132 2.12132 
C -1.55874 2.683901 -0.795609 3 0 3 
z
" style="stroke: #ffffff; stroke-width: 0.75"/>
    </defs>
    <g clip-path="url(#p0a7a849dd9)">
     <use xlink:href="#m69d1c73653" x="45.08375" y="165.959819" style="fill: #2ca02c; stroke: #ffffff; stroke-width: 0.75"/>
     <use xlink:href="#m69d1c73653" x="51.591684" y="165.95922" style="fill: #2ca02c; stroke: #ffffff; stroke-width: 0.75"/>
     <use xlink:href="#m69d1c73653" x="56.610887" y="165.957996" style="fill: #2ca02c; stroke: #ffffff; stroke-width: 0.75"/>
     <use xlink:href="#m69d1c73653" x="60.716936" y="165.955881" style="fill: #2ca02c; stroke: #ffffff; stroke-width: 0.75"/>
     <use xlink:href="#m69d1c73653" x="64.822986" y="165.951614" style="fill: #2ca02c; stroke: #ffffff; stroke-width: 0.75"/>
     <use xlink:href="#m69d1c73653" x="68.929035" y="165.943499" style="fill: #2ca02c; stroke: #ffffff; stroke-width: 0.75"/>
     <use xlink:href="#m69d1c73653" x="73.035084" y="165.93122" style="fill: #2ca02c; stroke: #ffffff; stroke-width: 0.75"/>
     <use xlink:href="#m69d1c73653" x="77.141133" y="165.908187" style="fill: #2ca02c; stroke: #ffffff; stroke-width: 0.75"/>
     <use xlink:href="#m69d1c73653" x="81.247182" y="165.83959" style="fill: #2ca02c; stroke: #ffffff; stroke-width: 0.75"/>
     <use xlink:href="#m69d1c73653" x="85.353231" y="165.722738" style="fill: #2ca02c; stroke: #ffffff; stroke-width: 0.75"/>
     <use xlink:href="#m69d1c73653" x="89.45928" y="165.488026" style="fill: #2ca02c; stroke: #ffffff; stroke-width: 0.75"/>
     <use xlink:href="#m69d1c73653" x="93.56533" y="165.10816" style="fill: #2ca02c; stroke: #ffffff; stroke-width: 0.75"/>
     <use xlink:href="#m69d1c73653" x="97.671379" y="164.440767" style="fill: #2ca02c; stroke: #ffffff; stroke-width: 0.75"/>
     <use xlink:href="#m69d1c73653" x="101.777428" y="163.463475" style="fill: #2ca02c; stroke: #ffffff; stroke-width: 0.75"/>
     <use xlink:href="#m69d1c73653" x="105.883477" y="161.704035" style="fill: #2ca02c; stroke: #ffffff; stroke-width: 0.75"/>
     <use xlink:href="#m69d1c73653" x="109.989526" y="158.754149" style="fill: #2ca02c; stroke: #ffffff; stroke-width: 0.75"/>
     <use xlink:href="#m69d1c73653" x="114.095575" y="155.672548" style="fill: #2ca02c; stroke: #ffffff; stroke-width: 0.75"/>
     <use xlink:href="#m69d1c73653" x="118.201624" y="152.869565" style="fill: #2ca02c; stroke: #ffffff; stroke-width: 0.75"/>
     <use xlink:href="#m69d1c73653" x="122.307674" y="151.252871" style="fill: #2ca02c; stroke: #ffffff; stroke-width: 0.75"/>
     <use xlink:href="#m69d1c73653" x="126.413723" y="149.527565" style="fill: #2ca02c; stroke: #ffffff; stroke-width: 0.75"/>
     <use xlink:href="#m69d1c73653" x="130.519772" y="147.916056" style="fill: #2ca02c; stroke: #ffffff; stroke-width: 0.75"/>
     <use xlink:href="#m69d1c73653" x="134.625821" y="146.286452" style="fill: #2ca02c; stroke: #ffffff; stroke-width: 0.75"/>
     <use xlink:href="#m69d1c73653" x="138.73187" y="145.975257" style="fill: #2ca02c; stroke: #ffffff; stroke-width: 0.75"/>
     <use xlink:href="#m69d1c73653" x="142.837919" y="147.072615" style="fill: #2ca02c; stroke: #ffffff; stroke-width: 0.75"/>
     <use xlink:href="#m69d1c73653" x="146.943968" y="149.47973" style="fill: #2ca02c; stroke: #ffffff; stroke-width: 0.75"/>
     <use xlink:href="#m69d1c73653" x="151.050018" y="153.559016" style="fill: #2ca02c; stroke: #ffffff; stroke-width: 0.75"/>
     <use xlink:href="#m69d1c73653" x="155.156067" y="153.158998" style="fill: #2ca02c; stroke: #ffffff; stroke-width: 0.75"/>
     <use xlink:href="#m69d1c73653" x="159.262116" y="152.592073" style="fill: #2ca02c; stroke: #ffffff; stroke-width: 0.75"/>
     <use xlink:href="#m69d1c73653" x="163.368165" y="152.434189" style="fill: #2ca02c; stroke: #ffffff; stroke-width: 0.75"/>
     <use xlink:href="#m69d1c73653" x="167.474214" y="152.345039" style="fill: #2ca02c; stroke: #ffffff; stroke-width: 0.75"/>
    </g>
   </g>
   <g id="line2d_42">
    <path d="M 45.08375 165.959841 
L 51.591684 165.959267 
L 56.610887 165.958134 
L 60.716936 165.956125 
L 64.822986 165.952186 
L 68.929035 165.944488 
L 73.035084 165.931937 
L 77.141133 165.907657 
L 81.247182 165.848873 
L 85.353231 165.734067 
L 89.45928 165.518734 
L 93.56533 165.155824 
L 97.671379 164.519734 
L 101.777428 163.513968 
L 105.883477 161.728615 
L 109.989526 158.818649 
L 114.095575 155.543383 
L 118.201624 153.238559 
L 122.307674 151.2534 
L 126.413723 149.032375 
L 130.519772 144.461531 
L 134.625821 142.760741 
L 138.73187 142.239499 
L 142.837919 142.073931 
L 146.943968 144.06174 
L 151.050018 148.276074 
L 155.156067 148.525575 
L 159.262116 148.720021 
L 163.368165 148.843246 
L 167.474214 148.952231 
" clip-path="url(#p0a7a849dd9)" style="fill: none; stroke-dasharray: 8.14,3.52; stroke-dashoffset: 0; stroke: #6bbc6b; stroke-width: 2.2"/>
    <defs>
     <path id="me0cdfc4135" d="M 0 2.5 
C 0.663008 2.5 1.29895 2.236584 1.767767 1.767767 
C 2.236584 1.29895 2.5 0.663008 2.5 0 
C 2.5 -0.663008 2.236584 -1.29895 1.767767 -1.767767 
C 1.29895 -2.236584 0.663008 -2.5 0 -2.5 
C -0.663008 -2.5 -1.29895 -2.236584 -1.767767 -1.767767 
C -2.236584 -1.29895 -2.5 -0.663008 -2.5 0 
C -2.5 0.663008 -2.236584 1.29895 -1.767767 1.767767 
C -1.29895 2.236584 -0.663008 2.5 0 2.5 
z
" style="stroke: #ffffff; stroke-width: 0.75"/>
    </defs>
    <g clip-path="url(#p0a7a849dd9)">
     <use xlink:href="#me0cdfc4135" x="45.08375" y="165.959841" style="fill: #6bbc6b; stroke: #ffffff; stroke-width: 0.75"/>
     <use xlink:href="#me0cdfc4135" x="51.591684" y="165.959267" style="fill: #6bbc6b; stroke: #ffffff; stroke-width: 0.75"/>
     <use xlink:href="#me0cdfc4135" x="56.610887" y="165.958134" style="fill: #6bbc6b; stroke: #ffffff; stroke-width: 0.75"/>
     <use xlink:href="#me0cdfc4135" x="60.716936" y="165.956125" style="fill: #6bbc6b; stroke: #ffffff; stroke-width: 0.75"/>
     <use xlink:href="#me0cdfc4135" x="64.822986" y="165.952186" style="fill: #6bbc6b; stroke: #ffffff; stroke-width: 0.75"/>
     <use xlink:href="#me0cdfc4135" x="68.929035" y="165.944488" style="fill: #6bbc6b; stroke: #ffffff; stroke-width: 0.75"/>
     <use xlink:href="#me0cdfc4135" x="73.035084" y="165.931937" style="fill: #6bbc6b; stroke: #ffffff; stroke-width: 0.75"/>
     <use xlink:href="#me0cdfc4135" x="77.141133" y="165.907657" style="fill: #6bbc6b; stroke: #ffffff; stroke-width: 0.75"/>
     <use xlink:href="#me0cdfc4135" x="81.247182" y="165.848873" style="fill: #6bbc6b; stroke: #ffffff; stroke-width: 0.75"/>
     <use xlink:href="#me0cdfc4135" x="85.353231" y="165.734067" style="fill: #6bbc6b; stroke: #ffffff; stroke-width: 0.75"/>
     <use xlink:href="#me0cdfc4135" x="89.45928" y="165.518734" style="fill: #6bbc6b; stroke: #ffffff; stroke-width: 0.75"/>
     <use xlink:href="#me0cdfc4135" x="93.56533" y="165.155824" style="fill: #6bbc6b; stroke: #ffffff; stroke-width: 0.75"/>
     <use xlink:href="#me0cdfc4135" x="97.671379" y="164.519734" style="fill: #6bbc6b; stroke: #ffffff; stroke-width: 0.75"/>
     <use xlink:href="#me0cdfc4135" x="101.777428" y="163.513968" style="fill: #6bbc6b; stroke: #ffffff; stroke-width: 0.75"/>
     <use xlink:href="#me0cdfc4135" x="105.883477" y="161.728615" style="fill: #6bbc6b; stroke: #ffffff; stroke-width: 0.75"/>
     <use xlink:href="#me0cdfc4135" x="109.989526" y="158.818649" style="fill: #6bbc6b; stroke: #ffffff; stroke-width: 0.75"/>
     <use xlink:href="#me0cdfc4135" x="114.095575" y="155.543383" style="fill: #6bbc6b; stroke: #ffffff; stroke-width: 0.75"/>
     <use xlink:href="#me0cdfc4135" x="118.201624" y="153.238559" style="fill: #6bbc6b; stroke: #ffffff; stroke-width: 0.75"/>
     <use xlink:href="#me0cdfc4135" x="122.307674" y="151.2534" style="fill: #6bbc6b; stroke: #ffffff; stroke-width: 0.75"/>
     <use xlink:href="#me0cdfc4135" x="126.413723" y="149.032375" style="fill: #6bbc6b; stroke: #ffffff; stroke-width: 0.75"/>
     <use xlink:href="#me0cdfc4135" x="130.519772" y="144.461531" style="fill: #6bbc6b; stroke: #ffffff; stroke-width: 0.75"/>
     <use xlink:href="#me0cdfc4135" x="134.625821" y="142.760741" style="fill: #6bbc6b; stroke: #ffffff; stroke-width: 0.75"/>
     <use xlink:href="#me0cdfc4135" x="138.73187" y="142.239499" style="fill: #6bbc6b; stroke: #ffffff; stroke-width: 0.75"/>
     <use xlink:href="#me0cdfc4135" x="142.837919" y="142.073931" style="fill: #6bbc6b; stroke: #ffffff; stroke-width: 0.75"/>
     <use xlink:href="#me0cdfc4135" x="146.943968" y="144.06174" style="fill: #6bbc6b; stroke: #ffffff; stroke-width: 0.75"/>
     <use xlink:href="#me0cdfc4135" x="151.050018" y="148.276074" style="fill: #6bbc6b; stroke: #ffffff; stroke-width: 0.75"/>
     <use xlink:href="#me0cdfc4135" x="155.156067" y="148.525575" style="fill: #6bbc6b; stroke: #ffffff; stroke-width: 0.75"/>
     <use xlink:href="#me0cdfc4135" x="159.262116" y="148.720021" style="fill: #6bbc6b; stroke: #ffffff; stroke-width: 0.75"/>
     <use xlink:href="#me0cdfc4135" x="163.368165" y="148.843246" style="fill: #6bbc6b; stroke: #ffffff; stroke-width: 0.75"/>
     <use xlink:href="#me0cdfc4135" x="167.474214" y="148.952231" style="fill: #6bbc6b; stroke: #ffffff; stroke-width: 0.75"/>
    </g>
   </g>
   <g id="line2d_43">
    <path d="M 45.08375 165.95995 
L 51.591684 165.959573 
L 56.610887 165.958949 
L 60.716936 165.957751 
L 64.822986 165.95538 
L 68.929035 165.950443 
L 73.035084 165.942295 
L 77.141133 165.927376 
L 81.247182 165.89199 
L 85.353231 165.818478 
L 89.45928 165.716242 
L 93.56533 165.474923 
L 97.671379 165.021051 
L 101.777428 164.391899 
L 105.883477 163.373329 
L 109.989526 161.983374 
L 114.095575 160.650387 
L 118.201624 159.42574 
L 122.307674 158.673625 
L 126.413723 157.977686 
L 130.519772 156.894727 
L 134.625821 154.3884 
L 138.73187 154.155206 
L 142.837919 160.049606 
L 146.943968 159.230044 
L 151.050018 158.214479 
L 155.156067 157.747112 
L 159.262116 157.503811 
L 163.368165 157.276555 
L 167.474214 157.164915 
" clip-path="url(#p0a7a849dd9)" style="fill: none; stroke: #d62728; stroke-width: 2.2; stroke-linecap: square"/>
    <defs>
     <path id="m1593f4f789" d="M 0 3 
C 0.795609 3 1.55874 2.683901 2.12132 2.12132 
C 2.683901 1.55874 3 0.795609 3 0 
C 3 -0.795609 2.683901 -1.55874 2.12132 -2.12132 
C 1.55874 -2.683901 0.795609 -3 0 -3 
C -0.795609 -3 -1.55874 -2.683901 -2.12132 -2.12132 
C -2.683901 -1.55874 -3 -0.795609 -3 0 
C -3 0.795609 -2.683901 1.55874 -2.12132 2.12132 
C -1.55874 2.683901 -0.795609 3 0 3 
z
" style="stroke: #ffffff; stroke-width: 0.75"/>
    </defs>
    <g clip-path="url(#p0a7a849dd9)">
     <use xlink:href="#m1593f4f789" x="45.08375" y="165.95995" style="fill: #d62728; stroke: #ffffff; stroke-width: 0.75"/>
     <use xlink:href="#m1593f4f789" x="51.591684" y="165.959573" style="fill: #d62728; stroke: #ffffff; stroke-width: 0.75"/>
     <use xlink:href="#m1593f4f789" x="56.610887" y="165.958949" style="fill: #d62728; stroke: #ffffff; stroke-width: 0.75"/>
     <use xlink:href="#m1593f4f789" x="60.716936" y="165.957751" style="fill: #d62728; stroke: #ffffff; stroke-width: 0.75"/>
     <use xlink:href="#m1593f4f789" x="64.822986" y="165.95538" style="fill: #d62728; stroke: #ffffff; stroke-width: 0.75"/>
     <use xlink:href="#m1593f4f789" x="68.929035" y="165.950443" style="fill: #d62728; stroke: #ffffff; stroke-width: 0.75"/>
     <use xlink:href="#m1593f4f789" x="73.035084" y="165.942295" style="fill: #d62728; stroke: #ffffff; stroke-width: 0.75"/>
     <use xlink:href="#m1593f4f789" x="77.141133" y="165.927376" style="fill: #d62728; stroke: #ffffff; stroke-width: 0.75"/>
     <use xlink:href="#m1593f4f789" x="81.247182" y="165.89199" style="fill: #d62728; stroke: #ffffff; stroke-width: 0.75"/>
     <use xlink:href="#m1593f4f789" x="85.353231" y="165.818478" style="fill: #d62728; stroke: #ffffff; stroke-width: 0.75"/>
     <use xlink:href="#m1593f4f789" x="89.45928" y="165.716242" style="fill: #d62728; stroke: #ffffff; stroke-width: 0.75"/>
     <use xlink:href="#m1593f4f789" x="93.56533" y="165.474923" style="fill: #d62728; stroke: #ffffff; stroke-width: 0.75"/>
     <use xlink:href="#m1593f4f789" x="97.671379" y="165.021051" style="fill: #d62728; stroke: #ffffff; stroke-width: 0.75"/>
     <use xlink:href="#m1593f4f789" x="101.777428" y="164.391899" style="fill: #d62728; stroke: #ffffff; stroke-width: 0.75"/>
     <use xlink:href="#m1593f4f789" x="105.883477" y="163.373329" style="fill: #d62728; stroke: #ffffff; stroke-width: 0.75"/>
     <use xlink:href="#m1593f4f789" x="109.989526" y="161.983374" style="fill: #d62728; stroke: #ffffff; stroke-width: 0.75"/>
     <use xlink:href="#m1593f4f789" x="114.095575" y="160.650387" style="fill: #d62728; stroke: #ffffff; stroke-width: 0.75"/>
     <use xlink:href="#m1593f4f789" x="118.201624" y="159.42574" style="fill: #d62728; stroke: #ffffff; stroke-width: 0.75"/>
     <use xlink:href="#m1593f4f789" x="122.307674" y="158.673625" style="fill: #d62728; stroke: #ffffff; stroke-width: 0.75"/>
     <use xlink:href="#m1593f4f789" x="126.413723" y="157.977686" style="fill: #d62728; stroke: #ffffff; stroke-width: 0.75"/>
     <use xlink:href="#m1593f4f789" x="130.519772" y="156.894727" style="fill: #d62728; stroke: #ffffff; stroke-width: 0.75"/>
     <use xlink:href="#m1593f4f789" x="134.625821" y="154.3884" style="fill: #d62728; stroke: #ffffff; stroke-width: 0.75"/>
     <use xlink:href="#m1593f4f789" x="138.73187" y="154.155206" style="fill: #d62728; stroke: #ffffff; stroke-width: 0.75"/>
     <use xlink:href="#m1593f4f789" x="142.837919" y="160.049606" style="fill: #d62728; stroke: #ffffff; stroke-width: 0.75"/>
     <use xlink:href="#m1593f4f789" x="146.943968" y="159.230044" style="fill: #d62728; stroke: #ffffff; stroke-width: 0.75"/>
     <use xlink:href="#m1593f4f789" x="151.050018" y="158.214479" style="fill: #d62728; stroke: #ffffff; stroke-width: 0.75"/>
     <use xlink:href="#m1593f4f789" x="155.156067" y="157.747112" style="fill: #d62728; stroke: #ffffff; stroke-width: 0.75"/>
     <use xlink:href="#m1593f4f789" x="159.262116" y="157.503811" style="fill: #d62728; stroke: #ffffff; stroke-width: 0.75"/>
     <use xlink:href="#m1593f4f789" x="163.368165" y="157.276555" style="fill: #d62728; stroke: #ffffff; stroke-width: 0.75"/>
     <use xlink:href="#m1593f4f789" x="167.474214" y="157.164915" style="fill: #d62728; stroke: #ffffff; stroke-width: 0.75"/>
    </g>
   </g>
   <g id="line2d_44">
    <path d="M 45.08375 165.96 
L 51.591684 165.959724 
L 56.610887 165.9593 
L 60.716936 165.95846 
L 64.822986 165.956802 
L 68.929035 165.953505 
L 73.035084 165.946789 
L 77.141133 165.93631 
L 81.247182 165.923599 
L 85.353231 165.857086 
L 89.45928 165.758277 
L 93.56533 165.571048 
L 97.671379 165.297566 
L 101.777428 164.797971 
L 105.883477 163.922117 
L 109.989526 162.615709 
L 114.095575 160.886051 
L 118.201624 159.411912 
L 122.307674 158.278533 
L 126.413723 157.30252 
L 130.519772 155.82709 
L 134.625821 153.803414 
L 138.73187 153.35084 
L 142.837919 159.30941 
L 146.943968 158.273203 
L 151.050018 157.363476 
L 155.156067 156.878841 
L 159.262116 156.675908 
L 163.368165 156.367627 
L 167.474214 156.447542 
" clip-path="url(#p0a7a849dd9)" style="fill: none; stroke-dasharray: 8.14,3.52; stroke-dashoffset: 0; stroke: #e26868; stroke-width: 2.2"/>
    <defs>
     <path id="m81b4ec4686" d="M 0 2.5 
C 0.663008 2.5 1.29895 2.236584 1.767767 1.767767 
C 2.236584 1.29895 2.5 0.663008 2.5 0 
C 2.5 -0.663008 2.236584 -1.29895 1.767767 -1.767767 
C 1.29895 -2.236584 0.663008 -2.5 0 -2.5 
C -0.663008 -2.5 -1.29895 -2.236584 -1.767767 -1.767767 
C -2.236584 -1.29895 -2.5 -0.663008 -2.5 0 
C -2.5 0.663008 -2.236584 1.29895 -1.767767 1.767767 
C -1.29895 2.236584 -0.663008 2.5 0 2.5 
z
" style="stroke: #ffffff; stroke-width: 0.75"/>
    </defs>
    <g clip-path="url(#p0a7a849dd9)">
     <use xlink:href="#m81b4ec4686" x="45.08375" y="165.96" style="fill: #e26868; stroke: #ffffff; stroke-width: 0.75"/>
     <use xlink:href="#m81b4ec4686" x="51.591684" y="165.959724" style="fill: #e26868; stroke: #ffffff; stroke-width: 0.75"/>
     <use xlink:href="#m81b4ec4686" x="56.610887" y="165.9593" style="fill: #e26868; stroke: #ffffff; stroke-width: 0.75"/>
     <use xlink:href="#m81b4ec4686" x="60.716936" y="165.95846" style="fill: #e26868; stroke: #ffffff; stroke-width: 0.75"/>
     <use xlink:href="#m81b4ec4686" x="64.822986" y="165.956802" style="fill: #e26868; stroke: #ffffff; stroke-width: 0.75"/>
     <use xlink:href="#m81b4ec4686" x="68.929035" y="165.953505" style="fill: #e26868; stroke: #ffffff; stroke-width: 0.75"/>
     <use xlink:href="#m81b4ec4686" x="73.035084" y="165.946789" style="fill: #e26868; stroke: #ffffff; stroke-width: 0.75"/>
     <use xlink:href="#m81b4ec4686" x="77.141133" y="165.93631" style="fill: #e26868; stroke: #ffffff; stroke-width: 0.75"/>
     <use xlink:href="#m81b4ec4686" x="81.247182" y="165.923599" style="fill: #e26868; stroke: #ffffff; stroke-width: 0.75"/>
     <use xlink:href="#m81b4ec4686" x="85.353231" y="165.857086" style="fill: #e26868; stroke: #ffffff; stroke-width: 0.75"/>
     <use xlink:href="#m81b4ec4686" x="89.45928" y="165.758277" style="fill: #e26868; stroke: #ffffff; stroke-width: 0.75"/>
     <use xlink:href="#m81b4ec4686" x="93.56533" y="165.571048" style="fill: #e26868; stroke: #ffffff; stroke-width: 0.75"/>
     <use xlink:href="#m81b4ec4686" x="97.671379" y="165.297566" style="fill: #e26868; stroke: #ffffff; stroke-width: 0.75"/>
     <use xlink:href="#m81b4ec4686" x="101.777428" y="164.797971" style="fill: #e26868; stroke: #ffffff; stroke-width: 0.75"/>
     <use xlink:href="#m81b4ec4686" x="105.883477" y="163.922117" style="fill: #e26868; stroke: #ffffff; stroke-width: 0.75"/>
     <use xlink:href="#m81b4ec4686" x="109.989526" y="162.615709" style="fill: #e26868; stroke: #ffffff; stroke-width: 0.75"/>
     <use xlink:href="#m81b4ec4686" x="114.095575" y="160.886051" style="fill: #e26868; stroke: #ffffff; stroke-width: 0.75"/>
     <use xlink:href="#m81b4ec4686" x="118.201624" y="159.411912" style="fill: #e26868; stroke: #ffffff; stroke-width: 0.75"/>
     <use xlink:href="#m81b4ec4686" x="122.307674" y="158.278533" style="fill: #e26868; stroke: #ffffff; stroke-width: 0.75"/>
     <use xlink:href="#m81b4ec4686" x="126.413723" y="157.30252" style="fill: #e26868; stroke: #ffffff; stroke-width: 0.75"/>
     <use xlink:href="#m81b4ec4686" x="130.519772" y="155.82709" style="fill: #e26868; stroke: #ffffff; stroke-width: 0.75"/>
     <use xlink:href="#m81b4ec4686" x="134.625821" y="153.803414" style="fill: #e26868; stroke: #ffffff; stroke-width: 0.75"/>
     <use xlink:href="#m81b4ec4686" x="138.73187" y="153.35084" style="fill: #e26868; stroke: #ffffff; stroke-width: 0.75"/>
     <use xlink:href="#m81b4ec4686" x="142.837919" y="159.30941" style="fill: #e26868; stroke: #ffffff; stroke-width: 0.75"/>
     <use xlink:href="#m81b4ec4686" x="146.943968" y="158.273203" style="fill: #e26868; stroke: #ffffff; stroke-width: 0.75"/>
     <use xlink:href="#m81b4ec4686" x="151.050018" y="157.363476" style="fill: #e26868; stroke: #ffffff; stroke-width: 0.75"/>
     <use xlink:href="#m81b4ec4686" x="155.156067" y="156.878841" style="fill: #e26868; stroke: #ffffff; stroke-width: 0.75"/>
     <use xlink:href="#m81b4ec4686" x="159.262116" y="156.675908" style="fill: #e26868; stroke: #ffffff; stroke-width: 0.75"/>
     <use xlink:href="#m81b4ec4686" x="163.368165" y="156.367627" style="fill: #e26868; stroke: #ffffff; stroke-width: 0.75"/>
     <use xlink:href="#m81b4ec4686" x="167.474214" y="156.447542" style="fill: #e26868; stroke: #ffffff; stroke-width: 0.75"/>
    </g>
   </g>
   <g id="patch_3">
    <path d="M 45.08375 173.52 
L 45.08375 7.2 
" style="fill: none; stroke: #000000; stroke-width: 0.8; stroke-linejoin: miter; stroke-linecap: square"/>
   </g>
   <g id="patch_4">
    <path d="M 167.84375 173.52 
L 167.84375 7.2 
" style="fill: none; stroke: #000000; stroke-width: 0.8; stroke-linejoin: miter; stroke-linecap: square"/>
   </g>
   <g id="patch_5">
    <path d="M 45.08375 173.52 
L 167.84375 173.52 
" style="fill: none; stroke: #000000; stroke-width: 0.8; stroke-linejoin: miter; stroke-linecap: square"/>
   </g>
   <g id="patch_6">
    <path d="M 45.08375 7.2 
L 167.84375 7.2 
" style="fill: none; stroke: #000000; stroke-width: 0.8; stroke-linejoin: miter; stroke-linecap: square"/>
   </g>
  </g>
 </g>
 <defs>
  <clipPath id="p0a7a849dd9">
   <rect x="45.08375" y="7.2" width="122.76" height="166.32"/>
  </clipPath>
 </defs>
</svg>
