<?xml version="1.0" encoding="utf-8" standalone="no"?>
<!DOCTYPE svg PUBLIC "-//W3C//DTD SVG 1.1//EN"
  "http://www.w3.org/Graphics/SVG/1.1/DTD/svg11.dtd">
<svg xmlns:xlink="http://www.w3.org/1999/xlink" width="185.60375pt" height="218.64777pt" viewBox="0 0 185.60375 218.64777" xmlns="http://www.w3.org/2000/svg" version="1.1">
 <metadata>
  <rdf:RDF xmlns:dc="http://purl.org/dc/elements/1.1/" xmlns:cc="http://creativecommons.org/ns#" xmlns:rdf="http://www.w3.org/1999/02/22-rdf-syntax-ns#">
   <cc:Work>
    <dc:type rdf:resource="http://purl.org/dc/dcmitype/StillImage"/>
    <dc:date>2024-08-08T10:39:39.152049</dc:date>
    <dc:format>image/svg+xml</dc:format>
    <dc:creator>
     <cc:Agent>
      <dc:title>Matplotlib v3.8.3, https://matplotlib.org/</dc:title>
     </cc:Agent>
    </dc:creator>
   </cc:Work>
  </rdf:RDF>
 </metadata>
 <defs>
  <style type="text/css">*{stroke-linejoin: round; stroke-linecap: butt}</style>
 </defs>
 <g id="figure_1">
  <g id="patch_1">
   <path d="M 0 218.64777 
L 185.60375 218.64777 
L 185.60375 0 
L 0 0 
z
" style="fill: #ffffff"/>
  </g>
  <g id="axes_1">
   <g id="patch_2">
    <path d="M 45.08375 177.22027 
L 167.84375 177.22027 
L 167.84375 10.90027 
L 45.08375 10.90027 
z
" style="fill: #ffffff"/>
   </g>
   <g id="PolyCollection_1">
    <defs>
     <path id="m70575d1bde" d="M 45.08375 -48.987811 
L 45.08375 -48.987804 
L 49.189799 -48.988259 
L 53.295848 -48.989126 
L 57.401897 -48.990927 
L 61.507947 -48.994878 
L 65.613996 -49.001974 
L 69.720045 -49.016591 
L 73.826094 -49.045937 
L 77.932143 -49.103585 
L 82.038192 -49.222672 
L 86.144241 -49.454636 
L 90.250291 -49.90423 
L 94.35634 -50.808766 
L 98.462389 -52.509142 
L 102.568438 -55.573987 
L 106.674487 -60.527598 
L 110.780536 -69.120302 
L 114.886585 -80.211455 
L 118.992635 -94.363851 
L 123.098684 -115.511088 
L 127.204733 -133.484425 
L 131.310782 -152.387931 
L 135.416831 -169.707622 
L 139.52288 -181.713813 
L 143.628929 -189.003883 
L 147.734979 -193.483703 
L 151.841028 -196.716019 
L 155.947077 -198.646023 
L 160.053126 -199.587655 
L 164.159175 -199.994764 
L 164.159175 -200.1875 
L 164.159175 -200.1875 
L 160.053126 -199.692382 
L 155.947077 -198.716955 
L 151.841028 -196.913748 
L 147.734979 -193.67975 
L 143.628929 -189.361414 
L 139.52288 -182.120849 
L 135.416831 -169.95007 
L 131.310782 -152.419225 
L 127.204733 -135.252537 
L 123.098684 -116.482185 
L 118.992635 -96.248369 
L 114.886585 -80.215098 
L 110.780536 -69.208198 
L 106.674487 -60.886239 
L 102.568438 -55.696446 
L 98.462389 -52.64596 
L 94.35634 -50.879499 
L 90.250291 -49.955651 
L 86.144241 -49.473274 
L 82.038192 -49.229138 
L 77.932143 -49.107542 
L 73.826094 -49.047358 
L 69.720045 -49.018061 
L 65.613996 -49.002514 
L 61.507947 -48.995011 
L 57.401897 -48.991024 
L 53.295848 -48.989189 
L 49.189799 -48.988279 
L 45.08375 -48.987811 
z
" style="stroke: #1f77b4; stroke-opacity: 0.2"/>
    </defs>
    <g clip-path="url(#p8064583693)">
     <use xlink:href="#m70575d1bde" x="0" y="218.64777" style="fill: #1f77b4; fill-opacity: 0.2; stroke: #1f77b4; stroke-opacity: 0.2"/>
    </g>
   </g>
   <g id="PolyCollection_2"/>
   <g id="PolyCollection_3">
    <defs>
     <path id="m7cd51f4af3" d="M 45.08375 -48.988154 
L 45.08375 -48.988143 
L 49.189799 -48.988956 
L 53.295848 -48.990566 
L 57.401897 -48.993761 
L 61.507947 -49.000137 
L 65.613996 -49.012691 
L 69.720045 -49.038129 
L 73.826094 -49.087314 
L 77.932143 -49.184088 
L 82.038192 -49.375099 
L 86.144241 -49.767311 
L 90.250291 -50.435297 
L 94.35634 -51.672534 
L 98.462389 -53.782105 
L 102.568438 -56.731425 
L 106.674487 -62.967245 
L 110.780536 -70.9465 
L 114.886585 -79.748637 
L 118.992635 -98.188605 
L 123.098684 -106.779385 
L 127.204733 -112.1289 
L 131.310782 -115.291872 
L 135.416831 -117.073483 
L 139.52288 -118.049088 
L 143.628929 -118.542067 
L 147.734979 -118.800641 
L 151.841028 -118.930141 
L 155.947077 -118.99658 
L 160.053126 -119.030822 
L 164.159175 -119.043582 
L 164.159175 -119.099747 
L 164.159175 -119.099747 
L 160.053126 -119.086894 
L 155.947077 -119.056412 
L 151.841028 -118.982751 
L 147.734979 -118.845237 
L 143.628929 -118.591189 
L 139.52288 -118.083464 
L 135.416831 -117.099651 
L 131.310782 -115.308409 
L 127.204733 -112.131365 
L 123.098684 -106.914126 
L 118.992635 -98.281423 
L 114.886585 -80.151813 
L 110.780536 -71.157812 
L 106.674487 -63.150189 
L 102.568438 -56.806736 
L 98.462389 -53.798469 
L 94.35634 -51.70322 
L 90.250291 -50.441052 
L 86.144241 -49.769663 
L 82.038192 -49.377589 
L 77.932143 -49.186169 
L 73.826094 -49.088367 
L 69.720045 -49.038139 
L 65.613996 -49.012931 
L 61.507947 -49.000168 
L 57.401897 -48.993817 
L 53.295848 -48.990586 
L 49.189799 -48.988957 
L 45.08375 -48.988154 
z
" style="stroke: #ff7f0e; stroke-opacity: 0.2"/>
    </defs>
    <g clip-path="url(#p8064583693)">
     <use xlink:href="#m7cd51f4af3" x="0" y="218.64777" style="fill: #ff7f0e; fill-opacity: 0.2; stroke: #ff7f0e; stroke-opacity: 0.2"/>
    </g>
   </g>
   <g id="PolyCollection_4">
    <defs>
     <path id="m7db6ae3487" d="M 45.08375 -48.990636 
L 45.08375 -48.990535 
L 49.189799 -48.993639 
L 53.295848 -48.999627 
L 57.401897 -49.012273 
L 61.507947 -49.035527 
L 65.613996 -49.080774 
L 69.720045 -49.162577 
L 73.826094 -49.358094 
L 77.932143 -49.661703 
L 82.038192 -50.43089 
L 86.144241 -51.625445 
L 90.250291 -54.073051 
L 94.35634 -57.808368 
L 98.462389 -64.09475 
L 102.568438 -69.892387 
L 106.674487 -80.672588 
L 110.780536 -94.552895 
L 114.886585 -109.578589 
L 118.992635 -123.655021 
L 123.098684 -133.554395 
L 127.204733 -145.442495 
L 131.310782 -148.534526 
L 135.416831 -148.266719 
L 139.52288 -158.884438 
L 143.628929 -157.014812 
L 147.734979 -144.381537 
L 151.841028 -145.632296 
L 155.947077 -146.35602 
L 160.053126 -146.976733 
L 164.159175 -147.377098 
L 164.159175 -166.975064 
L 164.159175 -166.975064 
L 160.053126 -167.327273 
L 155.947077 -165.860925 
L 151.841028 -164.517534 
L 147.734979 -163.716143 
L 143.628929 -182.326987 
L 139.52288 -182.301308 
L 135.416831 -178.692598 
L 131.310782 -177.397069 
L 127.204733 -172.757232 
L 123.098684 -160.848887 
L 118.992635 -146.935664 
L 114.886585 -127.513417 
L 110.780536 -103.525477 
L 106.674487 -86.212834 
L 102.568438 -73.093841 
L 98.462389 -66.361624 
L 94.35634 -58.289232 
L 90.250291 -54.431341 
L 86.144241 -51.877557 
L 82.038192 -50.599749 
L 77.932143 -49.72262 
L 73.826094 -49.403888 
L 69.720045 -49.175477 
L 65.613996 -49.088371 
L 61.507947 -49.036725 
L 57.401897 -49.012871 
L 53.295848 -49.00008 
L 49.189799 -48.993713 
L 45.08375 -48.990636 
z
" style="stroke: #d62728; stroke-opacity: 0.2"/>
    </defs>
    <g clip-path="url(#p8064583693)">
     <use xlink:href="#m7db6ae3487" x="0" y="218.64777" style="fill: #d62728; fill-opacity: 0.2; stroke: #d62728; stroke-opacity: 0.2"/>
    </g>
   </g>
   <g id="matplotlib.axis_1">
    <g id="xtick_1">
     <g id="line2d_1">
      <path d="M 45.08375 177.22027 
L 45.08375 10.90027 
" clip-path="url(#p8064583693)" style="fill: none; stroke-dasharray: 2.96,1.28; stroke-dashoffset: 0; stroke: #b0b0b0; stroke-width: 0.8"/>
     </g>
     <g id="line2d_2">
      <defs>
       <path id="mb678ac2354" d="M 0 0 
L 0 3.5 
" style="stroke: #000000; stroke-width: 0.8"/>
      </defs>
      <g>
       <use xlink:href="#mb678ac2354" x="45.08375" y="177.22027" style="stroke: #000000; stroke-width: 0.8"/>
      </g>
     </g>
     <g id="text_1">
      <!-- $\mathdefault{10^{0}}$ -->
      <g transform="translate(34.52375 193.338395) scale(0.12 -0.12)">
       <defs>
        <path id="DejaVuSans-31" d="M 794 531 
L 1825 531 
L 1825 4091 
L 703 3866 
L 703 4441 
L 1819 4666 
L 2450 4666 
L 2450 531 
L 3481 531 
L 3481 0 
L 794 0 
L 794 531 
z
" transform="scale(0.015625)"/>
        <path id="DejaVuSans-30" d="M 2034 4250 
Q 1547 4250 1301 3770 
Q 1056 3291 1056 2328 
Q 1056 1369 1301 889 
Q 1547 409 2034 409 
Q 2525 409 2770 889 
Q 3016 1369 3016 2328 
Q 3016 3291 2770 3770 
Q 2525 4250 2034 4250 
z
M 2034 4750 
Q 2819 4750 3233 4129 
Q 3647 3509 3647 2328 
Q 3647 1150 3233 529 
Q 2819 -91 2034 -91 
Q 1250 -91 836 529 
Q 422 1150 422 2328 
Q 422 3509 836 4129 
Q 1250 4750 2034 4750 
z
" transform="scale(0.015625)"/>
       </defs>
       <use xlink:href="#DejaVuSans-31" transform="translate(0 0.765625)"/>
       <use xlink:href="#DejaVuSans-30" transform="translate(63.623047 0.765625)"/>
       <use xlink:href="#DejaVuSans-30" transform="translate(128.203125 39.046875) scale(0.7)"/>
      </g>
     </g>
    </g>
    <g id="xtick_2">
     <g id="line2d_3">
      <path d="M 86.00375 177.22027 
L 86.00375 10.90027 
" clip-path="url(#p8064583693)" style="fill: none; stroke-dasharray: 2.96,1.28; stroke-dashoffset: 0; stroke: #b0b0b0; stroke-width: 0.8"/>
     </g>
     <g id="line2d_4">
      <g>
       <use xlink:href="#mb678ac2354" x="86.00375" y="177.22027" style="stroke: #000000; stroke-width: 0.8"/>
      </g>
     </g>
     <g id="text_2">
      <!-- $\mathdefault{10^{3}}$ -->
      <g transform="translate(75.44375 193.338395) scale(0.12 -0.12)">
       <defs>
        <path id="DejaVuSans-33" d="M 2597 2516 
Q 3050 2419 3304 2112 
Q 3559 1806 3559 1356 
Q 3559 666 3084 287 
Q 2609 -91 1734 -91 
Q 1441 -91 1130 -33 
Q 819 25 488 141 
L 488 750 
Q 750 597 1062 519 
Q 1375 441 1716 441 
Q 2309 441 2620 675 
Q 2931 909 2931 1356 
Q 2931 1769 2642 2001 
Q 2353 2234 1838 2234 
L 1294 2234 
L 1294 2753 
L 1863 2753 
Q 2328 2753 2575 2939 
Q 2822 3125 2822 3475 
Q 2822 3834 2567 4026 
Q 2313 4219 1838 4219 
Q 1578 4219 1281 4162 
Q 984 4106 628 3988 
L 628 4550 
Q 988 4650 1302 4700 
Q 1616 4750 1894 4750 
Q 2613 4750 3031 4423 
Q 3450 4097 3450 3541 
Q 3450 3153 3228 2886 
Q 3006 2619 2597 2516 
z
" transform="scale(0.015625)"/>
       </defs>
       <use xlink:href="#DejaVuSans-31" transform="translate(0 0.765625)"/>
       <use xlink:href="#DejaVuSans-30" transform="translate(63.623047 0.765625)"/>
       <use xlink:href="#DejaVuSans-33" transform="translate(128.203125 39.046875) scale(0.7)"/>
      </g>
     </g>
    </g>
    <g id="xtick_3">
     <g id="line2d_5">
      <path d="M 126.92375 177.22027 
L 126.92375 10.90027 
" clip-path="url(#p8064583693)" style="fill: none; stroke-dasharray: 2.96,1.28; stroke-dashoffset: 0; stroke: #b0b0b0; stroke-width: 0.8"/>
     </g>
     <g id="line2d_6">
      <g>
       <use xlink:href="#mb678ac2354" x="126.92375" y="177.22027" style="stroke: #000000; stroke-width: 0.8"/>
      </g>
     </g>
     <g id="text_3">
      <!-- $\mathdefault{10^{6}}$ -->
      <g transform="translate(116.36375 193.338395) scale(0.12 -0.12)">
       <defs>
        <path id="DejaVuSans-36" d="M 2113 2584 
Q 1688 2584 1439 2293 
Q 1191 2003 1191 1497 
Q 1191 994 1439 701 
Q 1688 409 2113 409 
Q 2538 409 2786 701 
Q 3034 994 3034 1497 
Q 3034 2003 2786 2293 
Q 2538 2584 2113 2584 
z
M 3366 4563 
L 3366 3988 
Q 3128 4100 2886 4159 
Q 2644 4219 2406 4219 
Q 1781 4219 1451 3797 
Q 1122 3375 1075 2522 
Q 1259 2794 1537 2939 
Q 1816 3084 2150 3084 
Q 2853 3084 3261 2657 
Q 3669 2231 3669 1497 
Q 3669 778 3244 343 
Q 2819 -91 2113 -91 
Q 1303 -91 875 529 
Q 447 1150 447 2328 
Q 447 3434 972 4092 
Q 1497 4750 2381 4750 
Q 2619 4750 2861 4703 
Q 3103 4656 3366 4563 
z
" transform="scale(0.015625)"/>
       </defs>
       <use xlink:href="#DejaVuSans-31" transform="translate(0 0.765625)"/>
       <use xlink:href="#DejaVuSans-30" transform="translate(63.623047 0.765625)"/>
       <use xlink:href="#DejaVuSans-36" transform="translate(128.203125 39.046875) scale(0.7)"/>
      </g>
     </g>
    </g>
    <g id="xtick_4">
     <g id="line2d_7">
      <path d="M 167.84375 177.22027 
L 167.84375 10.90027 
" clip-path="url(#p8064583693)" style="fill: none; stroke-dasharray: 2.96,1.28; stroke-dashoffset: 0; stroke: #b0b0b0; stroke-width: 0.8"/>
     </g>
     <g id="line2d_8">
      <g>
       <use xlink:href="#mb678ac2354" x="167.84375" y="177.22027" style="stroke: #000000; stroke-width: 0.8"/>
      </g>
     </g>
     <g id="text_4">
      <!-- $\mathdefault{10^{9}}$ -->
      <g transform="translate(157.28375 193.338395) scale(0.12 -0.12)">
       <defs>
        <path id="DejaVuSans-39" d="M 703 97 
L 703 672 
Q 941 559 1184 500 
Q 1428 441 1663 441 
Q 2288 441 2617 861 
Q 2947 1281 2994 2138 
Q 2813 1869 2534 1725 
Q 2256 1581 1919 1581 
Q 1219 1581 811 2004 
Q 403 2428 403 3163 
Q 403 3881 828 4315 
Q 1253 4750 1959 4750 
Q 2769 4750 3195 4129 
Q 3622 3509 3622 2328 
Q 3622 1225 3098 567 
Q 2575 -91 1691 -91 
Q 1453 -91 1209 -44 
Q 966 3 703 97 
z
M 1959 2075 
Q 2384 2075 2632 2365 
Q 2881 2656 2881 3163 
Q 2881 3666 2632 3958 
Q 2384 4250 1959 4250 
Q 1534 4250 1286 3958 
Q 1038 3666 1038 3163 
Q 1038 2656 1286 2365 
Q 1534 2075 1959 2075 
z
" transform="scale(0.015625)"/>
       </defs>
       <use xlink:href="#DejaVuSans-31" transform="translate(0 0.765625)"/>
       <use xlink:href="#DejaVuSans-30" transform="translate(63.623047 0.765625)"/>
       <use xlink:href="#DejaVuSans-39" transform="translate(128.203125 39.046875) scale(0.7)"/>
      </g>
     </g>
    </g>
    <g id="text_5">
     <!-- Transfer Size (B) -->
     <g transform="translate(57.412813 208.952145) scale(0.12 -0.12)">
      <defs>
       <path id="DejaVuSans-54" d="M -19 4666 
L 3928 4666 
L 3928 4134 
L 2272 4134 
L 2272 0 
L 1638 0 
L 1638 4134 
L -19 4134 
L -19 4666 
z
" transform="scale(0.015625)"/>
       <path id="DejaVuSans-72" d="M 2631 2963 
Q 2534 3019 2420 3045 
Q 2306 3072 2169 3072 
Q 1681 3072 1420 2755 
Q 1159 2438 1159 1844 
L 1159 0 
L 581 0 
L 581 3500 
L 1159 3500 
L 1159 2956 
Q 1341 3275 1631 3429 
Q 1922 3584 2338 3584 
Q 2397 3584 2469 3576 
Q 2541 3569 2628 3553 
L 2631 2963 
z
" transform="scale(0.015625)"/>
       <path id="DejaVuSans-61" d="M 2194 1759 
Q 1497 1759 1228 1600 
Q 959 1441 959 1056 
Q 959 750 1161 570 
Q 1363 391 1709 391 
Q 2188 391 2477 730 
Q 2766 1069 2766 1631 
L 2766 1759 
L 2194 1759 
z
M 3341 1997 
L 3341 0 
L 2766 0 
L 2766 531 
Q 2569 213 2275 61 
Q 1981 -91 1556 -91 
Q 1019 -91 701 211 
Q 384 513 384 1019 
Q 384 1609 779 1909 
Q 1175 2209 1959 2209 
L 2766 2209 
L 2766 2266 
Q 2766 2663 2505 2880 
Q 2244 3097 1772 3097 
Q 1472 3097 1187 3025 
Q 903 2953 641 2809 
L 641 3341 
Q 956 3463 1253 3523 
Q 1550 3584 1831 3584 
Q 2591 3584 2966 3190 
Q 3341 2797 3341 1997 
z
" transform="scale(0.015625)"/>
       <path id="DejaVuSans-6e" d="M 3513 2113 
L 3513 0 
L 2938 0 
L 2938 2094 
Q 2938 2591 2744 2837 
Q 2550 3084 2163 3084 
Q 1697 3084 1428 2787 
Q 1159 2491 1159 1978 
L 1159 0 
L 581 0 
L 581 3500 
L 1159 3500 
L 1159 2956 
Q 1366 3272 1645 3428 
Q 1925 3584 2291 3584 
Q 2894 3584 3203 3211 
Q 3513 2838 3513 2113 
z
" transform="scale(0.015625)"/>
       <path id="DejaVuSans-73" d="M 2834 3397 
L 2834 2853 
Q 2591 2978 2328 3040 
Q 2066 3103 1784 3103 
Q 1356 3103 1142 2972 
Q 928 2841 928 2578 
Q 928 2378 1081 2264 
Q 1234 2150 1697 2047 
L 1894 2003 
Q 2506 1872 2764 1633 
Q 3022 1394 3022 966 
Q 3022 478 2636 193 
Q 2250 -91 1575 -91 
Q 1294 -91 989 -36 
Q 684 19 347 128 
L 347 722 
Q 666 556 975 473 
Q 1284 391 1588 391 
Q 1994 391 2212 530 
Q 2431 669 2431 922 
Q 2431 1156 2273 1281 
Q 2116 1406 1581 1522 
L 1381 1569 
Q 847 1681 609 1914 
Q 372 2147 372 2553 
Q 372 3047 722 3315 
Q 1072 3584 1716 3584 
Q 2034 3584 2315 3537 
Q 2597 3491 2834 3397 
z
" transform="scale(0.015625)"/>
       <path id="DejaVuSans-66" d="M 2375 4863 
L 2375 4384 
L 1825 4384 
Q 1516 4384 1395 4259 
Q 1275 4134 1275 3809 
L 1275 3500 
L 2222 3500 
L 2222 3053 
L 1275 3053 
L 1275 0 
L 697 0 
L 697 3053 
L 147 3053 
L 147 3500 
L 697 3500 
L 697 3744 
Q 697 4328 969 4595 
Q 1241 4863 1831 4863 
L 2375 4863 
z
" transform="scale(0.015625)"/>
       <path id="DejaVuSans-65" d="M 3597 1894 
L 3597 1613 
L 953 1613 
Q 991 1019 1311 708 
Q 1631 397 2203 397 
Q 2534 397 2845 478 
Q 3156 559 3463 722 
L 3463 178 
Q 3153 47 2828 -22 
Q 2503 -91 2169 -91 
Q 1331 -91 842 396 
Q 353 884 353 1716 
Q 353 2575 817 3079 
Q 1281 3584 2069 3584 
Q 2775 3584 3186 3129 
Q 3597 2675 3597 1894 
z
M 3022 2063 
Q 3016 2534 2758 2815 
Q 2500 3097 2075 3097 
Q 1594 3097 1305 2825 
Q 1016 2553 972 2059 
L 3022 2063 
z
" transform="scale(0.015625)"/>
       <path id="DejaVuSans-20" transform="scale(0.015625)"/>
       <path id="DejaVuSans-53" d="M 3425 4513 
L 3425 3897 
Q 3066 4069 2747 4153 
Q 2428 4238 2131 4238 
Q 1616 4238 1336 4038 
Q 1056 3838 1056 3469 
Q 1056 3159 1242 3001 
Q 1428 2844 1947 2747 
L 2328 2669 
Q 3034 2534 3370 2195 
Q 3706 1856 3706 1288 
Q 3706 609 3251 259 
Q 2797 -91 1919 -91 
Q 1588 -91 1214 -16 
Q 841 59 441 206 
L 441 856 
Q 825 641 1194 531 
Q 1563 422 1919 422 
Q 2459 422 2753 634 
Q 3047 847 3047 1241 
Q 3047 1584 2836 1778 
Q 2625 1972 2144 2069 
L 1759 2144 
Q 1053 2284 737 2584 
Q 422 2884 422 3419 
Q 422 4038 858 4394 
Q 1294 4750 2059 4750 
Q 2388 4750 2728 4690 
Q 3069 4631 3425 4513 
z
" transform="scale(0.015625)"/>
       <path id="DejaVuSans-69" d="M 603 3500 
L 1178 3500 
L 1178 0 
L 603 0 
L 603 3500 
z
M 603 4863 
L 1178 4863 
L 1178 4134 
L 603 4134 
L 603 4863 
z
" transform="scale(0.015625)"/>
       <path id="DejaVuSans-7a" d="M 353 3500 
L 3084 3500 
L 3084 2975 
L 922 459 
L 3084 459 
L 3084 0 
L 275 0 
L 275 525 
L 2438 3041 
L 353 3041 
L 353 3500 
z
" transform="scale(0.015625)"/>
       <path id="DejaVuSans-28" d="M 1984 4856 
Q 1566 4138 1362 3434 
Q 1159 2731 1159 2009 
Q 1159 1288 1364 580 
Q 1569 -128 1984 -844 
L 1484 -844 
Q 1016 -109 783 600 
Q 550 1309 550 2009 
Q 550 2706 781 3412 
Q 1013 4119 1484 4856 
L 1984 4856 
z
" transform="scale(0.015625)"/>
       <path id="DejaVuSans-42" d="M 1259 2228 
L 1259 519 
L 2272 519 
Q 2781 519 3026 730 
Q 3272 941 3272 1375 
Q 3272 1813 3026 2020 
Q 2781 2228 2272 2228 
L 1259 2228 
z
M 1259 4147 
L 1259 2741 
L 2194 2741 
Q 2656 2741 2882 2914 
Q 3109 3088 3109 3444 
Q 3109 3797 2882 3972 
Q 2656 4147 2194 4147 
L 1259 4147 
z
M 628 4666 
L 2241 4666 
Q 2963 4666 3353 4366 
Q 3744 4066 3744 3513 
Q 3744 3084 3544 2831 
Q 3344 2578 2956 2516 
Q 3422 2416 3680 2098 
Q 3938 1781 3938 1306 
Q 3938 681 3513 340 
Q 3088 0 2303 0 
L 628 0 
L 628 4666 
z
" transform="scale(0.015625)"/>
       <path id="DejaVuSans-29" d="M 513 4856 
L 1013 4856 
Q 1481 4119 1714 3412 
Q 1947 2706 1947 2009 
Q 1947 1309 1714 600 
Q 1481 -109 1013 -844 
L 513 -844 
Q 928 -128 1133 580 
Q 1338 1288 1338 2009 
Q 1338 2731 1133 3434 
Q 928 4138 513 4856 
z
" transform="scale(0.015625)"/>
      </defs>
      <use xlink:href="#DejaVuSans-54"/>
      <use xlink:href="#DejaVuSans-72" x="46.333984"/>
      <use xlink:href="#DejaVuSans-61" x="87.447266"/>
      <use xlink:href="#DejaVuSans-6e" x="148.726562"/>
      <use xlink:href="#DejaVuSans-73" x="212.105469"/>
      <use xlink:href="#DejaVuSans-66" x="264.205078"/>
      <use xlink:href="#DejaVuSans-65" x="299.410156"/>
      <use xlink:href="#DejaVuSans-72" x="360.933594"/>
      <use xlink:href="#DejaVuSans-20" x="402.046875"/>
      <use xlink:href="#DejaVuSans-53" x="433.833984"/>
      <use xlink:href="#DejaVuSans-69" x="497.310547"/>
      <use xlink:href="#DejaVuSans-7a" x="525.09375"/>
      <use xlink:href="#DejaVuSans-65" x="577.583984"/>
      <use xlink:href="#DejaVuSans-20" x="639.107422"/>
      <use xlink:href="#DejaVuSans-28" x="670.894531"/>
      <use xlink:href="#DejaVuSans-42" x="709.908203"/>
      <use xlink:href="#DejaVuSans-29" x="778.511719"/>
     </g>
    </g>
   </g>
   <g id="matplotlib.axis_2">
    <g id="ytick_1">
     <g id="line2d_9">
      <path d="M 45.08375 169.660427 
L 167.84375 169.660427 
" clip-path="url(#p8064583693)" style="fill: none; stroke-dasharray: 2.96,1.28; stroke-dashoffset: 0; stroke: #b0b0b0; stroke-width: 0.8"/>
     </g>
     <g id="line2d_10">
      <defs>
       <path id="m0c30a84ba5" d="M 0 0 
L -3.5 0 
" style="stroke: #000000; stroke-width: 0.8"/>
      </defs>
      <g>
       <use xlink:href="#m0c30a84ba5" x="45.08375" y="169.660427" style="stroke: #000000; stroke-width: 0.8"/>
      </g>
     </g>
     <g id="text_6">
      <!-- 0 -->
      <g transform="translate(30.44875 174.219489) scale(0.12 -0.12)">
       <use xlink:href="#DejaVuSans-30"/>
      </g>
     </g>
    </g>
    <g id="ytick_2">
     <g id="line2d_11">
      <path d="M 45.08375 143.343533 
L 167.84375 143.343533 
" clip-path="url(#p8064583693)" style="fill: none; stroke-dasharray: 2.96,1.28; stroke-dashoffset: 0; stroke: #b0b0b0; stroke-width: 0.8"/>
     </g>
     <g id="line2d_12">
      <g>
       <use xlink:href="#m0c30a84ba5" x="45.08375" y="143.343533" style="stroke: #000000; stroke-width: 0.8"/>
      </g>
     </g>
     <g id="text_7">
      <!-- 2 -->
      <g transform="translate(30.44875 147.902595) scale(0.12 -0.12)">
       <defs>
        <path id="DejaVuSans-32" d="M 1228 531 
L 3431 531 
L 3431 0 
L 469 0 
L 469 531 
Q 828 903 1448 1529 
Q 2069 2156 2228 2338 
Q 2531 2678 2651 2914 
Q 2772 3150 2772 3378 
Q 2772 3750 2511 3984 
Q 2250 4219 1831 4219 
Q 1534 4219 1204 4116 
Q 875 4013 500 3803 
L 500 4441 
Q 881 4594 1212 4672 
Q 1544 4750 1819 4750 
Q 2544 4750 2975 4387 
Q 3406 4025 3406 3419 
Q 3406 3131 3298 2873 
Q 3191 2616 2906 2266 
Q 2828 2175 2409 1742 
Q 1991 1309 1228 531 
z
" transform="scale(0.015625)"/>
       </defs>
       <use xlink:href="#DejaVuSans-32"/>
      </g>
     </g>
    </g>
    <g id="ytick_3">
     <g id="line2d_13">
      <path d="M 45.08375 117.026639 
L 167.84375 117.026639 
" clip-path="url(#p8064583693)" style="fill: none; stroke-dasharray: 2.96,1.28; stroke-dashoffset: 0; stroke: #b0b0b0; stroke-width: 0.8"/>
     </g>
     <g id="line2d_14">
      <g>
       <use xlink:href="#m0c30a84ba5" x="45.08375" y="117.026639" style="stroke: #000000; stroke-width: 0.8"/>
      </g>
     </g>
     <g id="text_8">
      <!-- 4 -->
      <g transform="translate(30.44875 121.585701) scale(0.12 -0.12)">
       <defs>
        <path id="DejaVuSans-34" d="M 2419 4116 
L 825 1625 
L 2419 1625 
L 2419 4116 
z
M 2253 4666 
L 3047 4666 
L 3047 1625 
L 3713 1625 
L 3713 1100 
L 3047 1100 
L 3047 0 
L 2419 0 
L 2419 1100 
L 313 1100 
L 313 1709 
L 2253 4666 
z
" transform="scale(0.015625)"/>
       </defs>
       <use xlink:href="#DejaVuSans-34"/>
      </g>
     </g>
    </g>
    <g id="ytick_4">
     <g id="line2d_15">
      <path d="M 45.08375 90.709745 
L 167.84375 90.709745 
" clip-path="url(#p8064583693)" style="fill: none; stroke-dasharray: 2.96,1.28; stroke-dashoffset: 0; stroke: #b0b0b0; stroke-width: 0.8"/>
     </g>
     <g id="line2d_16">
      <g>
       <use xlink:href="#m0c30a84ba5" x="45.08375" y="90.709745" style="stroke: #000000; stroke-width: 0.8"/>
      </g>
     </g>
     <g id="text_9">
      <!-- 6 -->
      <g transform="translate(30.44875 95.268807) scale(0.12 -0.12)">
       <use xlink:href="#DejaVuSans-36"/>
      </g>
     </g>
    </g>
    <g id="ytick_5">
     <g id="line2d_17">
      <path d="M 45.08375 64.392851 
L 167.84375 64.392851 
" clip-path="url(#p8064583693)" style="fill: none; stroke-dasharray: 2.96,1.28; stroke-dashoffset: 0; stroke: #b0b0b0; stroke-width: 0.8"/>
     </g>
     <g id="line2d_18">
      <g>
       <use xlink:href="#m0c30a84ba5" x="45.08375" y="64.392851" style="stroke: #000000; stroke-width: 0.8"/>
      </g>
     </g>
     <g id="text_10">
      <!-- 8 -->
      <g transform="translate(30.44875 68.951913) scale(0.12 -0.12)">
       <defs>
        <path id="DejaVuSans-38" d="M 2034 2216 
Q 1584 2216 1326 1975 
Q 1069 1734 1069 1313 
Q 1069 891 1326 650 
Q 1584 409 2034 409 
Q 2484 409 2743 651 
Q 3003 894 3003 1313 
Q 3003 1734 2745 1975 
Q 2488 2216 2034 2216 
z
M 1403 2484 
Q 997 2584 770 2862 
Q 544 3141 544 3541 
Q 544 4100 942 4425 
Q 1341 4750 2034 4750 
Q 2731 4750 3128 4425 
Q 3525 4100 3525 3541 
Q 3525 3141 3298 2862 
Q 3072 2584 2669 2484 
Q 3125 2378 3379 2068 
Q 3634 1759 3634 1313 
Q 3634 634 3220 271 
Q 2806 -91 2034 -91 
Q 1263 -91 848 271 
Q 434 634 434 1313 
Q 434 1759 690 2068 
Q 947 2378 1403 2484 
z
M 1172 3481 
Q 1172 3119 1398 2916 
Q 1625 2713 2034 2713 
Q 2441 2713 2670 2916 
Q 2900 3119 2900 3481 
Q 2900 3844 2670 4047 
Q 2441 4250 2034 4250 
Q 1625 4250 1398 4047 
Q 1172 3844 1172 3481 
z
" transform="scale(0.015625)"/>
       </defs>
       <use xlink:href="#DejaVuSans-38"/>
      </g>
     </g>
    </g>
    <g id="ytick_6">
     <g id="line2d_19">
      <path d="M 45.08375 38.075957 
L 167.84375 38.075957 
" clip-path="url(#p8064583693)" style="fill: none; stroke-dasharray: 2.96,1.28; stroke-dashoffset: 0; stroke: #b0b0b0; stroke-width: 0.8"/>
     </g>
     <g id="line2d_20">
      <g>
       <use xlink:href="#m0c30a84ba5" x="45.08375" y="38.075957" style="stroke: #000000; stroke-width: 0.8"/>
      </g>
     </g>
     <g id="text_11">
      <!-- 10 -->
      <g transform="translate(22.81375 42.635019) scale(0.12 -0.12)">
       <use xlink:href="#DejaVuSans-31"/>
       <use xlink:href="#DejaVuSans-30" x="63.623047"/>
      </g>
     </g>
    </g>
    <g id="ytick_7">
     <g id="line2d_21">
      <path d="M 45.08375 11.759063 
L 167.84375 11.759063 
" clip-path="url(#p8064583693)" style="fill: none; stroke-dasharray: 2.96,1.28; stroke-dashoffset: 0; stroke: #b0b0b0; stroke-width: 0.8"/>
     </g>
     <g id="line2d_22">
      <g>
       <use xlink:href="#m0c30a84ba5" x="45.08375" y="11.759063" style="stroke: #000000; stroke-width: 0.8"/>
      </g>
     </g>
     <g id="text_12">
      <!-- 12 -->
      <g transform="translate(22.81375 16.318125) scale(0.12 -0.12)">
       <use xlink:href="#DejaVuSans-31"/>
       <use xlink:href="#DejaVuSans-32" x="63.623047"/>
      </g>
     </g>
    </g>
    <g id="ytick_8">
     <g id="line2d_23">
      <defs>
       <path id="m45c04a87fe" d="M 0 0 
L -2 0 
" style="stroke: #000000; stroke-width: 0.6"/>
      </defs>
      <g>
       <use xlink:href="#m45c04a87fe" x="45.08375" y="176.23965" style="stroke: #000000; stroke-width: 0.6"/>
      </g>
     </g>
    </g>
    <g id="ytick_9">
     <g id="line2d_24">
      <g>
       <use xlink:href="#m45c04a87fe" x="45.08375" y="163.081203" style="stroke: #000000; stroke-width: 0.6"/>
      </g>
     </g>
    </g>
    <g id="ytick_10">
     <g id="line2d_25">
      <g>
       <use xlink:href="#m45c04a87fe" x="45.08375" y="156.50198" style="stroke: #000000; stroke-width: 0.6"/>
      </g>
     </g>
    </g>
    <g id="ytick_11">
     <g id="line2d_26">
      <g>
       <use xlink:href="#m45c04a87fe" x="45.08375" y="149.922756" style="stroke: #000000; stroke-width: 0.6"/>
      </g>
     </g>
    </g>
    <g id="ytick_12">
     <g id="line2d_27">
      <g>
       <use xlink:href="#m45c04a87fe" x="45.08375" y="136.764309" style="stroke: #000000; stroke-width: 0.6"/>
      </g>
     </g>
    </g>
    <g id="ytick_13">
     <g id="line2d_28">
      <g>
       <use xlink:href="#m45c04a87fe" x="45.08375" y="130.185086" style="stroke: #000000; stroke-width: 0.6"/>
      </g>
     </g>
    </g>
    <g id="ytick_14">
     <g id="line2d_29">
      <g>
       <use xlink:href="#m45c04a87fe" x="45.08375" y="123.605862" style="stroke: #000000; stroke-width: 0.6"/>
      </g>
     </g>
    </g>
    <g id="ytick_15">
     <g id="line2d_30">
      <g>
       <use xlink:href="#m45c04a87fe" x="45.08375" y="110.447415" style="stroke: #000000; stroke-width: 0.6"/>
      </g>
     </g>
    </g>
    <g id="ytick_16">
     <g id="line2d_31">
      <g>
       <use xlink:href="#m45c04a87fe" x="45.08375" y="103.868192" style="stroke: #000000; stroke-width: 0.6"/>
      </g>
     </g>
    </g>
    <g id="ytick_17">
     <g id="line2d_32">
      <g>
       <use xlink:href="#m45c04a87fe" x="45.08375" y="97.288968" style="stroke: #000000; stroke-width: 0.6"/>
      </g>
     </g>
    </g>
    <g id="ytick_18">
     <g id="line2d_33">
      <g>
       <use xlink:href="#m45c04a87fe" x="45.08375" y="84.130521" style="stroke: #000000; stroke-width: 0.6"/>
      </g>
     </g>
    </g>
    <g id="ytick_19">
     <g id="line2d_34">
      <g>
       <use xlink:href="#m45c04a87fe" x="45.08375" y="77.551298" style="stroke: #000000; stroke-width: 0.6"/>
      </g>
     </g>
    </g>
    <g id="ytick_20">
     <g id="line2d_35">
      <g>
       <use xlink:href="#m45c04a87fe" x="45.08375" y="70.972074" style="stroke: #000000; stroke-width: 0.6"/>
      </g>
     </g>
    </g>
    <g id="ytick_21">
     <g id="line2d_36">
      <g>
       <use xlink:href="#m45c04a87fe" x="45.08375" y="57.813627" style="stroke: #000000; stroke-width: 0.6"/>
      </g>
     </g>
    </g>
    <g id="ytick_22">
     <g id="line2d_37">
      <g>
       <use xlink:href="#m45c04a87fe" x="45.08375" y="51.234404" style="stroke: #000000; stroke-width: 0.6"/>
      </g>
     </g>
    </g>
    <g id="ytick_23">
     <g id="line2d_38">
      <g>
       <use xlink:href="#m45c04a87fe" x="45.08375" y="44.65518" style="stroke: #000000; stroke-width: 0.6"/>
      </g>
     </g>
    </g>
    <g id="ytick_24">
     <g id="line2d_39">
      <g>
       <use xlink:href="#m45c04a87fe" x="45.08375" y="31.496733" style="stroke: #000000; stroke-width: 0.6"/>
      </g>
     </g>
    </g>
    <g id="ytick_25">
     <g id="line2d_40">
      <g>
       <use xlink:href="#m45c04a87fe" x="45.08375" y="24.91751" style="stroke: #000000; stroke-width: 0.6"/>
      </g>
     </g>
    </g>
    <g id="ytick_26">
     <g id="line2d_41">
      <g>
       <use xlink:href="#m45c04a87fe" x="45.08375" y="18.338286" style="stroke: #000000; stroke-width: 0.6"/>
      </g>
     </g>
    </g>
    <g id="text_13">
     <!-- Bandwidth (GB/s) -->
     <g transform="translate(16.318125 146.50402) rotate(-90) scale(0.12 -0.12)">
      <defs>
       <path id="DejaVuSans-64" d="M 2906 2969 
L 2906 4863 
L 3481 4863 
L 3481 0 
L 2906 0 
L 2906 525 
Q 2725 213 2448 61 
Q 2172 -91 1784 -91 
Q 1150 -91 751 415 
Q 353 922 353 1747 
Q 353 2572 751 3078 
Q 1150 3584 1784 3584 
Q 2172 3584 2448 3432 
Q 2725 3281 2906 2969 
z
M 947 1747 
Q 947 1113 1208 752 
Q 1469 391 1925 391 
Q 2381 391 2643 752 
Q 2906 1113 2906 1747 
Q 2906 2381 2643 2742 
Q 2381 3103 1925 3103 
Q 1469 3103 1208 2742 
Q 947 2381 947 1747 
z
" transform="scale(0.015625)"/>
       <path id="DejaVuSans-77" d="M 269 3500 
L 844 3500 
L 1563 769 
L 2278 3500 
L 2956 3500 
L 3675 769 
L 4391 3500 
L 4966 3500 
L 4050 0 
L 3372 0 
L 2619 2869 
L 1863 0 
L 1184 0 
L 269 3500 
z
" transform="scale(0.015625)"/>
       <path id="DejaVuSans-74" d="M 1172 4494 
L 1172 3500 
L 2356 3500 
L 2356 3053 
L 1172 3053 
L 1172 1153 
Q 1172 725 1289 603 
Q 1406 481 1766 481 
L 2356 481 
L 2356 0 
L 1766 0 
Q 1100 0 847 248 
Q 594 497 594 1153 
L 594 3053 
L 172 3053 
L 172 3500 
L 594 3500 
L 594 4494 
L 1172 4494 
z
" transform="scale(0.015625)"/>
       <path id="DejaVuSans-68" d="M 3513 2113 
L 3513 0 
L 2938 0 
L 2938 2094 
Q 2938 2591 2744 2837 
Q 2550 3084 2163 3084 
Q 1697 3084 1428 2787 
Q 1159 2491 1159 1978 
L 1159 0 
L 581 0 
L 581 4863 
L 1159 4863 
L 1159 2956 
Q 1366 3272 1645 3428 
Q 1925 3584 2291 3584 
Q 2894 3584 3203 3211 
Q 3513 2838 3513 2113 
z
" transform="scale(0.015625)"/>
       <path id="DejaVuSans-47" d="M 3809 666 
L 3809 1919 
L 2778 1919 
L 2778 2438 
L 4434 2438 
L 4434 434 
Q 4069 175 3628 42 
Q 3188 -91 2688 -91 
Q 1594 -91 976 548 
Q 359 1188 359 2328 
Q 359 3472 976 4111 
Q 1594 4750 2688 4750 
Q 3144 4750 3555 4637 
Q 3966 4525 4313 4306 
L 4313 3634 
Q 3963 3931 3569 4081 
Q 3175 4231 2741 4231 
Q 1884 4231 1454 3753 
Q 1025 3275 1025 2328 
Q 1025 1384 1454 906 
Q 1884 428 2741 428 
Q 3075 428 3337 486 
Q 3600 544 3809 666 
z
" transform="scale(0.015625)"/>
       <path id="DejaVuSans-2f" d="M 1625 4666 
L 2156 4666 
L 531 -594 
L 0 -594 
L 1625 4666 
z
" transform="scale(0.015625)"/>
      </defs>
      <use xlink:href="#DejaVuSans-42"/>
      <use xlink:href="#DejaVuSans-61" x="68.603516"/>
      <use xlink:href="#DejaVuSans-6e" x="129.882812"/>
      <use xlink:href="#DejaVuSans-64" x="193.261719"/>
      <use xlink:href="#DejaVuSans-77" x="256.738281"/>
      <use xlink:href="#DejaVuSans-69" x="338.525391"/>
      <use xlink:href="#DejaVuSans-64" x="366.308594"/>
      <use xlink:href="#DejaVuSans-74" x="429.785156"/>
      <use xlink:href="#DejaVuSans-68" x="468.994141"/>
      <use xlink:href="#DejaVuSans-20" x="532.373047"/>
      <use xlink:href="#DejaVuSans-28" x="564.160156"/>
      <use xlink:href="#DejaVuSans-47" x="603.173828"/>
      <use xlink:href="#DejaVuSans-42" x="680.664062"/>
      <use xlink:href="#DejaVuSans-2f" x="749.267578"/>
      <use xlink:href="#DejaVuSans-73" x="782.958984"/>
      <use xlink:href="#DejaVuSans-29" x="835.058594"/>
     </g>
    </g>
   </g>
   <g id="line2d_42">
    <path d="M 45.08375 169.659963 
L 49.189799 169.659501 
L 53.295848 169.658612 
L 57.401897 169.656795 
L 61.507947 169.652826 
L 65.613996 169.645526 
L 69.720045 169.630444 
L 73.826094 169.601123 
L 77.932143 169.542206 
L 82.038192 169.421865 
L 86.144241 169.183815 
L 90.250291 168.71783 
L 94.35634 167.803637 
L 98.462389 166.070219 
L 102.568438 163.012554 
L 106.674487 157.940851 
L 110.780536 149.48352 
L 114.886585 138.434493 
L 118.992635 123.34166 
L 123.098684 102.651133 
L 127.204733 84.279289 
L 131.310782 66.244192 
L 135.416831 48.818924 
L 139.52288 36.730439 
L 143.628929 29.465121 
L 147.734979 25.066044 
L 151.841028 21.832887 
L 155.947077 19.966281 
L 160.053126 19.007752 
L 164.159175 18.556638 
" clip-path="url(#p8064583693)" style="fill: none; stroke: #1f77b4; stroke-width: 2.2; stroke-linecap: square"/>
    <defs>
     <path id="m49e43f7fb8" d="M 0 3 
C 0.795609 3 1.55874 2.683901 2.12132 2.12132 
C 2.683901 1.55874 3 0.795609 3 0 
C 3 -0.795609 2.683901 -1.55874 2.12132 -2.12132 
C 1.55874 -2.683901 0.795609 -3 0 -3 
C -0.795609 -3 -1.55874 -2.683901 -2.12132 -2.12132 
C -2.683901 -1.55874 -3 -0.795609 -3 0 
C -3 0.795609 -2.683901 1.55874 -2.12132 2.12132 
C -1.55874 2.683901 -0.795609 3 0 3 
z
" style="stroke: #ffffff; stroke-width: 0.75"/>
    </defs>
    <g clip-path="url(#p8064583693)">
     <use xlink:href="#m49e43f7fb8" x="45.08375" y="169.659963" style="fill: #1f77b4; stroke: #ffffff; stroke-width: 0.75"/>
     <use xlink:href="#m49e43f7fb8" x="49.189799" y="169.659501" style="fill: #1f77b4; stroke: #ffffff; stroke-width: 0.75"/>
     <use xlink:href="#m49e43f7fb8" x="53.295848" y="169.658612" style="fill: #1f77b4; stroke: #ffffff; stroke-width: 0.75"/>
     <use xlink:href="#m49e43f7fb8" x="57.401897" y="169.656795" style="fill: #1f77b4; stroke: #ffffff; stroke-width: 0.75"/>
     <use xlink:href="#m49e43f7fb8" x="61.507947" y="169.652826" style="fill: #1f77b4; stroke: #ffffff; stroke-width: 0.75"/>
     <use xlink:href="#m49e43f7fb8" x="65.613996" y="169.645526" style="fill: #1f77b4; stroke: #ffffff; stroke-width: 0.75"/>
     <use xlink:href="#m49e43f7fb8" x="69.720045" y="169.630444" style="fill: #1f77b4; stroke: #ffffff; stroke-width: 0.75"/>
     <use xlink:href="#m49e43f7fb8" x="73.826094" y="169.601123" style="fill: #1f77b4; stroke: #ffffff; stroke-width: 0.75"/>
     <use xlink:href="#m49e43f7fb8" x="77.932143" y="169.542206" style="fill: #1f77b4; stroke: #ffffff; stroke-width: 0.75"/>
     <use xlink:href="#m49e43f7fb8" x="82.038192" y="169.421865" style="fill: #1f77b4; stroke: #ffffff; stroke-width: 0.75"/>
     <use xlink:href="#m49e43f7fb8" x="86.144241" y="169.183815" style="fill: #1f77b4; stroke: #ffffff; stroke-width: 0.75"/>
     <use xlink:href="#m49e43f7fb8" x="90.250291" y="168.71783" style="fill: #1f77b4; stroke: #ffffff; stroke-width: 0.75"/>
     <use xlink:href="#m49e43f7fb8" x="94.35634" y="167.803637" style="fill: #1f77b4; stroke: #ffffff; stroke-width: 0.75"/>
     <use xlink:href="#m49e43f7fb8" x="98.462389" y="166.070219" style="fill: #1f77b4; stroke: #ffffff; stroke-width: 0.75"/>
     <use xlink:href="#m49e43f7fb8" x="102.568438" y="163.012554" style="fill: #1f77b4; stroke: #ffffff; stroke-width: 0.75"/>
     <use xlink:href="#m49e43f7fb8" x="106.674487" y="157.940851" style="fill: #1f77b4; stroke: #ffffff; stroke-width: 0.75"/>
     <use xlink:href="#m49e43f7fb8" x="110.780536" y="149.48352" style="fill: #1f77b4; stroke: #ffffff; stroke-width: 0.75"/>
     <use xlink:href="#m49e43f7fb8" x="114.886585" y="138.434493" style="fill: #1f77b4; stroke: #ffffff; stroke-width: 0.75"/>
     <use xlink:href="#m49e43f7fb8" x="118.992635" y="123.34166" style="fill: #1f77b4; stroke: #ffffff; stroke-width: 0.75"/>
     <use xlink:href="#m49e43f7fb8" x="123.098684" y="102.651133" style="fill: #1f77b4; stroke: #ffffff; stroke-width: 0.75"/>
     <use xlink:href="#m49e43f7fb8" x="127.204733" y="84.279289" style="fill: #1f77b4; stroke: #ffffff; stroke-width: 0.75"/>
     <use xlink:href="#m49e43f7fb8" x="131.310782" y="66.244192" style="fill: #1f77b4; stroke: #ffffff; stroke-width: 0.75"/>
     <use xlink:href="#m49e43f7fb8" x="135.416831" y="48.818924" style="fill: #1f77b4; stroke: #ffffff; stroke-width: 0.75"/>
     <use xlink:href="#m49e43f7fb8" x="139.52288" y="36.730439" style="fill: #1f77b4; stroke: #ffffff; stroke-width: 0.75"/>
     <use xlink:href="#m49e43f7fb8" x="143.628929" y="29.465121" style="fill: #1f77b4; stroke: #ffffff; stroke-width: 0.75"/>
     <use xlink:href="#m49e43f7fb8" x="147.734979" y="25.066044" style="fill: #1f77b4; stroke: #ffffff; stroke-width: 0.75"/>
     <use xlink:href="#m49e43f7fb8" x="151.841028" y="21.832887" style="fill: #1f77b4; stroke: #ffffff; stroke-width: 0.75"/>
     <use xlink:href="#m49e43f7fb8" x="155.947077" y="19.966281" style="fill: #1f77b4; stroke: #ffffff; stroke-width: 0.75"/>
     <use xlink:href="#m49e43f7fb8" x="160.053126" y="19.007752" style="fill: #1f77b4; stroke: #ffffff; stroke-width: 0.75"/>
     <use xlink:href="#m49e43f7fb8" x="164.159175" y="18.556638" style="fill: #1f77b4; stroke: #ffffff; stroke-width: 0.75"/>
    </g>
   </g>
   <g id="line2d_43">
    <path d="M 45.08375 169.66027 
L 49.189799 169.660095 
L 53.295848 169.659771 
L 57.401897 169.659106 
L 61.507947 169.657825 
L 65.613996 169.655218 
L 69.720045 169.650244 
L 73.826094 169.639794 
L 77.932143 169.619147 
L 82.038192 169.578194 
L 86.144241 169.490796 
L 90.250291 169.327897 
L 94.35634 168.989852 
L 98.462389 168.307944 
L 102.568438 167.127143 
L 106.674487 164.748161 
L 110.780536 161.078827 
L 114.886585 153.651148 
L 118.992635 142.162075 
L 123.098684 126.02166 
L 127.204733 105.901903 
L 131.310782 84.040944 
L 135.416831 64.269984 
L 139.52288 50.176689 
L 143.628929 41.404679 
L 147.734979 35.428815 
L 151.841028 31.970398 
L 155.947077 29.934604 
L 160.053126 28.781577 
L 164.159175 28.193868 
" clip-path="url(#p8064583693)" style="fill: none; stroke-dasharray: 8.14,3.52; stroke-dashoffset: 0; stroke: #62a0cb; stroke-width: 2.2"/>
    <defs>
     <path id="m66fc8c4987" d="M 0 2.5 
C 0.663008 2.5 1.29895 2.236584 1.767767 1.767767 
C 2.236584 1.29895 2.5 0.663008 2.5 0 
C 2.5 -0.663008 2.236584 -1.29895 1.767767 -1.767767 
C 1.29895 -2.236584 0.663008 -2.5 0 -2.5 
C -0.663008 -2.5 -1.29895 -2.236584 -1.767767 -1.767767 
C -2.236584 -1.29895 -2.5 -0.663008 -2.5 0 
C -2.5 0.663008 -2.236584 1.29895 -1.767767 1.767767 
C -1.29895 2.236584 -0.663008 2.5 0 2.5 
z
" style="stroke: #ffffff; stroke-width: 0.75"/>
    </defs>
    <g clip-path="url(#p8064583693)">
     <use xlink:href="#m66fc8c4987" x="45.08375" y="169.66027" style="fill: #62a0cb; stroke: #ffffff; stroke-width: 0.75"/>
     <use xlink:href="#m66fc8c4987" x="49.189799" y="169.660095" style="fill: #62a0cb; stroke: #ffffff; stroke-width: 0.75"/>
     <use xlink:href="#m66fc8c4987" x="53.295848" y="169.659771" style="fill: #62a0cb; stroke: #ffffff; stroke-width: 0.75"/>
     <use xlink:href="#m66fc8c4987" x="57.401897" y="169.659106" style="fill: #62a0cb; stroke: #ffffff; stroke-width: 0.75"/>
     <use xlink:href="#m66fc8c4987" x="61.507947" y="169.657825" style="fill: #62a0cb; stroke: #ffffff; stroke-width: 0.75"/>
     <use xlink:href="#m66fc8c4987" x="65.613996" y="169.655218" style="fill: #62a0cb; stroke: #ffffff; stroke-width: 0.75"/>
     <use xlink:href="#m66fc8c4987" x="69.720045" y="169.650244" style="fill: #62a0cb; stroke: #ffffff; stroke-width: 0.75"/>
     <use xlink:href="#m66fc8c4987" x="73.826094" y="169.639794" style="fill: #62a0cb; stroke: #ffffff; stroke-width: 0.75"/>
     <use xlink:href="#m66fc8c4987" x="77.932143" y="169.619147" style="fill: #62a0cb; stroke: #ffffff; stroke-width: 0.75"/>
     <use xlink:href="#m66fc8c4987" x="82.038192" y="169.578194" style="fill: #62a0cb; stroke: #ffffff; stroke-width: 0.75"/>
     <use xlink:href="#m66fc8c4987" x="86.144241" y="169.490796" style="fill: #62a0cb; stroke: #ffffff; stroke-width: 0.75"/>
     <use xlink:href="#m66fc8c4987" x="90.250291" y="169.327897" style="fill: #62a0cb; stroke: #ffffff; stroke-width: 0.75"/>
     <use xlink:href="#m66fc8c4987" x="94.35634" y="168.989852" style="fill: #62a0cb; stroke: #ffffff; stroke-width: 0.75"/>
     <use xlink:href="#m66fc8c4987" x="98.462389" y="168.307944" style="fill: #62a0cb; stroke: #ffffff; stroke-width: 0.75"/>
     <use xlink:href="#m66fc8c4987" x="102.568438" y="167.127143" style="fill: #62a0cb; stroke: #ffffff; stroke-width: 0.75"/>
     <use xlink:href="#m66fc8c4987" x="106.674487" y="164.748161" style="fill: #62a0cb; stroke: #ffffff; stroke-width: 0.75"/>
     <use xlink:href="#m66fc8c4987" x="110.780536" y="161.078827" style="fill: #62a0cb; stroke: #ffffff; stroke-width: 0.75"/>
     <use xlink:href="#m66fc8c4987" x="114.886585" y="153.651148" style="fill: #62a0cb; stroke: #ffffff; stroke-width: 0.75"/>
     <use xlink:href="#m66fc8c4987" x="118.992635" y="142.162075" style="fill: #62a0cb; stroke: #ffffff; stroke-width: 0.75"/>
     <use xlink:href="#m66fc8c4987" x="123.098684" y="126.02166" style="fill: #62a0cb; stroke: #ffffff; stroke-width: 0.75"/>
     <use xlink:href="#m66fc8c4987" x="127.204733" y="105.901903" style="fill: #62a0cb; stroke: #ffffff; stroke-width: 0.75"/>
     <use xlink:href="#m66fc8c4987" x="131.310782" y="84.040944" style="fill: #62a0cb; stroke: #ffffff; stroke-width: 0.75"/>
     <use xlink:href="#m66fc8c4987" x="135.416831" y="64.269984" style="fill: #62a0cb; stroke: #ffffff; stroke-width: 0.75"/>
     <use xlink:href="#m66fc8c4987" x="139.52288" y="50.176689" style="fill: #62a0cb; stroke: #ffffff; stroke-width: 0.75"/>
     <use xlink:href="#m66fc8c4987" x="143.628929" y="41.404679" style="fill: #62a0cb; stroke: #ffffff; stroke-width: 0.75"/>
     <use xlink:href="#m66fc8c4987" x="147.734979" y="35.428815" style="fill: #62a0cb; stroke: #ffffff; stroke-width: 0.75"/>
     <use xlink:href="#m66fc8c4987" x="151.841028" y="31.970398" style="fill: #62a0cb; stroke: #ffffff; stroke-width: 0.75"/>
     <use xlink:href="#m66fc8c4987" x="155.947077" y="29.934604" style="fill: #62a0cb; stroke: #ffffff; stroke-width: 0.75"/>
     <use xlink:href="#m66fc8c4987" x="160.053126" y="28.781577" style="fill: #62a0cb; stroke: #ffffff; stroke-width: 0.75"/>
     <use xlink:href="#m66fc8c4987" x="164.159175" y="28.193868" style="fill: #62a0cb; stroke: #ffffff; stroke-width: 0.75"/>
    </g>
   </g>
   <g id="line2d_44">
    <path d="M 45.08375 169.659621 
L 49.189799 169.658813 
L 53.295848 169.657194 
L 57.401897 169.653981 
L 61.507947 169.647617 
L 65.613996 169.634959 
L 69.720045 169.609636 
L 73.826094 169.55993 
L 77.932143 169.462642 
L 82.038192 169.271426 
L 86.144241 168.879283 
L 90.250291 168.209596 
L 94.35634 166.959893 
L 98.462389 164.857483 
L 102.568438 161.878689 
L 106.674487 155.589053 
L 110.780536 147.595614 
L 114.886585 138.697545 
L 118.992635 120.412756 
L 123.098684 111.801015 
L 127.204733 106.517638 
L 131.310782 103.34763 
L 135.416831 101.561203 
L 139.52288 100.581494 
L 143.628929 100.081142 
L 147.734979 99.824831 
L 151.841028 99.691324 
L 155.947077 99.621274 
L 160.053126 99.588912 
L 164.159175 99.576106 
" clip-path="url(#p8064583693)" style="fill: none; stroke: #ff7f0e; stroke-width: 2.2; stroke-linecap: square"/>
    <defs>
     <path id="mcb90f5f7c2" d="M 0 3 
C 0.795609 3 1.55874 2.683901 2.12132 2.12132 
C 2.683901 1.55874 3 0.795609 3 0 
C 3 -0.795609 2.683901 -1.55874 2.12132 -2.12132 
C 1.55874 -2.683901 0.795609 -3 0 -3 
C -0.795609 -3 -1.55874 -2.683901 -2.12132 -2.12132 
C -2.683901 -1.55874 -3 -0.795609 -3 0 
C -3 0.795609 -2.683901 1.55874 -2.12132 2.12132 
C -1.55874 2.683901 -0.795609 3 0 3 
z
" style="stroke: #ffffff; stroke-width: 0.75"/>
    </defs>
    <g clip-path="url(#p8064583693)">
     <use xlink:href="#mcb90f5f7c2" x="45.08375" y="169.659621" style="fill: #ff7f0e; stroke: #ffffff; stroke-width: 0.75"/>
     <use xlink:href="#mcb90f5f7c2" x="49.189799" y="169.658813" style="fill: #ff7f0e; stroke: #ffffff; stroke-width: 0.75"/>
     <use xlink:href="#mcb90f5f7c2" x="53.295848" y="169.657194" style="fill: #ff7f0e; stroke: #ffffff; stroke-width: 0.75"/>
     <use xlink:href="#mcb90f5f7c2" x="57.401897" y="169.653981" style="fill: #ff7f0e; stroke: #ffffff; stroke-width: 0.75"/>
     <use xlink:href="#mcb90f5f7c2" x="61.507947" y="169.647617" style="fill: #ff7f0e; stroke: #ffffff; stroke-width: 0.75"/>
     <use xlink:href="#mcb90f5f7c2" x="65.613996" y="169.634959" style="fill: #ff7f0e; stroke: #ffffff; stroke-width: 0.75"/>
     <use xlink:href="#mcb90f5f7c2" x="69.720045" y="169.609636" style="fill: #ff7f0e; stroke: #ffffff; stroke-width: 0.75"/>
     <use xlink:href="#mcb90f5f7c2" x="73.826094" y="169.55993" style="fill: #ff7f0e; stroke: #ffffff; stroke-width: 0.75"/>
     <use xlink:href="#mcb90f5f7c2" x="77.932143" y="169.462642" style="fill: #ff7f0e; stroke: #ffffff; stroke-width: 0.75"/>
     <use xlink:href="#mcb90f5f7c2" x="82.038192" y="169.271426" style="fill: #ff7f0e; stroke: #ffffff; stroke-width: 0.75"/>
     <use xlink:href="#mcb90f5f7c2" x="86.144241" y="168.879283" style="fill: #ff7f0e; stroke: #ffffff; stroke-width: 0.75"/>
     <use xlink:href="#mcb90f5f7c2" x="90.250291" y="168.209596" style="fill: #ff7f0e; stroke: #ffffff; stroke-width: 0.75"/>
     <use xlink:href="#mcb90f5f7c2" x="94.35634" y="166.959893" style="fill: #ff7f0e; stroke: #ffffff; stroke-width: 0.75"/>
     <use xlink:href="#mcb90f5f7c2" x="98.462389" y="164.857483" style="fill: #ff7f0e; stroke: #ffffff; stroke-width: 0.75"/>
     <use xlink:href="#mcb90f5f7c2" x="102.568438" y="161.878689" style="fill: #ff7f0e; stroke: #ffffff; stroke-width: 0.75"/>
     <use xlink:href="#mcb90f5f7c2" x="106.674487" y="155.589053" style="fill: #ff7f0e; stroke: #ffffff; stroke-width: 0.75"/>
     <use xlink:href="#mcb90f5f7c2" x="110.780536" y="147.595614" style="fill: #ff7f0e; stroke: #ffffff; stroke-width: 0.75"/>
     <use xlink:href="#mcb90f5f7c2" x="114.886585" y="138.697545" style="fill: #ff7f0e; stroke: #ffffff; stroke-width: 0.75"/>
     <use xlink:href="#mcb90f5f7c2" x="118.992635" y="120.412756" style="fill: #ff7f0e; stroke: #ffffff; stroke-width: 0.75"/>
     <use xlink:href="#mcb90f5f7c2" x="123.098684" y="111.801015" style="fill: #ff7f0e; stroke: #ffffff; stroke-width: 0.75"/>
     <use xlink:href="#mcb90f5f7c2" x="127.204733" y="106.517638" style="fill: #ff7f0e; stroke: #ffffff; stroke-width: 0.75"/>
     <use xlink:href="#mcb90f5f7c2" x="131.310782" y="103.34763" style="fill: #ff7f0e; stroke: #ffffff; stroke-width: 0.75"/>
     <use xlink:href="#mcb90f5f7c2" x="135.416831" y="101.561203" style="fill: #ff7f0e; stroke: #ffffff; stroke-width: 0.75"/>
     <use xlink:href="#mcb90f5f7c2" x="139.52288" y="100.581494" style="fill: #ff7f0e; stroke: #ffffff; stroke-width: 0.75"/>
     <use xlink:href="#mcb90f5f7c2" x="143.628929" y="100.081142" style="fill: #ff7f0e; stroke: #ffffff; stroke-width: 0.75"/>
     <use xlink:href="#mcb90f5f7c2" x="147.734979" y="99.824831" style="fill: #ff7f0e; stroke: #ffffff; stroke-width: 0.75"/>
     <use xlink:href="#mcb90f5f7c2" x="151.841028" y="99.691324" style="fill: #ff7f0e; stroke: #ffffff; stroke-width: 0.75"/>
     <use xlink:href="#mcb90f5f7c2" x="155.947077" y="99.621274" style="fill: #ff7f0e; stroke: #ffffff; stroke-width: 0.75"/>
     <use xlink:href="#mcb90f5f7c2" x="160.053126" y="99.588912" style="fill: #ff7f0e; stroke: #ffffff; stroke-width: 0.75"/>
     <use xlink:href="#mcb90f5f7c2" x="164.159175" y="99.576106" style="fill: #ff7f0e; stroke: #ffffff; stroke-width: 0.75"/>
    </g>
   </g>
   <g id="line2d_45">
    <path d="M 45.08375 169.657185 
L 49.189799 169.654094 
L 53.295848 169.647917 
L 57.401897 169.635198 
L 61.507947 169.611644 
L 65.613996 169.563197 
L 69.720045 169.478743 
L 73.826094 169.266779 
L 77.932143 168.955608 
L 82.038192 168.13245 
L 86.144241 166.896269 
L 90.250291 164.395574 
L 94.35634 160.59897 
L 98.462389 153.419583 
L 102.568438 147.154656 
L 106.674487 135.205059 
L 110.780536 119.608584 
L 114.886585 100.101767 
L 118.992635 83.352428 
L 123.098684 71.446129 
L 127.204733 59.547906 
L 131.310782 55.681972 
L 135.416831 55.168111 
L 139.52288 48.054897 
L 143.628929 48.976871 
L 147.734979 64.59893 
L 151.841028 63.572855 
L 155.947077 62.539297 
L 160.053126 61.495767 
L 164.159175 61.471689 
" clip-path="url(#p8064583693)" style="fill: none; stroke: #d62728; stroke-width: 2.2; stroke-linecap: square"/>
    <defs>
     <path id="md31f5a7ed8" d="M 0 3 
C 0.795609 3 1.55874 2.683901 2.12132 2.12132 
C 2.683901 1.55874 3 0.795609 3 0 
C 3 -0.795609 2.683901 -1.55874 2.12132 -2.12132 
C 1.55874 -2.683901 0.795609 -3 0 -3 
C -0.795609 -3 -1.55874 -2.683901 -2.12132 -2.12132 
C -2.683901 -1.55874 -3 -0.795609 -3 0 
C -3 0.795609 -2.683901 1.55874 -2.12132 2.12132 
C -1.55874 2.683901 -0.795609 3 0 3 
z
" style="stroke: #ffffff; stroke-width: 0.75"/>
    </defs>
    <g clip-path="url(#p8064583693)">
     <use xlink:href="#md31f5a7ed8" x="45.08375" y="169.657185" style="fill: #d62728; stroke: #ffffff; stroke-width: 0.75"/>
     <use xlink:href="#md31f5a7ed8" x="49.189799" y="169.654094" style="fill: #d62728; stroke: #ffffff; stroke-width: 0.75"/>
     <use xlink:href="#md31f5a7ed8" x="53.295848" y="169.647917" style="fill: #d62728; stroke: #ffffff; stroke-width: 0.75"/>
     <use xlink:href="#md31f5a7ed8" x="57.401897" y="169.635198" style="fill: #d62728; stroke: #ffffff; stroke-width: 0.75"/>
     <use xlink:href="#md31f5a7ed8" x="61.507947" y="169.611644" style="fill: #d62728; stroke: #ffffff; stroke-width: 0.75"/>
     <use xlink:href="#md31f5a7ed8" x="65.613996" y="169.563197" style="fill: #d62728; stroke: #ffffff; stroke-width: 0.75"/>
     <use xlink:href="#md31f5a7ed8" x="69.720045" y="169.478743" style="fill: #d62728; stroke: #ffffff; stroke-width: 0.75"/>
     <use xlink:href="#md31f5a7ed8" x="73.826094" y="169.266779" style="fill: #d62728; stroke: #ffffff; stroke-width: 0.75"/>
     <use xlink:href="#md31f5a7ed8" x="77.932143" y="168.955608" style="fill: #d62728; stroke: #ffffff; stroke-width: 0.75"/>
     <use xlink:href="#md31f5a7ed8" x="82.038192" y="168.13245" style="fill: #d62728; stroke: #ffffff; stroke-width: 0.75"/>
     <use xlink:href="#md31f5a7ed8" x="86.144241" y="166.896269" style="fill: #d62728; stroke: #ffffff; stroke-width: 0.75"/>
     <use xlink:href="#md31f5a7ed8" x="90.250291" y="164.395574" style="fill: #d62728; stroke: #ffffff; stroke-width: 0.75"/>
     <use xlink:href="#md31f5a7ed8" x="94.35634" y="160.59897" style="fill: #d62728; stroke: #ffffff; stroke-width: 0.75"/>
     <use xlink:href="#md31f5a7ed8" x="98.462389" y="153.419583" style="fill: #d62728; stroke: #ffffff; stroke-width: 0.75"/>
     <use xlink:href="#md31f5a7ed8" x="102.568438" y="147.154656" style="fill: #d62728; stroke: #ffffff; stroke-width: 0.75"/>
     <use xlink:href="#md31f5a7ed8" x="106.674487" y="135.205059" style="fill: #d62728; stroke: #ffffff; stroke-width: 0.75"/>
     <use xlink:href="#md31f5a7ed8" x="110.780536" y="119.608584" style="fill: #d62728; stroke: #ffffff; stroke-width: 0.75"/>
     <use xlink:href="#md31f5a7ed8" x="114.886585" y="100.101767" style="fill: #d62728; stroke: #ffffff; stroke-width: 0.75"/>
     <use xlink:href="#md31f5a7ed8" x="118.992635" y="83.352428" style="fill: #d62728; stroke: #ffffff; stroke-width: 0.75"/>
     <use xlink:href="#md31f5a7ed8" x="123.098684" y="71.446129" style="fill: #d62728; stroke: #ffffff; stroke-width: 0.75"/>
     <use xlink:href="#md31f5a7ed8" x="127.204733" y="59.547906" style="fill: #d62728; stroke: #ffffff; stroke-width: 0.75"/>
     <use xlink:href="#md31f5a7ed8" x="131.310782" y="55.681972" style="fill: #d62728; stroke: #ffffff; stroke-width: 0.75"/>
     <use xlink:href="#md31f5a7ed8" x="135.416831" y="55.168111" style="fill: #d62728; stroke: #ffffff; stroke-width: 0.75"/>
     <use xlink:href="#md31f5a7ed8" x="139.52288" y="48.054897" style="fill: #d62728; stroke: #ffffff; stroke-width: 0.75"/>
     <use xlink:href="#md31f5a7ed8" x="143.628929" y="48.976871" style="fill: #d62728; stroke: #ffffff; stroke-width: 0.75"/>
     <use xlink:href="#md31f5a7ed8" x="147.734979" y="64.59893" style="fill: #d62728; stroke: #ffffff; stroke-width: 0.75"/>
     <use xlink:href="#md31f5a7ed8" x="151.841028" y="63.572855" style="fill: #d62728; stroke: #ffffff; stroke-width: 0.75"/>
     <use xlink:href="#md31f5a7ed8" x="155.947077" y="62.539297" style="fill: #d62728; stroke: #ffffff; stroke-width: 0.75"/>
     <use xlink:href="#md31f5a7ed8" x="160.053126" y="61.495767" style="fill: #d62728; stroke: #ffffff; stroke-width: 0.75"/>
     <use xlink:href="#md31f5a7ed8" x="164.159175" y="61.471689" style="fill: #d62728; stroke: #ffffff; stroke-width: 0.75"/>
    </g>
   </g>
   <g id="patch_3">
    <path d="M 45.08375 177.22027 
L 45.08375 10.90027 
" style="fill: none; stroke: #000000; stroke-width: 0.8; stroke-linejoin: miter; stroke-linecap: square"/>
   </g>
   <g id="patch_4">
    <path d="M 167.84375 177.22027 
L 167.84375 10.90027 
" style="fill: none; stroke: #000000; stroke-width: 0.8; stroke-linejoin: miter; stroke-linecap: square"/>
   </g>
   <g id="patch_5">
    <path d="M 45.08375 177.22027 
L 167.84375 177.22027 
" style="fill: none; stroke: #000000; stroke-width: 0.8; stroke-linejoin: miter; stroke-linecap: square"/>
   </g>
   <g id="patch_6">
    <path d="M 45.08375 10.90027 
L 167.84375 10.90027 
" style="fill: none; stroke: #000000; stroke-width: 0.8; stroke-linejoin: miter; stroke-linecap: square"/>
   </g>
  </g>
 </g>
 <defs>
  <clipPath id="p8064583693">
   <rect x="45.08375" y="10.90027" width="122.76" height="166.32"/>
  </clipPath>
 </defs>
</svg>
