<?xml version="1.0" encoding="utf-8" standalone="no"?>
<!DOCTYPE svg PUBLIC "-//W3C//DTD SVG 1.1//EN"
  "http://www.w3.org/Graphics/SVG/1.1/DTD/svg11.dtd">
<svg xmlns:xlink="http://www.w3.org/1999/xlink" width="360pt" height="180pt" viewBox="0 0 360 180" xmlns="http://www.w3.org/2000/svg" version="1.1">
 <metadata>
  <rdf:RDF xmlns:dc="http://purl.org/dc/elements/1.1/" xmlns:cc="http://creativecommons.org/ns#" xmlns:rdf="http://www.w3.org/1999/02/22-rdf-syntax-ns#">
   <cc:Work>
    <dc:type rdf:resource="http://purl.org/dc/dcmitype/StillImage"/>
    <dc:date>2024-08-22T20:29:51.935850</dc:date>
    <dc:format>image/svg+xml</dc:format>
    <dc:creator>
     <cc:Agent>
      <dc:title>Matplotlib v3.8.3, https://matplotlib.org/</dc:title>
     </cc:Agent>
    </dc:creator>
   </cc:Work>
  </rdf:RDF>
 </metadata>
 <defs>
  <style type="text/css">*{stroke-linejoin: round; stroke-linecap: butt}</style>
 </defs>
 <g id="figure_1">
  <g id="patch_1">
   <path d="M 0 180 
L 360 180 
L 360 0 
L 0 0 
z
" style="fill: #ffffff"/>
  </g>
  <g id="axes_1">
   <g id="patch_2">
    <path d="M 50.87 138.04 
L 346.311818 138.04 
L 346.311818 10.8 
L 50.87 10.8 
z
" style="fill: #ffffff"/>
   </g>
   <g id="matplotlib.axis_1">
    <g id="xtick_1">
     <g id="line2d_1">
      <path d="M 64.299174 138.04 
L 64.299174 10.8 
" clip-path="url(#p854ca39f14)" style="fill: none; stroke-dasharray: 2.96,1.28; stroke-dashoffset: 0; stroke: #cccccc; stroke-width: 0.8"/>
     </g>
     <g id="text_1">
      <!-- 1B -->
      <g style="fill: #262626" transform="translate(57.687455 152.638438) scale(0.1 -0.1)">
       <defs>
        <path id="DejaVuSans-31" d="M 794 531 
L 1825 531 
L 1825 4091 
L 703 3866 
L 703 4441 
L 1819 4666 
L 2450 4666 
L 2450 531 
L 3481 531 
L 3481 0 
L 794 0 
L 794 531 
z
" transform="scale(0.015625)"/>
        <path id="DejaVuSans-42" d="M 1259 2228 
L 1259 519 
L 2272 519 
Q 2781 519 3026 730 
Q 3272 941 3272 1375 
Q 3272 1813 3026 2020 
Q 2781 2228 2272 2228 
L 1259 2228 
z
M 1259 4147 
L 1259 2741 
L 2194 2741 
Q 2656 2741 2882 2914 
Q 3109 3088 3109 3444 
Q 3109 3797 2882 3972 
Q 2656 4147 2194 4147 
L 1259 4147 
z
M 628 4666 
L 2241 4666 
Q 2963 4666 3353 4366 
Q 3744 4066 3744 3513 
Q 3744 3084 3544 2831 
Q 3344 2578 2956 2516 
Q 3422 2416 3680 2098 
Q 3938 1781 3938 1306 
Q 3938 681 3513 340 
Q 3088 0 2303 0 
L 628 0 
L 628 4666 
z
" transform="scale(0.015625)"/>
       </defs>
       <use xlink:href="#DejaVuSans-31"/>
       <use xlink:href="#DejaVuSans-42" x="63.623047"/>
      </g>
     </g>
    </g>
    <g id="xtick_2">
     <g id="line2d_2">
      <path d="M 109.063085 138.04 
L 109.063085 10.8 
" clip-path="url(#p854ca39f14)" style="fill: none; stroke-dasharray: 2.96,1.28; stroke-dashoffset: 0; stroke: #cccccc; stroke-width: 0.8"/>
     </g>
     <g id="text_2">
      <!-- 16B -->
      <g style="fill: #262626" transform="translate(99.270117 152.638438) scale(0.1 -0.1)">
       <defs>
        <path id="DejaVuSans-36" d="M 2113 2584 
Q 1688 2584 1439 2293 
Q 1191 2003 1191 1497 
Q 1191 994 1439 701 
Q 1688 409 2113 409 
Q 2538 409 2786 701 
Q 3034 994 3034 1497 
Q 3034 2003 2786 2293 
Q 2538 2584 2113 2584 
z
M 3366 4563 
L 3366 3988 
Q 3128 4100 2886 4159 
Q 2644 4219 2406 4219 
Q 1781 4219 1451 3797 
Q 1122 3375 1075 2522 
Q 1259 2794 1537 2939 
Q 1816 3084 2150 3084 
Q 2853 3084 3261 2657 
Q 3669 2231 3669 1497 
Q 3669 778 3244 343 
Q 2819 -91 2113 -91 
Q 1303 -91 875 529 
Q 447 1150 447 2328 
Q 447 3434 972 4092 
Q 1497 4750 2381 4750 
Q 2619 4750 2861 4703 
Q 3103 4656 3366 4563 
z
" transform="scale(0.015625)"/>
       </defs>
       <use xlink:href="#DejaVuSans-31"/>
       <use xlink:href="#DejaVuSans-36" x="63.623047"/>
       <use xlink:href="#DejaVuSans-42" x="127.246094"/>
      </g>
     </g>
    </g>
    <g id="xtick_3">
     <g id="line2d_3">
      <path d="M 153.826997 138.04 
L 153.826997 10.8 
" clip-path="url(#p854ca39f14)" style="fill: none; stroke-dasharray: 2.96,1.28; stroke-dashoffset: 0; stroke: #cccccc; stroke-width: 0.8"/>
     </g>
     <g id="text_3">
      <!-- 256B -->
      <g style="fill: #262626" transform="translate(140.852778 152.638438) scale(0.1 -0.1)">
       <defs>
        <path id="DejaVuSans-32" d="M 1228 531 
L 3431 531 
L 3431 0 
L 469 0 
L 469 531 
Q 828 903 1448 1529 
Q 2069 2156 2228 2338 
Q 2531 2678 2651 2914 
Q 2772 3150 2772 3378 
Q 2772 3750 2511 3984 
Q 2250 4219 1831 4219 
Q 1534 4219 1204 4116 
Q 875 4013 500 3803 
L 500 4441 
Q 881 4594 1212 4672 
Q 1544 4750 1819 4750 
Q 2544 4750 2975 4387 
Q 3406 4025 3406 3419 
Q 3406 3131 3298 2873 
Q 3191 2616 2906 2266 
Q 2828 2175 2409 1742 
Q 1991 1309 1228 531 
z
" transform="scale(0.015625)"/>
        <path id="DejaVuSans-35" d="M 691 4666 
L 3169 4666 
L 3169 4134 
L 1269 4134 
L 1269 2991 
Q 1406 3038 1543 3061 
Q 1681 3084 1819 3084 
Q 2600 3084 3056 2656 
Q 3513 2228 3513 1497 
Q 3513 744 3044 326 
Q 2575 -91 1722 -91 
Q 1428 -91 1123 -41 
Q 819 9 494 109 
L 494 744 
Q 775 591 1075 516 
Q 1375 441 1709 441 
Q 2250 441 2565 725 
Q 2881 1009 2881 1497 
Q 2881 1984 2565 2268 
Q 2250 2553 1709 2553 
Q 1456 2553 1204 2497 
Q 953 2441 691 2322 
L 691 4666 
z
" transform="scale(0.015625)"/>
       </defs>
       <use xlink:href="#DejaVuSans-32"/>
       <use xlink:href="#DejaVuSans-35" x="63.623047"/>
       <use xlink:href="#DejaVuSans-36" x="127.246094"/>
       <use xlink:href="#DejaVuSans-42" x="190.869141"/>
      </g>
     </g>
    </g>
    <g id="xtick_4">
     <g id="line2d_4">
      <path d="M 198.590909 138.04 
L 198.590909 10.8 
" clip-path="url(#p854ca39f14)" style="fill: none; stroke-dasharray: 2.96,1.28; stroke-dashoffset: 0; stroke: #cccccc; stroke-width: 0.8"/>
     </g>
     <g id="text_4">
      <!-- 4KiB -->
      <g style="fill: #262626" transform="translate(187.311222 152.638438) scale(0.1 -0.1)">
       <defs>
        <path id="DejaVuSans-34" d="M 2419 4116 
L 825 1625 
L 2419 1625 
L 2419 4116 
z
M 2253 4666 
L 3047 4666 
L 3047 1625 
L 3713 1625 
L 3713 1100 
L 3047 1100 
L 3047 0 
L 2419 0 
L 2419 1100 
L 313 1100 
L 313 1709 
L 2253 4666 
z
" transform="scale(0.015625)"/>
        <path id="DejaVuSans-4b" d="M 628 4666 
L 1259 4666 
L 1259 2694 
L 3353 4666 
L 4166 4666 
L 1850 2491 
L 4331 0 
L 3500 0 
L 1259 2247 
L 1259 0 
L 628 0 
L 628 4666 
z
" transform="scale(0.015625)"/>
        <path id="DejaVuSans-69" d="M 603 3500 
L 1178 3500 
L 1178 0 
L 603 0 
L 603 3500 
z
M 603 4863 
L 1178 4863 
L 1178 4134 
L 603 4134 
L 603 4863 
z
" transform="scale(0.015625)"/>
       </defs>
       <use xlink:href="#DejaVuSans-34"/>
       <use xlink:href="#DejaVuSans-4b" x="63.623047"/>
       <use xlink:href="#DejaVuSans-69" x="129.199219"/>
       <use xlink:href="#DejaVuSans-42" x="156.982422"/>
      </g>
     </g>
    </g>
    <g id="xtick_5">
     <g id="line2d_5">
      <path d="M 243.354821 138.04 
L 243.354821 10.8 
" clip-path="url(#p854ca39f14)" style="fill: none; stroke-dasharray: 2.96,1.28; stroke-dashoffset: 0; stroke: #cccccc; stroke-width: 0.8"/>
     </g>
     <g id="text_5">
      <!-- 64KiB -->
      <g style="fill: #262626" transform="translate(228.893883 152.638438) scale(0.1 -0.1)">
       <use xlink:href="#DejaVuSans-36"/>
       <use xlink:href="#DejaVuSans-34" x="63.623047"/>
       <use xlink:href="#DejaVuSans-4b" x="127.246094"/>
       <use xlink:href="#DejaVuSans-69" x="192.822266"/>
       <use xlink:href="#DejaVuSans-42" x="220.605469"/>
      </g>
     </g>
    </g>
    <g id="xtick_6">
     <g id="line2d_6">
      <path d="M 288.118733 138.04 
L 288.118733 10.8 
" clip-path="url(#p854ca39f14)" style="fill: none; stroke-dasharray: 2.96,1.28; stroke-dashoffset: 0; stroke: #cccccc; stroke-width: 0.8"/>
     </g>
     <g id="text_6">
      <!-- 1MiB -->
      <g style="fill: #262626" transform="translate(275.803889 152.638438) scale(0.1 -0.1)">
       <defs>
        <path id="DejaVuSans-4d" d="M 628 4666 
L 1569 4666 
L 2759 1491 
L 3956 4666 
L 4897 4666 
L 4897 0 
L 4281 0 
L 4281 4097 
L 3078 897 
L 2444 897 
L 1241 4097 
L 1241 0 
L 628 0 
L 628 4666 
z
" transform="scale(0.015625)"/>
       </defs>
       <use xlink:href="#DejaVuSans-31"/>
       <use xlink:href="#DejaVuSans-4d" x="63.623047"/>
       <use xlink:href="#DejaVuSans-69" x="149.902344"/>
       <use xlink:href="#DejaVuSans-42" x="177.685547"/>
      </g>
     </g>
    </g>
    <g id="xtick_7">
     <g id="line2d_7">
      <path d="M 332.882645 138.04 
L 332.882645 10.8 
" clip-path="url(#p854ca39f14)" style="fill: none; stroke-dasharray: 2.96,1.28; stroke-dashoffset: 0; stroke: #cccccc; stroke-width: 0.8"/>
     </g>
     <g id="text_7">
      <!-- 16MiB -->
      <g style="fill: #262626" transform="translate(317.386551 152.638438) scale(0.1 -0.1)">
       <use xlink:href="#DejaVuSans-31"/>
       <use xlink:href="#DejaVuSans-36" x="63.623047"/>
       <use xlink:href="#DejaVuSans-4d" x="127.246094"/>
       <use xlink:href="#DejaVuSans-69" x="213.525391"/>
       <use xlink:href="#DejaVuSans-42" x="241.308594"/>
      </g>
     </g>
    </g>
    <g id="text_8">
     <!-- Message Size -->
     <g style="fill: #262626" transform="translate(164.82294 166.316563) scale(0.1 -0.1)">
      <defs>
       <path id="DejaVuSans-65" d="M 3597 1894 
L 3597 1613 
L 953 1613 
Q 991 1019 1311 708 
Q 1631 397 2203 397 
Q 2534 397 2845 478 
Q 3156 559 3463 722 
L 3463 178 
Q 3153 47 2828 -22 
Q 2503 -91 2169 -91 
Q 1331 -91 842 396 
Q 353 884 353 1716 
Q 353 2575 817 3079 
Q 1281 3584 2069 3584 
Q 2775 3584 3186 3129 
Q 3597 2675 3597 1894 
z
M 3022 2063 
Q 3016 2534 2758 2815 
Q 2500 3097 2075 3097 
Q 1594 3097 1305 2825 
Q 1016 2553 972 2059 
L 3022 2063 
z
" transform="scale(0.015625)"/>
       <path id="DejaVuSans-73" d="M 2834 3397 
L 2834 2853 
Q 2591 2978 2328 3040 
Q 2066 3103 1784 3103 
Q 1356 3103 1142 2972 
Q 928 2841 928 2578 
Q 928 2378 1081 2264 
Q 1234 2150 1697 2047 
L 1894 2003 
Q 2506 1872 2764 1633 
Q 3022 1394 3022 966 
Q 3022 478 2636 193 
Q 2250 -91 1575 -91 
Q 1294 -91 989 -36 
Q 684 19 347 128 
L 347 722 
Q 666 556 975 473 
Q 1284 391 1588 391 
Q 1994 391 2212 530 
Q 2431 669 2431 922 
Q 2431 1156 2273 1281 
Q 2116 1406 1581 1522 
L 1381 1569 
Q 847 1681 609 1914 
Q 372 2147 372 2553 
Q 372 3047 722 3315 
Q 1072 3584 1716 3584 
Q 2034 3584 2315 3537 
Q 2597 3491 2834 3397 
z
" transform="scale(0.015625)"/>
       <path id="DejaVuSans-61" d="M 2194 1759 
Q 1497 1759 1228 1600 
Q 959 1441 959 1056 
Q 959 750 1161 570 
Q 1363 391 1709 391 
Q 2188 391 2477 730 
Q 2766 1069 2766 1631 
L 2766 1759 
L 2194 1759 
z
M 3341 1997 
L 3341 0 
L 2766 0 
L 2766 531 
Q 2569 213 2275 61 
Q 1981 -91 1556 -91 
Q 1019 -91 701 211 
Q 384 513 384 1019 
Q 384 1609 779 1909 
Q 1175 2209 1959 2209 
L 2766 2209 
L 2766 2266 
Q 2766 2663 2505 2880 
Q 2244 3097 1772 3097 
Q 1472 3097 1187 3025 
Q 903 2953 641 2809 
L 641 3341 
Q 956 3463 1253 3523 
Q 1550 3584 1831 3584 
Q 2591 3584 2966 3190 
Q 3341 2797 3341 1997 
z
" transform="scale(0.015625)"/>
       <path id="DejaVuSans-67" d="M 2906 1791 
Q 2906 2416 2648 2759 
Q 2391 3103 1925 3103 
Q 1463 3103 1205 2759 
Q 947 2416 947 1791 
Q 947 1169 1205 825 
Q 1463 481 1925 481 
Q 2391 481 2648 825 
Q 2906 1169 2906 1791 
z
M 3481 434 
Q 3481 -459 3084 -895 
Q 2688 -1331 1869 -1331 
Q 1566 -1331 1297 -1286 
Q 1028 -1241 775 -1147 
L 775 -588 
Q 1028 -725 1275 -790 
Q 1522 -856 1778 -856 
Q 2344 -856 2625 -561 
Q 2906 -266 2906 331 
L 2906 616 
Q 2728 306 2450 153 
Q 2172 0 1784 0 
Q 1141 0 747 490 
Q 353 981 353 1791 
Q 353 2603 747 3093 
Q 1141 3584 1784 3584 
Q 2172 3584 2450 3431 
Q 2728 3278 2906 2969 
L 2906 3500 
L 3481 3500 
L 3481 434 
z
" transform="scale(0.015625)"/>
       <path id="DejaVuSans-20" transform="scale(0.015625)"/>
       <path id="DejaVuSans-53" d="M 3425 4513 
L 3425 3897 
Q 3066 4069 2747 4153 
Q 2428 4238 2131 4238 
Q 1616 4238 1336 4038 
Q 1056 3838 1056 3469 
Q 1056 3159 1242 3001 
Q 1428 2844 1947 2747 
L 2328 2669 
Q 3034 2534 3370 2195 
Q 3706 1856 3706 1288 
Q 3706 609 3251 259 
Q 2797 -91 1919 -91 
Q 1588 -91 1214 -16 
Q 841 59 441 206 
L 441 856 
Q 825 641 1194 531 
Q 1563 422 1919 422 
Q 2459 422 2753 634 
Q 3047 847 3047 1241 
Q 3047 1584 2836 1778 
Q 2625 1972 2144 2069 
L 1759 2144 
Q 1053 2284 737 2584 
Q 422 2884 422 3419 
Q 422 4038 858 4394 
Q 1294 4750 2059 4750 
Q 2388 4750 2728 4690 
Q 3069 4631 3425 4513 
z
" transform="scale(0.015625)"/>
       <path id="DejaVuSans-7a" d="M 353 3500 
L 3084 3500 
L 3084 2975 
L 922 459 
L 3084 459 
L 3084 0 
L 275 0 
L 275 525 
L 2438 3041 
L 353 3041 
L 353 3500 
z
" transform="scale(0.015625)"/>
      </defs>
      <use xlink:href="#DejaVuSans-4d"/>
      <use xlink:href="#DejaVuSans-65" x="86.279297"/>
      <use xlink:href="#DejaVuSans-73" x="147.802734"/>
      <use xlink:href="#DejaVuSans-73" x="199.902344"/>
      <use xlink:href="#DejaVuSans-61" x="252.001953"/>
      <use xlink:href="#DejaVuSans-67" x="313.28125"/>
      <use xlink:href="#DejaVuSans-65" x="376.757812"/>
      <use xlink:href="#DejaVuSans-20" x="438.28125"/>
      <use xlink:href="#DejaVuSans-53" x="470.068359"/>
      <use xlink:href="#DejaVuSans-69" x="533.544922"/>
      <use xlink:href="#DejaVuSans-7a" x="561.328125"/>
      <use xlink:href="#DejaVuSans-65" x="613.818359"/>
     </g>
    </g>
   </g>
   <g id="matplotlib.axis_2">
    <g id="ytick_1">
     <g id="line2d_8">
      <path d="M 50.87 132.256572 
L 346.311818 132.256572 
" clip-path="url(#p854ca39f14)" style="fill: none; stroke-dasharray: 2.96,1.28; stroke-dashoffset: 0; stroke: #cccccc; stroke-width: 0.8"/>
     </g>
     <g id="text_9">
      <!-- 0 -->
      <g style="fill: #262626" transform="translate(37.5075 136.05579) scale(0.1 -0.1)">
       <defs>
        <path id="DejaVuSans-30" d="M 2034 4250 
Q 1547 4250 1301 3770 
Q 1056 3291 1056 2328 
Q 1056 1369 1301 889 
Q 1547 409 2034 409 
Q 2525 409 2770 889 
Q 3016 1369 3016 2328 
Q 3016 3291 2770 3770 
Q 2525 4250 2034 4250 
z
M 2034 4750 
Q 2819 4750 3233 4129 
Q 3647 3509 3647 2328 
Q 3647 1150 3233 529 
Q 2819 -91 2034 -91 
Q 1250 -91 836 529 
Q 422 1150 422 2328 
Q 422 3509 836 4129 
Q 1250 4750 2034 4750 
z
" transform="scale(0.015625)"/>
       </defs>
       <use xlink:href="#DejaVuSans-30"/>
      </g>
     </g>
    </g>
    <g id="ytick_2">
     <g id="line2d_9">
      <path d="M 50.87 106.729253 
L 346.311818 106.729253 
" clip-path="url(#p854ca39f14)" style="fill: none; stroke-dasharray: 2.96,1.28; stroke-dashoffset: 0; stroke: #cccccc; stroke-width: 0.8"/>
     </g>
     <g id="text_10">
      <!-- 50 -->
      <g style="fill: #262626" transform="translate(31.145 110.528472) scale(0.1 -0.1)">
       <use xlink:href="#DejaVuSans-35"/>
       <use xlink:href="#DejaVuSans-30" x="63.623047"/>
      </g>
     </g>
    </g>
    <g id="ytick_3">
     <g id="line2d_10">
      <path d="M 50.87 81.201935 
L 346.311818 81.201935 
" clip-path="url(#p854ca39f14)" style="fill: none; stroke-dasharray: 2.96,1.28; stroke-dashoffset: 0; stroke: #cccccc; stroke-width: 0.8"/>
     </g>
     <g id="text_11">
      <!-- 100 -->
      <g style="fill: #262626" transform="translate(24.7825 85.001154) scale(0.1 -0.1)">
       <use xlink:href="#DejaVuSans-31"/>
       <use xlink:href="#DejaVuSans-30" x="63.623047"/>
       <use xlink:href="#DejaVuSans-30" x="127.246094"/>
      </g>
     </g>
    </g>
    <g id="ytick_4">
     <g id="line2d_11">
      <path d="M 50.87 55.674617 
L 346.311818 55.674617 
" clip-path="url(#p854ca39f14)" style="fill: none; stroke-dasharray: 2.96,1.28; stroke-dashoffset: 0; stroke: #cccccc; stroke-width: 0.8"/>
     </g>
     <g id="text_12">
      <!-- 150 -->
      <g style="fill: #262626" transform="translate(24.7825 59.473835) scale(0.1 -0.1)">
       <use xlink:href="#DejaVuSans-31"/>
       <use xlink:href="#DejaVuSans-35" x="63.623047"/>
       <use xlink:href="#DejaVuSans-30" x="127.246094"/>
      </g>
     </g>
    </g>
    <g id="ytick_5">
     <g id="line2d_12">
      <path d="M 50.87 30.147298 
L 346.311818 30.147298 
" clip-path="url(#p854ca39f14)" style="fill: none; stroke-dasharray: 2.96,1.28; stroke-dashoffset: 0; stroke: #cccccc; stroke-width: 0.8"/>
     </g>
     <g id="text_13">
      <!-- 200 -->
      <g style="fill: #262626" transform="translate(24.7825 33.946517) scale(0.1 -0.1)">
       <use xlink:href="#DejaVuSans-32"/>
       <use xlink:href="#DejaVuSans-30" x="63.623047"/>
       <use xlink:href="#DejaVuSans-30" x="127.246094"/>
      </g>
     </g>
    </g>
    <g id="text_14">
     <!-- Bandwidth (Gb/s) -->
     <g style="fill: #262626" transform="translate(18.702813 117.866875) rotate(-90) scale(0.1 -0.1)">
      <defs>
       <path id="DejaVuSans-6e" d="M 3513 2113 
L 3513 0 
L 2938 0 
L 2938 2094 
Q 2938 2591 2744 2837 
Q 2550 3084 2163 3084 
Q 1697 3084 1428 2787 
Q 1159 2491 1159 1978 
L 1159 0 
L 581 0 
L 581 3500 
L 1159 3500 
L 1159 2956 
Q 1366 3272 1645 3428 
Q 1925 3584 2291 3584 
Q 2894 3584 3203 3211 
Q 3513 2838 3513 2113 
z
" transform="scale(0.015625)"/>
       <path id="DejaVuSans-64" d="M 2906 2969 
L 2906 4863 
L 3481 4863 
L 3481 0 
L 2906 0 
L 2906 525 
Q 2725 213 2448 61 
Q 2172 -91 1784 -91 
Q 1150 -91 751 415 
Q 353 922 353 1747 
Q 353 2572 751 3078 
Q 1150 3584 1784 3584 
Q 2172 3584 2448 3432 
Q 2725 3281 2906 2969 
z
M 947 1747 
Q 947 1113 1208 752 
Q 1469 391 1925 391 
Q 2381 391 2643 752 
Q 2906 1113 2906 1747 
Q 2906 2381 2643 2742 
Q 2381 3103 1925 3103 
Q 1469 3103 1208 2742 
Q 947 2381 947 1747 
z
" transform="scale(0.015625)"/>
       <path id="DejaVuSans-77" d="M 269 3500 
L 844 3500 
L 1563 769 
L 2278 3500 
L 2956 3500 
L 3675 769 
L 4391 3500 
L 4966 3500 
L 4050 0 
L 3372 0 
L 2619 2869 
L 1863 0 
L 1184 0 
L 269 3500 
z
" transform="scale(0.015625)"/>
       <path id="DejaVuSans-74" d="M 1172 4494 
L 1172 3500 
L 2356 3500 
L 2356 3053 
L 1172 3053 
L 1172 1153 
Q 1172 725 1289 603 
Q 1406 481 1766 481 
L 2356 481 
L 2356 0 
L 1766 0 
Q 1100 0 847 248 
Q 594 497 594 1153 
L 594 3053 
L 172 3053 
L 172 3500 
L 594 3500 
L 594 4494 
L 1172 4494 
z
" transform="scale(0.015625)"/>
       <path id="DejaVuSans-68" d="M 3513 2113 
L 3513 0 
L 2938 0 
L 2938 2094 
Q 2938 2591 2744 2837 
Q 2550 3084 2163 3084 
Q 1697 3084 1428 2787 
Q 1159 2491 1159 1978 
L 1159 0 
L 581 0 
L 581 4863 
L 1159 4863 
L 1159 2956 
Q 1366 3272 1645 3428 
Q 1925 3584 2291 3584 
Q 2894 3584 3203 3211 
Q 3513 2838 3513 2113 
z
" transform="scale(0.015625)"/>
       <path id="DejaVuSans-28" d="M 1984 4856 
Q 1566 4138 1362 3434 
Q 1159 2731 1159 2009 
Q 1159 1288 1364 580 
Q 1569 -128 1984 -844 
L 1484 -844 
Q 1016 -109 783 600 
Q 550 1309 550 2009 
Q 550 2706 781 3412 
Q 1013 4119 1484 4856 
L 1984 4856 
z
" transform="scale(0.015625)"/>
       <path id="DejaVuSans-47" d="M 3809 666 
L 3809 1919 
L 2778 1919 
L 2778 2438 
L 4434 2438 
L 4434 434 
Q 4069 175 3628 42 
Q 3188 -91 2688 -91 
Q 1594 -91 976 548 
Q 359 1188 359 2328 
Q 359 3472 976 4111 
Q 1594 4750 2688 4750 
Q 3144 4750 3555 4637 
Q 3966 4525 4313 4306 
L 4313 3634 
Q 3963 3931 3569 4081 
Q 3175 4231 2741 4231 
Q 1884 4231 1454 3753 
Q 1025 3275 1025 2328 
Q 1025 1384 1454 906 
Q 1884 428 2741 428 
Q 3075 428 3337 486 
Q 3600 544 3809 666 
z
" transform="scale(0.015625)"/>
       <path id="DejaVuSans-62" d="M 3116 1747 
Q 3116 2381 2855 2742 
Q 2594 3103 2138 3103 
Q 1681 3103 1420 2742 
Q 1159 2381 1159 1747 
Q 1159 1113 1420 752 
Q 1681 391 2138 391 
Q 2594 391 2855 752 
Q 3116 1113 3116 1747 
z
M 1159 2969 
Q 1341 3281 1617 3432 
Q 1894 3584 2278 3584 
Q 2916 3584 3314 3078 
Q 3713 2572 3713 1747 
Q 3713 922 3314 415 
Q 2916 -91 2278 -91 
Q 1894 -91 1617 61 
Q 1341 213 1159 525 
L 1159 0 
L 581 0 
L 581 4863 
L 1159 4863 
L 1159 2969 
z
" transform="scale(0.015625)"/>
       <path id="DejaVuSans-2f" d="M 1625 4666 
L 2156 4666 
L 531 -594 
L 0 -594 
L 1625 4666 
z
" transform="scale(0.015625)"/>
       <path id="DejaVuSans-29" d="M 513 4856 
L 1013 4856 
Q 1481 4119 1714 3412 
Q 1947 2706 1947 2009 
Q 1947 1309 1714 600 
Q 1481 -109 1013 -844 
L 513 -844 
Q 928 -128 1133 580 
Q 1338 1288 1338 2009 
Q 1338 2731 1133 3434 
Q 928 4138 513 4856 
z
" transform="scale(0.015625)"/>
      </defs>
      <use xlink:href="#DejaVuSans-42"/>
      <use xlink:href="#DejaVuSans-61" x="68.603516"/>
      <use xlink:href="#DejaVuSans-6e" x="129.882812"/>
      <use xlink:href="#DejaVuSans-64" x="193.261719"/>
      <use xlink:href="#DejaVuSans-77" x="256.738281"/>
      <use xlink:href="#DejaVuSans-69" x="338.525391"/>
      <use xlink:href="#DejaVuSans-64" x="366.308594"/>
      <use xlink:href="#DejaVuSans-74" x="429.785156"/>
      <use xlink:href="#DejaVuSans-68" x="468.994141"/>
      <use xlink:href="#DejaVuSans-20" x="532.373047"/>
      <use xlink:href="#DejaVuSans-28" x="564.160156"/>
      <use xlink:href="#DejaVuSans-47" x="603.173828"/>
      <use xlink:href="#DejaVuSans-62" x="680.664062"/>
      <use xlink:href="#DejaVuSans-2f" x="744.140625"/>
      <use xlink:href="#DejaVuSans-73" x="777.832031"/>
      <use xlink:href="#DejaVuSans-29" x="829.931641"/>
     </g>
    </g>
   </g>
   <g id="PolyCollection_1">
    <defs>
     <path id="mf15beb96d0" d="M 64.299174 -47.746036 
L 64.299174 -47.745471 
L 75.490152 -47.747557 
L 86.681129 -47.75167 
L 97.872107 -47.760141 
L 109.063085 -47.777122 
L 120.254063 -47.807671 
L 131.445041 -47.866343 
L 142.636019 -47.994069 
L 153.826997 -48.224249 
L 165.017975 -48.60477 
L 176.208953 -49.472407 
L 187.399931 -50.230491 
L 198.590909 -52.055467 
L 209.781887 -55.183119 
L 220.972865 -58.535961 
L 232.163843 -64.575075 
L 243.354821 -72.231793 
L 254.545799 -80.629194 
L 265.736777 -108.200019 
L 276.927755 -118.442976 
L 288.118733 -133.982806 
L 299.309711 -143.151409 
L 310.500689 -139.145415 
L 321.691667 -149.00073 
L 332.882645 -159.46959 
L 332.882645 -161.566447 
L 332.882645 -161.566447 
L 321.691667 -163.416364 
L 310.500689 -160.28308 
L 299.309711 -149.987741 
L 288.118733 -136.979303 
L 276.927755 -120.348418 
L 265.736777 -113.095825 
L 254.545799 -84.403038 
L 243.354821 -76.460371 
L 232.163843 -68.141638 
L 220.972865 -61.576213 
L 209.781887 -56.873254 
L 198.590909 -53.199816 
L 187.399931 -50.833644 
L 176.208953 -49.681755 
L 165.017975 -48.768953 
L 153.826997 -48.260262 
L 142.636019 -48.045748 
L 131.445041 -47.888388 
L 120.254063 -47.819778 
L 109.063085 -47.784596 
L 97.872107 -47.764065 
L 86.681129 -47.753746 
L 75.490152 -47.7486 
L 64.299174 -47.746036 
z
" style="stroke: #1f77b4; stroke-opacity: 0.2"/>
    </defs>
    <g clip-path="url(#p854ca39f14)">
     <use xlink:href="#mf15beb96d0" x="0" y="180" style="fill: #1f77b4; fill-opacity: 0.2; stroke: #1f77b4; stroke-opacity: 0.2"/>
    </g>
   </g>
   <g id="PolyCollection_2">
    <defs>
     <path id="md22bad6384" d="M 64.299174 -47.74585 
L 64.299174 -47.745495 
L 75.490152 -47.747829 
L 86.681129 -47.752132 
L 97.872107 -47.760045 
L 109.063085 -47.776404 
L 120.254063 -47.804451 
L 131.445041 -47.861094 
L 142.636019 -47.976905 
L 153.826997 -48.1467 
L 165.017975 -48.579357 
L 176.208953 -49.210048 
L 187.399931 -50.21295 
L 198.590909 -52.106897 
L 209.781887 -55.140724 
L 220.972865 -58.045003 
L 232.163843 -63.32226 
L 243.354821 -69.807055 
L 254.545799 -75.438709 
L 265.736777 -107.591265 
L 276.927755 -118.038782 
L 288.118733 -133.809186 
L 299.309711 -146.575131 
L 310.500689 -151.729031 
L 321.691667 -157.097457 
L 332.882645 -160.121126 
L 332.882645 -161.056084 
L 332.882645 -161.056084 
L 321.691667 -159.589021 
L 310.500689 -156.953916 
L 299.309711 -148.443967 
L 288.118733 -136.369977 
L 276.927755 -120.055242 
L 265.736777 -112.375539 
L 254.545799 -78.379309 
L 243.354821 -72.531662 
L 232.163843 -65.823215 
L 220.972865 -60.325384 
L 209.781887 -55.838116 
L 198.590909 -52.693084 
L 187.399931 -50.638849 
L 176.208953 -49.476647 
L 165.017975 -48.644616 
L 153.826997 -48.201846 
L 142.636019 -48.005065 
L 131.445041 -47.87576 
L 120.254063 -47.811305 
L 109.063085 -47.780445 
L 97.872107 -47.762797 
L 86.681129 -47.753128 
L 75.490152 -47.748296 
L 64.299174 -47.74585 
z
" style="stroke: #ff7f0e; stroke-opacity: 0.2"/>
    </defs>
    <g clip-path="url(#p854ca39f14)">
     <use xlink:href="#md22bad6384" x="0" y="180" style="fill: #ff7f0e; fill-opacity: 0.2; stroke: #ff7f0e; stroke-opacity: 0.2"/>
    </g>
   </g>
   <g id="PolyCollection_3">
    <defs>
     <path id="m60252b2854" d="M 64.299174 -47.743662 
L 64.299174 -47.743636 
L 75.490152 -47.743845 
L 86.681129 -47.744263 
L 97.872107 -47.745087 
L 109.063085 -47.746758 
L 120.254063 -47.750081 
L 131.445041 -47.756506 
L 142.636019 -47.769422 
L 153.826997 -47.795444 
L 165.017975 -47.842791 
L 176.208953 -47.924399 
L 187.399931 -48.113719 
L 198.590909 -48.413663 
L 209.781887 -48.771614 
L 220.972865 -49.225259 
L 232.163843 -49.616417 
L 243.354821 -49.425169 
L 254.545799 -50.099921 
L 265.736777 -50.627985 
L 276.927755 -51.089992 
L 288.118733 -51.811776 
L 299.309711 -52.258092 
L 310.500689 -52.699823 
L 321.691667 -52.86606 
L 332.882645 -52.956789 
L 332.882645 -53.038267 
L 332.882645 -53.038267 
L 321.691667 -52.993787 
L 310.500689 -52.872376 
L 299.309711 -52.497725 
L 288.118733 -52.235923 
L 276.927755 -51.635516 
L 265.736777 -51.075132 
L 254.545799 -50.219754 
L 243.354821 -49.617715 
L 232.163843 -49.784208 
L 220.972865 -49.353104 
L 209.781887 -48.939297 
L 198.590909 -48.472485 
L 187.399931 -48.163697 
L 176.208953 -47.943035 
L 165.017975 -47.855088 
L 153.826997 -47.801206 
L 142.636019 -47.772435 
L 131.445041 -47.757955 
L 120.254063 -47.7509 
L 109.063085 -47.747165 
L 97.872107 -47.745299 
L 86.681129 -47.744364 
L 75.490152 -47.743896 
L 64.299174 -47.743662 
z
" style="stroke: #2ca02c; stroke-opacity: 0.2"/>
    </defs>
    <g clip-path="url(#p854ca39f14)">
     <use xlink:href="#m60252b2854" x="0" y="180" style="fill: #2ca02c; fill-opacity: 0.2; stroke: #2ca02c; stroke-opacity: 0.2"/>
    </g>
   </g>
   <g id="line2d_13">
    <path d="M 64.299174 132.254247 
L 75.490152 132.251922 
L 86.681129 132.247292 
L 97.872107 132.237897 
L 109.063085 132.219141 
L 120.254063 132.186275 
L 131.445041 132.122635 
L 142.636019 131.980092 
L 153.826997 131.757745 
L 165.017975 131.313138 
L 176.208953 130.422919 
L 187.399931 129.467932 
L 198.590909 127.372359 
L 209.781887 123.971814 
L 220.972865 119.943913 
L 232.163843 113.641643 
L 243.354821 105.653918 
L 254.545799 97.483884 
L 265.736777 69.352078 
L 276.927755 60.604303 
L 288.118733 44.518946 
L 299.309711 33.430425 
L 310.500689 30.285753 
L 321.691667 23.791453 
L 332.882645 19.481982 
" clip-path="url(#p854ca39f14)" style="fill: none; stroke: #1f77b4; stroke-width: 2; stroke-linecap: round"/>
    <defs>
     <path id="m8c31e7b237" d="M 0 5.5 
C 1.458617 5.5 2.857689 4.920485 3.889087 3.889087 
C 4.920485 2.857689 5.5 1.458617 5.5 0 
C 5.5 -1.458617 4.920485 -2.857689 3.889087 -3.889087 
C 2.857689 -4.920485 1.458617 -5.5 0 -5.5 
C -1.458617 -5.5 -2.857689 -4.920485 -3.889087 -3.889087 
C -4.920485 -2.857689 -5.5 -1.458617 -5.5 0 
C -5.5 1.458617 -4.920485 2.857689 -3.889087 3.889087 
C -2.857689 4.920485 -1.458617 5.5 0 5.5 
z
" style="stroke: #ffffff; stroke-width: 0.75"/>
    </defs>
    <g clip-path="url(#p854ca39f14)">
     <use xlink:href="#m8c31e7b237" x="64.299174" y="132.254247" style="fill: #1f77b4; stroke: #ffffff; stroke-width: 0.75"/>
     <use xlink:href="#m8c31e7b237" x="75.490152" y="132.251922" style="fill: #1f77b4; stroke: #ffffff; stroke-width: 0.75"/>
     <use xlink:href="#m8c31e7b237" x="86.681129" y="132.247292" style="fill: #1f77b4; stroke: #ffffff; stroke-width: 0.75"/>
     <use xlink:href="#m8c31e7b237" x="97.872107" y="132.237897" style="fill: #1f77b4; stroke: #ffffff; stroke-width: 0.75"/>
     <use xlink:href="#m8c31e7b237" x="109.063085" y="132.219141" style="fill: #1f77b4; stroke: #ffffff; stroke-width: 0.75"/>
     <use xlink:href="#m8c31e7b237" x="120.254063" y="132.186275" style="fill: #1f77b4; stroke: #ffffff; stroke-width: 0.75"/>
     <use xlink:href="#m8c31e7b237" x="131.445041" y="132.122635" style="fill: #1f77b4; stroke: #ffffff; stroke-width: 0.75"/>
     <use xlink:href="#m8c31e7b237" x="142.636019" y="131.980092" style="fill: #1f77b4; stroke: #ffffff; stroke-width: 0.75"/>
     <use xlink:href="#m8c31e7b237" x="153.826997" y="131.757745" style="fill: #1f77b4; stroke: #ffffff; stroke-width: 0.75"/>
     <use xlink:href="#m8c31e7b237" x="165.017975" y="131.313138" style="fill: #1f77b4; stroke: #ffffff; stroke-width: 0.75"/>
     <use xlink:href="#m8c31e7b237" x="176.208953" y="130.422919" style="fill: #1f77b4; stroke: #ffffff; stroke-width: 0.75"/>
     <use xlink:href="#m8c31e7b237" x="187.399931" y="129.467932" style="fill: #1f77b4; stroke: #ffffff; stroke-width: 0.75"/>
     <use xlink:href="#m8c31e7b237" x="198.590909" y="127.372359" style="fill: #1f77b4; stroke: #ffffff; stroke-width: 0.75"/>
     <use xlink:href="#m8c31e7b237" x="209.781887" y="123.971814" style="fill: #1f77b4; stroke: #ffffff; stroke-width: 0.75"/>
     <use xlink:href="#m8c31e7b237" x="220.972865" y="119.943913" style="fill: #1f77b4; stroke: #ffffff; stroke-width: 0.75"/>
     <use xlink:href="#m8c31e7b237" x="232.163843" y="113.641643" style="fill: #1f77b4; stroke: #ffffff; stroke-width: 0.75"/>
     <use xlink:href="#m8c31e7b237" x="243.354821" y="105.653918" style="fill: #1f77b4; stroke: #ffffff; stroke-width: 0.75"/>
     <use xlink:href="#m8c31e7b237" x="254.545799" y="97.483884" style="fill: #1f77b4; stroke: #ffffff; stroke-width: 0.75"/>
     <use xlink:href="#m8c31e7b237" x="265.736777" y="69.352078" style="fill: #1f77b4; stroke: #ffffff; stroke-width: 0.75"/>
     <use xlink:href="#m8c31e7b237" x="276.927755" y="60.604303" style="fill: #1f77b4; stroke: #ffffff; stroke-width: 0.75"/>
     <use xlink:href="#m8c31e7b237" x="288.118733" y="44.518946" style="fill: #1f77b4; stroke: #ffffff; stroke-width: 0.75"/>
     <use xlink:href="#m8c31e7b237" x="299.309711" y="33.430425" style="fill: #1f77b4; stroke: #ffffff; stroke-width: 0.75"/>
     <use xlink:href="#m8c31e7b237" x="310.500689" y="30.285753" style="fill: #1f77b4; stroke: #ffffff; stroke-width: 0.75"/>
     <use xlink:href="#m8c31e7b237" x="321.691667" y="23.791453" style="fill: #1f77b4; stroke: #ffffff; stroke-width: 0.75"/>
     <use xlink:href="#m8c31e7b237" x="332.882645" y="19.481982" style="fill: #1f77b4; stroke: #ffffff; stroke-width: 0.75"/>
    </g>
   </g>
   <g id="line2d_14">
    <path d="M 64.299174 132.254327 
L 75.490152 132.251938 
L 86.681129 132.24737 
L 97.872107 132.238579 
L 109.063085 132.221575 
L 120.254063 132.192122 
L 131.445041 132.131573 
L 142.636019 132.009015 
L 153.826997 131.825727 
L 165.017975 131.388013 
L 176.208953 130.656653 
L 187.399931 129.5741 
L 198.590909 127.600009 
L 209.781887 124.51058 
L 220.972865 120.814807 
L 232.163843 115.427263 
L 243.354821 108.830642 
L 254.545799 103.090991 
L 265.736777 70.016598 
L 276.927755 60.952988 
L 288.118733 44.910419 
L 299.309711 32.490451 
L 310.500689 25.658526 
L 321.691667 21.656761 
L 332.882645 19.411395 
" clip-path="url(#p854ca39f14)" style="fill: none; stroke-dasharray: 8,3; stroke-dashoffset: 0; stroke: #ff7f0e; stroke-width: 2"/>
    <defs>
     <path id="mbbfdca4089" d="M -2.75 5.5 
L 0 2.75 
L 2.75 5.5 
L 5.5 2.75 
L 2.75 0 
L 5.5 -2.75 
L 2.75 -5.5 
L 0 -2.75 
L -2.75 -5.5 
L -5.5 -2.75 
L -2.75 0 
L -5.5 2.75 
z
" style="stroke: #ffffff; stroke-width: 0.75; stroke-linejoin: miter"/>
    </defs>
    <g clip-path="url(#p854ca39f14)">
     <use xlink:href="#mbbfdca4089" x="64.299174" y="132.254327" style="fill: #ff7f0e; stroke: #ffffff; stroke-width: 0.75; stroke-linejoin: miter"/>
     <use xlink:href="#mbbfdca4089" x="75.490152" y="132.251938" style="fill: #ff7f0e; stroke: #ffffff; stroke-width: 0.75; stroke-linejoin: miter"/>
     <use xlink:href="#mbbfdca4089" x="86.681129" y="132.24737" style="fill: #ff7f0e; stroke: #ffffff; stroke-width: 0.75; stroke-linejoin: miter"/>
     <use xlink:href="#mbbfdca4089" x="97.872107" y="132.238579" style="fill: #ff7f0e; stroke: #ffffff; stroke-width: 0.75; stroke-linejoin: miter"/>
     <use xlink:href="#mbbfdca4089" x="109.063085" y="132.221575" style="fill: #ff7f0e; stroke: #ffffff; stroke-width: 0.75; stroke-linejoin: miter"/>
     <use xlink:href="#mbbfdca4089" x="120.254063" y="132.192122" style="fill: #ff7f0e; stroke: #ffffff; stroke-width: 0.75; stroke-linejoin: miter"/>
     <use xlink:href="#mbbfdca4089" x="131.445041" y="132.131573" style="fill: #ff7f0e; stroke: #ffffff; stroke-width: 0.75; stroke-linejoin: miter"/>
     <use xlink:href="#mbbfdca4089" x="142.636019" y="132.009015" style="fill: #ff7f0e; stroke: #ffffff; stroke-width: 0.75; stroke-linejoin: miter"/>
     <use xlink:href="#mbbfdca4089" x="153.826997" y="131.825727" style="fill: #ff7f0e; stroke: #ffffff; stroke-width: 0.75; stroke-linejoin: miter"/>
     <use xlink:href="#mbbfdca4089" x="165.017975" y="131.388013" style="fill: #ff7f0e; stroke: #ffffff; stroke-width: 0.75; stroke-linejoin: miter"/>
     <use xlink:href="#mbbfdca4089" x="176.208953" y="130.656653" style="fill: #ff7f0e; stroke: #ffffff; stroke-width: 0.75; stroke-linejoin: miter"/>
     <use xlink:href="#mbbfdca4089" x="187.399931" y="129.5741" style="fill: #ff7f0e; stroke: #ffffff; stroke-width: 0.75; stroke-linejoin: miter"/>
     <use xlink:href="#mbbfdca4089" x="198.590909" y="127.600009" style="fill: #ff7f0e; stroke: #ffffff; stroke-width: 0.75; stroke-linejoin: miter"/>
     <use xlink:href="#mbbfdca4089" x="209.781887" y="124.51058" style="fill: #ff7f0e; stroke: #ffffff; stroke-width: 0.75; stroke-linejoin: miter"/>
     <use xlink:href="#mbbfdca4089" x="220.972865" y="120.814807" style="fill: #ff7f0e; stroke: #ffffff; stroke-width: 0.75; stroke-linejoin: miter"/>
     <use xlink:href="#mbbfdca4089" x="232.163843" y="115.427263" style="fill: #ff7f0e; stroke: #ffffff; stroke-width: 0.75; stroke-linejoin: miter"/>
     <use xlink:href="#mbbfdca4089" x="243.354821" y="108.830642" style="fill: #ff7f0e; stroke: #ffffff; stroke-width: 0.75; stroke-linejoin: miter"/>
     <use xlink:href="#mbbfdca4089" x="254.545799" y="103.090991" style="fill: #ff7f0e; stroke: #ffffff; stroke-width: 0.75; stroke-linejoin: miter"/>
     <use xlink:href="#mbbfdca4089" x="265.736777" y="70.016598" style="fill: #ff7f0e; stroke: #ffffff; stroke-width: 0.75; stroke-linejoin: miter"/>
     <use xlink:href="#mbbfdca4089" x="276.927755" y="60.952988" style="fill: #ff7f0e; stroke: #ffffff; stroke-width: 0.75; stroke-linejoin: miter"/>
     <use xlink:href="#mbbfdca4089" x="288.118733" y="44.910419" style="fill: #ff7f0e; stroke: #ffffff; stroke-width: 0.75; stroke-linejoin: miter"/>
     <use xlink:href="#mbbfdca4089" x="299.309711" y="32.490451" style="fill: #ff7f0e; stroke: #ffffff; stroke-width: 0.75; stroke-linejoin: miter"/>
     <use xlink:href="#mbbfdca4089" x="310.500689" y="25.658526" style="fill: #ff7f0e; stroke: #ffffff; stroke-width: 0.75; stroke-linejoin: miter"/>
     <use xlink:href="#mbbfdca4089" x="321.691667" y="21.656761" style="fill: #ff7f0e; stroke: #ffffff; stroke-width: 0.75; stroke-linejoin: miter"/>
     <use xlink:href="#mbbfdca4089" x="332.882645" y="19.411395" style="fill: #ff7f0e; stroke: #ffffff; stroke-width: 0.75; stroke-linejoin: miter"/>
    </g>
   </g>
   <g id="line2d_15">
    <path d="M 64.299174 132.256351 
L 75.490152 132.25613 
L 86.681129 132.255687 
L 97.872107 132.254807 
L 109.063085 132.253039 
L 120.254063 132.24951 
L 131.445041 132.24277 
L 142.636019 132.229072 
L 153.826997 132.201675 
L 165.017975 132.151061 
L 176.208953 132.066283 
L 187.399931 131.861292 
L 198.590909 131.556926 
L 209.781887 131.144544 
L 220.972865 130.710819 
L 232.163843 130.299687 
L 243.354821 130.478558 
L 254.545799 129.840163 
L 265.736777 129.148442 
L 276.927755 128.637246 
L 288.118733 127.976151 
L 299.309711 127.622092 
L 310.500689 127.2139 
L 321.691667 127.070077 
L 332.882645 127.002472 
" clip-path="url(#p854ca39f14)" style="fill: none; stroke-dasharray: 2,2; stroke-dashoffset: 0; stroke: #2ca02c; stroke-width: 2"/>
    <defs>
     <path id="m3a905e65e9" d="M -3.889087 -3.889087 
L -3.889087 3.889087 
L 3.889087 3.889087 
L 3.889087 -3.889087 
z
" style="stroke: #ffffff; stroke-width: 0.75; stroke-linejoin: miter"/>
    </defs>
    <g clip-path="url(#p854ca39f14)">
     <use xlink:href="#m3a905e65e9" x="64.299174" y="132.256351" style="fill: #2ca02c; stroke: #ffffff; stroke-width: 0.75; stroke-linejoin: miter"/>
     <use xlink:href="#m3a905e65e9" x="75.490152" y="132.25613" style="fill: #2ca02c; stroke: #ffffff; stroke-width: 0.75; stroke-linejoin: miter"/>
     <use xlink:href="#m3a905e65e9" x="86.681129" y="132.255687" style="fill: #2ca02c; stroke: #ffffff; stroke-width: 0.75; stroke-linejoin: miter"/>
     <use xlink:href="#m3a905e65e9" x="97.872107" y="132.254807" style="fill: #2ca02c; stroke: #ffffff; stroke-width: 0.75; stroke-linejoin: miter"/>
     <use xlink:href="#m3a905e65e9" x="109.063085" y="132.253039" style="fill: #2ca02c; stroke: #ffffff; stroke-width: 0.75; stroke-linejoin: miter"/>
     <use xlink:href="#m3a905e65e9" x="120.254063" y="132.24951" style="fill: #2ca02c; stroke: #ffffff; stroke-width: 0.75; stroke-linejoin: miter"/>
     <use xlink:href="#m3a905e65e9" x="131.445041" y="132.24277" style="fill: #2ca02c; stroke: #ffffff; stroke-width: 0.75; stroke-linejoin: miter"/>
     <use xlink:href="#m3a905e65e9" x="142.636019" y="132.229072" style="fill: #2ca02c; stroke: #ffffff; stroke-width: 0.75; stroke-linejoin: miter"/>
     <use xlink:href="#m3a905e65e9" x="153.826997" y="132.201675" style="fill: #2ca02c; stroke: #ffffff; stroke-width: 0.75; stroke-linejoin: miter"/>
     <use xlink:href="#m3a905e65e9" x="165.017975" y="132.151061" style="fill: #2ca02c; stroke: #ffffff; stroke-width: 0.75; stroke-linejoin: miter"/>
     <use xlink:href="#m3a905e65e9" x="176.208953" y="132.066283" style="fill: #2ca02c; stroke: #ffffff; stroke-width: 0.75; stroke-linejoin: miter"/>
     <use xlink:href="#m3a905e65e9" x="187.399931" y="131.861292" style="fill: #2ca02c; stroke: #ffffff; stroke-width: 0.75; stroke-linejoin: miter"/>
     <use xlink:href="#m3a905e65e9" x="198.590909" y="131.556926" style="fill: #2ca02c; stroke: #ffffff; stroke-width: 0.75; stroke-linejoin: miter"/>
     <use xlink:href="#m3a905e65e9" x="209.781887" y="131.144544" style="fill: #2ca02c; stroke: #ffffff; stroke-width: 0.75; stroke-linejoin: miter"/>
     <use xlink:href="#m3a905e65e9" x="220.972865" y="130.710819" style="fill: #2ca02c; stroke: #ffffff; stroke-width: 0.75; stroke-linejoin: miter"/>
     <use xlink:href="#m3a905e65e9" x="232.163843" y="130.299687" style="fill: #2ca02c; stroke: #ffffff; stroke-width: 0.75; stroke-linejoin: miter"/>
     <use xlink:href="#m3a905e65e9" x="243.354821" y="130.478558" style="fill: #2ca02c; stroke: #ffffff; stroke-width: 0.75; stroke-linejoin: miter"/>
     <use xlink:href="#m3a905e65e9" x="254.545799" y="129.840163" style="fill: #2ca02c; stroke: #ffffff; stroke-width: 0.75; stroke-linejoin: miter"/>
     <use xlink:href="#m3a905e65e9" x="265.736777" y="129.148442" style="fill: #2ca02c; stroke: #ffffff; stroke-width: 0.75; stroke-linejoin: miter"/>
     <use xlink:href="#m3a905e65e9" x="276.927755" y="128.637246" style="fill: #2ca02c; stroke: #ffffff; stroke-width: 0.75; stroke-linejoin: miter"/>
     <use xlink:href="#m3a905e65e9" x="288.118733" y="127.976151" style="fill: #2ca02c; stroke: #ffffff; stroke-width: 0.75; stroke-linejoin: miter"/>
     <use xlink:href="#m3a905e65e9" x="299.309711" y="127.622092" style="fill: #2ca02c; stroke: #ffffff; stroke-width: 0.75; stroke-linejoin: miter"/>
     <use xlink:href="#m3a905e65e9" x="310.500689" y="127.2139" style="fill: #2ca02c; stroke: #ffffff; stroke-width: 0.75; stroke-linejoin: miter"/>
     <use xlink:href="#m3a905e65e9" x="321.691667" y="127.070077" style="fill: #2ca02c; stroke: #ffffff; stroke-width: 0.75; stroke-linejoin: miter"/>
     <use xlink:href="#m3a905e65e9" x="332.882645" y="127.002472" style="fill: #2ca02c; stroke: #ffffff; stroke-width: 0.75; stroke-linejoin: miter"/>
    </g>
   </g>
   <g id="line2d_16"/>
   <g id="line2d_17"/>
   <g id="line2d_18"/>
   <g id="patch_3">
    <path d="M 50.87 138.04 
L 50.87 10.8 
" style="fill: none; stroke: #cccccc; stroke-width: 0.8; stroke-linejoin: miter; stroke-linecap: square"/>
   </g>
   <g id="patch_4">
    <path d="M 346.311818 138.04 
L 346.311818 10.8 
" style="fill: none; stroke: #cccccc; stroke-width: 0.8; stroke-linejoin: miter; stroke-linecap: square"/>
   </g>
   <g id="patch_5">
    <path d="M 50.87 138.04 
L 346.311818 138.04 
" style="fill: none; stroke: #cccccc; stroke-width: 0.8; stroke-linejoin: miter; stroke-linecap: square"/>
   </g>
   <g id="patch_6">
    <path d="M 50.87 10.8 
L 346.311818 10.8 
" style="fill: none; stroke: #cccccc; stroke-width: 0.8; stroke-linejoin: miter; stroke-linecap: square"/>
   </g>
   <g id="axes_2">
    <g id="patch_7">
     <path d="M 86.323018 93.506 
L 216.317418 93.506 
L 216.317418 23.524 
L 86.323018 23.524 
z
" style="fill: #ffffff"/>
    </g>
    <g id="matplotlib.axis_3">
     <g id="xtick_8">
      <g id="line2d_19">
       <path d="M 86.323018 93.506 
L 86.323018 23.524 
" clip-path="url(#p4d628b3184)" style="fill: none; stroke: #cccccc; stroke-width: 0.8; stroke-linecap: round"/>
      </g>
      <g id="text_15">
       <!-- 1B -->
       <g style="fill: #262626" transform="translate(79.711299 108.104438) scale(0.1 -0.1)">
        <use xlink:href="#DejaVuSans-31"/>
        <use xlink:href="#DejaVuSans-42" x="63.623047"/>
       </g>
      </g>
     </g>
     <g id="xtick_9">
      <g id="line2d_20">
       <path d="M 151.320218 93.506 
L 151.320218 23.524 
" clip-path="url(#p4d628b3184)" style="fill: none; stroke: #cccccc; stroke-width: 0.8; stroke-linecap: round"/>
      </g>
      <g id="text_16">
       <!-- 16B -->
       <g style="fill: #262626" transform="translate(141.527249 108.104438) scale(0.1 -0.1)">
        <use xlink:href="#DejaVuSans-31"/>
        <use xlink:href="#DejaVuSans-36" x="63.623047"/>
        <use xlink:href="#DejaVuSans-42" x="127.246094"/>
       </g>
      </g>
     </g>
     <g id="xtick_10">
      <g id="line2d_21">
       <path d="M 216.317418 93.506 
L 216.317418 23.524 
" clip-path="url(#p4d628b3184)" style="fill: none; stroke: #cccccc; stroke-width: 0.8; stroke-linecap: round"/>
      </g>
      <g id="text_17">
       <!-- 256B -->
       <g style="fill: #262626" transform="translate(203.343199 108.104438) scale(0.1 -0.1)">
        <use xlink:href="#DejaVuSans-32"/>
        <use xlink:href="#DejaVuSans-35" x="63.623047"/>
        <use xlink:href="#DejaVuSans-36" x="127.246094"/>
        <use xlink:href="#DejaVuSans-42" x="190.869141"/>
       </g>
      </g>
     </g>
    </g>
    <g id="matplotlib.axis_4">
     <g id="ytick_6">
      <g id="line2d_22">
       <path d="M 86.323018 93.506 
L 216.317418 93.506 
" clip-path="url(#p4d628b3184)" style="fill: none; stroke: #cccccc; stroke-width: 0.8; stroke-linecap: round"/>
      </g>
      <g id="text_18">
       <!-- 0 -->
       <g style="fill: #262626" transform="translate(72.960518 97.305219) scale(0.1 -0.1)">
        <use xlink:href="#DejaVuSans-30"/>
       </g>
      </g>
     </g>
     <g id="ytick_7">
      <g id="line2d_23">
       <path d="M 86.323018 70.178667 
L 216.317418 70.178667 
" clip-path="url(#p4d628b3184)" style="fill: none; stroke: #cccccc; stroke-width: 0.8; stroke-linecap: round"/>
      </g>
      <g id="text_19">
       <!-- 10 -->
       <g style="fill: #262626" transform="translate(66.598018 73.977885) scale(0.1 -0.1)">
        <use xlink:href="#DejaVuSans-31"/>
        <use xlink:href="#DejaVuSans-30" x="63.623047"/>
       </g>
      </g>
     </g>
     <g id="ytick_8">
      <g id="line2d_24">
       <path d="M 86.323018 46.851333 
L 216.317418 46.851333 
" clip-path="url(#p4d628b3184)" style="fill: none; stroke: #cccccc; stroke-width: 0.8; stroke-linecap: round"/>
      </g>
      <g id="text_20">
       <!-- 20 -->
       <g style="fill: #262626" transform="translate(66.598018 50.650552) scale(0.1 -0.1)">
        <use xlink:href="#DejaVuSans-32"/>
        <use xlink:href="#DejaVuSans-30" x="63.623047"/>
       </g>
      </g>
     </g>
     <g id="ytick_9">
      <g id="line2d_25">
       <path d="M 86.323018 23.524 
L 216.317418 23.524 
" clip-path="url(#p4d628b3184)" style="fill: none; stroke: #cccccc; stroke-width: 0.8; stroke-linecap: round"/>
      </g>
      <g id="text_21">
       <!-- 30 -->
       <g style="fill: #262626" transform="translate(66.598018 27.323219) scale(0.1 -0.1)">
        <defs>
         <path id="DejaVuSans-33" d="M 2597 2516 
Q 3050 2419 3304 2112 
Q 3559 1806 3559 1356 
Q 3559 666 3084 287 
Q 2609 -91 1734 -91 
Q 1441 -91 1130 -33 
Q 819 25 488 141 
L 488 750 
Q 750 597 1062 519 
Q 1375 441 1716 441 
Q 2309 441 2620 675 
Q 2931 909 2931 1356 
Q 2931 1769 2642 2001 
Q 2353 2234 1838 2234 
L 1294 2234 
L 1294 2753 
L 1863 2753 
Q 2328 2753 2575 2939 
Q 2822 3125 2822 3475 
Q 2822 3834 2567 4026 
Q 2313 4219 1838 4219 
Q 1578 4219 1281 4162 
Q 984 4106 628 3988 
L 628 4550 
Q 988 4650 1302 4700 
Q 1616 4750 1894 4750 
Q 2613 4750 3031 4423 
Q 3450 4097 3450 3541 
Q 3450 3153 3228 2886 
Q 3006 2619 2597 2516 
z
" transform="scale(0.015625)"/>
        </defs>
        <use xlink:href="#DejaVuSans-33"/>
        <use xlink:href="#DejaVuSans-30" x="63.623047"/>
       </g>
      </g>
     </g>
     <g id="text_22">
      <!-- RTT/2 (us) -->
      <g style="fill: #262626" transform="translate(60.518331 83.776719) rotate(-90) scale(0.1 -0.1)">
       <defs>
        <path id="DejaVuSans-52" d="M 2841 2188 
Q 3044 2119 3236 1894 
Q 3428 1669 3622 1275 
L 4263 0 
L 3584 0 
L 2988 1197 
Q 2756 1666 2539 1819 
Q 2322 1972 1947 1972 
L 1259 1972 
L 1259 0 
L 628 0 
L 628 4666 
L 2053 4666 
Q 2853 4666 3247 4331 
Q 3641 3997 3641 3322 
Q 3641 2881 3436 2590 
Q 3231 2300 2841 2188 
z
M 1259 4147 
L 1259 2491 
L 2053 2491 
Q 2509 2491 2742 2702 
Q 2975 2913 2975 3322 
Q 2975 3731 2742 3939 
Q 2509 4147 2053 4147 
L 1259 4147 
z
" transform="scale(0.015625)"/>
        <path id="DejaVuSans-54" d="M -19 4666 
L 3928 4666 
L 3928 4134 
L 2272 4134 
L 2272 0 
L 1638 0 
L 1638 4134 
L -19 4134 
L -19 4666 
z
" transform="scale(0.015625)"/>
        <path id="DejaVuSans-75" d="M 544 1381 
L 544 3500 
L 1119 3500 
L 1119 1403 
Q 1119 906 1312 657 
Q 1506 409 1894 409 
Q 2359 409 2629 706 
Q 2900 1003 2900 1516 
L 2900 3500 
L 3475 3500 
L 3475 0 
L 2900 0 
L 2900 538 
Q 2691 219 2414 64 
Q 2138 -91 1772 -91 
Q 1169 -91 856 284 
Q 544 659 544 1381 
z
M 1991 3584 
L 1991 3584 
z
" transform="scale(0.015625)"/>
       </defs>
       <use xlink:href="#DejaVuSans-52"/>
       <use xlink:href="#DejaVuSans-54" x="62.232422"/>
       <use xlink:href="#DejaVuSans-54" x="121.566406"/>
       <use xlink:href="#DejaVuSans-2f" x="182.650391"/>
       <use xlink:href="#DejaVuSans-32" x="216.341797"/>
       <use xlink:href="#DejaVuSans-20" x="279.964844"/>
       <use xlink:href="#DejaVuSans-28" x="311.751953"/>
       <use xlink:href="#DejaVuSans-75" x="350.765625"/>
       <use xlink:href="#DejaVuSans-73" x="414.144531"/>
       <use xlink:href="#DejaVuSans-29" x="466.244141"/>
      </g>
     </g>
    </g>
    <g id="PolyCollection_4">
     <path d="M 86.323018 88.382946 
L 86.323018 90.253813 
L 102.572318 89.935246 
L 118.821618 93.213492 
L 135.070918 89.910826 
L 151.320218 89.882147 
L 167.569518 89.570733 
L 183.818818 89.341503 
L 200.068118 89.829233 
L 216.317418 88.820696 
L 232.566718 103.938454 
L 248.816018 88.537689 
L 265.065318 87.404218 
L 281.314618 86.871593 
L 297.563918 85.40155 
L 313.813218 82.991575 
L 330.062518 78.798311 
L 346.311818 72.701707 
L 362.561118 59.710075 
L 378.810418 55.674335 
L 395.059718 24.726831 
L 411.309018 -18.227745 
L 427.558318 -101.078196 
L 443.807618 -241.408579 
L 460.056918 -578.403205 
L 476.306218 -1309.907124 
L 476.306218 -1338.185641 
L 476.306218 -1338.185641 
L 460.056918 -717.382041 
L 443.807618 -367.938647 
L 427.558318 -116.822046 
L 411.309018 -22.571408 
L 395.059718 22.828685 
L 378.810418 51.780641 
L 362.561118 55.233103 
L 346.311818 66.949351 
L 330.062518 74.240795 
L 313.813218 78.06927 
L 297.563918 82.478613 
L 281.314618 83.814689 
L 265.065318 85.402213 
L 248.816018 87.79069 
L 232.566718 71.63274 
L 216.317418 88.396945 
L 200.068118 88.234821 
L 183.818818 88.496143 
L 167.569518 88.692278 
L 151.320218 88.886626 
L 135.070918 88.827307 
L 118.821618 85.222013 
L 102.572318 88.751605 
L 86.323018 88.382946 
z
" clip-path="url(#p4d628b3184)" style="fill: #1f77b4; fill-opacity: 0.2; stroke: #1f77b4; stroke-opacity: 0.2"/>
    </g>
    <g id="PolyCollection_5">
     <path d="M 86.323018 88.7571 
L 86.323018 89.693461 
L 102.572318 89.68691 
L 118.821618 89.677312 
L 135.070918 89.694276 
L 151.320218 89.636067 
L 167.569518 89.07857 
L 183.818818 88.982786 
L 200.068118 88.930373 
L 216.317418 88.299976 
L 232.566718 88.157271 
L 248.816018 183.496188 
L 265.065318 87.121434 
L 281.314618 85.841022 
L 297.563918 84.005342 
L 313.813218 81.618492 
L 330.062518 76.632352 
L 346.311818 68.630385 
L 362.561118 53.114616 
L 378.810418 55.220033 
L 395.059718 24.475213 
L 411.309018 -19.110869 
L 427.558318 -104.83968 
L 443.807618 -253.119272 
L 460.056918 -617.994315 
L 476.306218 -1317.031888 
L 476.306218 -1329.075013 
L 476.306218 -1329.075013 
L 460.056918 -640.538013 
L 443.807618 -311.013525 
L 427.558318 -108.744365 
L 411.309018 -22.687469 
L 395.059718 22.394298 
L 378.810418 51.389871 
L 362.561118 48.006222 
L 346.311818 64.854421 
L 330.062518 73.010147 
L 313.813218 77.727711 
L 297.563918 82.801233 
L 281.314618 84.316742 
L 265.065318 85.19484 
L 248.816018 -16.839768 
L 232.566718 87.601568 
L 216.317418 87.329152 
L 200.068118 88.187789 
L 183.818818 88.230062 
L 167.569518 88.438899 
L 151.320218 88.610729 
L 135.070918 88.777466 
L 118.821618 89.017088 
L 102.572318 89.070941 
L 86.323018 88.7571 
z
" clip-path="url(#p4d628b3184)" style="fill: #ff7f0e; fill-opacity: 0.2; stroke: #ff7f0e; stroke-opacity: 0.2"/>
    </g>
    <g id="PolyCollection_6">
     <path d="M 86.323018 47.417008 
L 86.323018 52.878206 
L 102.572318 52.929208 
L 118.821618 52.99871 
L 135.070918 53.028487 
L 151.320218 52.920252 
L 167.569518 52.915235 
L 183.818818 51.689939 
L 200.068118 51.625489 
L 216.317418 51.45236 
L 232.566718 49.981777 
L 248.816018 44.818476 
L 265.065318 47.974532 
L 281.314618 40.089098 
L 297.563918 30.024222 
L 313.813218 -3.38876 
L 330.062518 -56.66034 
L 346.311818 -239.363072 
L 362.561118 -410.46202 
L 378.810418 -653.314446 
L 395.059718 -1191.8309 
L 411.309018 -2129.439512 
L 427.558318 -4111.232251 
L 443.807618 -7697.339996 
L 460.056918 -15130.781542 
L 476.306218 -30097.043032 
L 476.306218 -30566.961637 
L 476.306218 -30566.961637 
L 460.056918 -15507.088424 
L 443.807618 -7969.951241 
L 427.558318 -4330.226453 
L 411.309018 -2363.132178 
L 395.059718 -1396.909829 
L 378.810418 -775.617337 
L 362.561118 -436.79469 
L 346.311818 -278.08091 
L 330.062518 -76.188437 
L 313.813218 -11.927422 
L 297.563918 15.534214 
L 281.314618 35.158046 
L 265.065318 39.810407 
L 248.816018 39.385042 
L 232.566718 44.227637 
L 216.317418 46.435758 
L 200.068118 46.40671 
L 183.818818 46.700232 
L 167.569518 47.432994 
L 151.320218 47.477108 
L 135.070918 47.250692 
L 118.821618 47.564007 
L 102.572318 47.476467 
L 86.323018 47.417008 
z
" clip-path="url(#p4d628b3184)" style="fill: #2ca02c; fill-opacity: 0.2; stroke: #2ca02c; stroke-opacity: 0.2"/>
    </g>
    <g id="line2d_26">
     <path d="M 86.323018 89.318379 
L 102.572318 89.343426 
L 118.821618 89.217752 
L 135.070918 89.369067 
L 151.320218 89.384387 
L 167.569518 89.131505 
L 183.818818 88.918823 
L 200.068118 89.032027 
L 216.317418 88.608821 
L 232.566718 87.785597 
L 248.816018 88.16419 
L 265.065318 86.403215 
L 281.314618 85.343141 
L 297.563918 83.940081 
L 313.813218 80.530422 
L 330.062518 76.519553 
L 346.311818 69.825529 
L 361 58.658469 
" clip-path="url(#p4d628b3184)" style="fill: none; stroke: #1f77b4; stroke-width: 2; stroke-linecap: round"/>
     <g clip-path="url(#p4d628b3184)">
      <use xlink:href="#m8c31e7b237" x="86.323018" y="89.318379" style="fill: #1f77b4; stroke: #ffffff; stroke-width: 0.75"/>
      <use xlink:href="#m8c31e7b237" x="102.572318" y="89.343426" style="fill: #1f77b4; stroke: #ffffff; stroke-width: 0.75"/>
      <use xlink:href="#m8c31e7b237" x="118.821618" y="89.217752" style="fill: #1f77b4; stroke: #ffffff; stroke-width: 0.75"/>
      <use xlink:href="#m8c31e7b237" x="135.070918" y="89.369067" style="fill: #1f77b4; stroke: #ffffff; stroke-width: 0.75"/>
      <use xlink:href="#m8c31e7b237" x="151.320218" y="89.384387" style="fill: #1f77b4; stroke: #ffffff; stroke-width: 0.75"/>
      <use xlink:href="#m8c31e7b237" x="167.569518" y="89.131505" style="fill: #1f77b4; stroke: #ffffff; stroke-width: 0.75"/>
      <use xlink:href="#m8c31e7b237" x="183.818818" y="88.918823" style="fill: #1f77b4; stroke: #ffffff; stroke-width: 0.75"/>
      <use xlink:href="#m8c31e7b237" x="200.068118" y="89.032027" style="fill: #1f77b4; stroke: #ffffff; stroke-width: 0.75"/>
      <use xlink:href="#m8c31e7b237" x="216.317418" y="88.608821" style="fill: #1f77b4; stroke: #ffffff; stroke-width: 0.75"/>
      <use xlink:href="#m8c31e7b237" x="232.566718" y="87.785597" style="fill: #1f77b4; stroke: #ffffff; stroke-width: 0.75"/>
      <use xlink:href="#m8c31e7b237" x="248.816018" y="88.16419" style="fill: #1f77b4; stroke: #ffffff; stroke-width: 0.75"/>
      <use xlink:href="#m8c31e7b237" x="265.065318" y="86.403215" style="fill: #1f77b4; stroke: #ffffff; stroke-width: 0.75"/>
      <use xlink:href="#m8c31e7b237" x="281.314618" y="85.343141" style="fill: #1f77b4; stroke: #ffffff; stroke-width: 0.75"/>
      <use xlink:href="#m8c31e7b237" x="297.563918" y="83.940081" style="fill: #1f77b4; stroke: #ffffff; stroke-width: 0.75"/>
      <use xlink:href="#m8c31e7b237" x="313.813218" y="80.530422" style="fill: #1f77b4; stroke: #ffffff; stroke-width: 0.75"/>
      <use xlink:href="#m8c31e7b237" x="330.062518" y="76.519553" style="fill: #1f77b4; stroke: #ffffff; stroke-width: 0.75"/>
      <use xlink:href="#m8c31e7b237" x="346.311818" y="69.825529" style="fill: #1f77b4; stroke: #ffffff; stroke-width: 0.75"/>
      <use xlink:href="#m8c31e7b237" x="362.561118" y="57.471589" style="fill: #1f77b4; stroke: #ffffff; stroke-width: 0.75"/>
      <use xlink:href="#m8c31e7b237" x="378.810418" y="53.727488" style="fill: #1f77b4; stroke: #ffffff; stroke-width: 0.75"/>
      <use xlink:href="#m8c31e7b237" x="395.059718" y="23.777758" style="fill: #1f77b4; stroke: #ffffff; stroke-width: 0.75"/>
      <use xlink:href="#m8c31e7b237" x="404.173469" y="-1" style="fill: #1f77b4; stroke: #ffffff; stroke-width: 0.75"/>
     </g>
    </g>
    <g id="line2d_27">
     <path d="M 86.323018 89.22528 
L 102.572318 89.378925 
L 118.821618 89.3472 
L 135.070918 89.235871 
L 151.320218 89.123398 
L 167.569518 88.758735 
L 183.818818 88.606424 
L 200.068118 88.559081 
L 216.317418 87.814564 
L 232.566718 87.879419 
L 248.816018 83.32821 
L 265.065318 86.158137 
L 281.314618 85.078882 
L 297.563918 83.403287 
L 313.813218 79.673101 
L 330.062518 74.82125 
L 346.311818 66.742403 
L 361 52.11507 
" clip-path="url(#p4d628b3184)" style="fill: none; stroke-dasharray: 8,3; stroke-dashoffset: 0; stroke: #ff7f0e; stroke-width: 2"/>
     <g clip-path="url(#p4d628b3184)">
      <use xlink:href="#mbbfdca4089" x="86.323018" y="89.22528" style="fill: #ff7f0e; stroke: #ffffff; stroke-width: 0.75; stroke-linejoin: miter"/>
      <use xlink:href="#mbbfdca4089" x="102.572318" y="89.378925" style="fill: #ff7f0e; stroke: #ffffff; stroke-width: 0.75; stroke-linejoin: miter"/>
      <use xlink:href="#mbbfdca4089" x="118.821618" y="89.3472" style="fill: #ff7f0e; stroke: #ffffff; stroke-width: 0.75; stroke-linejoin: miter"/>
      <use xlink:href="#mbbfdca4089" x="135.070918" y="89.235871" style="fill: #ff7f0e; stroke: #ffffff; stroke-width: 0.75; stroke-linejoin: miter"/>
      <use xlink:href="#mbbfdca4089" x="151.320218" y="89.123398" style="fill: #ff7f0e; stroke: #ffffff; stroke-width: 0.75; stroke-linejoin: miter"/>
      <use xlink:href="#mbbfdca4089" x="167.569518" y="88.758735" style="fill: #ff7f0e; stroke: #ffffff; stroke-width: 0.75; stroke-linejoin: miter"/>
      <use xlink:href="#mbbfdca4089" x="183.818818" y="88.606424" style="fill: #ff7f0e; stroke: #ffffff; stroke-width: 0.75; stroke-linejoin: miter"/>
      <use xlink:href="#mbbfdca4089" x="200.068118" y="88.559081" style="fill: #ff7f0e; stroke: #ffffff; stroke-width: 0.75; stroke-linejoin: miter"/>
      <use xlink:href="#mbbfdca4089" x="216.317418" y="87.814564" style="fill: #ff7f0e; stroke: #ffffff; stroke-width: 0.75; stroke-linejoin: miter"/>
      <use xlink:href="#mbbfdca4089" x="232.566718" y="87.879419" style="fill: #ff7f0e; stroke: #ffffff; stroke-width: 0.75; stroke-linejoin: miter"/>
      <use xlink:href="#mbbfdca4089" x="248.816018" y="83.32821" style="fill: #ff7f0e; stroke: #ffffff; stroke-width: 0.75; stroke-linejoin: miter"/>
      <use xlink:href="#mbbfdca4089" x="265.065318" y="86.158137" style="fill: #ff7f0e; stroke: #ffffff; stroke-width: 0.75; stroke-linejoin: miter"/>
      <use xlink:href="#mbbfdca4089" x="281.314618" y="85.078882" style="fill: #ff7f0e; stroke: #ffffff; stroke-width: 0.75; stroke-linejoin: miter"/>
      <use xlink:href="#mbbfdca4089" x="297.563918" y="83.403287" style="fill: #ff7f0e; stroke: #ffffff; stroke-width: 0.75; stroke-linejoin: miter"/>
      <use xlink:href="#mbbfdca4089" x="313.813218" y="79.673101" style="fill: #ff7f0e; stroke: #ffffff; stroke-width: 0.75; stroke-linejoin: miter"/>
      <use xlink:href="#mbbfdca4089" x="330.062518" y="74.82125" style="fill: #ff7f0e; stroke: #ffffff; stroke-width: 0.75; stroke-linejoin: miter"/>
      <use xlink:href="#mbbfdca4089" x="346.311818" y="66.742403" style="fill: #ff7f0e; stroke: #ffffff; stroke-width: 0.75; stroke-linejoin: miter"/>
      <use xlink:href="#mbbfdca4089" x="362.561118" y="50.560419" style="fill: #ff7f0e; stroke: #ffffff; stroke-width: 0.75; stroke-linejoin: miter"/>
      <use xlink:href="#mbbfdca4089" x="378.810418" y="53.304952" style="fill: #ff7f0e; stroke: #ffffff; stroke-width: 0.75; stroke-linejoin: miter"/>
      <use xlink:href="#mbbfdca4089" x="395.059718" y="23.434756" style="fill: #ff7f0e; stroke: #ffffff; stroke-width: 0.75; stroke-linejoin: miter"/>
      <use xlink:href="#mbbfdca4089" x="404.015561" y="-1" style="fill: #ff7f0e; stroke: #ffffff; stroke-width: 0.75; stroke-linejoin: miter"/>
     </g>
    </g>
    <g id="line2d_28">
     <path d="M 86.323018 50.147607 
L 102.572318 50.202838 
L 118.821618 50.281359 
L 135.070918 50.139589 
L 151.320218 50.19868 
L 167.569518 50.174114 
L 183.818818 49.195086 
L 200.068118 49.016099 
L 216.317418 48.944059 
L 232.566718 47.104707 
L 248.816018 42.101759 
L 265.065318 43.89247 
L 281.314618 37.623572 
L 297.563918 22.779218 
L 310.258721 -1 
" clip-path="url(#p4d628b3184)" style="fill: none; stroke-dasharray: 2,2; stroke-dashoffset: 0; stroke: #2ca02c; stroke-width: 2"/>
     <g clip-path="url(#p4d628b3184)">
      <use xlink:href="#m3a905e65e9" x="86.323018" y="50.147607" style="fill: #2ca02c; stroke: #ffffff; stroke-width: 0.75; stroke-linejoin: miter"/>
      <use xlink:href="#m3a905e65e9" x="102.572318" y="50.202838" style="fill: #2ca02c; stroke: #ffffff; stroke-width: 0.75; stroke-linejoin: miter"/>
      <use xlink:href="#m3a905e65e9" x="118.821618" y="50.281359" style="fill: #2ca02c; stroke: #ffffff; stroke-width: 0.75; stroke-linejoin: miter"/>
      <use xlink:href="#m3a905e65e9" x="135.070918" y="50.139589" style="fill: #2ca02c; stroke: #ffffff; stroke-width: 0.75; stroke-linejoin: miter"/>
      <use xlink:href="#m3a905e65e9" x="151.320218" y="50.19868" style="fill: #2ca02c; stroke: #ffffff; stroke-width: 0.75; stroke-linejoin: miter"/>
      <use xlink:href="#m3a905e65e9" x="167.569518" y="50.174114" style="fill: #2ca02c; stroke: #ffffff; stroke-width: 0.75; stroke-linejoin: miter"/>
      <use xlink:href="#m3a905e65e9" x="183.818818" y="49.195086" style="fill: #2ca02c; stroke: #ffffff; stroke-width: 0.75; stroke-linejoin: miter"/>
      <use xlink:href="#m3a905e65e9" x="200.068118" y="49.016099" style="fill: #2ca02c; stroke: #ffffff; stroke-width: 0.75; stroke-linejoin: miter"/>
      <use xlink:href="#m3a905e65e9" x="216.317418" y="48.944059" style="fill: #2ca02c; stroke: #ffffff; stroke-width: 0.75; stroke-linejoin: miter"/>
      <use xlink:href="#m3a905e65e9" x="232.566718" y="47.104707" style="fill: #2ca02c; stroke: #ffffff; stroke-width: 0.75; stroke-linejoin: miter"/>
      <use xlink:href="#m3a905e65e9" x="248.816018" y="42.101759" style="fill: #2ca02c; stroke: #ffffff; stroke-width: 0.75; stroke-linejoin: miter"/>
      <use xlink:href="#m3a905e65e9" x="265.065318" y="43.89247" style="fill: #2ca02c; stroke: #ffffff; stroke-width: 0.75; stroke-linejoin: miter"/>
      <use xlink:href="#m3a905e65e9" x="281.314618" y="37.623572" style="fill: #2ca02c; stroke: #ffffff; stroke-width: 0.75; stroke-linejoin: miter"/>
      <use xlink:href="#m3a905e65e9" x="297.563918" y="22.779218" style="fill: #2ca02c; stroke: #ffffff; stroke-width: 0.75; stroke-linejoin: miter"/>
      <use xlink:href="#m3a905e65e9" x="310.258721" y="-1" style="fill: #2ca02c; stroke: #ffffff; stroke-width: 0.75; stroke-linejoin: miter"/>
     </g>
    </g>
    <g id="patch_8">
     <path d="M 86.323018 93.506 
L 86.323018 23.524 
" style="fill: none; stroke: #cccccc; stroke-width: 0.8; stroke-linejoin: miter; stroke-linecap: square"/>
    </g>
    <g id="patch_9">
     <path d="M 216.317418 93.506 
L 216.317418 23.524 
" style="fill: none; stroke: #cccccc; stroke-width: 0.8; stroke-linejoin: miter; stroke-linecap: square"/>
    </g>
    <g id="patch_10">
     <path d="M 86.323018 93.506 
L 216.317418 93.506 
" style="fill: none; stroke: #cccccc; stroke-width: 0.8; stroke-linejoin: miter; stroke-linecap: square"/>
    </g>
    <g id="patch_11">
     <path d="M 86.323018 23.524 
L 216.317418 23.524 
" style="fill: none; stroke: #cccccc; stroke-width: 0.8; stroke-linejoin: miter; stroke-linecap: square"/>
    </g>
   </g>
  </g>
  <g id="legend_1">
   <g id="patch_12">
    <path d="M 22.604687 17.678125 
L 337.395313 17.678125 
Q 339.395313 17.678125 339.395313 15.678125 
L 339.395313 2 
Q 339.395313 0 337.395313 0 
L 22.604687 0 
Q 20.604687 0 20.604687 2 
L 20.604687 15.678125 
Q 20.604687 17.678125 22.604687 17.678125 
z
" style="fill: #ffffff; opacity: 0.8; stroke: #cccccc; stroke-linejoin: miter"/>
   </g>
   <g id="line2d_29">
    <path d="M 24.604687 8.098437 
L 34.604687 8.098437 
L 44.604687 8.098437 
" style="fill: none; stroke: #1f77b4; stroke-width: 2; stroke-linecap: round"/>
    <g>
     <use xlink:href="#m8c31e7b237" x="34.604687" y="8.098437" style="fill: #1f77b4; stroke: #ffffff; stroke-width: 0.75"/>
    </g>
   </g>
   <g id="text_23">
    <!-- Genoa-Native -->
    <g style="fill: #262626" transform="translate(52.604687 11.598437) scale(0.1 -0.1)">
     <defs>
      <path id="DejaVuSans-6f" d="M 1959 3097 
Q 1497 3097 1228 2736 
Q 959 2375 959 1747 
Q 959 1119 1226 758 
Q 1494 397 1959 397 
Q 2419 397 2687 759 
Q 2956 1122 2956 1747 
Q 2956 2369 2687 2733 
Q 2419 3097 1959 3097 
z
M 1959 3584 
Q 2709 3584 3137 3096 
Q 3566 2609 3566 1747 
Q 3566 888 3137 398 
Q 2709 -91 1959 -91 
Q 1206 -91 779 398 
Q 353 888 353 1747 
Q 353 2609 779 3096 
Q 1206 3584 1959 3584 
z
" transform="scale(0.015625)"/>
      <path id="DejaVuSans-2d" d="M 313 2009 
L 1997 2009 
L 1997 1497 
L 313 1497 
L 313 2009 
z
" transform="scale(0.015625)"/>
      <path id="DejaVuSans-4e" d="M 628 4666 
L 1478 4666 
L 3547 763 
L 3547 4666 
L 4159 4666 
L 4159 0 
L 3309 0 
L 1241 3903 
L 1241 0 
L 628 0 
L 628 4666 
z
" transform="scale(0.015625)"/>
      <path id="DejaVuSans-76" d="M 191 3500 
L 800 3500 
L 1894 563 
L 2988 3500 
L 3597 3500 
L 2284 0 
L 1503 0 
L 191 3500 
z
" transform="scale(0.015625)"/>
     </defs>
     <use xlink:href="#DejaVuSans-47"/>
     <use xlink:href="#DejaVuSans-65" x="77.490234"/>
     <use xlink:href="#DejaVuSans-6e" x="139.013672"/>
     <use xlink:href="#DejaVuSans-6f" x="202.392578"/>
     <use xlink:href="#DejaVuSans-61" x="263.574219"/>
     <use xlink:href="#DejaVuSans-2d" x="324.853516"/>
     <use xlink:href="#DejaVuSans-4e" x="360.9375"/>
     <use xlink:href="#DejaVuSans-61" x="435.742188"/>
     <use xlink:href="#DejaVuSans-74" x="497.021484"/>
     <use xlink:href="#DejaVuSans-69" x="536.230469"/>
     <use xlink:href="#DejaVuSans-76" x="564.013672"/>
     <use xlink:href="#DejaVuSans-65" x="623.193359"/>
    </g>
   </g>
   <g id="line2d_30">
    <path d="M 122.078125 8.098437 
L 132.078125 8.098437 
L 142.078125 8.098437 
" style="fill: none; stroke-dasharray: 8,3; stroke-dashoffset: 0; stroke: #ff7f0e; stroke-width: 2"/>
    <g>
     <use xlink:href="#mbbfdca4089" x="132.078125" y="8.098437" style="fill: #ff7f0e; stroke: #ffffff; stroke-width: 0.75; stroke-linejoin: miter"/>
    </g>
   </g>
   <g id="text_24">
    <!-- Genoa-Hybrid -->
    <g style="fill: #262626" transform="translate(150.078125 11.598437) scale(0.1 -0.1)">
     <defs>
      <path id="DejaVuSans-48" d="M 628 4666 
L 1259 4666 
L 1259 2753 
L 3553 2753 
L 3553 4666 
L 4184 4666 
L 4184 0 
L 3553 0 
L 3553 2222 
L 1259 2222 
L 1259 0 
L 628 0 
L 628 4666 
z
" transform="scale(0.015625)"/>
      <path id="DejaVuSans-79" d="M 2059 -325 
Q 1816 -950 1584 -1140 
Q 1353 -1331 966 -1331 
L 506 -1331 
L 506 -850 
L 844 -850 
Q 1081 -850 1212 -737 
Q 1344 -625 1503 -206 
L 1606 56 
L 191 3500 
L 800 3500 
L 1894 763 
L 2988 3500 
L 3597 3500 
L 2059 -325 
z
" transform="scale(0.015625)"/>
      <path id="DejaVuSans-72" d="M 2631 2963 
Q 2534 3019 2420 3045 
Q 2306 3072 2169 3072 
Q 1681 3072 1420 2755 
Q 1159 2438 1159 1844 
L 1159 0 
L 581 0 
L 581 3500 
L 1159 3500 
L 1159 2956 
Q 1341 3275 1631 3429 
Q 1922 3584 2338 3584 
Q 2397 3584 2469 3576 
Q 2541 3569 2628 3553 
L 2631 2963 
z
" transform="scale(0.015625)"/>
     </defs>
     <use xlink:href="#DejaVuSans-47"/>
     <use xlink:href="#DejaVuSans-65" x="77.490234"/>
     <use xlink:href="#DejaVuSans-6e" x="139.013672"/>
     <use xlink:href="#DejaVuSans-6f" x="202.392578"/>
     <use xlink:href="#DejaVuSans-61" x="263.574219"/>
     <use xlink:href="#DejaVuSans-2d" x="324.853516"/>
     <use xlink:href="#DejaVuSans-48" x="360.9375"/>
     <use xlink:href="#DejaVuSans-79" x="436.132812"/>
     <use xlink:href="#DejaVuSans-62" x="495.3125"/>
     <use xlink:href="#DejaVuSans-72" x="558.789062"/>
     <use xlink:href="#DejaVuSans-69" x="599.902344"/>
     <use xlink:href="#DejaVuSans-64" x="627.685547"/>
    </g>
   </g>
   <g id="line2d_31">
    <path d="M 220.196875 8.098437 
L 230.196875 8.098437 
L 240.196875 8.098437 
" style="fill: none; stroke-dasharray: 2,2; stroke-dashoffset: 0; stroke: #2ca02c; stroke-width: 2"/>
    <g>
     <use xlink:href="#m3a905e65e9" x="230.196875" y="8.098437" style="fill: #2ca02c; stroke: #ffffff; stroke-width: 0.75; stroke-linejoin: miter"/>
    </g>
   </g>
   <g id="text_25">
    <!-- Genoa-Contained -->
    <g style="fill: #262626" transform="translate(248.196875 11.598437) scale(0.1 -0.1)">
     <defs>
      <path id="DejaVuSans-43" d="M 4122 4306 
L 4122 3641 
Q 3803 3938 3442 4084 
Q 3081 4231 2675 4231 
Q 1875 4231 1450 3742 
Q 1025 3253 1025 2328 
Q 1025 1406 1450 917 
Q 1875 428 2675 428 
Q 3081 428 3442 575 
Q 3803 722 4122 1019 
L 4122 359 
Q 3791 134 3420 21 
Q 3050 -91 2638 -91 
Q 1578 -91 968 557 
Q 359 1206 359 2328 
Q 359 3453 968 4101 
Q 1578 4750 2638 4750 
Q 3056 4750 3426 4639 
Q 3797 4528 4122 4306 
z
" transform="scale(0.015625)"/>
     </defs>
     <use xlink:href="#DejaVuSans-47"/>
     <use xlink:href="#DejaVuSans-65" x="77.490234"/>
     <use xlink:href="#DejaVuSans-6e" x="139.013672"/>
     <use xlink:href="#DejaVuSans-6f" x="202.392578"/>
     <use xlink:href="#DejaVuSans-61" x="263.574219"/>
     <use xlink:href="#DejaVuSans-2d" x="324.853516"/>
     <use xlink:href="#DejaVuSans-43" x="360.9375"/>
     <use xlink:href="#DejaVuSans-6f" x="430.761719"/>
     <use xlink:href="#DejaVuSans-6e" x="491.943359"/>
     <use xlink:href="#DejaVuSans-74" x="555.322266"/>
     <use xlink:href="#DejaVuSans-61" x="594.53125"/>
     <use xlink:href="#DejaVuSans-69" x="655.810547"/>
     <use xlink:href="#DejaVuSans-6e" x="683.59375"/>
     <use xlink:href="#DejaVuSans-65" x="746.972656"/>
     <use xlink:href="#DejaVuSans-64" x="808.496094"/>
    </g>
   </g>
  </g>
 </g>
 <defs>
  <clipPath id="p854ca39f14">
   <rect x="50.87" y="10.8" width="295.441818" height="127.24"/>
  </clipPath>
  <clipPath id="p4d628b3184">
   <rect x="86.323018" y="23.524" width="129.9944" height="69.982"/>
  </clipPath>
 </defs>
</svg>
